<?xml version="1.0" standalone="no"?>
<!DOCTYPE svg PUBLIC "-//W3C//DTD SVG 20010904//EN"
 "http://www.w3.org/TR/2001/REC-SVG-20010904/DTD/svg10.dtd">
<svg version="1.0" xmlns="http://www.w3.org/2000/svg"
 width="716.000000pt" height="18.000000pt" viewBox="0 0 716.000000 18.000000"
 preserveAspectRatio="xMidYMid meet">

<g transform="translate(0.000000,18.000000) scale(0.100000,-0.100000)"
fill="#000000" stroke="none">
<path d="M690 115 c-56 -8 -181 -12 -362 -9 -153 1 -278 -1 -278 -6 0 -4 17
-10 38 -12 61 -8 545 -2 707 8 83 5 229 8 325 8 1819 -13 2292 -17 3155 -30
366 -5 2195 -9 2653 -5 126 1 163 4 160 13 -4 10 -45 12 -174 11 -295 -5
-2234 -3 -2366 1 -85 3 -128 1 -128 -6 0 -7 -4 -7 -12 -1 -7 6 -20 11 -28 11
-66 5 -670 3 -678 -2 -5 -3 -12 -3 -15 0 -8 9 -175 11 -1152 19 -1556 13
-1754 13 -1845 0z"/>
</g>
</svg>
