var Dreams = {
  "header": {
    "keySignatures": [
      {
        "key": "C",
        "scale": "major",
        "ticks": 0
      }
    ],
    "meta": [
      {
        "text": "Sequenced by vince94",
        "ticks": 0,
        "type": "text"
      }
    ],
    "name": "Dreams of Love and Literature",
    "ppq": 120,
    "tempos": [
      {
        "bpm": 100,
        "ticks": 0
      }
    ],
    "timeSignatures": [
      {
        "ticks": 0,
        "timeSignature": [
          4,
          4
        ],
        "measures": 0
      }
    ]
  },
  "tracks": [
    {
      "channel": 0,
      "controlChanges": {
        "0": [
          {
            "number": 0,
            "ticks": 120,
            "time": 0.6,
            "value": 0
          }
        ],
        "1": [
          {
            "number": 1,
            "ticks": 150,
            "time": 0.75,
            "value": 0
          }
        ],
        "7": [
          {
            "number": 7,
            "ticks": 160,
            "time": 0.7999999999999999,
            "value": 0.7874015748031497
          }
        ],
        "10": [
          {
            "number": 10,
            "ticks": 170,
            "time": 0.85,
            "value": 0.5039370078740157
          }
        ],
        "11": [
          {
            "number": 11,
            "ticks": 180,
            "time": 0.8999999999999999,
            "value": 1
          }
        ],
        "32": [
          {
            "number": 32,
            "ticks": 130,
            "time": 0.6499999999999999,
            "value": 0
          }
        ],
        "64": [
          {
            "number": 64,
            "ticks": 190,
            "time": 0.95,
            "value": 0
          }
        ],
        "91": [
          {
            "number": 91,
            "ticks": 200,
            "time": 1,
            "value": 0.31496062992125984
          }
        ],
        "93": [
          {
            "number": 93,
            "ticks": 210,
            "time": 1.05,
            "value": 0
          }
        ],
        "94": [
          {
            "number": 94,
            "ticks": 220,
            "time": 1.0999999999999999,
            "value": 0
          }
        ]
      },
      "pitchBends": [],
      "instrument": {
        "family": "piano",
        "number": 0,
        "name": "acoustic grand piano"
      },
      "name": "Piano",
      "notes": [
        {
          "duration": 1.2000000000000002,
          "durationTicks": 240,
          "midi": 64,
          "name": "E4",
          "ticks": 960,
          "time": 4.8,
          "velocity": 0.7874015748031497
        },
        {
          "duration": 1.2000000000000002,
          "durationTicks": 240,
          "midi": 55,
          "name": "G3",
          "ticks": 960,
          "time": 4.8,
          "velocity": 0.7874015748031497
        },
        {
          "duration": 1.2000000000000002,
          "durationTicks": 240,
          "midi": 60,
          "name": "C4",
          "ticks": 960,
          "time": 4.8,
          "velocity": 0.7874015748031497
        },
        {
          "duration": 1.1999999999999993,
          "durationTicks": 240,
          "midi": 65,
          "name": "F4",
          "ticks": 1200,
          "time": 6,
          "velocity": 0.7874015748031497
        },
        {
          "duration": 1.1999999999999993,
          "durationTicks": 240,
          "midi": 57,
          "name": "A3",
          "ticks": 1200,
          "time": 6,
          "velocity": 0.7874015748031497
        },
        {
          "duration": 1.1999999999999993,
          "durationTicks": 240,
          "midi": 60,
          "name": "C4",
          "ticks": 1200,
          "time": 6,
          "velocity": 0.7874015748031497
        },
        {
          "duration": 1.200000000000001,
          "durationTicks": 240,
          "midi": 67,
          "name": "G4",
          "ticks": 1440,
          "time": 7.199999999999999,
          "velocity": 0.7874015748031497
        },
        {
          "duration": 1.200000000000001,
          "durationTicks": 240,
          "midi": 59,
          "name": "B3",
          "ticks": 1440,
          "time": 7.199999999999999,
          "velocity": 0.7874015748031497
        },
        {
          "duration": 1.200000000000001,
          "durationTicks": 240,
          "midi": 55,
          "name": "G3",
          "ticks": 1440,
          "time": 7.199999999999999,
          "velocity": 0.7874015748031497
        },
        {
          "duration": 1.1999999999999993,
          "durationTicks": 240,
          "midi": 65,
          "name": "F4",
          "ticks": 1680,
          "time": 8.4,
          "velocity": 0.7874015748031497
        },
        {
          "duration": 1.1999999999999993,
          "durationTicks": 240,
          "midi": 57,
          "name": "A3",
          "ticks": 1680,
          "time": 8.4,
          "velocity": 0.7874015748031497
        },
        {
          "duration": 1.1999999999999993,
          "durationTicks": 240,
          "midi": 53,
          "name": "F3",
          "ticks": 1680,
          "time": 8.4,
          "velocity": 0.7874015748031497
        },
        {
          "duration": 1.1999999999999993,
          "durationTicks": 240,
          "midi": 64,
          "name": "E4",
          "ticks": 1920,
          "time": 9.6,
          "velocity": 0.7874015748031497
        },
        {
          "duration": 1.1999999999999993,
          "durationTicks": 240,
          "midi": 55,
          "name": "G3",
          "ticks": 1920,
          "time": 9.6,
          "velocity": 0.7874015748031497
        },
        {
          "duration": 1.1999999999999993,
          "durationTicks": 240,
          "midi": 60,
          "name": "C4",
          "ticks": 1920,
          "time": 9.6,
          "velocity": 0.7874015748031497
        },
        {
          "duration": 1.200000000000001,
          "durationTicks": 240,
          "midi": 65,
          "name": "F4",
          "ticks": 2160,
          "time": 10.799999999999999,
          "velocity": 0.7874015748031497
        },
        {
          "duration": 1.200000000000001,
          "durationTicks": 240,
          "midi": 57,
          "name": "A3",
          "ticks": 2160,
          "time": 10.799999999999999,
          "velocity": 0.7874015748031497
        },
        {
          "duration": 1.200000000000001,
          "durationTicks": 240,
          "midi": 60,
          "name": "C4",
          "ticks": 2160,
          "time": 10.799999999999999,
          "velocity": 0.7874015748031497
        },
        {
          "duration": 1.1999999999999993,
          "durationTicks": 240,
          "midi": 67,
          "name": "G4",
          "ticks": 2400,
          "time": 12,
          "velocity": 0.7874015748031497
        },
        {
          "duration": 1.1999999999999993,
          "durationTicks": 240,
          "midi": 59,
          "name": "B3",
          "ticks": 2400,
          "time": 12,
          "velocity": 0.7874015748031497
        },
        {
          "duration": 1.1999999999999993,
          "durationTicks": 240,
          "midi": 55,
          "name": "G3",
          "ticks": 2400,
          "time": 12,
          "velocity": 0.7874015748031497
        },
        {
          "duration": 1.1999999999999993,
          "durationTicks": 240,
          "midi": 65,
          "name": "F4",
          "ticks": 2640,
          "time": 13.2,
          "velocity": 0.7874015748031497
        },
        {
          "duration": 1.1999999999999993,
          "durationTicks": 240,
          "midi": 57,
          "name": "A3",
          "ticks": 2640,
          "time": 13.2,
          "velocity": 0.7874015748031497
        },
        {
          "duration": 1.1999999999999993,
          "durationTicks": 240,
          "midi": 53,
          "name": "F3",
          "ticks": 2640,
          "time": 13.2,
          "velocity": 0.7874015748031497
        },
        {
          "duration": 1.200000000000001,
          "durationTicks": 240,
          "midi": 64,
          "name": "E4",
          "ticks": 2880,
          "time": 14.399999999999999,
          "velocity": 0.7874015748031497
        },
        {
          "duration": 1.200000000000001,
          "durationTicks": 240,
          "midi": 55,
          "name": "G3",
          "ticks": 2880,
          "time": 14.399999999999999,
          "velocity": 0.7874015748031497
        },
        {
          "duration": 1.200000000000001,
          "durationTicks": 240,
          "midi": 60,
          "name": "C4",
          "ticks": 2880,
          "time": 14.399999999999999,
          "velocity": 0.7874015748031497
        },
        {
          "duration": 1.200000000000001,
          "durationTicks": 240,
          "midi": 65,
          "name": "F4",
          "ticks": 3120,
          "time": 15.6,
          "velocity": 0.7874015748031497
        },
        {
          "duration": 1.200000000000001,
          "durationTicks": 240,
          "midi": 57,
          "name": "A3",
          "ticks": 3120,
          "time": 15.6,
          "velocity": 0.7874015748031497
        },
        {
          "duration": 1.200000000000001,
          "durationTicks": 240,
          "midi": 60,
          "name": "C4",
          "ticks": 3120,
          "time": 15.6,
          "velocity": 0.7874015748031497
        },
        {
          "duration": 1.1999999999999993,
          "durationTicks": 240,
          "midi": 67,
          "name": "G4",
          "ticks": 3360,
          "time": 16.8,
          "velocity": 0.7874015748031497
        },
        {
          "duration": 1.1999999999999993,
          "durationTicks": 240,
          "midi": 55,
          "name": "G3",
          "ticks": 3360,
          "time": 16.8,
          "velocity": 0.7874015748031497
        },
        {
          "duration": 1.1999999999999993,
          "durationTicks": 240,
          "midi": 65,
          "name": "F4",
          "ticks": 3600,
          "time": 18,
          "velocity": 0.7874015748031497
        },
        {
          "duration": 1.1999999999999993,
          "durationTicks": 240,
          "midi": 57,
          "name": "A3",
          "ticks": 3600,
          "time": 18,
          "velocity": 0.7874015748031497
        },
        {
          "duration": 1.1999999999999993,
          "durationTicks": 240,
          "midi": 53,
          "name": "F3",
          "ticks": 3600,
          "time": 18,
          "velocity": 0.7874015748031497
        },
        {
          "duration": 1.1999999999999993,
          "durationTicks": 240,
          "midi": 64,
          "name": "E4",
          "ticks": 3840,
          "time": 19.2,
          "velocity": 0.7874015748031497
        },
        {
          "duration": 1.1999999999999993,
          "durationTicks": 240,
          "midi": 55,
          "name": "G3",
          "ticks": 3840,
          "time": 19.2,
          "velocity": 0.7874015748031497
        },
        {
          "duration": 1.1999999999999993,
          "durationTicks": 240,
          "midi": 60,
          "name": "C4",
          "ticks": 3840,
          "time": 19.2,
          "velocity": 0.7874015748031497
        },
        {
          "duration": 1.1999999999999993,
          "durationTicks": 240,
          "midi": 65,
          "name": "F4",
          "ticks": 4080,
          "time": 20.4,
          "velocity": 0.7874015748031497
        },
        {
          "duration": 1.1999999999999993,
          "durationTicks": 240,
          "midi": 57,
          "name": "A3",
          "ticks": 4080,
          "time": 20.4,
          "velocity": 0.7874015748031497
        },
        {
          "duration": 1.1999999999999993,
          "durationTicks": 240,
          "midi": 60,
          "name": "C4",
          "ticks": 4080,
          "time": 20.4,
          "velocity": 0.7874015748031497
        },
        {
          "duration": 1.2000000000000028,
          "durationTicks": 240,
          "midi": 67,
          "name": "G4",
          "ticks": 4320,
          "time": 21.599999999999998,
          "velocity": 0.7874015748031497
        },
        {
          "duration": 1.2000000000000028,
          "durationTicks": 240,
          "midi": 59,
          "name": "B3",
          "ticks": 4320,
          "time": 21.599999999999998,
          "velocity": 0.7874015748031497
        },
        {
          "duration": 1.2000000000000028,
          "durationTicks": 240,
          "midi": 55,
          "name": "G3",
          "ticks": 4320,
          "time": 21.599999999999998,
          "velocity": 0.7874015748031497
        },
        {
          "duration": 1.1999999999999993,
          "durationTicks": 240,
          "midi": 65,
          "name": "F4",
          "ticks": 4560,
          "time": 22.8,
          "velocity": 0.7874015748031497
        },
        {
          "duration": 1.1999999999999993,
          "durationTicks": 240,
          "midi": 57,
          "name": "A3",
          "ticks": 4560,
          "time": 22.8,
          "velocity": 0.7874015748031497
        },
        {
          "duration": 1.1999999999999993,
          "durationTicks": 240,
          "midi": 53,
          "name": "F3",
          "ticks": 4560,
          "time": 22.8,
          "velocity": 0.7874015748031497
        },
        {
          "duration": 1.1999999999999993,
          "durationTicks": 240,
          "midi": 64,
          "name": "E4",
          "ticks": 4800,
          "time": 24,
          "velocity": 0.7874015748031497
        },
        {
          "duration": 1.1999999999999993,
          "durationTicks": 240,
          "midi": 55,
          "name": "G3",
          "ticks": 4800,
          "time": 24,
          "velocity": 0.7874015748031497
        },
        {
          "duration": 1.1999999999999993,
          "durationTicks": 240,
          "midi": 60,
          "name": "C4",
          "ticks": 4800,
          "time": 24,
          "velocity": 0.7874015748031497
        },
        {
          "duration": 1.1999999999999993,
          "durationTicks": 240,
          "midi": 65,
          "name": "F4",
          "ticks": 5040,
          "time": 25.2,
          "velocity": 0.7874015748031497
        },
        {
          "duration": 1.1999999999999993,
          "durationTicks": 240,
          "midi": 57,
          "name": "A3",
          "ticks": 5040,
          "time": 25.2,
          "velocity": 0.7874015748031497
        },
        {
          "duration": 1.1999999999999993,
          "durationTicks": 240,
          "midi": 60,
          "name": "C4",
          "ticks": 5040,
          "time": 25.2,
          "velocity": 0.7874015748031497
        },
        {
          "duration": 1.1999999999999993,
          "durationTicks": 240,
          "midi": 67,
          "name": "G4",
          "ticks": 5280,
          "time": 26.4,
          "velocity": 0.7874015748031497
        },
        {
          "duration": 1.1999999999999993,
          "durationTicks": 240,
          "midi": 59,
          "name": "B3",
          "ticks": 5280,
          "time": 26.4,
          "velocity": 0.7874015748031497
        },
        {
          "duration": 1.1999999999999993,
          "durationTicks": 240,
          "midi": 55,
          "name": "G3",
          "ticks": 5280,
          "time": 26.4,
          "velocity": 0.7874015748031497
        },
        {
          "duration": 1.1999999999999993,
          "durationTicks": 240,
          "midi": 65,
          "name": "F4",
          "ticks": 5520,
          "time": 27.599999999999998,
          "velocity": 0.7874015748031497
        },
        {
          "duration": 1.1999999999999993,
          "durationTicks": 240,
          "midi": 57,
          "name": "A3",
          "ticks": 5520,
          "time": 27.599999999999998,
          "velocity": 0.7874015748031497
        },
        {
          "duration": 1.1999999999999993,
          "durationTicks": 240,
          "midi": 53,
          "name": "F3",
          "ticks": 5520,
          "time": 27.599999999999998,
          "velocity": 0.7874015748031497
        },
        {
          "duration": 1.2000000000000028,
          "durationTicks": 240,
          "midi": 64,
          "name": "E4",
          "ticks": 5760,
          "time": 28.799999999999997,
          "velocity": 0.7874015748031497
        },
        {
          "duration": 1.2000000000000028,
          "durationTicks": 240,
          "midi": 55,
          "name": "G3",
          "ticks": 5760,
          "time": 28.799999999999997,
          "velocity": 0.7874015748031497
        },
        {
          "duration": 1.2000000000000028,
          "durationTicks": 240,
          "midi": 60,
          "name": "C4",
          "ticks": 5760,
          "time": 28.799999999999997,
          "velocity": 0.7874015748031497
        },
        {
          "duration": 1.1999999999999993,
          "durationTicks": 240,
          "midi": 65,
          "name": "F4",
          "ticks": 6000,
          "time": 30,
          "velocity": 0.7874015748031497
        },
        {
          "duration": 1.1999999999999993,
          "durationTicks": 240,
          "midi": 57,
          "name": "A3",
          "ticks": 6000,
          "time": 30,
          "velocity": 0.7874015748031497
        },
        {
          "duration": 1.1999999999999993,
          "durationTicks": 240,
          "midi": 60,
          "name": "C4",
          "ticks": 6000,
          "time": 30,
          "velocity": 0.7874015748031497
        },
        {
          "duration": 1.1999999999999993,
          "durationTicks": 240,
          "midi": 67,
          "name": "G4",
          "ticks": 6240,
          "time": 31.2,
          "velocity": 0.7874015748031497
        },
        {
          "duration": 1.1999999999999993,
          "durationTicks": 240,
          "midi": 59,
          "name": "B3",
          "ticks": 6240,
          "time": 31.2,
          "velocity": 0.7874015748031497
        },
        {
          "duration": 1.1999999999999993,
          "durationTicks": 240,
          "midi": 55,
          "name": "G3",
          "ticks": 6240,
          "time": 31.2,
          "velocity": 0.7874015748031497
        },
        {
          "duration": 1.2000000000000028,
          "durationTicks": 240,
          "midi": 65,
          "name": "F4",
          "ticks": 6480,
          "time": 32.4,
          "velocity": 0.7874015748031497
        },
        {
          "duration": 1.2000000000000028,
          "durationTicks": 240,
          "midi": 57,
          "name": "A3",
          "ticks": 6480,
          "time": 32.4,
          "velocity": 0.7874015748031497
        },
        {
          "duration": 1.2000000000000028,
          "durationTicks": 240,
          "midi": 53,
          "name": "F3",
          "ticks": 6480,
          "time": 32.4,
          "velocity": 0.7874015748031497
        },
        {
          "duration": 1.1999999999999957,
          "durationTicks": 240,
          "midi": 64,
          "name": "E4",
          "ticks": 6720,
          "time": 33.6,
          "velocity": 0.7874015748031497
        },
        {
          "duration": 1.1999999999999957,
          "durationTicks": 240,
          "midi": 55,
          "name": "G3",
          "ticks": 6720,
          "time": 33.6,
          "velocity": 0.7874015748031497
        },
        {
          "duration": 1.1999999999999957,
          "durationTicks": 240,
          "midi": 60,
          "name": "C4",
          "ticks": 6720,
          "time": 33.6,
          "velocity": 0.7874015748031497
        },
        {
          "duration": 1.2000000000000028,
          "durationTicks": 240,
          "midi": 65,
          "name": "F4",
          "ticks": 6960,
          "time": 34.8,
          "velocity": 0.7874015748031497
        },
        {
          "duration": 1.2000000000000028,
          "durationTicks": 240,
          "midi": 57,
          "name": "A3",
          "ticks": 6960,
          "time": 34.8,
          "velocity": 0.7874015748031497
        },
        {
          "duration": 1.2000000000000028,
          "durationTicks": 240,
          "midi": 60,
          "name": "C4",
          "ticks": 6960,
          "time": 34.8,
          "velocity": 0.7874015748031497
        },
        {
          "duration": 1.1999999999999957,
          "durationTicks": 240,
          "midi": 67,
          "name": "G4",
          "ticks": 7200,
          "time": 36,
          "velocity": 0.7874015748031497
        },
        {
          "duration": 1.1999999999999957,
          "durationTicks": 240,
          "midi": 59,
          "name": "B3",
          "ticks": 7200,
          "time": 36,
          "velocity": 0.7874015748031497
        },
        {
          "duration": 1.1999999999999957,
          "durationTicks": 240,
          "midi": 55,
          "name": "G3",
          "ticks": 7200,
          "time": 36,
          "velocity": 0.7874015748031497
        },
        {
          "duration": 1.2000000000000028,
          "durationTicks": 240,
          "midi": 65,
          "name": "F4",
          "ticks": 7440,
          "time": 37.199999999999996,
          "velocity": 0.7874015748031497
        },
        {
          "duration": 1.2000000000000028,
          "durationTicks": 240,
          "midi": 57,
          "name": "A3",
          "ticks": 7440,
          "time": 37.199999999999996,
          "velocity": 0.7874015748031497
        },
        {
          "duration": 1.2000000000000028,
          "durationTicks": 240,
          "midi": 53,
          "name": "F3",
          "ticks": 7440,
          "time": 37.199999999999996,
          "velocity": 0.7874015748031497
        },
        {
          "duration": 1.2000000000000028,
          "durationTicks": 240,
          "midi": 64,
          "name": "E4",
          "ticks": 7680,
          "time": 38.4,
          "velocity": 0.7874015748031497
        },
        {
          "duration": 1.2000000000000028,
          "durationTicks": 240,
          "midi": 55,
          "name": "G3",
          "ticks": 7680,
          "time": 38.4,
          "velocity": 0.7874015748031497
        },
        {
          "duration": 1.2000000000000028,
          "durationTicks": 240,
          "midi": 60,
          "name": "C4",
          "ticks": 7680,
          "time": 38.4,
          "velocity": 0.7874015748031497
        },
        {
          "duration": 1.1999999999999957,
          "durationTicks": 240,
          "midi": 65,
          "name": "F4",
          "ticks": 7920,
          "time": 39.6,
          "velocity": 0.7874015748031497
        },
        {
          "duration": 1.1999999999999957,
          "durationTicks": 240,
          "midi": 57,
          "name": "A3",
          "ticks": 7920,
          "time": 39.6,
          "velocity": 0.7874015748031497
        },
        {
          "duration": 1.1999999999999957,
          "durationTicks": 240,
          "midi": 60,
          "name": "C4",
          "ticks": 7920,
          "time": 39.6,
          "velocity": 0.7874015748031497
        },
        {
          "duration": 1.2000000000000028,
          "durationTicks": 240,
          "midi": 67,
          "name": "G4",
          "ticks": 8160,
          "time": 40.8,
          "velocity": 0.7874015748031497
        },
        {
          "duration": 1.2000000000000028,
          "durationTicks": 240,
          "midi": 59,
          "name": "B3",
          "ticks": 8160,
          "time": 40.8,
          "velocity": 0.7874015748031497
        },
        {
          "duration": 1.2000000000000028,
          "durationTicks": 240,
          "midi": 55,
          "name": "G3",
          "ticks": 8160,
          "time": 40.8,
          "velocity": 0.7874015748031497
        },
        {
          "duration": 1.1999999999999957,
          "durationTicks": 240,
          "midi": 65,
          "name": "F4",
          "ticks": 8400,
          "time": 42,
          "velocity": 0.7874015748031497
        },
        {
          "duration": 1.1999999999999957,
          "durationTicks": 240,
          "midi": 57,
          "name": "A3",
          "ticks": 8400,
          "time": 42,
          "velocity": 0.7874015748031497
        },
        {
          "duration": 1.1999999999999957,
          "durationTicks": 240,
          "midi": 53,
          "name": "F3",
          "ticks": 8400,
          "time": 42,
          "velocity": 0.7874015748031497
        },
        {
          "duration": 1.2000000000000028,
          "durationTicks": 240,
          "midi": 64,
          "name": "E4",
          "ticks": 8640,
          "time": 43.199999999999996,
          "velocity": 0.7874015748031497
        },
        {
          "duration": 1.2000000000000028,
          "durationTicks": 240,
          "midi": 55,
          "name": "G3",
          "ticks": 8640,
          "time": 43.199999999999996,
          "velocity": 0.7874015748031497
        },
        {
          "duration": 1.2000000000000028,
          "durationTicks": 240,
          "midi": 60,
          "name": "C4",
          "ticks": 8640,
          "time": 43.199999999999996,
          "velocity": 0.7874015748031497
        },
        {
          "duration": 1.2000000000000028,
          "durationTicks": 240,
          "midi": 65,
          "name": "F4",
          "ticks": 8880,
          "time": 44.4,
          "velocity": 0.7874015748031497
        },
        {
          "duration": 1.2000000000000028,
          "durationTicks": 240,
          "midi": 57,
          "name": "A3",
          "ticks": 8880,
          "time": 44.4,
          "velocity": 0.7874015748031497
        },
        {
          "duration": 1.2000000000000028,
          "durationTicks": 240,
          "midi": 60,
          "name": "C4",
          "ticks": 8880,
          "time": 44.4,
          "velocity": 0.7874015748031497
        },
        {
          "duration": 1.1999999999999957,
          "durationTicks": 240,
          "midi": 67,
          "name": "G4",
          "ticks": 9120,
          "time": 45.6,
          "velocity": 0.7874015748031497
        },
        {
          "duration": 1.1999999999999957,
          "durationTicks": 240,
          "midi": 59,
          "name": "B3",
          "ticks": 9120,
          "time": 45.6,
          "velocity": 0.7874015748031497
        },
        {
          "duration": 1.1999999999999957,
          "durationTicks": 240,
          "midi": 55,
          "name": "G3",
          "ticks": 9120,
          "time": 45.6,
          "velocity": 0.7874015748031497
        },
        {
          "duration": 1.2000000000000028,
          "durationTicks": 240,
          "midi": 65,
          "name": "F4",
          "ticks": 9360,
          "time": 46.8,
          "velocity": 0.7874015748031497
        },
        {
          "duration": 1.2000000000000028,
          "durationTicks": 240,
          "midi": 57,
          "name": "A3",
          "ticks": 9360,
          "time": 46.8,
          "velocity": 0.7874015748031497
        },
        {
          "duration": 1.2000000000000028,
          "durationTicks": 240,
          "midi": 53,
          "name": "F3",
          "ticks": 9360,
          "time": 46.8,
          "velocity": 0.7874015748031497
        },
        {
          "duration": 1.1999999999999957,
          "durationTicks": 240,
          "midi": 64,
          "name": "E4",
          "ticks": 9600,
          "time": 48,
          "velocity": 0.7874015748031497
        },
        {
          "duration": 1.1999999999999957,
          "durationTicks": 240,
          "midi": 55,
          "name": "G3",
          "ticks": 9600,
          "time": 48,
          "velocity": 0.7874015748031497
        },
        {
          "duration": 1.1999999999999957,
          "durationTicks": 240,
          "midi": 60,
          "name": "C4",
          "ticks": 9600,
          "time": 48,
          "velocity": 0.7874015748031497
        },
        {
          "duration": 1.2000000000000028,
          "durationTicks": 240,
          "midi": 65,
          "name": "F4",
          "ticks": 9840,
          "time": 49.199999999999996,
          "velocity": 0.7874015748031497
        },
        {
          "duration": 1.2000000000000028,
          "durationTicks": 240,
          "midi": 57,
          "name": "A3",
          "ticks": 9840,
          "time": 49.199999999999996,
          "velocity": 0.7874015748031497
        },
        {
          "duration": 1.2000000000000028,
          "durationTicks": 240,
          "midi": 60,
          "name": "C4",
          "ticks": 9840,
          "time": 49.199999999999996,
          "velocity": 0.7874015748031497
        },
        {
          "duration": 1.2000000000000028,
          "durationTicks": 240,
          "midi": 67,
          "name": "G4",
          "ticks": 10080,
          "time": 50.4,
          "velocity": 0.7874015748031497
        },
        {
          "duration": 1.2000000000000028,
          "durationTicks": 240,
          "midi": 59,
          "name": "B3",
          "ticks": 10080,
          "time": 50.4,
          "velocity": 0.7874015748031497
        },
        {
          "duration": 1.2000000000000028,
          "durationTicks": 240,
          "midi": 55,
          "name": "G3",
          "ticks": 10080,
          "time": 50.4,
          "velocity": 0.7874015748031497
        },
        {
          "duration": 1.1999999999999957,
          "durationTicks": 240,
          "midi": 65,
          "name": "F4",
          "ticks": 10320,
          "time": 51.6,
          "velocity": 0.7874015748031497
        },
        {
          "duration": 1.1999999999999957,
          "durationTicks": 240,
          "midi": 57,
          "name": "A3",
          "ticks": 10320,
          "time": 51.6,
          "velocity": 0.7874015748031497
        },
        {
          "duration": 1.1999999999999957,
          "durationTicks": 240,
          "midi": 53,
          "name": "F3",
          "ticks": 10320,
          "time": 51.6,
          "velocity": 0.7874015748031497
        },
        {
          "duration": 1.1999999999999957,
          "durationTicks": 240,
          "midi": 64,
          "name": "E4",
          "ticks": 12000,
          "time": 60,
          "velocity": 0.7874015748031497
        },
        {
          "duration": 1.1999999999999957,
          "durationTicks": 240,
          "midi": 55,
          "name": "G3",
          "ticks": 12000,
          "time": 60,
          "velocity": 0.7874015748031497
        },
        {
          "duration": 1.1999999999999957,
          "durationTicks": 240,
          "midi": 60,
          "name": "C4",
          "ticks": 12000,
          "time": 60,
          "velocity": 0.7874015748031497
        },
        {
          "duration": 1.2000000000000028,
          "durationTicks": 240,
          "midi": 65,
          "name": "F4",
          "ticks": 12240,
          "time": 61.199999999999996,
          "velocity": 0.7874015748031497
        },
        {
          "duration": 1.2000000000000028,
          "durationTicks": 240,
          "midi": 57,
          "name": "A3",
          "ticks": 12240,
          "time": 61.199999999999996,
          "velocity": 0.7874015748031497
        },
        {
          "duration": 1.2000000000000028,
          "durationTicks": 240,
          "midi": 60,
          "name": "C4",
          "ticks": 12240,
          "time": 61.199999999999996,
          "velocity": 0.7874015748031497
        },
        {
          "duration": 1.1999999999999957,
          "durationTicks": 240,
          "midi": 67,
          "name": "G4",
          "ticks": 12480,
          "time": 62.4,
          "velocity": 0.7874015748031497
        },
        {
          "duration": 1.1999999999999957,
          "durationTicks": 240,
          "midi": 59,
          "name": "B3",
          "ticks": 12480,
          "time": 62.4,
          "velocity": 0.7874015748031497
        },
        {
          "duration": 1.1999999999999957,
          "durationTicks": 240,
          "midi": 55,
          "name": "G3",
          "ticks": 12480,
          "time": 62.4,
          "velocity": 0.7874015748031497
        },
        {
          "duration": 1.2000000000000028,
          "durationTicks": 240,
          "midi": 65,
          "name": "F4",
          "ticks": 12720,
          "time": 63.599999999999994,
          "velocity": 0.7874015748031497
        },
        {
          "duration": 1.2000000000000028,
          "durationTicks": 240,
          "midi": 57,
          "name": "A3",
          "ticks": 12720,
          "time": 63.599999999999994,
          "velocity": 0.7874015748031497
        },
        {
          "duration": 1.2000000000000028,
          "durationTicks": 240,
          "midi": 53,
          "name": "F3",
          "ticks": 12720,
          "time": 63.599999999999994,
          "velocity": 0.7874015748031497
        },
        {
          "duration": 1.2000000000000028,
          "durationTicks": 240,
          "midi": 64,
          "name": "E4",
          "ticks": 12960,
          "time": 64.8,
          "velocity": 0.7874015748031497
        },
        {
          "duration": 1.2000000000000028,
          "durationTicks": 240,
          "midi": 55,
          "name": "G3",
          "ticks": 12960,
          "time": 64.8,
          "velocity": 0.7874015748031497
        },
        {
          "duration": 1.2000000000000028,
          "durationTicks": 240,
          "midi": 60,
          "name": "C4",
          "ticks": 12960,
          "time": 64.8,
          "velocity": 0.7874015748031497
        },
        {
          "duration": 1.2000000000000028,
          "durationTicks": 240,
          "midi": 65,
          "name": "F4",
          "ticks": 13200,
          "time": 66,
          "velocity": 0.7874015748031497
        },
        {
          "duration": 1.2000000000000028,
          "durationTicks": 240,
          "midi": 57,
          "name": "A3",
          "ticks": 13200,
          "time": 66,
          "velocity": 0.7874015748031497
        },
        {
          "duration": 1.2000000000000028,
          "durationTicks": 240,
          "midi": 60,
          "name": "C4",
          "ticks": 13200,
          "time": 66,
          "velocity": 0.7874015748031497
        },
        {
          "duration": 1.1999999999999886,
          "durationTicks": 240,
          "midi": 67,
          "name": "G4",
          "ticks": 13440,
          "time": 67.2,
          "velocity": 0.7874015748031497
        },
        {
          "duration": 1.1999999999999886,
          "durationTicks": 240,
          "midi": 59,
          "name": "B3",
          "ticks": 13440,
          "time": 67.2,
          "velocity": 0.7874015748031497
        },
        {
          "duration": 1.1999999999999886,
          "durationTicks": 240,
          "midi": 55,
          "name": "G3",
          "ticks": 13440,
          "time": 67.2,
          "velocity": 0.7874015748031497
        },
        {
          "duration": 1.2000000000000028,
          "durationTicks": 240,
          "midi": 65,
          "name": "F4",
          "ticks": 13680,
          "time": 68.39999999999999,
          "velocity": 0.7874015748031497
        },
        {
          "duration": 1.2000000000000028,
          "durationTicks": 240,
          "midi": 57,
          "name": "A3",
          "ticks": 13680,
          "time": 68.39999999999999,
          "velocity": 0.7874015748031497
        },
        {
          "duration": 1.2000000000000028,
          "durationTicks": 240,
          "midi": 53,
          "name": "F3",
          "ticks": 13680,
          "time": 68.39999999999999,
          "velocity": 0.7874015748031497
        },
        {
          "duration": 1.2000000000000028,
          "durationTicks": 240,
          "midi": 64,
          "name": "E4",
          "ticks": 13920,
          "time": 69.6,
          "velocity": 0.7874015748031497
        },
        {
          "duration": 1.2000000000000028,
          "durationTicks": 240,
          "midi": 55,
          "name": "G3",
          "ticks": 13920,
          "time": 69.6,
          "velocity": 0.7874015748031497
        },
        {
          "duration": 1.2000000000000028,
          "durationTicks": 240,
          "midi": 60,
          "name": "C4",
          "ticks": 13920,
          "time": 69.6,
          "velocity": 0.7874015748031497
        },
        {
          "duration": 1.2000000000000028,
          "durationTicks": 240,
          "midi": 65,
          "name": "F4",
          "ticks": 14160,
          "time": 70.8,
          "velocity": 0.7874015748031497
        },
        {
          "duration": 1.2000000000000028,
          "durationTicks": 240,
          "midi": 57,
          "name": "A3",
          "ticks": 14160,
          "time": 70.8,
          "velocity": 0.7874015748031497
        },
        {
          "duration": 1.2000000000000028,
          "durationTicks": 240,
          "midi": 60,
          "name": "C4",
          "ticks": 14160,
          "time": 70.8,
          "velocity": 0.7874015748031497
        },
        {
          "duration": 1.2000000000000028,
          "durationTicks": 240,
          "midi": 67,
          "name": "G4",
          "ticks": 14400,
          "time": 72,
          "velocity": 0.7874015748031497
        },
        {
          "duration": 1.2000000000000028,
          "durationTicks": 240,
          "midi": 59,
          "name": "B3",
          "ticks": 14400,
          "time": 72,
          "velocity": 0.7874015748031497
        },
        {
          "duration": 1.2000000000000028,
          "durationTicks": 240,
          "midi": 55,
          "name": "G3",
          "ticks": 14400,
          "time": 72,
          "velocity": 0.7874015748031497
        },
        {
          "duration": 1.1999999999999886,
          "durationTicks": 240,
          "midi": 65,
          "name": "F4",
          "ticks": 14640,
          "time": 73.2,
          "velocity": 0.7874015748031497
        },
        {
          "duration": 1.1999999999999886,
          "durationTicks": 240,
          "midi": 57,
          "name": "A3",
          "ticks": 14640,
          "time": 73.2,
          "velocity": 0.7874015748031497
        },
        {
          "duration": 1.1999999999999886,
          "durationTicks": 240,
          "midi": 53,
          "name": "F3",
          "ticks": 14640,
          "time": 73.2,
          "velocity": 0.7874015748031497
        },
        {
          "duration": 1.2000000000000028,
          "durationTicks": 240,
          "midi": 64,
          "name": "E4",
          "ticks": 14880,
          "time": 74.39999999999999,
          "velocity": 0.7874015748031497
        },
        {
          "duration": 1.2000000000000028,
          "durationTicks": 240,
          "midi": 55,
          "name": "G3",
          "ticks": 14880,
          "time": 74.39999999999999,
          "velocity": 0.7874015748031497
        },
        {
          "duration": 1.2000000000000028,
          "durationTicks": 240,
          "midi": 60,
          "name": "C4",
          "ticks": 14880,
          "time": 74.39999999999999,
          "velocity": 0.7874015748031497
        },
        {
          "duration": 1.2000000000000028,
          "durationTicks": 240,
          "midi": 65,
          "name": "F4",
          "ticks": 15120,
          "time": 75.6,
          "velocity": 0.7874015748031497
        },
        {
          "duration": 1.2000000000000028,
          "durationTicks": 240,
          "midi": 57,
          "name": "A3",
          "ticks": 15120,
          "time": 75.6,
          "velocity": 0.7874015748031497
        },
        {
          "duration": 1.2000000000000028,
          "durationTicks": 240,
          "midi": 60,
          "name": "C4",
          "ticks": 15120,
          "time": 75.6,
          "velocity": 0.7874015748031497
        },
        {
          "duration": 1.2000000000000028,
          "durationTicks": 240,
          "midi": 67,
          "name": "G4",
          "ticks": 15360,
          "time": 76.8,
          "velocity": 0.7874015748031497
        },
        {
          "duration": 1.2000000000000028,
          "durationTicks": 240,
          "midi": 59,
          "name": "B3",
          "ticks": 15360,
          "time": 76.8,
          "velocity": 0.7874015748031497
        },
        {
          "duration": 1.2000000000000028,
          "durationTicks": 240,
          "midi": 55,
          "name": "G3",
          "ticks": 15360,
          "time": 76.8,
          "velocity": 0.7874015748031497
        },
        {
          "duration": 1.2000000000000028,
          "durationTicks": 240,
          "midi": 65,
          "name": "F4",
          "ticks": 15600,
          "time": 78,
          "velocity": 0.7874015748031497
        },
        {
          "duration": 1.2000000000000028,
          "durationTicks": 240,
          "midi": 57,
          "name": "A3",
          "ticks": 15600,
          "time": 78,
          "velocity": 0.7874015748031497
        },
        {
          "duration": 1.2000000000000028,
          "durationTicks": 240,
          "midi": 53,
          "name": "F3",
          "ticks": 15600,
          "time": 78,
          "velocity": 0.7874015748031497
        },
        {
          "duration": 1.1999999999999886,
          "durationTicks": 240,
          "midi": 64,
          "name": "E4",
          "ticks": 15840,
          "time": 79.2,
          "velocity": 0.7874015748031497
        },
        {
          "duration": 1.1999999999999886,
          "durationTicks": 240,
          "midi": 55,
          "name": "G3",
          "ticks": 15840,
          "time": 79.2,
          "velocity": 0.7874015748031497
        },
        {
          "duration": 1.1999999999999886,
          "durationTicks": 240,
          "midi": 60,
          "name": "C4",
          "ticks": 15840,
          "time": 79.2,
          "velocity": 0.7874015748031497
        },
        {
          "duration": 1.2000000000000028,
          "durationTicks": 240,
          "midi": 65,
          "name": "F4",
          "ticks": 16080,
          "time": 80.39999999999999,
          "velocity": 0.7874015748031497
        },
        {
          "duration": 1.2000000000000028,
          "durationTicks": 240,
          "midi": 57,
          "name": "A3",
          "ticks": 16080,
          "time": 80.39999999999999,
          "velocity": 0.7874015748031497
        },
        {
          "duration": 1.2000000000000028,
          "durationTicks": 240,
          "midi": 60,
          "name": "C4",
          "ticks": 16080,
          "time": 80.39999999999999,
          "velocity": 0.7874015748031497
        },
        {
          "duration": 1.2000000000000028,
          "durationTicks": 240,
          "midi": 67,
          "name": "G4",
          "ticks": 16320,
          "time": 81.6,
          "velocity": 0.7874015748031497
        },
        {
          "duration": 1.2000000000000028,
          "durationTicks": 240,
          "midi": 59,
          "name": "B3",
          "ticks": 16320,
          "time": 81.6,
          "velocity": 0.7874015748031497
        },
        {
          "duration": 1.2000000000000028,
          "durationTicks": 240,
          "midi": 55,
          "name": "G3",
          "ticks": 16320,
          "time": 81.6,
          "velocity": 0.7874015748031497
        },
        {
          "duration": 1.2000000000000028,
          "durationTicks": 240,
          "midi": 65,
          "name": "F4",
          "ticks": 16560,
          "time": 82.8,
          "velocity": 0.7874015748031497
        },
        {
          "duration": 1.2000000000000028,
          "durationTicks": 240,
          "midi": 57,
          "name": "A3",
          "ticks": 16560,
          "time": 82.8,
          "velocity": 0.7874015748031497
        },
        {
          "duration": 1.2000000000000028,
          "durationTicks": 240,
          "midi": 53,
          "name": "F3",
          "ticks": 16560,
          "time": 82.8,
          "velocity": 0.7874015748031497
        },
        {
          "duration": 1.2000000000000028,
          "durationTicks": 240,
          "midi": 64,
          "name": "E4",
          "ticks": 16800,
          "time": 84,
          "velocity": 0.7874015748031497
        },
        {
          "duration": 1.2000000000000028,
          "durationTicks": 240,
          "midi": 55,
          "name": "G3",
          "ticks": 16800,
          "time": 84,
          "velocity": 0.7874015748031497
        },
        {
          "duration": 1.2000000000000028,
          "durationTicks": 240,
          "midi": 60,
          "name": "C4",
          "ticks": 16800,
          "time": 84,
          "velocity": 0.7874015748031497
        },
        {
          "duration": 1.1999999999999886,
          "durationTicks": 240,
          "midi": 65,
          "name": "F4",
          "ticks": 17040,
          "time": 85.2,
          "velocity": 0.7874015748031497
        },
        {
          "duration": 1.1999999999999886,
          "durationTicks": 240,
          "midi": 57,
          "name": "A3",
          "ticks": 17040,
          "time": 85.2,
          "velocity": 0.7874015748031497
        },
        {
          "duration": 1.1999999999999886,
          "durationTicks": 240,
          "midi": 60,
          "name": "C4",
          "ticks": 17040,
          "time": 85.2,
          "velocity": 0.7874015748031497
        },
        {
          "duration": 1.2000000000000028,
          "durationTicks": 240,
          "midi": 67,
          "name": "G4",
          "ticks": 17280,
          "time": 86.39999999999999,
          "velocity": 0.7874015748031497
        },
        {
          "duration": 1.2000000000000028,
          "durationTicks": 240,
          "midi": 59,
          "name": "B3",
          "ticks": 17280,
          "time": 86.39999999999999,
          "velocity": 0.7874015748031497
        },
        {
          "duration": 1.2000000000000028,
          "durationTicks": 240,
          "midi": 55,
          "name": "G3",
          "ticks": 17280,
          "time": 86.39999999999999,
          "velocity": 0.7874015748031497
        },
        {
          "duration": 1.2000000000000028,
          "durationTicks": 240,
          "midi": 65,
          "name": "F4",
          "ticks": 17520,
          "time": 87.6,
          "velocity": 0.7874015748031497
        },
        {
          "duration": 1.2000000000000028,
          "durationTicks": 240,
          "midi": 57,
          "name": "A3",
          "ticks": 17520,
          "time": 87.6,
          "velocity": 0.7874015748031497
        },
        {
          "duration": 1.2000000000000028,
          "durationTicks": 240,
          "midi": 53,
          "name": "F3",
          "ticks": 17520,
          "time": 87.6,
          "velocity": 0.7874015748031497
        },
        {
          "duration": 1.2000000000000028,
          "durationTicks": 240,
          "midi": 64,
          "name": "E4",
          "ticks": 17760,
          "time": 88.8,
          "velocity": 0.7874015748031497
        },
        {
          "duration": 1.2000000000000028,
          "durationTicks": 240,
          "midi": 55,
          "name": "G3",
          "ticks": 17760,
          "time": 88.8,
          "velocity": 0.7874015748031497
        },
        {
          "duration": 1.2000000000000028,
          "durationTicks": 240,
          "midi": 60,
          "name": "C4",
          "ticks": 17760,
          "time": 88.8,
          "velocity": 0.7874015748031497
        },
        {
          "duration": 1.2000000000000028,
          "durationTicks": 240,
          "midi": 65,
          "name": "F4",
          "ticks": 18000,
          "time": 90,
          "velocity": 0.7874015748031497
        },
        {
          "duration": 1.2000000000000028,
          "durationTicks": 240,
          "midi": 57,
          "name": "A3",
          "ticks": 18000,
          "time": 90,
          "velocity": 0.7874015748031497
        },
        {
          "duration": 1.2000000000000028,
          "durationTicks": 240,
          "midi": 60,
          "name": "C4",
          "ticks": 18000,
          "time": 90,
          "velocity": 0.7874015748031497
        },
        {
          "duration": 1.1999999999999886,
          "durationTicks": 240,
          "midi": 67,
          "name": "G4",
          "ticks": 18240,
          "time": 91.2,
          "velocity": 0.7874015748031497
        },
        {
          "duration": 1.1999999999999886,
          "durationTicks": 240,
          "midi": 59,
          "name": "B3",
          "ticks": 18240,
          "time": 91.2,
          "velocity": 0.7874015748031497
        },
        {
          "duration": 1.1999999999999886,
          "durationTicks": 240,
          "midi": 55,
          "name": "G3",
          "ticks": 18240,
          "time": 91.2,
          "velocity": 0.7874015748031497
        },
        {
          "duration": 1.2000000000000028,
          "durationTicks": 240,
          "midi": 65,
          "name": "F4",
          "ticks": 18480,
          "time": 92.39999999999999,
          "velocity": 0.7874015748031497
        },
        {
          "duration": 1.2000000000000028,
          "durationTicks": 240,
          "midi": 57,
          "name": "A3",
          "ticks": 18480,
          "time": 92.39999999999999,
          "velocity": 0.7874015748031497
        },
        {
          "duration": 1.2000000000000028,
          "durationTicks": 240,
          "midi": 53,
          "name": "F3",
          "ticks": 18480,
          "time": 92.39999999999999,
          "velocity": 0.7874015748031497
        },
        {
          "duration": 1.2000000000000028,
          "durationTicks": 240,
          "midi": 64,
          "name": "E4",
          "ticks": 18720,
          "time": 93.6,
          "velocity": 0.7874015748031497
        },
        {
          "duration": 1.2000000000000028,
          "durationTicks": 240,
          "midi": 55,
          "name": "G3",
          "ticks": 18720,
          "time": 93.6,
          "velocity": 0.7874015748031497
        },
        {
          "duration": 1.2000000000000028,
          "durationTicks": 240,
          "midi": 60,
          "name": "C4",
          "ticks": 18720,
          "time": 93.6,
          "velocity": 0.7874015748031497
        },
        {
          "duration": 1.2000000000000028,
          "durationTicks": 240,
          "midi": 65,
          "name": "F4",
          "ticks": 18960,
          "time": 94.8,
          "velocity": 0.7874015748031497
        },
        {
          "duration": 1.2000000000000028,
          "durationTicks": 240,
          "midi": 57,
          "name": "A3",
          "ticks": 18960,
          "time": 94.8,
          "velocity": 0.7874015748031497
        },
        {
          "duration": 1.2000000000000028,
          "durationTicks": 240,
          "midi": 60,
          "name": "C4",
          "ticks": 18960,
          "time": 94.8,
          "velocity": 0.7874015748031497
        },
        {
          "duration": 1.2000000000000028,
          "durationTicks": 240,
          "midi": 67,
          "name": "G4",
          "ticks": 19200,
          "time": 96,
          "velocity": 0.7874015748031497
        },
        {
          "duration": 1.2000000000000028,
          "durationTicks": 240,
          "midi": 59,
          "name": "B3",
          "ticks": 19200,
          "time": 96,
          "velocity": 0.7874015748031497
        },
        {
          "duration": 1.2000000000000028,
          "durationTicks": 240,
          "midi": 55,
          "name": "G3",
          "ticks": 19200,
          "time": 96,
          "velocity": 0.7874015748031497
        },
        {
          "duration": 1.1999999999999886,
          "durationTicks": 240,
          "midi": 65,
          "name": "F4",
          "ticks": 19440,
          "time": 97.2,
          "velocity": 0.7874015748031497
        },
        {
          "duration": 1.1999999999999886,
          "durationTicks": 240,
          "midi": 57,
          "name": "A3",
          "ticks": 19440,
          "time": 97.2,
          "velocity": 0.7874015748031497
        },
        {
          "duration": 1.1999999999999886,
          "durationTicks": 240,
          "midi": 53,
          "name": "F3",
          "ticks": 19440,
          "time": 97.2,
          "velocity": 0.7874015748031497
        },
        {
          "duration": 1.2000000000000028,
          "durationTicks": 240,
          "midi": 64,
          "name": "E4",
          "ticks": 19680,
          "time": 98.39999999999999,
          "velocity": 0.7874015748031497
        },
        {
          "duration": 1.2000000000000028,
          "durationTicks": 240,
          "midi": 55,
          "name": "G3",
          "ticks": 19680,
          "time": 98.39999999999999,
          "velocity": 0.7874015748031497
        },
        {
          "duration": 1.2000000000000028,
          "durationTicks": 240,
          "midi": 60,
          "name": "C4",
          "ticks": 19680,
          "time": 98.39999999999999,
          "velocity": 0.7874015748031497
        },
        {
          "duration": 1.2000000000000028,
          "durationTicks": 240,
          "midi": 65,
          "name": "F4",
          "ticks": 19920,
          "time": 99.6,
          "velocity": 0.7874015748031497
        },
        {
          "duration": 1.2000000000000028,
          "durationTicks": 240,
          "midi": 57,
          "name": "A3",
          "ticks": 19920,
          "time": 99.6,
          "velocity": 0.7874015748031497
        },
        {
          "duration": 1.2000000000000028,
          "durationTicks": 240,
          "midi": 60,
          "name": "C4",
          "ticks": 19920,
          "time": 99.6,
          "velocity": 0.7874015748031497
        },
        {
          "duration": 1.2000000000000028,
          "durationTicks": 240,
          "midi": 67,
          "name": "G4",
          "ticks": 20160,
          "time": 100.8,
          "velocity": 0.7874015748031497
        },
        {
          "duration": 1.2000000000000028,
          "durationTicks": 240,
          "midi": 55,
          "name": "G3",
          "ticks": 20160,
          "time": 100.8,
          "velocity": 0.7874015748031497
        },
        {
          "duration": 1.2000000000000028,
          "durationTicks": 240,
          "midi": 65,
          "name": "F4",
          "ticks": 20400,
          "time": 102,
          "velocity": 0.7874015748031497
        },
        {
          "duration": 1.2000000000000028,
          "durationTicks": 240,
          "midi": 57,
          "name": "A3",
          "ticks": 20400,
          "time": 102,
          "velocity": 0.7874015748031497
        },
        {
          "duration": 1.2000000000000028,
          "durationTicks": 240,
          "midi": 53,
          "name": "F3",
          "ticks": 20400,
          "time": 102,
          "velocity": 0.7874015748031497
        },
        {
          "duration": 1.1999999999999886,
          "durationTicks": 240,
          "midi": 64,
          "name": "E4",
          "ticks": 20640,
          "time": 103.2,
          "velocity": 0.7874015748031497
        },
        {
          "duration": 1.1999999999999886,
          "durationTicks": 240,
          "midi": 55,
          "name": "G3",
          "ticks": 20640,
          "time": 103.2,
          "velocity": 0.7874015748031497
        },
        {
          "duration": 1.1999999999999886,
          "durationTicks": 240,
          "midi": 60,
          "name": "C4",
          "ticks": 20640,
          "time": 103.2,
          "velocity": 0.7874015748031497
        },
        {
          "duration": 1.2000000000000028,
          "durationTicks": 240,
          "midi": 65,
          "name": "F4",
          "ticks": 20880,
          "time": 104.39999999999999,
          "velocity": 0.7874015748031497
        },
        {
          "duration": 1.2000000000000028,
          "durationTicks": 240,
          "midi": 57,
          "name": "A3",
          "ticks": 20880,
          "time": 104.39999999999999,
          "velocity": 0.7874015748031497
        },
        {
          "duration": 1.2000000000000028,
          "durationTicks": 240,
          "midi": 60,
          "name": "C4",
          "ticks": 20880,
          "time": 104.39999999999999,
          "velocity": 0.7874015748031497
        },
        {
          "duration": 1.2000000000000028,
          "durationTicks": 240,
          "midi": 67,
          "name": "G4",
          "ticks": 21120,
          "time": 105.6,
          "velocity": 0.7874015748031497
        },
        {
          "duration": 1.2000000000000028,
          "durationTicks": 240,
          "midi": 59,
          "name": "B3",
          "ticks": 21120,
          "time": 105.6,
          "velocity": 0.7874015748031497
        },
        {
          "duration": 1.2000000000000028,
          "durationTicks": 240,
          "midi": 55,
          "name": "G3",
          "ticks": 21120,
          "time": 105.6,
          "velocity": 0.7874015748031497
        },
        {
          "duration": 1.2000000000000028,
          "durationTicks": 240,
          "midi": 65,
          "name": "F4",
          "ticks": 21360,
          "time": 106.8,
          "velocity": 0.7874015748031497
        },
        {
          "duration": 1.2000000000000028,
          "durationTicks": 240,
          "midi": 57,
          "name": "A3",
          "ticks": 21360,
          "time": 106.8,
          "velocity": 0.7874015748031497
        },
        {
          "duration": 1.2000000000000028,
          "durationTicks": 240,
          "midi": 53,
          "name": "F3",
          "ticks": 21360,
          "time": 106.8,
          "velocity": 0.7874015748031497
        },
        {
          "duration": 1.2000000000000028,
          "durationTicks": 240,
          "midi": 64,
          "name": "E4",
          "ticks": 21600,
          "time": 108,
          "velocity": 0.7874015748031497
        },
        {
          "duration": 1.2000000000000028,
          "durationTicks": 240,
          "midi": 55,
          "name": "G3",
          "ticks": 21600,
          "time": 108,
          "velocity": 0.7874015748031497
        },
        {
          "duration": 1.2000000000000028,
          "durationTicks": 240,
          "midi": 60,
          "name": "C4",
          "ticks": 21600,
          "time": 108,
          "velocity": 0.7874015748031497
        },
        {
          "duration": 1.1999999999999886,
          "durationTicks": 240,
          "midi": 65,
          "name": "F4",
          "ticks": 21840,
          "time": 109.2,
          "velocity": 0.7874015748031497
        },
        {
          "duration": 1.1999999999999886,
          "durationTicks": 240,
          "midi": 57,
          "name": "A3",
          "ticks": 21840,
          "time": 109.2,
          "velocity": 0.7874015748031497
        },
        {
          "duration": 1.1999999999999886,
          "durationTicks": 240,
          "midi": 60,
          "name": "C4",
          "ticks": 21840,
          "time": 109.2,
          "velocity": 0.7874015748031497
        },
        {
          "duration": 1.2000000000000028,
          "durationTicks": 240,
          "midi": 67,
          "name": "G4",
          "ticks": 22080,
          "time": 110.39999999999999,
          "velocity": 0.7874015748031497
        },
        {
          "duration": 1.2000000000000028,
          "durationTicks": 240,
          "midi": 59,
          "name": "B3",
          "ticks": 22080,
          "time": 110.39999999999999,
          "velocity": 0.7874015748031497
        },
        {
          "duration": 1.2000000000000028,
          "durationTicks": 240,
          "midi": 55,
          "name": "G3",
          "ticks": 22080,
          "time": 110.39999999999999,
          "velocity": 0.7874015748031497
        },
        {
          "duration": 1.2000000000000028,
          "durationTicks": 240,
          "midi": 65,
          "name": "F4",
          "ticks": 22320,
          "time": 111.6,
          "velocity": 0.7874015748031497
        },
        {
          "duration": 1.2000000000000028,
          "durationTicks": 240,
          "midi": 57,
          "name": "A3",
          "ticks": 22320,
          "time": 111.6,
          "velocity": 0.7874015748031497
        },
        {
          "duration": 1.2000000000000028,
          "durationTicks": 240,
          "midi": 53,
          "name": "F3",
          "ticks": 22320,
          "time": 111.6,
          "velocity": 0.7874015748031497
        },
        {
          "duration": 1.2000000000000028,
          "durationTicks": 240,
          "midi": 64,
          "name": "E4",
          "ticks": 22560,
          "time": 112.8,
          "velocity": 0.7874015748031497
        },
        {
          "duration": 1.2000000000000028,
          "durationTicks": 240,
          "midi": 55,
          "name": "G3",
          "ticks": 22560,
          "time": 112.8,
          "velocity": 0.7874015748031497
        },
        {
          "duration": 1.2000000000000028,
          "durationTicks": 240,
          "midi": 60,
          "name": "C4",
          "ticks": 22560,
          "time": 112.8,
          "velocity": 0.7874015748031497
        },
        {
          "duration": 1.1999999999999886,
          "durationTicks": 240,
          "midi": 65,
          "name": "F4",
          "ticks": 22800,
          "time": 114,
          "velocity": 0.7874015748031497
        },
        {
          "duration": 1.1999999999999886,
          "durationTicks": 240,
          "midi": 57,
          "name": "A3",
          "ticks": 22800,
          "time": 114,
          "velocity": 0.7874015748031497
        },
        {
          "duration": 1.1999999999999886,
          "durationTicks": 240,
          "midi": 60,
          "name": "C4",
          "ticks": 22800,
          "time": 114,
          "velocity": 0.7874015748031497
        },
        {
          "duration": 1.2000000000000028,
          "durationTicks": 240,
          "midi": 67,
          "name": "G4",
          "ticks": 23040,
          "time": 115.19999999999999,
          "velocity": 0.7874015748031497
        },
        {
          "duration": 1.2000000000000028,
          "durationTicks": 240,
          "midi": 59,
          "name": "B3",
          "ticks": 23040,
          "time": 115.19999999999999,
          "velocity": 0.7874015748031497
        },
        {
          "duration": 1.2000000000000028,
          "durationTicks": 240,
          "midi": 55,
          "name": "G3",
          "ticks": 23040,
          "time": 115.19999999999999,
          "velocity": 0.7874015748031497
        },
        {
          "duration": 1.2000000000000028,
          "durationTicks": 240,
          "midi": 65,
          "name": "F4",
          "ticks": 23280,
          "time": 116.39999999999999,
          "velocity": 0.7874015748031497
        },
        {
          "duration": 1.2000000000000028,
          "durationTicks": 240,
          "midi": 57,
          "name": "A3",
          "ticks": 23280,
          "time": 116.39999999999999,
          "velocity": 0.7874015748031497
        },
        {
          "duration": 1.2000000000000028,
          "durationTicks": 240,
          "midi": 53,
          "name": "F3",
          "ticks": 23280,
          "time": 116.39999999999999,
          "velocity": 0.7874015748031497
        },
        {
          "duration": 1.2000000000000028,
          "durationTicks": 240,
          "midi": 64,
          "name": "E4",
          "ticks": 23520,
          "time": 117.6,
          "velocity": 0.7874015748031497
        },
        {
          "duration": 1.2000000000000028,
          "durationTicks": 240,
          "midi": 55,
          "name": "G3",
          "ticks": 23520,
          "time": 117.6,
          "velocity": 0.7874015748031497
        },
        {
          "duration": 1.2000000000000028,
          "durationTicks": 240,
          "midi": 60,
          "name": "C4",
          "ticks": 23520,
          "time": 117.6,
          "velocity": 0.7874015748031497
        },
        {
          "duration": 1.2000000000000028,
          "durationTicks": 240,
          "midi": 65,
          "name": "F4",
          "ticks": 23760,
          "time": 118.8,
          "velocity": 0.7874015748031497
        },
        {
          "duration": 1.2000000000000028,
          "durationTicks": 240,
          "midi": 57,
          "name": "A3",
          "ticks": 23760,
          "time": 118.8,
          "velocity": 0.7874015748031497
        },
        {
          "duration": 1.2000000000000028,
          "durationTicks": 240,
          "midi": 60,
          "name": "C4",
          "ticks": 23760,
          "time": 118.8,
          "velocity": 0.7874015748031497
        },
        {
          "duration": 1.1999999999999886,
          "durationTicks": 240,
          "midi": 67,
          "name": "G4",
          "ticks": 24000,
          "time": 120,
          "velocity": 0.7874015748031497
        },
        {
          "duration": 1.1999999999999886,
          "durationTicks": 240,
          "midi": 59,
          "name": "B3",
          "ticks": 24000,
          "time": 120,
          "velocity": 0.7874015748031497
        },
        {
          "duration": 1.1999999999999886,
          "durationTicks": 240,
          "midi": 55,
          "name": "G3",
          "ticks": 24000,
          "time": 120,
          "velocity": 0.7874015748031497
        },
        {
          "duration": 1.2000000000000028,
          "durationTicks": 240,
          "midi": 65,
          "name": "F4",
          "ticks": 24240,
          "time": 121.19999999999999,
          "velocity": 0.7874015748031497
        },
        {
          "duration": 1.2000000000000028,
          "durationTicks": 240,
          "midi": 57,
          "name": "A3",
          "ticks": 24240,
          "time": 121.19999999999999,
          "velocity": 0.7874015748031497
        },
        {
          "duration": 1.2000000000000028,
          "durationTicks": 240,
          "midi": 53,
          "name": "F3",
          "ticks": 24240,
          "time": 121.19999999999999,
          "velocity": 0.7874015748031497
        },
        {
          "duration": 1.2000000000000028,
          "durationTicks": 240,
          "midi": 64,
          "name": "E4",
          "ticks": 24480,
          "time": 122.39999999999999,
          "velocity": 0.7874015748031497
        },
        {
          "duration": 1.2000000000000028,
          "durationTicks": 240,
          "midi": 55,
          "name": "G3",
          "ticks": 24480,
          "time": 122.39999999999999,
          "velocity": 0.7874015748031497
        },
        {
          "duration": 1.2000000000000028,
          "durationTicks": 240,
          "midi": 60,
          "name": "C4",
          "ticks": 24480,
          "time": 122.39999999999999,
          "velocity": 0.7874015748031497
        },
        {
          "duration": 1.2000000000000028,
          "durationTicks": 240,
          "midi": 65,
          "name": "F4",
          "ticks": 24720,
          "time": 123.6,
          "velocity": 0.7874015748031497
        },
        {
          "duration": 1.2000000000000028,
          "durationTicks": 240,
          "midi": 57,
          "name": "A3",
          "ticks": 24720,
          "time": 123.6,
          "velocity": 0.7874015748031497
        },
        {
          "duration": 1.2000000000000028,
          "durationTicks": 240,
          "midi": 60,
          "name": "C4",
          "ticks": 24720,
          "time": 123.6,
          "velocity": 0.7874015748031497
        },
        {
          "duration": 1.2000000000000028,
          "durationTicks": 240,
          "midi": 67,
          "name": "G4",
          "ticks": 24960,
          "time": 124.8,
          "velocity": 0.7874015748031497
        },
        {
          "duration": 1.2000000000000028,
          "durationTicks": 240,
          "midi": 59,
          "name": "B3",
          "ticks": 24960,
          "time": 124.8,
          "velocity": 0.7874015748031497
        },
        {
          "duration": 1.2000000000000028,
          "durationTicks": 240,
          "midi": 55,
          "name": "G3",
          "ticks": 24960,
          "time": 124.8,
          "velocity": 0.7874015748031497
        },
        {
          "duration": 1.1999999999999886,
          "durationTicks": 240,
          "midi": 65,
          "name": "F4",
          "ticks": 25200,
          "time": 126,
          "velocity": 0.7874015748031497
        },
        {
          "duration": 1.1999999999999886,
          "durationTicks": 240,
          "midi": 57,
          "name": "A3",
          "ticks": 25200,
          "time": 126,
          "velocity": 0.7874015748031497
        },
        {
          "duration": 1.1999999999999886,
          "durationTicks": 240,
          "midi": 53,
          "name": "F3",
          "ticks": 25200,
          "time": 126,
          "velocity": 0.7874015748031497
        },
        {
          "duration": 1.200000000000017,
          "durationTicks": 240,
          "midi": 64,
          "name": "E4",
          "ticks": 25440,
          "time": 127.19999999999999,
          "velocity": 0.7874015748031497
        },
        {
          "duration": 1.200000000000017,
          "durationTicks": 240,
          "midi": 55,
          "name": "G3",
          "ticks": 25440,
          "time": 127.19999999999999,
          "velocity": 0.7874015748031497
        },
        {
          "duration": 1.200000000000017,
          "durationTicks": 240,
          "midi": 60,
          "name": "C4",
          "ticks": 25440,
          "time": 127.19999999999999,
          "velocity": 0.7874015748031497
        },
        {
          "duration": 1.1999999999999886,
          "durationTicks": 240,
          "midi": 65,
          "name": "F4",
          "ticks": 25680,
          "time": 128.4,
          "velocity": 0.7874015748031497
        },
        {
          "duration": 1.1999999999999886,
          "durationTicks": 240,
          "midi": 57,
          "name": "A3",
          "ticks": 25680,
          "time": 128.4,
          "velocity": 0.7874015748031497
        },
        {
          "duration": 1.1999999999999886,
          "durationTicks": 240,
          "midi": 60,
          "name": "C4",
          "ticks": 25680,
          "time": 128.4,
          "velocity": 0.7874015748031497
        },
        {
          "duration": 1.1999999999999886,
          "durationTicks": 240,
          "midi": 67,
          "name": "G4",
          "ticks": 25920,
          "time": 129.6,
          "velocity": 0.7874015748031497
        },
        {
          "duration": 1.1999999999999886,
          "durationTicks": 240,
          "midi": 59,
          "name": "B3",
          "ticks": 25920,
          "time": 129.6,
          "velocity": 0.7874015748031497
        },
        {
          "duration": 1.1999999999999886,
          "durationTicks": 240,
          "midi": 55,
          "name": "G3",
          "ticks": 25920,
          "time": 129.6,
          "velocity": 0.7874015748031497
        },
        {
          "duration": 1.200000000000017,
          "durationTicks": 240,
          "midi": 65,
          "name": "F4",
          "ticks": 26160,
          "time": 130.79999999999998,
          "velocity": 0.7874015748031497
        },
        {
          "duration": 1.200000000000017,
          "durationTicks": 240,
          "midi": 57,
          "name": "A3",
          "ticks": 26160,
          "time": 130.79999999999998,
          "velocity": 0.7874015748031497
        },
        {
          "duration": 1.200000000000017,
          "durationTicks": 240,
          "midi": 53,
          "name": "F3",
          "ticks": 26160,
          "time": 130.79999999999998,
          "velocity": 0.7874015748031497
        },
        {
          "duration": 1.1999999999999886,
          "durationTicks": 240,
          "midi": 64,
          "name": "E4",
          "ticks": 26400,
          "time": 132,
          "velocity": 0.7874015748031497
        },
        {
          "duration": 1.1999999999999886,
          "durationTicks": 240,
          "midi": 55,
          "name": "G3",
          "ticks": 26400,
          "time": 132,
          "velocity": 0.7874015748031497
        },
        {
          "duration": 1.1999999999999886,
          "durationTicks": 240,
          "midi": 60,
          "name": "C4",
          "ticks": 26400,
          "time": 132,
          "velocity": 0.7874015748031497
        },
        {
          "duration": 1.200000000000017,
          "durationTicks": 240,
          "midi": 65,
          "name": "F4",
          "ticks": 26640,
          "time": 133.2,
          "velocity": 0.7874015748031497
        },
        {
          "duration": 1.200000000000017,
          "durationTicks": 240,
          "midi": 57,
          "name": "A3",
          "ticks": 26640,
          "time": 133.2,
          "velocity": 0.7874015748031497
        },
        {
          "duration": 1.200000000000017,
          "durationTicks": 240,
          "midi": 60,
          "name": "C4",
          "ticks": 26640,
          "time": 133.2,
          "velocity": 0.7874015748031497
        },
        {
          "duration": 1.1999999999999886,
          "durationTicks": 240,
          "midi": 67,
          "name": "G4",
          "ticks": 26880,
          "time": 134.4,
          "velocity": 0.7874015748031497
        },
        {
          "duration": 1.1999999999999886,
          "durationTicks": 240,
          "midi": 59,
          "name": "B3",
          "ticks": 26880,
          "time": 134.4,
          "velocity": 0.7874015748031497
        },
        {
          "duration": 1.1999999999999886,
          "durationTicks": 240,
          "midi": 55,
          "name": "G3",
          "ticks": 26880,
          "time": 134.4,
          "velocity": 0.7874015748031497
        },
        {
          "duration": 1.1999999999999886,
          "durationTicks": 240,
          "midi": 65,
          "name": "F4",
          "ticks": 27120,
          "time": 135.6,
          "velocity": 0.7874015748031497
        },
        {
          "duration": 1.1999999999999886,
          "durationTicks": 240,
          "midi": 57,
          "name": "A3",
          "ticks": 27120,
          "time": 135.6,
          "velocity": 0.7874015748031497
        },
        {
          "duration": 1.1999999999999886,
          "durationTicks": 240,
          "midi": 53,
          "name": "F3",
          "ticks": 27120,
          "time": 135.6,
          "velocity": 0.7874015748031497
        },
        {
          "duration": 1.200000000000017,
          "durationTicks": 240,
          "midi": 64,
          "name": "E4",
          "ticks": 27360,
          "time": 136.79999999999998,
          "velocity": 0.7874015748031497
        },
        {
          "duration": 1.200000000000017,
          "durationTicks": 240,
          "midi": 55,
          "name": "G3",
          "ticks": 27360,
          "time": 136.79999999999998,
          "velocity": 0.7874015748031497
        },
        {
          "duration": 1.200000000000017,
          "durationTicks": 240,
          "midi": 60,
          "name": "C4",
          "ticks": 27360,
          "time": 136.79999999999998,
          "velocity": 0.7874015748031497
        },
        {
          "duration": 1.1999999999999886,
          "durationTicks": 240,
          "midi": 65,
          "name": "F4",
          "ticks": 27600,
          "time": 138,
          "velocity": 0.7874015748031497
        },
        {
          "duration": 1.1999999999999886,
          "durationTicks": 240,
          "midi": 57,
          "name": "A3",
          "ticks": 27600,
          "time": 138,
          "velocity": 0.7874015748031497
        },
        {
          "duration": 1.1999999999999886,
          "durationTicks": 240,
          "midi": 60,
          "name": "C4",
          "ticks": 27600,
          "time": 138,
          "velocity": 0.7874015748031497
        },
        {
          "duration": 1.200000000000017,
          "durationTicks": 240,
          "midi": 67,
          "name": "G4",
          "ticks": 27840,
          "time": 139.2,
          "velocity": 0.7874015748031497
        },
        {
          "duration": 1.200000000000017,
          "durationTicks": 240,
          "midi": 59,
          "name": "B3",
          "ticks": 27840,
          "time": 139.2,
          "velocity": 0.7874015748031497
        },
        {
          "duration": 1.200000000000017,
          "durationTicks": 240,
          "midi": 55,
          "name": "G3",
          "ticks": 27840,
          "time": 139.2,
          "velocity": 0.7874015748031497
        },
        {
          "duration": 1.1999999999999886,
          "durationTicks": 240,
          "midi": 65,
          "name": "F4",
          "ticks": 28080,
          "time": 140.4,
          "velocity": 0.7874015748031497
        },
        {
          "duration": 1.1999999999999886,
          "durationTicks": 240,
          "midi": 57,
          "name": "A3",
          "ticks": 28080,
          "time": 140.4,
          "velocity": 0.7874015748031497
        },
        {
          "duration": 1.1999999999999886,
          "durationTicks": 240,
          "midi": 53,
          "name": "F3",
          "ticks": 28080,
          "time": 140.4,
          "velocity": 0.7874015748031497
        },
        {
          "duration": 1.1999999999999886,
          "durationTicks": 240,
          "midi": 64,
          "name": "E4",
          "ticks": 28320,
          "time": 141.6,
          "velocity": 0.7874015748031497
        },
        {
          "duration": 1.1999999999999886,
          "durationTicks": 240,
          "midi": 55,
          "name": "G3",
          "ticks": 28320,
          "time": 141.6,
          "velocity": 0.7874015748031497
        },
        {
          "duration": 1.1999999999999886,
          "durationTicks": 240,
          "midi": 60,
          "name": "C4",
          "ticks": 28320,
          "time": 141.6,
          "velocity": 0.7874015748031497
        },
        {
          "duration": 1.200000000000017,
          "durationTicks": 240,
          "midi": 65,
          "name": "F4",
          "ticks": 28560,
          "time": 142.79999999999998,
          "velocity": 0.7874015748031497
        },
        {
          "duration": 1.200000000000017,
          "durationTicks": 240,
          "midi": 57,
          "name": "A3",
          "ticks": 28560,
          "time": 142.79999999999998,
          "velocity": 0.7874015748031497
        },
        {
          "duration": 1.200000000000017,
          "durationTicks": 240,
          "midi": 60,
          "name": "C4",
          "ticks": 28560,
          "time": 142.79999999999998,
          "velocity": 0.7874015748031497
        },
        {
          "duration": 1.1999999999999886,
          "durationTicks": 240,
          "midi": 67,
          "name": "G4",
          "ticks": 28800,
          "time": 144,
          "velocity": 0.7874015748031497
        },
        {
          "duration": 1.1999999999999886,
          "durationTicks": 240,
          "midi": 59,
          "name": "B3",
          "ticks": 28800,
          "time": 144,
          "velocity": 0.7874015748031497
        },
        {
          "duration": 1.1999999999999886,
          "durationTicks": 240,
          "midi": 55,
          "name": "G3",
          "ticks": 28800,
          "time": 144,
          "velocity": 0.7874015748031497
        },
        {
          "duration": 1.200000000000017,
          "durationTicks": 240,
          "midi": 65,
          "name": "F4",
          "ticks": 29040,
          "time": 145.2,
          "velocity": 0.7874015748031497
        },
        {
          "duration": 1.200000000000017,
          "durationTicks": 240,
          "midi": 57,
          "name": "A3",
          "ticks": 29040,
          "time": 145.2,
          "velocity": 0.7874015748031497
        },
        {
          "duration": 1.200000000000017,
          "durationTicks": 240,
          "midi": 53,
          "name": "F3",
          "ticks": 29040,
          "time": 145.2,
          "velocity": 0.7874015748031497
        },
        {
          "duration": 1.1999999999999886,
          "durationTicks": 240,
          "midi": 64,
          "name": "E4",
          "ticks": 29280,
          "time": 146.4,
          "velocity": 0.7874015748031497
        },
        {
          "duration": 1.1999999999999886,
          "durationTicks": 240,
          "midi": 55,
          "name": "G3",
          "ticks": 29280,
          "time": 146.4,
          "velocity": 0.7874015748031497
        },
        {
          "duration": 1.1999999999999886,
          "durationTicks": 240,
          "midi": 60,
          "name": "C4",
          "ticks": 29280,
          "time": 146.4,
          "velocity": 0.7874015748031497
        },
        {
          "duration": 1.1999999999999886,
          "durationTicks": 240,
          "midi": 65,
          "name": "F4",
          "ticks": 29520,
          "time": 147.6,
          "velocity": 0.7874015748031497
        },
        {
          "duration": 1.1999999999999886,
          "durationTicks": 240,
          "midi": 57,
          "name": "A3",
          "ticks": 29520,
          "time": 147.6,
          "velocity": 0.7874015748031497
        },
        {
          "duration": 1.1999999999999886,
          "durationTicks": 240,
          "midi": 60,
          "name": "C4",
          "ticks": 29520,
          "time": 147.6,
          "velocity": 0.7874015748031497
        },
        {
          "duration": 1.200000000000017,
          "durationTicks": 240,
          "midi": 67,
          "name": "G4",
          "ticks": 29760,
          "time": 148.79999999999998,
          "velocity": 0.7874015748031497
        },
        {
          "duration": 1.200000000000017,
          "durationTicks": 240,
          "midi": 59,
          "name": "B3",
          "ticks": 29760,
          "time": 148.79999999999998,
          "velocity": 0.7874015748031497
        },
        {
          "duration": 1.200000000000017,
          "durationTicks": 240,
          "midi": 55,
          "name": "G3",
          "ticks": 29760,
          "time": 148.79999999999998,
          "velocity": 0.7874015748031497
        },
        {
          "duration": 1.1999999999999886,
          "durationTicks": 240,
          "midi": 65,
          "name": "F4",
          "ticks": 30000,
          "time": 150,
          "velocity": 0.7874015748031497
        },
        {
          "duration": 1.1999999999999886,
          "durationTicks": 240,
          "midi": 57,
          "name": "A3",
          "ticks": 30000,
          "time": 150,
          "velocity": 0.7874015748031497
        },
        {
          "duration": 1.1999999999999886,
          "durationTicks": 240,
          "midi": 53,
          "name": "F3",
          "ticks": 30000,
          "time": 150,
          "velocity": 0.7874015748031497
        },
        {
          "duration": 1.200000000000017,
          "durationTicks": 240,
          "midi": 64,
          "name": "E4",
          "ticks": 30240,
          "time": 151.2,
          "velocity": 0.7874015748031497
        },
        {
          "duration": 1.200000000000017,
          "durationTicks": 240,
          "midi": 55,
          "name": "G3",
          "ticks": 30240,
          "time": 151.2,
          "velocity": 0.7874015748031497
        },
        {
          "duration": 1.200000000000017,
          "durationTicks": 240,
          "midi": 60,
          "name": "C4",
          "ticks": 30240,
          "time": 151.2,
          "velocity": 0.7874015748031497
        },
        {
          "duration": 1.1999999999999886,
          "durationTicks": 240,
          "midi": 65,
          "name": "F4",
          "ticks": 30480,
          "time": 152.4,
          "velocity": 0.7874015748031497
        },
        {
          "duration": 1.1999999999999886,
          "durationTicks": 240,
          "midi": 57,
          "name": "A3",
          "ticks": 30480,
          "time": 152.4,
          "velocity": 0.7874015748031497
        },
        {
          "duration": 1.1999999999999886,
          "durationTicks": 240,
          "midi": 60,
          "name": "C4",
          "ticks": 30480,
          "time": 152.4,
          "velocity": 0.7874015748031497
        },
        {
          "duration": 1.1999999999999886,
          "durationTicks": 240,
          "midi": 67,
          "name": "G4",
          "ticks": 30720,
          "time": 153.6,
          "velocity": 0.7874015748031497
        },
        {
          "duration": 1.1999999999999886,
          "durationTicks": 240,
          "midi": 59,
          "name": "B3",
          "ticks": 30720,
          "time": 153.6,
          "velocity": 0.7874015748031497
        },
        {
          "duration": 1.1999999999999886,
          "durationTicks": 240,
          "midi": 55,
          "name": "G3",
          "ticks": 30720,
          "time": 153.6,
          "velocity": 0.7874015748031497
        },
        {
          "duration": 1.200000000000017,
          "durationTicks": 240,
          "midi": 65,
          "name": "F4",
          "ticks": 30960,
          "time": 154.79999999999998,
          "velocity": 0.7874015748031497
        },
        {
          "duration": 1.200000000000017,
          "durationTicks": 240,
          "midi": 57,
          "name": "A3",
          "ticks": 30960,
          "time": 154.79999999999998,
          "velocity": 0.7874015748031497
        },
        {
          "duration": 1.200000000000017,
          "durationTicks": 240,
          "midi": 53,
          "name": "F3",
          "ticks": 30960,
          "time": 154.79999999999998,
          "velocity": 0.7874015748031497
        }
      ],
      "endOfTrackTicks": 32640
    },
    {
      "channel": 0,
      "controlChanges": {},
      "pitchBends": [],
      "instrument": {
        "family": "piano",
        "number": 0,
        "name": "acoustic grand piano"
      },
      "name": "",
      "notes": [],
      "endOfTrackTicks": 32640
    },
    {
      "channel": 0,
      "controlChanges": {},
      "pitchBends": [],
      "instrument": {
        "family": "piano",
        "number": 0,
        "name": "acoustic grand piano"
      },
      "name": "",
      "notes": [],
      "endOfTrackTicks": 32640
    },
    {
      "channel": 0,
      "controlChanges": {
        "0": [
          {
            "number": 0,
            "ticks": 120,
            "time": 0.6,
            "value": 0
          }
        ],
        "32": [
          {
            "number": 32,
            "ticks": 130,
            "time": 0.6499999999999999,
            "value": 0
          }
        ]
      },
      "pitchBends": [],
      "instrument": {
        "family": "piano",
        "number": 0,
        "name": "acoustic grand piano"
      },
      "name": "Reverse Cymbal",
      "notes": [],
      "endOfTrackTicks": 32640
    },
    {
      "channel": 3,
      "controlChanges": {
        "1": [
          {
            "number": 1,
            "ticks": 150,
            "time": 0.75,
            "value": 0
          }
        ],
        "7": [
          {
            "number": 7,
            "ticks": 160,
            "time": 0.7999999999999999,
            "value": 0.7874015748031497
          }
        ],
        "10": [
          {
            "number": 10,
            "ticks": 170,
            "time": 0.85,
            "value": 0.5039370078740157
          }
        ],
        "11": [
          {
            "number": 11,
            "ticks": 180,
            "time": 0.8999999999999999,
            "value": 1
          }
        ],
        "64": [
          {
            "number": 64,
            "ticks": 190,
            "time": 0.95,
            "value": 0
          }
        ],
        "91": [
          {
            "number": 91,
            "ticks": 200,
            "time": 1,
            "value": 0.31496062992125984
          }
        ],
        "93": [
          {
            "number": 93,
            "ticks": 210,
            "time": 1.05,
            "value": 0
          }
        ],
        "94": [
          {
            "number": 94,
            "ticks": 220,
            "time": 1.0999999999999999,
            "value": 0
          }
        ]
      },
      "pitchBends": [],
      "instrument": {
        "family": "percussive",
        "number": 119,
        "name": "reverse cymbal"
      },
      "name": "",
      "notes": [
        {
          "duration": 1.2000000000000028,
          "durationTicks": 240,
          "midi": 23,
          "name": "B0",
          "ticks": 22560,
          "time": 112.8,
          "velocity": 0.2677165354330709
        },
        {
          "duration": 1.2000000000000028,
          "durationTicks": 240,
          "midi": 27,
          "name": "D#1",
          "ticks": 22620,
          "time": 113.1,
          "velocity": 0.2992125984251969
        },
        {
          "duration": 1.2000000000000028,
          "durationTicks": 240,
          "midi": 31,
          "name": "G1",
          "ticks": 22680,
          "time": 113.39999999999999,
          "velocity": 0.33070866141732286
        },
        {
          "duration": 1.1999999999999886,
          "durationTicks": 240,
          "midi": 35,
          "name": "B1",
          "ticks": 22740,
          "time": 113.7,
          "velocity": 0.36220472440944884
        },
        {
          "duration": 1.1999999999999886,
          "durationTicks": 240,
          "midi": 38,
          "name": "D2",
          "ticks": 22800,
          "time": 114,
          "velocity": 0.3937007874015748
        },
        {
          "duration": 1.3499999999999943,
          "durationTicks": 270,
          "midi": 41,
          "name": "F2",
          "ticks": 22860,
          "time": 114.3,
          "velocity": 0.4251968503937008
        },
        {
          "duration": 1.3499999999999943,
          "durationTicks": 270,
          "midi": 45,
          "name": "A2",
          "ticks": 22920,
          "time": 114.6,
          "velocity": 0.4566929133858268
        },
        {
          "duration": 1.3500000000000085,
          "durationTicks": 270,
          "midi": 48,
          "name": "C3",
          "ticks": 22980,
          "time": 114.89999999999999,
          "velocity": 0.4881889763779528
        },
        {
          "duration": 1.3500000000000085,
          "durationTicks": 270,
          "midi": 50,
          "name": "D3",
          "ticks": 23040,
          "time": 115.19999999999999,
          "velocity": 0.5118110236220472
        },
        {
          "duration": 1.3499999999999943,
          "durationTicks": 270,
          "midi": 52,
          "name": "E3",
          "ticks": 23100,
          "time": 115.5,
          "velocity": 0.5433070866141733
        },
        {
          "duration": 1.2000000000000028,
          "durationTicks": 240,
          "midi": 55,
          "name": "G3",
          "ticks": 23160,
          "time": 115.8,
          "velocity": 0.5748031496062992
        },
        {
          "duration": 0.9000000000000057,
          "durationTicks": 180,
          "midi": 59,
          "name": "B3",
          "ticks": 23220,
          "time": 116.1,
          "velocity": 0.6062992125984252
        },
        {
          "duration": 0.6000000000000085,
          "durationTicks": 120,
          "midi": 65,
          "name": "F4",
          "ticks": 23280,
          "time": 116.39999999999999,
          "velocity": 0.6377952755905512
        },
        {
          "duration": 0.30000000000001137,
          "durationTicks": 60,
          "midi": 74,
          "name": "D5",
          "ticks": 23340,
          "time": 116.69999999999999,
          "velocity": 0.7874015748031497
        }
      ]
    },
    {
      "channel": 0,
      "controlChanges": {
        "0": [
          {
            "number": 0,
            "ticks": 120,
            "time": 0.6,
            "value": 0
          }
        ],
        "32": [
          {
            "number": 32,
            "ticks": 130,
            "time": 0.6499999999999999,
            "value": 0
          }
        ]
      },
      "pitchBends": [],
      "instrument": {
        "family": "piano",
        "number": 0,
        "name": "acoustic grand piano"
      },
      "name": "Space Voice",
      "notes": [],
      "endOfTrackTicks": 32640
    },
    {
      "channel": 4,
      "controlChanges": {
        "1": [
          {
            "number": 1,
            "ticks": 150,
            "time": 0.75,
            "value": 0
          }
        ],
        "7": [
          {
            "number": 7,
            "ticks": 160,
            "time": 0.7999999999999999,
            "value": 0.7874015748031497
          }
        ],
        "10": [
          {
            "number": 10,
            "ticks": 170,
            "time": 0.85,
            "value": 0.5039370078740157
          }
        ],
        "11": [
          {
            "number": 11,
            "ticks": 180,
            "time": 0.8999999999999999,
            "value": 1
          }
        ],
        "64": [
          {
            "number": 64,
            "ticks": 190,
            "time": 0.95,
            "value": 0
          }
        ],
        "91": [
          {
            "number": 91,
            "ticks": 200,
            "time": 1,
            "value": 0.6299212598425197
          }
        ],
        "93": [
          {
            "number": 93,
            "ticks": 210,
            "time": 1.05,
            "value": 0
          }
        ],
        "94": [
          {
            "number": 94,
            "ticks": 220,
            "time": 1.0999999999999999,
            "value": 0
          }
        ]
      },
      "pitchBends": [],
      "instrument": {
        "family": "synth pad",
        "number": 91,
        "name": "pad 4 (choir)"
      },
      "name": "",
      "notes": [
        {
          "duration": 0.09999999999999432,
          "durationTicks": 20,
          "midi": 91,
          "name": "G6",
          "ticks": 15960,
          "time": 79.8,
          "velocity": 0.7874015748031497
        },
        {
          "duration": 0.09999999999999432,
          "durationTicks": 20,
          "midi": 91,
          "name": "G6",
          "ticks": 16020,
          "time": 80.1,
          "velocity": 0.7874015748031497
        },
        {
          "duration": 0.09999999999999432,
          "durationTicks": 20,
          "midi": 91,
          "name": "G6",
          "ticks": 16080,
          "time": 80.39999999999999,
          "velocity": 0.7874015748031497
        },
        {
          "duration": 0.09999999999999432,
          "durationTicks": 20,
          "midi": 91,
          "name": "G6",
          "ticks": 16260,
          "time": 81.3,
          "velocity": 0.7874015748031497
        },
        {
          "duration": 0.09999999999999432,
          "durationTicks": 20,
          "midi": 89,
          "name": "F6",
          "ticks": 16300,
          "time": 81.5,
          "velocity": 0.7874015748031497
        },
        {
          "duration": 0.09999999999999432,
          "durationTicks": 20,
          "midi": 88,
          "name": "E6",
          "ticks": 16320,
          "time": 81.6,
          "velocity": 0.7874015748031497
        },
        {
          "duration": 0.09999999999999432,
          "durationTicks": 20,
          "midi": 88,
          "name": "E6",
          "ticks": 16380,
          "time": 81.89999999999999,
          "velocity": 0.7874015748031497
        },
        {
          "duration": 0.09999999999999432,
          "durationTicks": 20,
          "midi": 89,
          "name": "F6",
          "ticks": 16420,
          "time": 82.10000000000001,
          "velocity": 0.7874015748031497
        },
        {
          "duration": 0.09999999999999432,
          "durationTicks": 20,
          "midi": 91,
          "name": "G6",
          "ticks": 16440,
          "time": 82.2,
          "velocity": 0.7874015748031497
        },
        {
          "duration": 0.09999999999999432,
          "durationTicks": 20,
          "midi": 88,
          "name": "E6",
          "ticks": 16500,
          "time": 82.5,
          "velocity": 0.7874015748031497
        },
        {
          "duration": 0.09999999999999432,
          "durationTicks": 20,
          "midi": 86,
          "name": "D6",
          "ticks": 16560,
          "time": 82.8,
          "velocity": 0.7874015748031497
        },
        {
          "duration": 0.09999999999999432,
          "durationTicks": 20,
          "midi": 84,
          "name": "C6",
          "ticks": 16680,
          "time": 83.39999999999999,
          "velocity": 0.7874015748031497
        },
        {
          "duration": 0.09999999999999432,
          "durationTicks": 20,
          "midi": 86,
          "name": "D6",
          "ticks": 16740,
          "time": 83.7,
          "velocity": 0.7874015748031497
        },
        {
          "duration": 0.09999999999999432,
          "durationTicks": 20,
          "midi": 88,
          "name": "E6",
          "ticks": 16800,
          "time": 84,
          "velocity": 0.7874015748031497
        },
        {
          "duration": 0.09999999999999432,
          "durationTicks": 20,
          "midi": 84,
          "name": "C6",
          "ticks": 16860,
          "time": 84.3,
          "velocity": 0.7874015748031497
        },
        {
          "duration": 0.09999999999999432,
          "durationTicks": 20,
          "midi": 79,
          "name": "G5",
          "ticks": 16920,
          "time": 84.6,
          "velocity": 0.7874015748031497
        },
        {
          "duration": 0.09999999999999432,
          "durationTicks": 20,
          "midi": 91,
          "name": "G6",
          "ticks": 17880,
          "time": 89.39999999999999,
          "velocity": 0.7874015748031497
        },
        {
          "duration": 0.09999999999999432,
          "durationTicks": 20,
          "midi": 93,
          "name": "A6",
          "ticks": 17940,
          "time": 89.7,
          "velocity": 0.7874015748031497
        },
        {
          "duration": 0.09999999999999432,
          "durationTicks": 20,
          "midi": 91,
          "name": "G6",
          "ticks": 18000,
          "time": 90,
          "velocity": 0.7874015748031497
        },
        {
          "duration": 0.09999999999999432,
          "durationTicks": 20,
          "midi": 88,
          "name": "E6",
          "ticks": 18180,
          "time": 90.89999999999999,
          "velocity": 0.7874015748031497
        },
        {
          "duration": 0.09999999999999432,
          "durationTicks": 20,
          "midi": 89,
          "name": "F6",
          "ticks": 18220,
          "time": 91.10000000000001,
          "velocity": 0.7874015748031497
        },
        {
          "duration": 0.09999999999999432,
          "durationTicks": 20,
          "midi": 91,
          "name": "G6",
          "ticks": 18240,
          "time": 91.2,
          "velocity": 0.7874015748031497
        },
        {
          "duration": 0.09999999999999432,
          "durationTicks": 20,
          "midi": 89,
          "name": "F6",
          "ticks": 18300,
          "time": 91.5,
          "velocity": 0.7874015748031497
        },
        {
          "duration": 0.09999999999999432,
          "durationTicks": 20,
          "midi": 88,
          "name": "E6",
          "ticks": 18340,
          "time": 91.7,
          "velocity": 0.7874015748031497
        },
        {
          "duration": 0.09999999999999432,
          "durationTicks": 20,
          "midi": 86,
          "name": "D6",
          "ticks": 18360,
          "time": 91.8,
          "velocity": 0.7874015748031497
        },
        {
          "duration": 0.09999999999999432,
          "durationTicks": 20,
          "midi": 81,
          "name": "A5",
          "ticks": 18420,
          "time": 92.1,
          "velocity": 0.7874015748031497
        },
        {
          "duration": 0.09999999999999432,
          "durationTicks": 20,
          "midi": 79,
          "name": "G5",
          "ticks": 18480,
          "time": 92.39999999999999,
          "velocity": 0.7874015748031497
        },
        {
          "duration": 0.09999999999999432,
          "durationTicks": 20,
          "midi": 77,
          "name": "F5",
          "ticks": 18600,
          "time": 93,
          "velocity": 0.7874015748031497
        },
        {
          "duration": 0.09999999999999432,
          "durationTicks": 20,
          "midi": 81,
          "name": "A5",
          "ticks": 18660,
          "time": 93.3,
          "velocity": 0.7874015748031497
        },
        {
          "duration": 0.09999999999999432,
          "durationTicks": 20,
          "midi": 79,
          "name": "G5",
          "ticks": 18720,
          "time": 93.6,
          "velocity": 0.7874015748031497
        },
        {
          "duration": 0.09999999999999432,
          "durationTicks": 20,
          "midi": 88,
          "name": "E6",
          "ticks": 18780,
          "time": 93.89999999999999,
          "velocity": 0.7874015748031497
        },
        {
          "duration": 0.09999999999999432,
          "durationTicks": 20,
          "midi": 84,
          "name": "C6",
          "ticks": 18840,
          "time": 94.2,
          "velocity": 0.7874015748031497
        }
      ]
    },
    {
      "channel": 0,
      "controlChanges": {
        "0": [
          {
            "number": 0,
            "ticks": 120,
            "time": 0.6,
            "value": 0
          }
        ],
        "32": [
          {
            "number": 32,
            "ticks": 130,
            "time": 0.6499999999999999,
            "value": 0
          }
        ]
      },
      "pitchBends": [],
      "instrument": {
        "family": "piano",
        "number": 0,
        "name": "acoustic grand piano"
      },
      "name": "Contrabass",
      "notes": [],
      "endOfTrackTicks": 32640
    },
    {
      "channel": 5,
      "controlChanges": {
        "1": [
          {
            "number": 1,
            "ticks": 150,
            "time": 0.75,
            "value": 0
          }
        ],
        "7": [
          {
            "number": 7,
            "ticks": 160,
            "time": 0.7999999999999999,
            "value": 0.5118110236220472
          }
        ],
        "10": [
          {
            "number": 10,
            "ticks": 170,
            "time": 0.85,
            "value": 0.3937007874015748
          }
        ],
        "11": [
          {
            "number": 11,
            "ticks": 180,
            "time": 0.8999999999999999,
            "value": 1
          }
        ],
        "64": [
          {
            "number": 64,
            "ticks": 190,
            "time": 0.95,
            "value": 0
          }
        ],
        "91": [
          {
            "number": 91,
            "ticks": 200,
            "time": 1,
            "value": 0.31496062992125984
          }
        ],
        "93": [
          {
            "number": 93,
            "ticks": 210,
            "time": 1.05,
            "value": 0
          }
        ],
        "94": [
          {
            "number": 94,
            "ticks": 220,
            "time": 1.0999999999999999,
            "value": 0
          }
        ]
      },
      "pitchBends": [],
      "instrument": {
        "family": "strings",
        "number": 43,
        "name": "contrabass"
      },
      "name": "",
      "notes": [
        {
          "duration": 1.2000000000000002,
          "durationTicks": 240,
          "midi": 48,
          "name": "C3",
          "ticks": 960,
          "time": 4.8,
          "velocity": 0.7874015748031497
        },
        {
          "duration": 1.1999999999999993,
          "durationTicks": 240,
          "midi": 45,
          "name": "A2",
          "ticks": 1200,
          "time": 6,
          "velocity": 0.7874015748031497
        },
        {
          "duration": 1.200000000000001,
          "durationTicks": 240,
          "midi": 43,
          "name": "G2",
          "ticks": 1440,
          "time": 7.199999999999999,
          "velocity": 0.7874015748031497
        },
        {
          "duration": 1.1999999999999993,
          "durationTicks": 240,
          "midi": 41,
          "name": "F2",
          "ticks": 1680,
          "time": 8.4,
          "velocity": 0.7874015748031497
        },
        {
          "duration": 1.1999999999999993,
          "durationTicks": 240,
          "midi": 48,
          "name": "C3",
          "ticks": 1920,
          "time": 9.6,
          "velocity": 0.7874015748031497
        },
        {
          "duration": 1.200000000000001,
          "durationTicks": 240,
          "midi": 45,
          "name": "A2",
          "ticks": 2160,
          "time": 10.799999999999999,
          "velocity": 0.7874015748031497
        },
        {
          "duration": 1.1999999999999993,
          "durationTicks": 240,
          "midi": 43,
          "name": "G2",
          "ticks": 2400,
          "time": 12,
          "velocity": 0.7874015748031497
        },
        {
          "duration": 1.1999999999999993,
          "durationTicks": 240,
          "midi": 41,
          "name": "F2",
          "ticks": 2640,
          "time": 13.2,
          "velocity": 0.7874015748031497
        },
        {
          "duration": 1.200000000000001,
          "durationTicks": 240,
          "midi": 48,
          "name": "C3",
          "ticks": 2880,
          "time": 14.399999999999999,
          "velocity": 0.7874015748031497
        },
        {
          "duration": 1.200000000000001,
          "durationTicks": 240,
          "midi": 45,
          "name": "A2",
          "ticks": 3120,
          "time": 15.6,
          "velocity": 0.7874015748031497
        },
        {
          "duration": 1.1999999999999993,
          "durationTicks": 240,
          "midi": 43,
          "name": "G2",
          "ticks": 3360,
          "time": 16.8,
          "velocity": 0.7874015748031497
        },
        {
          "duration": 1.1999999999999993,
          "durationTicks": 240,
          "midi": 41,
          "name": "F2",
          "ticks": 3600,
          "time": 18,
          "velocity": 0.7874015748031497
        },
        {
          "duration": 1.1999999999999993,
          "durationTicks": 240,
          "midi": 48,
          "name": "C3",
          "ticks": 3840,
          "time": 19.2,
          "velocity": 0.7874015748031497
        },
        {
          "duration": 1.1999999999999993,
          "durationTicks": 240,
          "midi": 45,
          "name": "A2",
          "ticks": 4080,
          "time": 20.4,
          "velocity": 0.7874015748031497
        },
        {
          "duration": 1.2000000000000028,
          "durationTicks": 240,
          "midi": 43,
          "name": "G2",
          "ticks": 4320,
          "time": 21.599999999999998,
          "velocity": 0.7874015748031497
        },
        {
          "duration": 1.1999999999999993,
          "durationTicks": 240,
          "midi": 41,
          "name": "F2",
          "ticks": 4560,
          "time": 22.8,
          "velocity": 0.7874015748031497
        },
        {
          "duration": 1.1999999999999993,
          "durationTicks": 240,
          "midi": 48,
          "name": "C3",
          "ticks": 4800,
          "time": 24,
          "velocity": 0.7874015748031497
        },
        {
          "duration": 1.1999999999999993,
          "durationTicks": 240,
          "midi": 45,
          "name": "A2",
          "ticks": 5040,
          "time": 25.2,
          "velocity": 0.7874015748031497
        },
        {
          "duration": 1.1999999999999993,
          "durationTicks": 240,
          "midi": 43,
          "name": "G2",
          "ticks": 5280,
          "time": 26.4,
          "velocity": 0.7874015748031497
        },
        {
          "duration": 1.1999999999999993,
          "durationTicks": 240,
          "midi": 41,
          "name": "F2",
          "ticks": 5520,
          "time": 27.599999999999998,
          "velocity": 0.7874015748031497
        },
        {
          "duration": 1.2000000000000028,
          "durationTicks": 240,
          "midi": 48,
          "name": "C3",
          "ticks": 5760,
          "time": 28.799999999999997,
          "velocity": 0.7874015748031497
        },
        {
          "duration": 1.1999999999999993,
          "durationTicks": 240,
          "midi": 45,
          "name": "A2",
          "ticks": 6000,
          "time": 30,
          "velocity": 0.7874015748031497
        },
        {
          "duration": 1.1999999999999993,
          "durationTicks": 240,
          "midi": 43,
          "name": "G2",
          "ticks": 6240,
          "time": 31.2,
          "velocity": 0.7874015748031497
        },
        {
          "duration": 1.2000000000000028,
          "durationTicks": 240,
          "midi": 41,
          "name": "F2",
          "ticks": 6480,
          "time": 32.4,
          "velocity": 0.7874015748031497
        },
        {
          "duration": 1.1999999999999957,
          "durationTicks": 240,
          "midi": 48,
          "name": "C3",
          "ticks": 6720,
          "time": 33.6,
          "velocity": 0.7874015748031497
        },
        {
          "duration": 1.2000000000000028,
          "durationTicks": 240,
          "midi": 45,
          "name": "A2",
          "ticks": 6960,
          "time": 34.8,
          "velocity": 0.7874015748031497
        },
        {
          "duration": 1.1999999999999957,
          "durationTicks": 240,
          "midi": 43,
          "name": "G2",
          "ticks": 7200,
          "time": 36,
          "velocity": 0.7874015748031497
        },
        {
          "duration": 1.2000000000000028,
          "durationTicks": 240,
          "midi": 41,
          "name": "F2",
          "ticks": 7440,
          "time": 37.199999999999996,
          "velocity": 0.7874015748031497
        },
        {
          "duration": 1.2000000000000028,
          "durationTicks": 240,
          "midi": 48,
          "name": "C3",
          "ticks": 7680,
          "time": 38.4,
          "velocity": 0.7874015748031497
        },
        {
          "duration": 1.1999999999999957,
          "durationTicks": 240,
          "midi": 45,
          "name": "A2",
          "ticks": 7920,
          "time": 39.6,
          "velocity": 0.7874015748031497
        },
        {
          "duration": 1.2000000000000028,
          "durationTicks": 240,
          "midi": 43,
          "name": "G2",
          "ticks": 8160,
          "time": 40.8,
          "velocity": 0.7874015748031497
        },
        {
          "duration": 1.1999999999999957,
          "durationTicks": 240,
          "midi": 41,
          "name": "F2",
          "ticks": 8400,
          "time": 42,
          "velocity": 0.7874015748031497
        },
        {
          "duration": 1.2000000000000028,
          "durationTicks": 240,
          "midi": 48,
          "name": "C3",
          "ticks": 8640,
          "time": 43.199999999999996,
          "velocity": 0.7874015748031497
        },
        {
          "duration": 1.2000000000000028,
          "durationTicks": 240,
          "midi": 45,
          "name": "A2",
          "ticks": 8880,
          "time": 44.4,
          "velocity": 0.7874015748031497
        },
        {
          "duration": 1.1999999999999957,
          "durationTicks": 240,
          "midi": 43,
          "name": "G2",
          "ticks": 9120,
          "time": 45.6,
          "velocity": 0.7874015748031497
        },
        {
          "duration": 1.2000000000000028,
          "durationTicks": 240,
          "midi": 41,
          "name": "F2",
          "ticks": 9360,
          "time": 46.8,
          "velocity": 0.7874015748031497
        },
        {
          "duration": 1.1999999999999957,
          "durationTicks": 240,
          "midi": 48,
          "name": "C3",
          "ticks": 9600,
          "time": 48,
          "velocity": 0.7874015748031497
        },
        {
          "duration": 1.2000000000000028,
          "durationTicks": 240,
          "midi": 45,
          "name": "A2",
          "ticks": 9840,
          "time": 49.199999999999996,
          "velocity": 0.7874015748031497
        },
        {
          "duration": 1.2000000000000028,
          "durationTicks": 240,
          "midi": 43,
          "name": "G2",
          "ticks": 10080,
          "time": 50.4,
          "velocity": 0.7874015748031497
        },
        {
          "duration": 1.1999999999999957,
          "durationTicks": 240,
          "midi": 41,
          "name": "F2",
          "ticks": 10320,
          "time": 51.6,
          "velocity": 0.7874015748031497
        },
        {
          "duration": 1.1999999999999957,
          "durationTicks": 240,
          "midi": 48,
          "name": "C3",
          "ticks": 12000,
          "time": 60,
          "velocity": 0.7874015748031497
        },
        {
          "duration": 1.2000000000000028,
          "durationTicks": 240,
          "midi": 45,
          "name": "A2",
          "ticks": 12240,
          "time": 61.199999999999996,
          "velocity": 0.7874015748031497
        },
        {
          "duration": 1.1999999999999957,
          "durationTicks": 240,
          "midi": 43,
          "name": "G2",
          "ticks": 12480,
          "time": 62.4,
          "velocity": 0.7874015748031497
        },
        {
          "duration": 1.2000000000000028,
          "durationTicks": 240,
          "midi": 41,
          "name": "F2",
          "ticks": 12720,
          "time": 63.599999999999994,
          "velocity": 0.7874015748031497
        },
        {
          "duration": 1.2000000000000028,
          "durationTicks": 240,
          "midi": 48,
          "name": "C3",
          "ticks": 12960,
          "time": 64.8,
          "velocity": 0.7874015748031497
        },
        {
          "duration": 1.2000000000000028,
          "durationTicks": 240,
          "midi": 45,
          "name": "A2",
          "ticks": 13200,
          "time": 66,
          "velocity": 0.7874015748031497
        },
        {
          "duration": 1.1999999999999886,
          "durationTicks": 240,
          "midi": 43,
          "name": "G2",
          "ticks": 13440,
          "time": 67.2,
          "velocity": 0.7874015748031497
        },
        {
          "duration": 1.2000000000000028,
          "durationTicks": 240,
          "midi": 41,
          "name": "F2",
          "ticks": 13680,
          "time": 68.39999999999999,
          "velocity": 0.7874015748031497
        },
        {
          "duration": 1.2000000000000028,
          "durationTicks": 240,
          "midi": 48,
          "name": "C3",
          "ticks": 13920,
          "time": 69.6,
          "velocity": 0.7874015748031497
        },
        {
          "duration": 1.2000000000000028,
          "durationTicks": 240,
          "midi": 45,
          "name": "A2",
          "ticks": 14160,
          "time": 70.8,
          "velocity": 0.7874015748031497
        },
        {
          "duration": 1.2000000000000028,
          "durationTicks": 240,
          "midi": 43,
          "name": "G2",
          "ticks": 14400,
          "time": 72,
          "velocity": 0.7874015748031497
        },
        {
          "duration": 1.1999999999999886,
          "durationTicks": 240,
          "midi": 41,
          "name": "F2",
          "ticks": 14640,
          "time": 73.2,
          "velocity": 0.7874015748031497
        },
        {
          "duration": 1.2000000000000028,
          "durationTicks": 240,
          "midi": 48,
          "name": "C3",
          "ticks": 14880,
          "time": 74.39999999999999,
          "velocity": 0.7874015748031497
        },
        {
          "duration": 1.2000000000000028,
          "durationTicks": 240,
          "midi": 45,
          "name": "A2",
          "ticks": 15120,
          "time": 75.6,
          "velocity": 0.7874015748031497
        },
        {
          "duration": 1.2000000000000028,
          "durationTicks": 240,
          "midi": 43,
          "name": "G2",
          "ticks": 15360,
          "time": 76.8,
          "velocity": 0.7874015748031497
        },
        {
          "duration": 1.2000000000000028,
          "durationTicks": 240,
          "midi": 41,
          "name": "F2",
          "ticks": 15600,
          "time": 78,
          "velocity": 0.7874015748031497
        },
        {
          "duration": 1.1999999999999886,
          "durationTicks": 240,
          "midi": 48,
          "name": "C3",
          "ticks": 15840,
          "time": 79.2,
          "velocity": 0.7874015748031497
        },
        {
          "duration": 1.2000000000000028,
          "durationTicks": 240,
          "midi": 45,
          "name": "A2",
          "ticks": 16080,
          "time": 80.39999999999999,
          "velocity": 0.7874015748031497
        },
        {
          "duration": 1.2000000000000028,
          "durationTicks": 240,
          "midi": 43,
          "name": "G2",
          "ticks": 16320,
          "time": 81.6,
          "velocity": 0.7874015748031497
        },
        {
          "duration": 1.2000000000000028,
          "durationTicks": 240,
          "midi": 41,
          "name": "F2",
          "ticks": 16560,
          "time": 82.8,
          "velocity": 0.7874015748031497
        },
        {
          "duration": 1.2000000000000028,
          "durationTicks": 240,
          "midi": 48,
          "name": "C3",
          "ticks": 16800,
          "time": 84,
          "velocity": 0.7874015748031497
        },
        {
          "duration": 1.1999999999999886,
          "durationTicks": 240,
          "midi": 45,
          "name": "A2",
          "ticks": 17040,
          "time": 85.2,
          "velocity": 0.7874015748031497
        },
        {
          "duration": 1.2000000000000028,
          "durationTicks": 240,
          "midi": 43,
          "name": "G2",
          "ticks": 17280,
          "time": 86.39999999999999,
          "velocity": 0.7874015748031497
        },
        {
          "duration": 1.2000000000000028,
          "durationTicks": 240,
          "midi": 41,
          "name": "F2",
          "ticks": 17520,
          "time": 87.6,
          "velocity": 0.7874015748031497
        },
        {
          "duration": 1.2000000000000028,
          "durationTicks": 240,
          "midi": 48,
          "name": "C3",
          "ticks": 17760,
          "time": 88.8,
          "velocity": 0.7874015748031497
        },
        {
          "duration": 1.2000000000000028,
          "durationTicks": 240,
          "midi": 45,
          "name": "A2",
          "ticks": 18000,
          "time": 90,
          "velocity": 0.7874015748031497
        },
        {
          "duration": 1.1999999999999886,
          "durationTicks": 240,
          "midi": 43,
          "name": "G2",
          "ticks": 18240,
          "time": 91.2,
          "velocity": 0.7874015748031497
        },
        {
          "duration": 1.2000000000000028,
          "durationTicks": 240,
          "midi": 41,
          "name": "F2",
          "ticks": 18480,
          "time": 92.39999999999999,
          "velocity": 0.7874015748031497
        },
        {
          "duration": 1.2000000000000028,
          "durationTicks": 240,
          "midi": 48,
          "name": "C3",
          "ticks": 18720,
          "time": 93.6,
          "velocity": 0.7874015748031497
        },
        {
          "duration": 1.2000000000000028,
          "durationTicks": 240,
          "midi": 45,
          "name": "A2",
          "ticks": 18960,
          "time": 94.8,
          "velocity": 0.7874015748031497
        },
        {
          "duration": 1.2000000000000028,
          "durationTicks": 240,
          "midi": 43,
          "name": "G2",
          "ticks": 19200,
          "time": 96,
          "velocity": 0.7874015748031497
        },
        {
          "duration": 1.1999999999999886,
          "durationTicks": 240,
          "midi": 41,
          "name": "F2",
          "ticks": 19440,
          "time": 97.2,
          "velocity": 0.7874015748031497
        },
        {
          "duration": 1.2000000000000028,
          "durationTicks": 240,
          "midi": 48,
          "name": "C3",
          "ticks": 19680,
          "time": 98.39999999999999,
          "velocity": 0.7874015748031497
        },
        {
          "duration": 1.2000000000000028,
          "durationTicks": 240,
          "midi": 45,
          "name": "A2",
          "ticks": 19920,
          "time": 99.6,
          "velocity": 0.7874015748031497
        },
        {
          "duration": 1.2000000000000028,
          "durationTicks": 240,
          "midi": 43,
          "name": "G2",
          "ticks": 20160,
          "time": 100.8,
          "velocity": 0.7874015748031497
        },
        {
          "duration": 1.2000000000000028,
          "durationTicks": 240,
          "midi": 41,
          "name": "F2",
          "ticks": 20400,
          "time": 102,
          "velocity": 0.7874015748031497
        },
        {
          "duration": 1.1999999999999886,
          "durationTicks": 240,
          "midi": 48,
          "name": "C3",
          "ticks": 20640,
          "time": 103.2,
          "velocity": 0.7874015748031497
        },
        {
          "duration": 1.2000000000000028,
          "durationTicks": 240,
          "midi": 45,
          "name": "A2",
          "ticks": 20880,
          "time": 104.39999999999999,
          "velocity": 0.7874015748031497
        },
        {
          "duration": 1.2000000000000028,
          "durationTicks": 240,
          "midi": 43,
          "name": "G2",
          "ticks": 21120,
          "time": 105.6,
          "velocity": 0.7874015748031497
        },
        {
          "duration": 1.2000000000000028,
          "durationTicks": 240,
          "midi": 41,
          "name": "F2",
          "ticks": 21360,
          "time": 106.8,
          "velocity": 0.7874015748031497
        },
        {
          "duration": 1.2000000000000028,
          "durationTicks": 240,
          "midi": 48,
          "name": "C3",
          "ticks": 21600,
          "time": 108,
          "velocity": 0.7874015748031497
        },
        {
          "duration": 1.1999999999999886,
          "durationTicks": 240,
          "midi": 45,
          "name": "A2",
          "ticks": 21840,
          "time": 109.2,
          "velocity": 0.7874015748031497
        },
        {
          "duration": 1.2000000000000028,
          "durationTicks": 240,
          "midi": 43,
          "name": "G2",
          "ticks": 22080,
          "time": 110.39999999999999,
          "velocity": 0.7874015748031497
        },
        {
          "duration": 1.2000000000000028,
          "durationTicks": 240,
          "midi": 41,
          "name": "F2",
          "ticks": 22320,
          "time": 111.6,
          "velocity": 0.7874015748031497
        },
        {
          "duration": 1.2000000000000028,
          "durationTicks": 240,
          "midi": 48,
          "name": "C3",
          "ticks": 22560,
          "time": 112.8,
          "velocity": 0.7874015748031497
        },
        {
          "duration": 1.1999999999999886,
          "durationTicks": 240,
          "midi": 45,
          "name": "A2",
          "ticks": 22800,
          "time": 114,
          "velocity": 0.7874015748031497
        },
        {
          "duration": 1.2000000000000028,
          "durationTicks": 240,
          "midi": 43,
          "name": "G2",
          "ticks": 23040,
          "time": 115.19999999999999,
          "velocity": 0.7874015748031497
        },
        {
          "duration": 1.2000000000000028,
          "durationTicks": 240,
          "midi": 41,
          "name": "F2",
          "ticks": 23280,
          "time": 116.39999999999999,
          "velocity": 0.7874015748031497
        },
        {
          "duration": 1.2000000000000028,
          "durationTicks": 240,
          "midi": 48,
          "name": "C3",
          "ticks": 23520,
          "time": 117.6,
          "velocity": 0.7874015748031497
        },
        {
          "duration": 1.2000000000000028,
          "durationTicks": 240,
          "midi": 45,
          "name": "A2",
          "ticks": 23760,
          "time": 118.8,
          "velocity": 0.7874015748031497
        },
        {
          "duration": 1.1999999999999886,
          "durationTicks": 240,
          "midi": 43,
          "name": "G2",
          "ticks": 24000,
          "time": 120,
          "velocity": 0.7874015748031497
        },
        {
          "duration": 1.2000000000000028,
          "durationTicks": 240,
          "midi": 41,
          "name": "F2",
          "ticks": 24240,
          "time": 121.19999999999999,
          "velocity": 0.7874015748031497
        },
        {
          "duration": 1.2000000000000028,
          "durationTicks": 240,
          "midi": 48,
          "name": "C3",
          "ticks": 24480,
          "time": 122.39999999999999,
          "velocity": 0.7874015748031497
        },
        {
          "duration": 1.2000000000000028,
          "durationTicks": 240,
          "midi": 45,
          "name": "A2",
          "ticks": 24720,
          "time": 123.6,
          "velocity": 0.7874015748031497
        },
        {
          "duration": 1.2000000000000028,
          "durationTicks": 240,
          "midi": 43,
          "name": "G2",
          "ticks": 24960,
          "time": 124.8,
          "velocity": 0.7874015748031497
        },
        {
          "duration": 1.1999999999999886,
          "durationTicks": 240,
          "midi": 41,
          "name": "F2",
          "ticks": 25200,
          "time": 126,
          "velocity": 0.7874015748031497
        },
        {
          "duration": 1.200000000000017,
          "durationTicks": 240,
          "midi": 48,
          "name": "C3",
          "ticks": 25440,
          "time": 127.19999999999999,
          "velocity": 0.7874015748031497
        },
        {
          "duration": 1.1999999999999886,
          "durationTicks": 240,
          "midi": 45,
          "name": "A2",
          "ticks": 25680,
          "time": 128.4,
          "velocity": 0.7874015748031497
        },
        {
          "duration": 1.1999999999999886,
          "durationTicks": 240,
          "midi": 43,
          "name": "G2",
          "ticks": 25920,
          "time": 129.6,
          "velocity": 0.7874015748031497
        },
        {
          "duration": 1.200000000000017,
          "durationTicks": 240,
          "midi": 41,
          "name": "F2",
          "ticks": 26160,
          "time": 130.79999999999998,
          "velocity": 0.7874015748031497
        },
        {
          "duration": 1.1999999999999886,
          "durationTicks": 240,
          "midi": 48,
          "name": "C3",
          "ticks": 26400,
          "time": 132,
          "velocity": 0.7874015748031497
        },
        {
          "duration": 1.200000000000017,
          "durationTicks": 240,
          "midi": 45,
          "name": "A2",
          "ticks": 26640,
          "time": 133.2,
          "velocity": 0.7874015748031497
        },
        {
          "duration": 1.1999999999999886,
          "durationTicks": 240,
          "midi": 43,
          "name": "G2",
          "ticks": 26880,
          "time": 134.4,
          "velocity": 0.7874015748031497
        },
        {
          "duration": 1.1999999999999886,
          "durationTicks": 240,
          "midi": 41,
          "name": "F2",
          "ticks": 27120,
          "time": 135.6,
          "velocity": 0.7874015748031497
        },
        {
          "duration": 1.200000000000017,
          "durationTicks": 240,
          "midi": 48,
          "name": "C3",
          "ticks": 27360,
          "time": 136.79999999999998,
          "velocity": 0.7874015748031497
        },
        {
          "duration": 1.1999999999999886,
          "durationTicks": 240,
          "midi": 45,
          "name": "A2",
          "ticks": 27600,
          "time": 138,
          "velocity": 0.7874015748031497
        },
        {
          "duration": 1.200000000000017,
          "durationTicks": 240,
          "midi": 43,
          "name": "G2",
          "ticks": 27840,
          "time": 139.2,
          "velocity": 0.7874015748031497
        },
        {
          "duration": 1.1999999999999886,
          "durationTicks": 240,
          "midi": 41,
          "name": "F2",
          "ticks": 28080,
          "time": 140.4,
          "velocity": 0.7874015748031497
        },
        {
          "duration": 1.1999999999999886,
          "durationTicks": 240,
          "midi": 48,
          "name": "C3",
          "ticks": 28320,
          "time": 141.6,
          "velocity": 0.7874015748031497
        },
        {
          "duration": 1.200000000000017,
          "durationTicks": 240,
          "midi": 45,
          "name": "A2",
          "ticks": 28560,
          "time": 142.79999999999998,
          "velocity": 0.7874015748031497
        },
        {
          "duration": 1.1999999999999886,
          "durationTicks": 240,
          "midi": 43,
          "name": "G2",
          "ticks": 28800,
          "time": 144,
          "velocity": 0.7874015748031497
        },
        {
          "duration": 1.200000000000017,
          "durationTicks": 240,
          "midi": 41,
          "name": "F2",
          "ticks": 29040,
          "time": 145.2,
          "velocity": 0.7874015748031497
        },
        {
          "duration": 1.1999999999999886,
          "durationTicks": 240,
          "midi": 48,
          "name": "C3",
          "ticks": 29280,
          "time": 146.4,
          "velocity": 0.7874015748031497
        },
        {
          "duration": 1.1999999999999886,
          "durationTicks": 240,
          "midi": 45,
          "name": "A2",
          "ticks": 29520,
          "time": 147.6,
          "velocity": 0.7874015748031497
        },
        {
          "duration": 1.200000000000017,
          "durationTicks": 240,
          "midi": 43,
          "name": "G2",
          "ticks": 29760,
          "time": 148.79999999999998,
          "velocity": 0.7874015748031497
        },
        {
          "duration": 1.1999999999999886,
          "durationTicks": 240,
          "midi": 41,
          "name": "F2",
          "ticks": 30000,
          "time": 150,
          "velocity": 0.7874015748031497
        },
        {
          "duration": 1.200000000000017,
          "durationTicks": 240,
          "midi": 48,
          "name": "C3",
          "ticks": 30240,
          "time": 151.2,
          "velocity": 0.7874015748031497
        },
        {
          "duration": 1.1999999999999886,
          "durationTicks": 240,
          "midi": 45,
          "name": "A2",
          "ticks": 30480,
          "time": 152.4,
          "velocity": 0.7874015748031497
        },
        {
          "duration": 1.1999999999999886,
          "durationTicks": 240,
          "midi": 43,
          "name": "G2",
          "ticks": 30720,
          "time": 153.6,
          "velocity": 0.7874015748031497
        },
        {
          "duration": 1.200000000000017,
          "durationTicks": 240,
          "midi": 41,
          "name": "F2",
          "ticks": 30960,
          "time": 154.79999999999998,
          "velocity": 0.7874015748031497
        }
      ]
    },
    {
      "channel": 0,
      "controlChanges": {
        "0": [
          {
            "number": 0,
            "ticks": 120,
            "time": 0.6,
            "value": 0
          }
        ],
        "32": [
          {
            "number": 32,
            "ticks": 130,
            "time": 0.6499999999999999,
            "value": 0
          }
        ]
      },
      "pitchBends": [],
      "instrument": {
        "family": "piano",
        "number": 0,
        "name": "acoustic grand piano"
      },
      "name": "Fingered Bass",
      "notes": [],
      "endOfTrackTicks": 32640
    },
    {
      "channel": 6,
      "controlChanges": {
        "1": [
          {
            "number": 1,
            "ticks": 150,
            "time": 0.75,
            "value": 0
          }
        ],
        "7": [
          {
            "number": 7,
            "ticks": 160,
            "time": 0.7999999999999999,
            "value": 0.7874015748031497
          }
        ],
        "10": [
          {
            "number": 10,
            "ticks": 170,
            "time": 0.85,
            "value": 0.5039370078740157
          }
        ],
        "11": [
          {
            "number": 11,
            "ticks": 180,
            "time": 0.8999999999999999,
            "value": 1
          }
        ],
        "64": [
          {
            "number": 64,
            "ticks": 190,
            "time": 0.95,
            "value": 0
          }
        ],
        "91": [
          {
            "number": 91,
            "ticks": 200,
            "time": 1,
            "value": 0.31496062992125984
          }
        ],
        "93": [
          {
            "number": 93,
            "ticks": 210,
            "time": 1.05,
            "value": 0
          }
        ],
        "94": [
          {
            "number": 94,
            "ticks": 220,
            "time": 1.0999999999999999,
            "value": 0
          }
        ]
      },
      "pitchBends": [],
      "instrument": {
        "family": "bass",
        "number": 33,
        "name": "electric bass (finger)"
      },
      "name": "",
      "notes": [
        {
          "duration": 1.2000000000000002,
          "durationTicks": 240,
          "midi": 36,
          "name": "C2",
          "ticks": 960,
          "time": 4.8,
          "velocity": 0.7874015748031497
        },
        {
          "duration": 1.1999999999999993,
          "durationTicks": 240,
          "midi": 29,
          "name": "F1",
          "ticks": 1200,
          "time": 6,
          "velocity": 0.7874015748031497
        },
        {
          "duration": 1.200000000000001,
          "durationTicks": 240,
          "midi": 31,
          "name": "G1",
          "ticks": 1440,
          "time": 7.199999999999999,
          "velocity": 0.7874015748031497
        },
        {
          "duration": 1.1999999999999993,
          "durationTicks": 240,
          "midi": 29,
          "name": "F1",
          "ticks": 1680,
          "time": 8.4,
          "velocity": 0.7874015748031497
        },
        {
          "duration": 1.1999999999999993,
          "durationTicks": 240,
          "midi": 36,
          "name": "C2",
          "ticks": 1920,
          "time": 9.6,
          "velocity": 0.7874015748031497
        },
        {
          "duration": 1.200000000000001,
          "durationTicks": 240,
          "midi": 29,
          "name": "F1",
          "ticks": 2160,
          "time": 10.799999999999999,
          "velocity": 0.7874015748031497
        },
        {
          "duration": 1.1999999999999993,
          "durationTicks": 240,
          "midi": 31,
          "name": "G1",
          "ticks": 2400,
          "time": 12,
          "velocity": 0.7874015748031497
        },
        {
          "duration": 1.1999999999999993,
          "durationTicks": 240,
          "midi": 29,
          "name": "F1",
          "ticks": 2640,
          "time": 13.2,
          "velocity": 0.7874015748031497
        },
        {
          "duration": 1.200000000000001,
          "durationTicks": 240,
          "midi": 36,
          "name": "C2",
          "ticks": 2880,
          "time": 14.399999999999999,
          "velocity": 0.7874015748031497
        },
        {
          "duration": 1.200000000000001,
          "durationTicks": 240,
          "midi": 29,
          "name": "F1",
          "ticks": 3120,
          "time": 15.6,
          "velocity": 0.7874015748031497
        },
        {
          "duration": 1.1999999999999993,
          "durationTicks": 240,
          "midi": 31,
          "name": "G1",
          "ticks": 3360,
          "time": 16.8,
          "velocity": 0.7874015748031497
        },
        {
          "duration": 1.1999999999999993,
          "durationTicks": 240,
          "midi": 29,
          "name": "F1",
          "ticks": 3600,
          "time": 18,
          "velocity": 0.7874015748031497
        },
        {
          "duration": 1.1999999999999993,
          "durationTicks": 240,
          "midi": 36,
          "name": "C2",
          "ticks": 3840,
          "time": 19.2,
          "velocity": 0.7874015748031497
        },
        {
          "duration": 1.1999999999999993,
          "durationTicks": 240,
          "midi": 29,
          "name": "F1",
          "ticks": 4080,
          "time": 20.4,
          "velocity": 0.7874015748031497
        },
        {
          "duration": 1.2000000000000028,
          "durationTicks": 240,
          "midi": 31,
          "name": "G1",
          "ticks": 4320,
          "time": 21.599999999999998,
          "velocity": 0.7874015748031497
        },
        {
          "duration": 1.1999999999999993,
          "durationTicks": 240,
          "midi": 29,
          "name": "F1",
          "ticks": 4560,
          "time": 22.8,
          "velocity": 0.7874015748031497
        },
        {
          "duration": 1.1999999999999993,
          "durationTicks": 240,
          "midi": 36,
          "name": "C2",
          "ticks": 4800,
          "time": 24,
          "velocity": 0.7874015748031497
        },
        {
          "duration": 1.1999999999999993,
          "durationTicks": 240,
          "midi": 29,
          "name": "F1",
          "ticks": 5040,
          "time": 25.2,
          "velocity": 0.7874015748031497
        },
        {
          "duration": 1.1999999999999993,
          "durationTicks": 240,
          "midi": 31,
          "name": "G1",
          "ticks": 5280,
          "time": 26.4,
          "velocity": 0.7874015748031497
        },
        {
          "duration": 1.1999999999999993,
          "durationTicks": 240,
          "midi": 29,
          "name": "F1",
          "ticks": 5520,
          "time": 27.599999999999998,
          "velocity": 0.7874015748031497
        },
        {
          "duration": 1.2000000000000028,
          "durationTicks": 240,
          "midi": 36,
          "name": "C2",
          "ticks": 5760,
          "time": 28.799999999999997,
          "velocity": 0.7874015748031497
        },
        {
          "duration": 1.1999999999999993,
          "durationTicks": 240,
          "midi": 29,
          "name": "F1",
          "ticks": 6000,
          "time": 30,
          "velocity": 0.7874015748031497
        },
        {
          "duration": 1.1999999999999993,
          "durationTicks": 240,
          "midi": 31,
          "name": "G1",
          "ticks": 6240,
          "time": 31.2,
          "velocity": 0.7874015748031497
        },
        {
          "duration": 1.2000000000000028,
          "durationTicks": 240,
          "midi": 29,
          "name": "F1",
          "ticks": 6480,
          "time": 32.4,
          "velocity": 0.7874015748031497
        },
        {
          "duration": 1.1999999999999957,
          "durationTicks": 240,
          "midi": 36,
          "name": "C2",
          "ticks": 6720,
          "time": 33.6,
          "velocity": 0.7874015748031497
        },
        {
          "duration": 1.2000000000000028,
          "durationTicks": 240,
          "midi": 29,
          "name": "F1",
          "ticks": 6960,
          "time": 34.8,
          "velocity": 0.7874015748031497
        },
        {
          "duration": 1.1999999999999957,
          "durationTicks": 240,
          "midi": 31,
          "name": "G1",
          "ticks": 7200,
          "time": 36,
          "velocity": 0.7874015748031497
        },
        {
          "duration": 1.2000000000000028,
          "durationTicks": 240,
          "midi": 29,
          "name": "F1",
          "ticks": 7440,
          "time": 37.199999999999996,
          "velocity": 0.7874015748031497
        },
        {
          "duration": 1.2000000000000028,
          "durationTicks": 240,
          "midi": 36,
          "name": "C2",
          "ticks": 7680,
          "time": 38.4,
          "velocity": 0.7874015748031497
        },
        {
          "duration": 1.1999999999999957,
          "durationTicks": 240,
          "midi": 29,
          "name": "F1",
          "ticks": 7920,
          "time": 39.6,
          "velocity": 0.7874015748031497
        },
        {
          "duration": 1.2000000000000028,
          "durationTicks": 240,
          "midi": 31,
          "name": "G1",
          "ticks": 8160,
          "time": 40.8,
          "velocity": 0.7874015748031497
        },
        {
          "duration": 1.1999999999999957,
          "durationTicks": 240,
          "midi": 29,
          "name": "F1",
          "ticks": 8400,
          "time": 42,
          "velocity": 0.7874015748031497
        },
        {
          "duration": 1.2000000000000028,
          "durationTicks": 240,
          "midi": 36,
          "name": "C2",
          "ticks": 8640,
          "time": 43.199999999999996,
          "velocity": 0.7874015748031497
        },
        {
          "duration": 1.2000000000000028,
          "durationTicks": 240,
          "midi": 29,
          "name": "F1",
          "ticks": 8880,
          "time": 44.4,
          "velocity": 0.7874015748031497
        },
        {
          "duration": 1.1999999999999957,
          "durationTicks": 240,
          "midi": 31,
          "name": "G1",
          "ticks": 9120,
          "time": 45.6,
          "velocity": 0.7874015748031497
        },
        {
          "duration": 1.2000000000000028,
          "durationTicks": 240,
          "midi": 29,
          "name": "F1",
          "ticks": 9360,
          "time": 46.8,
          "velocity": 0.7874015748031497
        },
        {
          "duration": 1.1999999999999957,
          "durationTicks": 240,
          "midi": 36,
          "name": "C2",
          "ticks": 9600,
          "time": 48,
          "velocity": 0.7874015748031497
        },
        {
          "duration": 1.2000000000000028,
          "durationTicks": 240,
          "midi": 29,
          "name": "F1",
          "ticks": 9840,
          "time": 49.199999999999996,
          "velocity": 0.7874015748031497
        },
        {
          "duration": 1.2000000000000028,
          "durationTicks": 240,
          "midi": 31,
          "name": "G1",
          "ticks": 10080,
          "time": 50.4,
          "velocity": 0.7874015748031497
        },
        {
          "duration": 1.1999999999999957,
          "durationTicks": 240,
          "midi": 29,
          "name": "F1",
          "ticks": 10320,
          "time": 51.6,
          "velocity": 0.7874015748031497
        },
        {
          "duration": 1.1999999999999957,
          "durationTicks": 240,
          "midi": 36,
          "name": "C2",
          "ticks": 12000,
          "time": 60,
          "velocity": 0.7874015748031497
        },
        {
          "duration": 1.2000000000000028,
          "durationTicks": 240,
          "midi": 29,
          "name": "F1",
          "ticks": 12240,
          "time": 61.199999999999996,
          "velocity": 0.7874015748031497
        },
        {
          "duration": 1.1999999999999957,
          "durationTicks": 240,
          "midi": 31,
          "name": "G1",
          "ticks": 12480,
          "time": 62.4,
          "velocity": 0.7874015748031497
        },
        {
          "duration": 1.2000000000000028,
          "durationTicks": 240,
          "midi": 29,
          "name": "F1",
          "ticks": 12720,
          "time": 63.599999999999994,
          "velocity": 0.7874015748031497
        },
        {
          "duration": 1.2000000000000028,
          "durationTicks": 240,
          "midi": 36,
          "name": "C2",
          "ticks": 12960,
          "time": 64.8,
          "velocity": 0.7874015748031497
        },
        {
          "duration": 1.2000000000000028,
          "durationTicks": 240,
          "midi": 29,
          "name": "F1",
          "ticks": 13200,
          "time": 66,
          "velocity": 0.7874015748031497
        },
        {
          "duration": 1.1999999999999886,
          "durationTicks": 240,
          "midi": 31,
          "name": "G1",
          "ticks": 13440,
          "time": 67.2,
          "velocity": 0.7874015748031497
        },
        {
          "duration": 1.2000000000000028,
          "durationTicks": 240,
          "midi": 29,
          "name": "F1",
          "ticks": 13680,
          "time": 68.39999999999999,
          "velocity": 0.7874015748031497
        },
        {
          "duration": 1.2000000000000028,
          "durationTicks": 240,
          "midi": 36,
          "name": "C2",
          "ticks": 13920,
          "time": 69.6,
          "velocity": 0.7874015748031497
        },
        {
          "duration": 1.2000000000000028,
          "durationTicks": 240,
          "midi": 29,
          "name": "F1",
          "ticks": 14160,
          "time": 70.8,
          "velocity": 0.7874015748031497
        },
        {
          "duration": 1.2000000000000028,
          "durationTicks": 240,
          "midi": 31,
          "name": "G1",
          "ticks": 14400,
          "time": 72,
          "velocity": 0.7874015748031497
        },
        {
          "duration": 1.1999999999999886,
          "durationTicks": 240,
          "midi": 29,
          "name": "F1",
          "ticks": 14640,
          "time": 73.2,
          "velocity": 0.7874015748031497
        },
        {
          "duration": 1.2000000000000028,
          "durationTicks": 240,
          "midi": 36,
          "name": "C2",
          "ticks": 14880,
          "time": 74.39999999999999,
          "velocity": 0.7874015748031497
        },
        {
          "duration": 1.2000000000000028,
          "durationTicks": 240,
          "midi": 29,
          "name": "F1",
          "ticks": 15120,
          "time": 75.6,
          "velocity": 0.7874015748031497
        },
        {
          "duration": 1.2000000000000028,
          "durationTicks": 240,
          "midi": 31,
          "name": "G1",
          "ticks": 15360,
          "time": 76.8,
          "velocity": 0.7874015748031497
        },
        {
          "duration": 1.2000000000000028,
          "durationTicks": 240,
          "midi": 29,
          "name": "F1",
          "ticks": 15600,
          "time": 78,
          "velocity": 0.7874015748031497
        },
        {
          "duration": 1.1999999999999886,
          "durationTicks": 240,
          "midi": 36,
          "name": "C2",
          "ticks": 15840,
          "time": 79.2,
          "velocity": 0.7874015748031497
        },
        {
          "duration": 1.2000000000000028,
          "durationTicks": 240,
          "midi": 29,
          "name": "F1",
          "ticks": 16080,
          "time": 80.39999999999999,
          "velocity": 0.7874015748031497
        },
        {
          "duration": 1.2000000000000028,
          "durationTicks": 240,
          "midi": 31,
          "name": "G1",
          "ticks": 16320,
          "time": 81.6,
          "velocity": 0.7874015748031497
        },
        {
          "duration": 1.2000000000000028,
          "durationTicks": 240,
          "midi": 29,
          "name": "F1",
          "ticks": 16560,
          "time": 82.8,
          "velocity": 0.7874015748031497
        },
        {
          "duration": 1.2000000000000028,
          "durationTicks": 240,
          "midi": 36,
          "name": "C2",
          "ticks": 16800,
          "time": 84,
          "velocity": 0.7874015748031497
        },
        {
          "duration": 1.1999999999999886,
          "durationTicks": 240,
          "midi": 29,
          "name": "F1",
          "ticks": 17040,
          "time": 85.2,
          "velocity": 0.7874015748031497
        },
        {
          "duration": 1.2000000000000028,
          "durationTicks": 240,
          "midi": 31,
          "name": "G1",
          "ticks": 17280,
          "time": 86.39999999999999,
          "velocity": 0.7874015748031497
        },
        {
          "duration": 1.2000000000000028,
          "durationTicks": 240,
          "midi": 29,
          "name": "F1",
          "ticks": 17520,
          "time": 87.6,
          "velocity": 0.7874015748031497
        },
        {
          "duration": 1.2000000000000028,
          "durationTicks": 240,
          "midi": 36,
          "name": "C2",
          "ticks": 17760,
          "time": 88.8,
          "velocity": 0.7874015748031497
        },
        {
          "duration": 1.2000000000000028,
          "durationTicks": 240,
          "midi": 29,
          "name": "F1",
          "ticks": 18000,
          "time": 90,
          "velocity": 0.7874015748031497
        },
        {
          "duration": 1.1999999999999886,
          "durationTicks": 240,
          "midi": 31,
          "name": "G1",
          "ticks": 18240,
          "time": 91.2,
          "velocity": 0.7874015748031497
        },
        {
          "duration": 1.2000000000000028,
          "durationTicks": 240,
          "midi": 29,
          "name": "F1",
          "ticks": 18480,
          "time": 92.39999999999999,
          "velocity": 0.7874015748031497
        },
        {
          "duration": 1.2000000000000028,
          "durationTicks": 240,
          "midi": 36,
          "name": "C2",
          "ticks": 18720,
          "time": 93.6,
          "velocity": 0.7874015748031497
        },
        {
          "duration": 1.2000000000000028,
          "durationTicks": 240,
          "midi": 29,
          "name": "F1",
          "ticks": 18960,
          "time": 94.8,
          "velocity": 0.7874015748031497
        },
        {
          "duration": 1.2000000000000028,
          "durationTicks": 240,
          "midi": 31,
          "name": "G1",
          "ticks": 19200,
          "time": 96,
          "velocity": 0.7874015748031497
        },
        {
          "duration": 1.1999999999999886,
          "durationTicks": 240,
          "midi": 29,
          "name": "F1",
          "ticks": 19440,
          "time": 97.2,
          "velocity": 0.7874015748031497
        },
        {
          "duration": 1.2000000000000028,
          "durationTicks": 240,
          "midi": 36,
          "name": "C2",
          "ticks": 19680,
          "time": 98.39999999999999,
          "velocity": 0.7874015748031497
        },
        {
          "duration": 1.2000000000000028,
          "durationTicks": 240,
          "midi": 29,
          "name": "F1",
          "ticks": 19920,
          "time": 99.6,
          "velocity": 0.7874015748031497
        },
        {
          "duration": 1.2000000000000028,
          "durationTicks": 240,
          "midi": 31,
          "name": "G1",
          "ticks": 20160,
          "time": 100.8,
          "velocity": 0.7874015748031497
        },
        {
          "duration": 1.2000000000000028,
          "durationTicks": 240,
          "midi": 29,
          "name": "F1",
          "ticks": 20400,
          "time": 102,
          "velocity": 0.7874015748031497
        },
        {
          "duration": 1.1999999999999886,
          "durationTicks": 240,
          "midi": 36,
          "name": "C2",
          "ticks": 20640,
          "time": 103.2,
          "velocity": 0.7874015748031497
        },
        {
          "duration": 1.2000000000000028,
          "durationTicks": 240,
          "midi": 29,
          "name": "F1",
          "ticks": 20880,
          "time": 104.39999999999999,
          "velocity": 0.7874015748031497
        },
        {
          "duration": 1.2000000000000028,
          "durationTicks": 240,
          "midi": 31,
          "name": "G1",
          "ticks": 21120,
          "time": 105.6,
          "velocity": 0.7874015748031497
        },
        {
          "duration": 1.2000000000000028,
          "durationTicks": 240,
          "midi": 29,
          "name": "F1",
          "ticks": 21360,
          "time": 106.8,
          "velocity": 0.7874015748031497
        },
        {
          "duration": 1.2000000000000028,
          "durationTicks": 240,
          "midi": 36,
          "name": "C2",
          "ticks": 21600,
          "time": 108,
          "velocity": 0.7874015748031497
        },
        {
          "duration": 1.1999999999999886,
          "durationTicks": 240,
          "midi": 29,
          "name": "F1",
          "ticks": 21840,
          "time": 109.2,
          "velocity": 0.7874015748031497
        },
        {
          "duration": 1.2000000000000028,
          "durationTicks": 240,
          "midi": 31,
          "name": "G1",
          "ticks": 22080,
          "time": 110.39999999999999,
          "velocity": 0.7874015748031497
        },
        {
          "duration": 1.2000000000000028,
          "durationTicks": 240,
          "midi": 29,
          "name": "F1",
          "ticks": 22320,
          "time": 111.6,
          "velocity": 0.7874015748031497
        },
        {
          "duration": 1.2000000000000028,
          "durationTicks": 240,
          "midi": 36,
          "name": "C2",
          "ticks": 22560,
          "time": 112.8,
          "velocity": 0.7874015748031497
        },
        {
          "duration": 1.1999999999999886,
          "durationTicks": 240,
          "midi": 29,
          "name": "F1",
          "ticks": 22800,
          "time": 114,
          "velocity": 0.7874015748031497
        },
        {
          "duration": 1.2000000000000028,
          "durationTicks": 240,
          "midi": 31,
          "name": "G1",
          "ticks": 23040,
          "time": 115.19999999999999,
          "velocity": 0.7874015748031497
        },
        {
          "duration": 1.2000000000000028,
          "durationTicks": 240,
          "midi": 29,
          "name": "F1",
          "ticks": 23280,
          "time": 116.39999999999999,
          "velocity": 0.7874015748031497
        },
        {
          "duration": 1.2000000000000028,
          "durationTicks": 240,
          "midi": 36,
          "name": "C2",
          "ticks": 23520,
          "time": 117.6,
          "velocity": 0.7874015748031497
        },
        {
          "duration": 1.2000000000000028,
          "durationTicks": 240,
          "midi": 29,
          "name": "F1",
          "ticks": 23760,
          "time": 118.8,
          "velocity": 0.7874015748031497
        },
        {
          "duration": 1.1999999999999886,
          "durationTicks": 240,
          "midi": 31,
          "name": "G1",
          "ticks": 24000,
          "time": 120,
          "velocity": 0.7874015748031497
        },
        {
          "duration": 1.2000000000000028,
          "durationTicks": 240,
          "midi": 29,
          "name": "F1",
          "ticks": 24240,
          "time": 121.19999999999999,
          "velocity": 0.7874015748031497
        },
        {
          "duration": 1.2000000000000028,
          "durationTicks": 240,
          "midi": 36,
          "name": "C2",
          "ticks": 24480,
          "time": 122.39999999999999,
          "velocity": 0.7874015748031497
        },
        {
          "duration": 1.2000000000000028,
          "durationTicks": 240,
          "midi": 29,
          "name": "F1",
          "ticks": 24720,
          "time": 123.6,
          "velocity": 0.7874015748031497
        },
        {
          "duration": 1.2000000000000028,
          "durationTicks": 240,
          "midi": 31,
          "name": "G1",
          "ticks": 24960,
          "time": 124.8,
          "velocity": 0.7874015748031497
        },
        {
          "duration": 1.1999999999999886,
          "durationTicks": 240,
          "midi": 29,
          "name": "F1",
          "ticks": 25200,
          "time": 126,
          "velocity": 0.7874015748031497
        },
        {
          "duration": 1.200000000000017,
          "durationTicks": 240,
          "midi": 36,
          "name": "C2",
          "ticks": 25440,
          "time": 127.19999999999999,
          "velocity": 0.7874015748031497
        },
        {
          "duration": 1.1999999999999886,
          "durationTicks": 240,
          "midi": 29,
          "name": "F1",
          "ticks": 25680,
          "time": 128.4,
          "velocity": 0.7874015748031497
        },
        {
          "duration": 1.1999999999999886,
          "durationTicks": 240,
          "midi": 31,
          "name": "G1",
          "ticks": 25920,
          "time": 129.6,
          "velocity": 0.7874015748031497
        },
        {
          "duration": 1.200000000000017,
          "durationTicks": 240,
          "midi": 29,
          "name": "F1",
          "ticks": 26160,
          "time": 130.79999999999998,
          "velocity": 0.7874015748031497
        },
        {
          "duration": 1.1999999999999886,
          "durationTicks": 240,
          "midi": 36,
          "name": "C2",
          "ticks": 26400,
          "time": 132,
          "velocity": 0.7874015748031497
        },
        {
          "duration": 1.200000000000017,
          "durationTicks": 240,
          "midi": 29,
          "name": "F1",
          "ticks": 26640,
          "time": 133.2,
          "velocity": 0.7874015748031497
        },
        {
          "duration": 1.1999999999999886,
          "durationTicks": 240,
          "midi": 31,
          "name": "G1",
          "ticks": 26880,
          "time": 134.4,
          "velocity": 0.7874015748031497
        },
        {
          "duration": 1.1999999999999886,
          "durationTicks": 240,
          "midi": 29,
          "name": "F1",
          "ticks": 27120,
          "time": 135.6,
          "velocity": 0.7874015748031497
        },
        {
          "duration": 1.200000000000017,
          "durationTicks": 240,
          "midi": 36,
          "name": "C2",
          "ticks": 27360,
          "time": 136.79999999999998,
          "velocity": 0.7874015748031497
        },
        {
          "duration": 1.1999999999999886,
          "durationTicks": 240,
          "midi": 29,
          "name": "F1",
          "ticks": 27600,
          "time": 138,
          "velocity": 0.7874015748031497
        },
        {
          "duration": 1.200000000000017,
          "durationTicks": 240,
          "midi": 31,
          "name": "G1",
          "ticks": 27840,
          "time": 139.2,
          "velocity": 0.7874015748031497
        },
        {
          "duration": 1.1999999999999886,
          "durationTicks": 240,
          "midi": 29,
          "name": "F1",
          "ticks": 28080,
          "time": 140.4,
          "velocity": 0.7874015748031497
        },
        {
          "duration": 1.1999999999999886,
          "durationTicks": 240,
          "midi": 36,
          "name": "C2",
          "ticks": 28320,
          "time": 141.6,
          "velocity": 0.7874015748031497
        },
        {
          "duration": 1.200000000000017,
          "durationTicks": 240,
          "midi": 29,
          "name": "F1",
          "ticks": 28560,
          "time": 142.79999999999998,
          "velocity": 0.7874015748031497
        },
        {
          "duration": 1.1999999999999886,
          "durationTicks": 240,
          "midi": 31,
          "name": "G1",
          "ticks": 28800,
          "time": 144,
          "velocity": 0.7874015748031497
        },
        {
          "duration": 1.200000000000017,
          "durationTicks": 240,
          "midi": 29,
          "name": "F1",
          "ticks": 29040,
          "time": 145.2,
          "velocity": 0.7874015748031497
        },
        {
          "duration": 1.1999999999999886,
          "durationTicks": 240,
          "midi": 36,
          "name": "C2",
          "ticks": 29280,
          "time": 146.4,
          "velocity": 0.7874015748031497
        },
        {
          "duration": 1.1999999999999886,
          "durationTicks": 240,
          "midi": 29,
          "name": "F1",
          "ticks": 29520,
          "time": 147.6,
          "velocity": 0.7874015748031497
        },
        {
          "duration": 1.200000000000017,
          "durationTicks": 240,
          "midi": 31,
          "name": "G1",
          "ticks": 29760,
          "time": 148.79999999999998,
          "velocity": 0.7874015748031497
        },
        {
          "duration": 1.1999999999999886,
          "durationTicks": 240,
          "midi": 29,
          "name": "F1",
          "ticks": 30000,
          "time": 150,
          "velocity": 0.7874015748031497
        },
        {
          "duration": 1.200000000000017,
          "durationTicks": 240,
          "midi": 36,
          "name": "C2",
          "ticks": 30240,
          "time": 151.2,
          "velocity": 0.7874015748031497
        },
        {
          "duration": 1.1999999999999886,
          "durationTicks": 240,
          "midi": 29,
          "name": "F1",
          "ticks": 30480,
          "time": 152.4,
          "velocity": 0.7874015748031497
        },
        {
          "duration": 1.1999999999999886,
          "durationTicks": 240,
          "midi": 31,
          "name": "G1",
          "ticks": 30720,
          "time": 153.6,
          "velocity": 0.7874015748031497
        },
        {
          "duration": 1.200000000000017,
          "durationTicks": 240,
          "midi": 29,
          "name": "F1",
          "ticks": 30960,
          "time": 154.79999999999998,
          "velocity": 0.7874015748031497
        }
      ]
    },
    {
      "channel": 0,
      "controlChanges": {
        "0": [
          {
            "number": 0,
            "ticks": 120,
            "time": 0.6,
            "value": 0
          }
        ],
        "6": [
          {
            "number": 6,
            "ticks": 0,
            "time": 0,
            "value": 0.1889763779527559
          }
        ],
        "32": [
          {
            "number": 32,
            "ticks": 130,
            "time": 0.6499999999999999,
            "value": 0
          }
        ],
        "38": [
          {
            "number": 38,
            "ticks": 0,
            "time": 0,
            "value": 0
          }
        ],
        "100": [
          {
            "number": 100,
            "ticks": 0,
            "time": 0,
            "value": 0
          }
        ],
        "101": [
          {
            "number": 101,
            "ticks": 0,
            "time": 0,
            "value": 0
          }
        ]
      },
      "pitchBends": [],
      "instrument": {
        "family": "piano",
        "number": 0,
        "name": "acoustic grand piano"
      },
      "name": "Fantasia",
      "notes": [],
      "endOfTrackTicks": 32640
    },
    {
      "channel": 7,
      "controlChanges": {
        "1": [
          {
            "number": 1,
            "ticks": 150,
            "time": 0.75,
            "value": 0
          }
        ],
        "7": [
          {
            "number": 7,
            "ticks": 160,
            "time": 0.7999999999999999,
            "value": 0.7874015748031497
          }
        ],
        "10": [
          {
            "number": 10,
            "ticks": 170,
            "time": 0.85,
            "value": 0.5039370078740157
          }
        ],
        "11": [
          {
            "number": 11,
            "ticks": 180,
            "time": 0.8999999999999999,
            "value": 1
          }
        ],
        "64": [
          {
            "number": 64,
            "ticks": 190,
            "time": 0.95,
            "value": 0
          }
        ],
        "91": [
          {
            "number": 91,
            "ticks": 200,
            "time": 1,
            "value": 0
          }
        ],
        "93": [
          {
            "number": 93,
            "ticks": 210,
            "time": 1.05,
            "value": 0
          }
        ],
        "94": [
          {
            "number": 94,
            "ticks": 220,
            "time": 1.0999999999999999,
            "value": 0
          }
        ]
      },
      "pitchBends": [
        {
          "ticks": 2880,
          "time": 14.399999999999999,
          "value": 0
        },
        {
          "ticks": 3360,
          "time": 16.8,
          "value": 0.0213623046875
        },
        {
          "ticks": 3364,
          "time": 16.82,
          "value": 0.042724609375
        },
        {
          "ticks": 3368,
          "time": 16.84,
          "value": 0.08544921875
        },
        {
          "ticks": 3420,
          "time": 17.099999999999998,
          "value": 0
        },
        {
          "ticks": 3480,
          "time": 17.4,
          "value": 0.08544921875
        },
        {
          "ticks": 3520,
          "time": 17.599999999999998,
          "value": -0.59814453125
        },
        {
          "ticks": 3522,
          "time": 17.61,
          "value": -0.538330078125
        },
        {
          "ticks": 3524,
          "time": 17.62,
          "value": -0.478515625
        },
        {
          "ticks": 3526,
          "time": 17.63,
          "value": -0.418701171875
        },
        {
          "ticks": 3528,
          "time": 17.639999999999997,
          "value": -0.35888671875
        },
        {
          "ticks": 3530,
          "time": 17.65,
          "value": -0.299072265625
        },
        {
          "ticks": 3532,
          "time": 17.66,
          "value": -0.2392578125
        },
        {
          "ticks": 3534,
          "time": 17.669999999999998,
          "value": -0.179443359375
        },
        {
          "ticks": 3536,
          "time": 17.68,
          "value": -0.11962890625
        },
        {
          "ticks": 3538,
          "time": 17.69,
          "value": -0.059814453125
        },
        {
          "ticks": 3540,
          "time": 17.7,
          "value": 0
        },
        {
          "ticks": 3600,
          "time": 18,
          "value": -0.5126953125
        },
        {
          "ticks": 3601,
          "time": 18.005,
          "value": -0.478515625
        },
        {
          "ticks": 3603,
          "time": 18.014999999999997,
          "value": -0.41015625
        },
        {
          "ticks": 3605,
          "time": 18.025,
          "value": -0.341796875
        },
        {
          "ticks": 3607,
          "time": 18.035,
          "value": -0.2734375
        },
        {
          "ticks": 3609,
          "time": 18.044999999999998,
          "value": -0.205078125
        },
        {
          "ticks": 3611,
          "time": 18.055,
          "value": -0.13671875
        },
        {
          "ticks": 3613,
          "time": 18.065,
          "value": -0.068359375
        },
        {
          "ticks": 3615,
          "time": 18.075,
          "value": 0
        },
        {
          "ticks": 3840,
          "time": 19.2,
          "value": 0
        },
        {
          "ticks": 4320,
          "time": 21.599999999999998,
          "value": 0.0213623046875
        },
        {
          "ticks": 4324,
          "time": 21.619999999999997,
          "value": 0.042724609375
        },
        {
          "ticks": 4328,
          "time": 21.64,
          "value": 0.08544921875
        },
        {
          "ticks": 4380,
          "time": 21.9,
          "value": 0
        },
        {
          "ticks": 4440,
          "time": 22.2,
          "value": 0.08544921875
        },
        {
          "ticks": 4480,
          "time": 22.400000000000002,
          "value": -0.59814453125
        },
        {
          "ticks": 4482,
          "time": 22.41,
          "value": -0.538330078125
        },
        {
          "ticks": 4484,
          "time": 22.419999999999998,
          "value": -0.478515625
        },
        {
          "ticks": 4486,
          "time": 22.43,
          "value": -0.418701171875
        },
        {
          "ticks": 4488,
          "time": 22.439999999999998,
          "value": -0.35888671875
        },
        {
          "ticks": 4490,
          "time": 22.45,
          "value": -0.299072265625
        },
        {
          "ticks": 4492,
          "time": 22.459999999999997,
          "value": -0.2392578125
        },
        {
          "ticks": 4494,
          "time": 22.470000000000002,
          "value": -0.179443359375
        },
        {
          "ticks": 4496,
          "time": 22.48,
          "value": -0.11962890625
        },
        {
          "ticks": 4498,
          "time": 22.49,
          "value": -0.059814453125
        },
        {
          "ticks": 4500,
          "time": 22.5,
          "value": 0
        },
        {
          "ticks": 4560,
          "time": 22.8,
          "value": -0.5126953125
        },
        {
          "ticks": 4561,
          "time": 22.805,
          "value": -0.478515625
        },
        {
          "ticks": 4563,
          "time": 22.814999999999998,
          "value": -0.41015625
        },
        {
          "ticks": 4565,
          "time": 22.825,
          "value": -0.341796875
        },
        {
          "ticks": 4567,
          "time": 22.834999999999997,
          "value": -0.2734375
        },
        {
          "ticks": 4569,
          "time": 22.845000000000002,
          "value": -0.205078125
        },
        {
          "ticks": 4571,
          "time": 22.855,
          "value": -0.13671875
        },
        {
          "ticks": 4573,
          "time": 22.865,
          "value": -0.068359375
        },
        {
          "ticks": 4575,
          "time": 22.875,
          "value": 0
        },
        {
          "ticks": 4800,
          "time": 24,
          "value": 0
        },
        {
          "ticks": 5280,
          "time": 26.4,
          "value": 0.0213623046875
        },
        {
          "ticks": 5284,
          "time": 26.419999999999998,
          "value": 0.042724609375
        },
        {
          "ticks": 5288,
          "time": 26.44,
          "value": 0.08544921875
        },
        {
          "ticks": 5340,
          "time": 26.7,
          "value": 0
        },
        {
          "ticks": 5400,
          "time": 27,
          "value": 0.08544921875
        },
        {
          "ticks": 5440,
          "time": 27.2,
          "value": -0.59814453125
        },
        {
          "ticks": 5442,
          "time": 27.21,
          "value": -0.538330078125
        },
        {
          "ticks": 5444,
          "time": 27.22,
          "value": -0.478515625
        },
        {
          "ticks": 5446,
          "time": 27.23,
          "value": -0.418701171875
        },
        {
          "ticks": 5448,
          "time": 27.24,
          "value": -0.35888671875
        },
        {
          "ticks": 5450,
          "time": 27.249999999999996,
          "value": -0.299072265625
        },
        {
          "ticks": 5452,
          "time": 27.259999999999998,
          "value": -0.2392578125
        },
        {
          "ticks": 5454,
          "time": 27.27,
          "value": -0.179443359375
        },
        {
          "ticks": 5456,
          "time": 27.28,
          "value": -0.11962890625
        },
        {
          "ticks": 5458,
          "time": 27.29,
          "value": -0.059814453125
        },
        {
          "ticks": 5460,
          "time": 27.3,
          "value": 0
        },
        {
          "ticks": 5520,
          "time": 27.599999999999998,
          "value": -0.5126953125
        },
        {
          "ticks": 5521,
          "time": 27.605,
          "value": -0.478515625
        },
        {
          "ticks": 5523,
          "time": 27.615,
          "value": -0.41015625
        },
        {
          "ticks": 5525,
          "time": 27.624999999999996,
          "value": -0.341796875
        },
        {
          "ticks": 5527,
          "time": 27.634999999999998,
          "value": -0.2734375
        },
        {
          "ticks": 5529,
          "time": 27.645,
          "value": -0.205078125
        },
        {
          "ticks": 5531,
          "time": 27.655,
          "value": -0.13671875
        },
        {
          "ticks": 5533,
          "time": 27.665,
          "value": -0.068359375
        },
        {
          "ticks": 5535,
          "time": 27.675,
          "value": 0
        },
        {
          "ticks": 5760,
          "time": 28.799999999999997,
          "value": 0
        },
        {
          "ticks": 6240,
          "time": 31.2,
          "value": 0.0213623046875
        },
        {
          "ticks": 6244,
          "time": 31.22,
          "value": 0.042724609375
        },
        {
          "ticks": 6248,
          "time": 31.240000000000002,
          "value": 0.08544921875
        },
        {
          "ticks": 6300,
          "time": 31.5,
          "value": 0
        },
        {
          "ticks": 6360,
          "time": 31.799999999999997,
          "value": 0.08544921875
        },
        {
          "ticks": 6400,
          "time": 32,
          "value": -0.59814453125
        },
        {
          "ticks": 6402,
          "time": 32.01,
          "value": -0.538330078125
        },
        {
          "ticks": 6404,
          "time": 32.019999999999996,
          "value": -0.478515625
        },
        {
          "ticks": 6406,
          "time": 32.03,
          "value": -0.418701171875
        },
        {
          "ticks": 6408,
          "time": 32.04,
          "value": -0.35888671875
        },
        {
          "ticks": 6410,
          "time": 32.05,
          "value": -0.299072265625
        },
        {
          "ticks": 6412,
          "time": 32.059999999999995,
          "value": -0.2392578125
        },
        {
          "ticks": 6414,
          "time": 32.07,
          "value": -0.179443359375
        },
        {
          "ticks": 6416,
          "time": 32.08,
          "value": -0.11962890625
        },
        {
          "ticks": 6418,
          "time": 32.089999999999996,
          "value": -0.059814453125
        },
        {
          "ticks": 6420,
          "time": 32.1,
          "value": 0
        },
        {
          "ticks": 6480,
          "time": 32.4,
          "value": -0.5126953125
        },
        {
          "ticks": 6481,
          "time": 32.405,
          "value": -0.478515625
        },
        {
          "ticks": 6483,
          "time": 32.415,
          "value": -0.41015625
        },
        {
          "ticks": 6485,
          "time": 32.425,
          "value": -0.341796875
        },
        {
          "ticks": 6487,
          "time": 32.434999999999995,
          "value": -0.2734375
        },
        {
          "ticks": 6489,
          "time": 32.445,
          "value": -0.205078125
        },
        {
          "ticks": 6491,
          "time": 32.455,
          "value": -0.13671875
        },
        {
          "ticks": 6493,
          "time": 32.464999999999996,
          "value": -0.068359375
        },
        {
          "ticks": 6495,
          "time": 32.475,
          "value": 0
        },
        {
          "ticks": 12000,
          "time": 60,
          "value": 0
        },
        {
          "ticks": 12480,
          "time": 62.4,
          "value": 0.0213623046875
        },
        {
          "ticks": 12484,
          "time": 62.419999999999995,
          "value": 0.042724609375
        },
        {
          "ticks": 12488,
          "time": 62.44,
          "value": 0.08544921875
        },
        {
          "ticks": 12540,
          "time": 62.699999999999996,
          "value": 0
        },
        {
          "ticks": 12600,
          "time": 63,
          "value": 0.08544921875
        },
        {
          "ticks": 12640,
          "time": 63.199999999999996,
          "value": -0.59814453125
        },
        {
          "ticks": 12642,
          "time": 63.209999999999994,
          "value": -0.538330078125
        },
        {
          "ticks": 12644,
          "time": 63.21999999999999,
          "value": -0.478515625
        },
        {
          "ticks": 12646,
          "time": 63.230000000000004,
          "value": -0.418701171875
        },
        {
          "ticks": 12648,
          "time": 63.24,
          "value": -0.35888671875
        },
        {
          "ticks": 12650,
          "time": 63.25,
          "value": -0.299072265625
        },
        {
          "ticks": 12652,
          "time": 63.26,
          "value": -0.2392578125
        },
        {
          "ticks": 12654,
          "time": 63.269999999999996,
          "value": -0.179443359375
        },
        {
          "ticks": 12656,
          "time": 63.28,
          "value": -0.11962890625
        },
        {
          "ticks": 12658,
          "time": 63.29,
          "value": -0.059814453125
        },
        {
          "ticks": 12660,
          "time": 63.3,
          "value": 0
        },
        {
          "ticks": 12720,
          "time": 63.599999999999994,
          "value": -0.5126953125
        },
        {
          "ticks": 12721,
          "time": 63.605000000000004,
          "value": -0.478515625
        },
        {
          "ticks": 12723,
          "time": 63.615,
          "value": -0.41015625
        },
        {
          "ticks": 12725,
          "time": 63.625,
          "value": -0.341796875
        },
        {
          "ticks": 12727,
          "time": 63.635,
          "value": -0.2734375
        },
        {
          "ticks": 12729,
          "time": 63.644999999999996,
          "value": -0.205078125
        },
        {
          "ticks": 12731,
          "time": 63.655,
          "value": -0.13671875
        },
        {
          "ticks": 12733,
          "time": 63.665,
          "value": -0.068359375
        },
        {
          "ticks": 12735,
          "time": 63.675,
          "value": 0
        },
        {
          "ticks": 12960,
          "time": 64.8,
          "value": 0
        },
        {
          "ticks": 13440,
          "time": 67.2,
          "value": 0.0213623046875
        },
        {
          "ticks": 13444,
          "time": 67.22,
          "value": 0.042724609375
        },
        {
          "ticks": 13448,
          "time": 67.24,
          "value": 0.08544921875
        },
        {
          "ticks": 13500,
          "time": 67.5,
          "value": 0
        },
        {
          "ticks": 13560,
          "time": 67.8,
          "value": 0.08544921875
        },
        {
          "ticks": 13600,
          "time": 68,
          "value": -0.59814453125
        },
        {
          "ticks": 13602,
          "time": 68.00999999999999,
          "value": -0.538330078125
        },
        {
          "ticks": 13604,
          "time": 68.02,
          "value": -0.478515625
        },
        {
          "ticks": 13606,
          "time": 68.03,
          "value": -0.418701171875
        },
        {
          "ticks": 13608,
          "time": 68.04,
          "value": -0.35888671875
        },
        {
          "ticks": 13610,
          "time": 68.05,
          "value": -0.299072265625
        },
        {
          "ticks": 13612,
          "time": 68.06,
          "value": -0.2392578125
        },
        {
          "ticks": 13614,
          "time": 68.07,
          "value": -0.179443359375
        },
        {
          "ticks": 13616,
          "time": 68.08,
          "value": -0.11962890625
        },
        {
          "ticks": 13618,
          "time": 68.09,
          "value": -0.059814453125
        },
        {
          "ticks": 13620,
          "time": 68.1,
          "value": 0
        },
        {
          "ticks": 13680,
          "time": 68.39999999999999,
          "value": -0.5126953125
        },
        {
          "ticks": 13681,
          "time": 68.405,
          "value": -0.478515625
        },
        {
          "ticks": 13683,
          "time": 68.415,
          "value": -0.41015625
        },
        {
          "ticks": 13685,
          "time": 68.425,
          "value": -0.341796875
        },
        {
          "ticks": 13687,
          "time": 68.435,
          "value": -0.2734375
        },
        {
          "ticks": 13689,
          "time": 68.445,
          "value": -0.205078125
        },
        {
          "ticks": 13691,
          "time": 68.455,
          "value": -0.13671875
        },
        {
          "ticks": 13693,
          "time": 68.465,
          "value": -0.068359375
        },
        {
          "ticks": 13695,
          "time": 68.475,
          "value": 0
        },
        {
          "ticks": 13920,
          "time": 69.6,
          "value": 0
        },
        {
          "ticks": 14400,
          "time": 72,
          "value": 0.0213623046875
        },
        {
          "ticks": 14404,
          "time": 72.02,
          "value": 0.042724609375
        },
        {
          "ticks": 14408,
          "time": 72.03999999999999,
          "value": 0.08544921875
        },
        {
          "ticks": 14460,
          "time": 72.3,
          "value": 0
        },
        {
          "ticks": 14520,
          "time": 72.6,
          "value": 0.08544921875
        },
        {
          "ticks": 14560,
          "time": 72.8,
          "value": -0.59814453125
        },
        {
          "ticks": 14562,
          "time": 72.80999999999999,
          "value": -0.538330078125
        },
        {
          "ticks": 14564,
          "time": 72.82,
          "value": -0.478515625
        },
        {
          "ticks": 14566,
          "time": 72.83,
          "value": -0.418701171875
        },
        {
          "ticks": 14568,
          "time": 72.84,
          "value": -0.35888671875
        },
        {
          "ticks": 14570,
          "time": 72.85,
          "value": -0.299072265625
        },
        {
          "ticks": 14572,
          "time": 72.86,
          "value": -0.2392578125
        },
        {
          "ticks": 14574,
          "time": 72.87,
          "value": -0.179443359375
        },
        {
          "ticks": 14576,
          "time": 72.88,
          "value": -0.11962890625
        },
        {
          "ticks": 14578,
          "time": 72.89,
          "value": -0.059814453125
        },
        {
          "ticks": 14580,
          "time": 72.89999999999999,
          "value": 0
        },
        {
          "ticks": 14640,
          "time": 73.2,
          "value": -0.5126953125
        },
        {
          "ticks": 14641,
          "time": 73.205,
          "value": -0.478515625
        },
        {
          "ticks": 14643,
          "time": 73.215,
          "value": -0.41015625
        },
        {
          "ticks": 14645,
          "time": 73.225,
          "value": -0.341796875
        },
        {
          "ticks": 14647,
          "time": 73.235,
          "value": -0.2734375
        },
        {
          "ticks": 14649,
          "time": 73.245,
          "value": -0.205078125
        },
        {
          "ticks": 14651,
          "time": 73.255,
          "value": -0.13671875
        },
        {
          "ticks": 14653,
          "time": 73.265,
          "value": -0.068359375
        },
        {
          "ticks": 14655,
          "time": 73.27499999999999,
          "value": 0
        },
        {
          "ticks": 14880,
          "time": 74.39999999999999,
          "value": 0
        },
        {
          "ticks": 15360,
          "time": 76.8,
          "value": 0.0213623046875
        },
        {
          "ticks": 15364,
          "time": 76.82,
          "value": 0.042724609375
        },
        {
          "ticks": 15368,
          "time": 76.83999999999999,
          "value": 0.08544921875
        },
        {
          "ticks": 15420,
          "time": 77.1,
          "value": 0
        },
        {
          "ticks": 15480,
          "time": 77.39999999999999,
          "value": 0.08544921875
        },
        {
          "ticks": 15520,
          "time": 77.60000000000001,
          "value": -0.59814453125
        },
        {
          "ticks": 15522,
          "time": 77.61,
          "value": -0.538330078125
        },
        {
          "ticks": 15524,
          "time": 77.62,
          "value": -0.478515625
        },
        {
          "ticks": 15526,
          "time": 77.63,
          "value": -0.418701171875
        },
        {
          "ticks": 15528,
          "time": 77.64,
          "value": -0.35888671875
        },
        {
          "ticks": 15530,
          "time": 77.64999999999999,
          "value": -0.299072265625
        },
        {
          "ticks": 15532,
          "time": 77.66,
          "value": -0.2392578125
        },
        {
          "ticks": 15534,
          "time": 77.66999999999999,
          "value": -0.179443359375
        },
        {
          "ticks": 15536,
          "time": 77.67999999999999,
          "value": -0.11962890625
        },
        {
          "ticks": 15538,
          "time": 77.68999999999998,
          "value": -0.059814453125
        },
        {
          "ticks": 15540,
          "time": 77.7,
          "value": 0
        },
        {
          "ticks": 15600,
          "time": 78,
          "value": -0.5126953125
        },
        {
          "ticks": 15601,
          "time": 78.005,
          "value": -0.478515625
        },
        {
          "ticks": 15603,
          "time": 78.015,
          "value": -0.41015625
        },
        {
          "ticks": 15605,
          "time": 78.02499999999999,
          "value": -0.341796875
        },
        {
          "ticks": 15607,
          "time": 78.035,
          "value": -0.2734375
        },
        {
          "ticks": 15609,
          "time": 78.04499999999999,
          "value": -0.205078125
        },
        {
          "ticks": 15611,
          "time": 78.05499999999999,
          "value": -0.13671875
        },
        {
          "ticks": 15613,
          "time": 78.06499999999998,
          "value": -0.068359375
        },
        {
          "ticks": 15615,
          "time": 78.075,
          "value": 0
        },
        {
          "ticks": 19680,
          "time": 98.39999999999999,
          "value": 0
        },
        {
          "ticks": 20160,
          "time": 100.8,
          "value": 0.0213623046875
        },
        {
          "ticks": 20164,
          "time": 100.82,
          "value": 0.042724609375
        },
        {
          "ticks": 20168,
          "time": 100.83999999999999,
          "value": 0.08544921875
        },
        {
          "ticks": 20220,
          "time": 101.1,
          "value": 0
        },
        {
          "ticks": 20280,
          "time": 101.39999999999999,
          "value": 0.08544921875
        },
        {
          "ticks": 20320,
          "time": 101.60000000000001,
          "value": -0.59814453125
        },
        {
          "ticks": 20322,
          "time": 101.61,
          "value": -0.538330078125
        },
        {
          "ticks": 20324,
          "time": 101.62,
          "value": -0.478515625
        },
        {
          "ticks": 20326,
          "time": 101.63,
          "value": -0.418701171875
        },
        {
          "ticks": 20328,
          "time": 101.64,
          "value": -0.35888671875
        },
        {
          "ticks": 20330,
          "time": 101.64999999999999,
          "value": -0.299072265625
        },
        {
          "ticks": 20332,
          "time": 101.66,
          "value": -0.2392578125
        },
        {
          "ticks": 20334,
          "time": 101.66999999999999,
          "value": -0.179443359375
        },
        {
          "ticks": 20336,
          "time": 101.67999999999999,
          "value": -0.11962890625
        },
        {
          "ticks": 20338,
          "time": 101.68999999999998,
          "value": -0.059814453125
        },
        {
          "ticks": 20340,
          "time": 101.7,
          "value": 0
        },
        {
          "ticks": 20400,
          "time": 102,
          "value": -0.5126953125
        },
        {
          "ticks": 20401,
          "time": 102.005,
          "value": -0.478515625
        },
        {
          "ticks": 20403,
          "time": 102.015,
          "value": -0.41015625
        },
        {
          "ticks": 20405,
          "time": 102.02499999999999,
          "value": -0.341796875
        },
        {
          "ticks": 20407,
          "time": 102.035,
          "value": -0.2734375
        },
        {
          "ticks": 20409,
          "time": 102.04499999999999,
          "value": -0.205078125
        },
        {
          "ticks": 20411,
          "time": 102.05499999999999,
          "value": -0.13671875
        },
        {
          "ticks": 20413,
          "time": 102.06499999999998,
          "value": -0.068359375
        },
        {
          "ticks": 20415,
          "time": 102.075,
          "value": 0
        },
        {
          "ticks": 20640,
          "time": 103.2,
          "value": 0
        },
        {
          "ticks": 21120,
          "time": 105.6,
          "value": 0.0213623046875
        },
        {
          "ticks": 21124,
          "time": 105.61999999999999,
          "value": 0.042724609375
        },
        {
          "ticks": 21128,
          "time": 105.64,
          "value": 0.08544921875
        },
        {
          "ticks": 21180,
          "time": 105.89999999999999,
          "value": 0
        },
        {
          "ticks": 21240,
          "time": 106.2,
          "value": 0.08544921875
        },
        {
          "ticks": 21280,
          "time": 106.4,
          "value": -0.59814453125
        },
        {
          "ticks": 21282,
          "time": 106.41,
          "value": -0.538330078125
        },
        {
          "ticks": 21284,
          "time": 106.42,
          "value": -0.478515625
        },
        {
          "ticks": 21286,
          "time": 106.42999999999999,
          "value": -0.418701171875
        },
        {
          "ticks": 21288,
          "time": 106.44,
          "value": -0.35888671875
        },
        {
          "ticks": 21290,
          "time": 106.44999999999999,
          "value": -0.299072265625
        },
        {
          "ticks": 21292,
          "time": 106.46,
          "value": -0.2392578125
        },
        {
          "ticks": 21294,
          "time": 106.46999999999998,
          "value": -0.179443359375
        },
        {
          "ticks": 21296,
          "time": 106.48,
          "value": -0.11962890625
        },
        {
          "ticks": 21298,
          "time": 106.49,
          "value": -0.059814453125
        },
        {
          "ticks": 21300,
          "time": 106.5,
          "value": 0
        },
        {
          "ticks": 21360,
          "time": 106.8,
          "value": -0.5126953125
        },
        {
          "ticks": 21361,
          "time": 106.80499999999999,
          "value": -0.478515625
        },
        {
          "ticks": 21363,
          "time": 106.815,
          "value": -0.41015625
        },
        {
          "ticks": 21365,
          "time": 106.82499999999999,
          "value": -0.341796875
        },
        {
          "ticks": 21367,
          "time": 106.835,
          "value": -0.2734375
        },
        {
          "ticks": 21369,
          "time": 106.84499999999998,
          "value": -0.205078125
        },
        {
          "ticks": 21371,
          "time": 106.855,
          "value": -0.13671875
        },
        {
          "ticks": 21373,
          "time": 106.865,
          "value": -0.068359375
        },
        {
          "ticks": 21375,
          "time": 106.875,
          "value": 0
        },
        {
          "ticks": 21600,
          "time": 108,
          "value": 0
        },
        {
          "ticks": 22080,
          "time": 110.39999999999999,
          "value": 0.0213623046875
        },
        {
          "ticks": 22084,
          "time": 110.42,
          "value": 0.042724609375
        },
        {
          "ticks": 22088,
          "time": 110.44,
          "value": 0.08544921875
        },
        {
          "ticks": 22140,
          "time": 110.7,
          "value": 0
        },
        {
          "ticks": 22200,
          "time": 111,
          "value": 0.08544921875
        },
        {
          "ticks": 22240,
          "time": 111.2,
          "value": -0.59814453125
        },
        {
          "ticks": 22242,
          "time": 111.21,
          "value": -0.538330078125
        },
        {
          "ticks": 22244,
          "time": 111.22,
          "value": -0.478515625
        },
        {
          "ticks": 22246,
          "time": 111.22999999999999,
          "value": -0.418701171875
        },
        {
          "ticks": 22248,
          "time": 111.24,
          "value": -0.35888671875
        },
        {
          "ticks": 22250,
          "time": 111.24999999999999,
          "value": -0.299072265625
        },
        {
          "ticks": 22252,
          "time": 111.26,
          "value": -0.2392578125
        },
        {
          "ticks": 22254,
          "time": 111.27,
          "value": -0.179443359375
        },
        {
          "ticks": 22256,
          "time": 111.28,
          "value": -0.11962890625
        },
        {
          "ticks": 22258,
          "time": 111.28999999999999,
          "value": -0.059814453125
        },
        {
          "ticks": 22260,
          "time": 111.3,
          "value": 0
        },
        {
          "ticks": 22320,
          "time": 111.6,
          "value": -0.5126953125
        },
        {
          "ticks": 22321,
          "time": 111.60499999999999,
          "value": -0.478515625
        },
        {
          "ticks": 22323,
          "time": 111.615,
          "value": -0.41015625
        },
        {
          "ticks": 22325,
          "time": 111.62499999999999,
          "value": -0.341796875
        },
        {
          "ticks": 22327,
          "time": 111.635,
          "value": -0.2734375
        },
        {
          "ticks": 22329,
          "time": 111.645,
          "value": -0.205078125
        },
        {
          "ticks": 22331,
          "time": 111.655,
          "value": -0.13671875
        },
        {
          "ticks": 22333,
          "time": 111.66499999999999,
          "value": -0.068359375
        },
        {
          "ticks": 22335,
          "time": 111.675,
          "value": 0
        },
        {
          "ticks": 22560,
          "time": 112.8,
          "value": 0
        },
        {
          "ticks": 23040,
          "time": 115.19999999999999,
          "value": 0.0213623046875
        },
        {
          "ticks": 23044,
          "time": 115.22,
          "value": 0.042724609375
        },
        {
          "ticks": 23048,
          "time": 115.24,
          "value": 0.08544921875
        },
        {
          "ticks": 23100,
          "time": 115.5,
          "value": 0
        },
        {
          "ticks": 23160,
          "time": 115.8,
          "value": 0.08544921875
        },
        {
          "ticks": 23200,
          "time": 116,
          "value": -0.59814453125
        },
        {
          "ticks": 23202,
          "time": 116.00999999999999,
          "value": -0.538330078125
        },
        {
          "ticks": 23204,
          "time": 116.02,
          "value": -0.478515625
        },
        {
          "ticks": 23206,
          "time": 116.02999999999999,
          "value": -0.418701171875
        },
        {
          "ticks": 23208,
          "time": 116.03999999999999,
          "value": -0.35888671875
        },
        {
          "ticks": 23210,
          "time": 116.04999999999998,
          "value": -0.299072265625
        },
        {
          "ticks": 23212,
          "time": 116.06,
          "value": -0.2392578125
        },
        {
          "ticks": 23214,
          "time": 116.07,
          "value": -0.179443359375
        },
        {
          "ticks": 23216,
          "time": 116.08,
          "value": -0.11962890625
        },
        {
          "ticks": 23218,
          "time": 116.08999999999999,
          "value": -0.059814453125
        },
        {
          "ticks": 23220,
          "time": 116.1,
          "value": 0
        },
        {
          "ticks": 23280,
          "time": 116.39999999999999,
          "value": -0.5126953125
        },
        {
          "ticks": 23281,
          "time": 116.40499999999999,
          "value": -0.478515625
        },
        {
          "ticks": 23283,
          "time": 116.41499999999999,
          "value": -0.41015625
        },
        {
          "ticks": 23285,
          "time": 116.42499999999998,
          "value": -0.341796875
        },
        {
          "ticks": 23287,
          "time": 116.435,
          "value": -0.2734375
        },
        {
          "ticks": 23289,
          "time": 116.445,
          "value": -0.205078125
        },
        {
          "ticks": 23291,
          "time": 116.455,
          "value": -0.13671875
        },
        {
          "ticks": 23293,
          "time": 116.46499999999999,
          "value": -0.068359375
        },
        {
          "ticks": 23295,
          "time": 116.475,
          "value": 0
        },
        {
          "ticks": 23520,
          "time": 117.6,
          "value": 0
        },
        {
          "ticks": 24000,
          "time": 120,
          "value": 0.0213623046875
        },
        {
          "ticks": 24004,
          "time": 120.02,
          "value": 0.042724609375
        },
        {
          "ticks": 24008,
          "time": 120.03999999999999,
          "value": 0.08544921875
        },
        {
          "ticks": 24060,
          "time": 120.3,
          "value": 0
        },
        {
          "ticks": 24120,
          "time": 120.6,
          "value": 0.08544921875
        },
        {
          "ticks": 24160,
          "time": 120.8,
          "value": -0.59814453125
        },
        {
          "ticks": 24162,
          "time": 120.80999999999999,
          "value": -0.538330078125
        },
        {
          "ticks": 24164,
          "time": 120.82,
          "value": -0.478515625
        },
        {
          "ticks": 24166,
          "time": 120.82999999999998,
          "value": -0.418701171875
        },
        {
          "ticks": 24168,
          "time": 120.84,
          "value": -0.35888671875
        },
        {
          "ticks": 24170,
          "time": 120.85,
          "value": -0.299072265625
        },
        {
          "ticks": 24172,
          "time": 120.86,
          "value": -0.2392578125
        },
        {
          "ticks": 24174,
          "time": 120.86999999999999,
          "value": -0.179443359375
        },
        {
          "ticks": 24176,
          "time": 120.88,
          "value": -0.11962890625
        },
        {
          "ticks": 24178,
          "time": 120.88999999999999,
          "value": -0.059814453125
        },
        {
          "ticks": 24180,
          "time": 120.89999999999999,
          "value": 0
        },
        {
          "ticks": 24240,
          "time": 121.19999999999999,
          "value": -0.5126953125
        },
        {
          "ticks": 24241,
          "time": 121.20499999999998,
          "value": -0.478515625
        },
        {
          "ticks": 24243,
          "time": 121.215,
          "value": -0.41015625
        },
        {
          "ticks": 24245,
          "time": 121.225,
          "value": -0.341796875
        },
        {
          "ticks": 24247,
          "time": 121.235,
          "value": -0.2734375
        },
        {
          "ticks": 24249,
          "time": 121.24499999999999,
          "value": -0.205078125
        },
        {
          "ticks": 24251,
          "time": 121.255,
          "value": -0.13671875
        },
        {
          "ticks": 24253,
          "time": 121.26499999999999,
          "value": -0.068359375
        },
        {
          "ticks": 24255,
          "time": 121.27499999999999,
          "value": 0
        },
        {
          "ticks": 24480,
          "time": 122.39999999999999,
          "value": 0
        },
        {
          "ticks": 24960,
          "time": 124.8,
          "value": 0.0213623046875
        },
        {
          "ticks": 24964,
          "time": 124.82,
          "value": 0.042724609375
        },
        {
          "ticks": 24968,
          "time": 124.83999999999999,
          "value": 0.08544921875
        },
        {
          "ticks": 25020,
          "time": 125.1,
          "value": 0
        },
        {
          "ticks": 25080,
          "time": 125.39999999999999,
          "value": 0.08544921875
        },
        {
          "ticks": 25120,
          "time": 125.6,
          "value": -0.59814453125
        },
        {
          "ticks": 25122,
          "time": 125.60999999999999,
          "value": -0.538330078125
        },
        {
          "ticks": 25124,
          "time": 125.62,
          "value": -0.478515625
        },
        {
          "ticks": 25126,
          "time": 125.63,
          "value": -0.418701171875
        },
        {
          "ticks": 25128,
          "time": 125.64,
          "value": -0.35888671875
        },
        {
          "ticks": 25130,
          "time": 125.64999999999999,
          "value": -0.299072265625
        },
        {
          "ticks": 25132,
          "time": 125.66,
          "value": -0.2392578125
        },
        {
          "ticks": 25134,
          "time": 125.66999999999999,
          "value": -0.179443359375
        },
        {
          "ticks": 25136,
          "time": 125.67999999999999,
          "value": -0.11962890625
        },
        {
          "ticks": 25138,
          "time": 125.68999999999998,
          "value": -0.059814453125
        },
        {
          "ticks": 25140,
          "time": 125.69999999999999,
          "value": 0
        },
        {
          "ticks": 25200,
          "time": 126,
          "value": -0.5126953125
        },
        {
          "ticks": 25201,
          "time": 126.005,
          "value": -0.478515625
        },
        {
          "ticks": 25203,
          "time": 126.015,
          "value": -0.41015625
        },
        {
          "ticks": 25205,
          "time": 126.02499999999999,
          "value": -0.341796875
        },
        {
          "ticks": 25207,
          "time": 126.035,
          "value": -0.2734375
        },
        {
          "ticks": 25209,
          "time": 126.04499999999999,
          "value": -0.205078125
        },
        {
          "ticks": 25211,
          "time": 126.05499999999999,
          "value": -0.13671875
        },
        {
          "ticks": 25213,
          "time": 126.06499999999998,
          "value": -0.068359375
        },
        {
          "ticks": 25215,
          "time": 126.07499999999999,
          "value": 0
        },
        {
          "ticks": 25440,
          "time": 127.19999999999999,
          "value": 0
        },
        {
          "ticks": 25920,
          "time": 129.6,
          "value": 0.0213623046875
        },
        {
          "ticks": 25924,
          "time": 129.62,
          "value": 0.042724609375
        },
        {
          "ticks": 25928,
          "time": 129.64,
          "value": 0.08544921875
        },
        {
          "ticks": 25980,
          "time": 129.9,
          "value": 0
        },
        {
          "ticks": 26040,
          "time": 130.2,
          "value": 0.08544921875
        },
        {
          "ticks": 26080,
          "time": 130.4,
          "value": -0.59814453125
        },
        {
          "ticks": 26082,
          "time": 130.41,
          "value": -0.538330078125
        },
        {
          "ticks": 26084,
          "time": 130.42,
          "value": -0.478515625
        },
        {
          "ticks": 26086,
          "time": 130.42999999999998,
          "value": -0.418701171875
        },
        {
          "ticks": 26088,
          "time": 130.44,
          "value": -0.35888671875
        },
        {
          "ticks": 26090,
          "time": 130.45,
          "value": -0.299072265625
        },
        {
          "ticks": 26092,
          "time": 130.46,
          "value": -0.2392578125
        },
        {
          "ticks": 26094,
          "time": 130.47,
          "value": -0.179443359375
        },
        {
          "ticks": 26096,
          "time": 130.48,
          "value": -0.11962890625
        },
        {
          "ticks": 26098,
          "time": 130.48999999999998,
          "value": -0.059814453125
        },
        {
          "ticks": 26100,
          "time": 130.5,
          "value": 0
        },
        {
          "ticks": 26160,
          "time": 130.79999999999998,
          "value": -0.5126953125
        },
        {
          "ticks": 26161,
          "time": 130.80499999999998,
          "value": -0.478515625
        },
        {
          "ticks": 26163,
          "time": 130.815,
          "value": -0.41015625
        },
        {
          "ticks": 26165,
          "time": 130.825,
          "value": -0.341796875
        },
        {
          "ticks": 26167,
          "time": 130.835,
          "value": -0.2734375
        },
        {
          "ticks": 26169,
          "time": 130.845,
          "value": -0.205078125
        },
        {
          "ticks": 26171,
          "time": 130.855,
          "value": -0.13671875
        },
        {
          "ticks": 26173,
          "time": 130.86499999999998,
          "value": -0.068359375
        },
        {
          "ticks": 26175,
          "time": 130.875,
          "value": 0
        },
        {
          "ticks": 26400,
          "time": 132,
          "value": 0
        },
        {
          "ticks": 26880,
          "time": 134.4,
          "value": 0.0213623046875
        },
        {
          "ticks": 26884,
          "time": 134.42,
          "value": 0.042724609375
        },
        {
          "ticks": 26888,
          "time": 134.44,
          "value": 0.08544921875
        },
        {
          "ticks": 26940,
          "time": 134.7,
          "value": 0
        },
        {
          "ticks": 27000,
          "time": 135,
          "value": 0.08544921875
        },
        {
          "ticks": 27040,
          "time": 135.2,
          "value": -0.59814453125
        },
        {
          "ticks": 27042,
          "time": 135.20999999999998,
          "value": -0.538330078125
        },
        {
          "ticks": 27044,
          "time": 135.22,
          "value": -0.478515625
        },
        {
          "ticks": 27046,
          "time": 135.23,
          "value": -0.418701171875
        },
        {
          "ticks": 27048,
          "time": 135.24,
          "value": -0.35888671875
        },
        {
          "ticks": 27050,
          "time": 135.25,
          "value": -0.299072265625
        },
        {
          "ticks": 27052,
          "time": 135.26,
          "value": -0.2392578125
        },
        {
          "ticks": 27054,
          "time": 135.26999999999998,
          "value": -0.179443359375
        },
        {
          "ticks": 27056,
          "time": 135.28,
          "value": -0.11962890625
        },
        {
          "ticks": 27058,
          "time": 135.29,
          "value": -0.059814453125
        },
        {
          "ticks": 27060,
          "time": 135.29999999999998,
          "value": 0
        },
        {
          "ticks": 27120,
          "time": 135.6,
          "value": -0.5126953125
        },
        {
          "ticks": 27121,
          "time": 135.605,
          "value": -0.478515625
        },
        {
          "ticks": 27123,
          "time": 135.615,
          "value": -0.41015625
        },
        {
          "ticks": 27125,
          "time": 135.625,
          "value": -0.341796875
        },
        {
          "ticks": 27127,
          "time": 135.635,
          "value": -0.2734375
        },
        {
          "ticks": 27129,
          "time": 135.64499999999998,
          "value": -0.205078125
        },
        {
          "ticks": 27131,
          "time": 135.655,
          "value": -0.13671875
        },
        {
          "ticks": 27133,
          "time": 135.665,
          "value": -0.068359375
        },
        {
          "ticks": 27135,
          "time": 135.67499999999998,
          "value": 0
        }
      ],
      "instrument": {
        "family": "synth pad",
        "number": 88,
        "name": "pad 1 (new age)"
      },
      "name": "",
      "notes": [
        {
          "duration": 0.3000000000000007,
          "durationTicks": 60,
          "midi": 79,
          "name": "G5",
          "ticks": 2880,
          "time": 14.399999999999999,
          "velocity": 0.7874015748031497
        },
        {
          "duration": 0.3000000000000007,
          "durationTicks": 60,
          "midi": 76,
          "name": "E5",
          "ticks": 2940,
          "time": 14.7,
          "velocity": 0.7874015748031497
        },
        {
          "duration": 0.29999999999999893,
          "durationTicks": 60,
          "midi": 77,
          "name": "F5",
          "ticks": 3000,
          "time": 15,
          "velocity": 0.7874015748031497
        },
        {
          "duration": 0.3000000000000007,
          "durationTicks": 60,
          "midi": 74,
          "name": "D5",
          "ticks": 3060,
          "time": 15.299999999999999,
          "velocity": 0.7874015748031497
        },
        {
          "duration": 0.29999999999999893,
          "durationTicks": 60,
          "midi": 76,
          "name": "E5",
          "ticks": 3120,
          "time": 15.6,
          "velocity": 0.7874015748031497
        },
        {
          "duration": 0.3000000000000007,
          "durationTicks": 60,
          "midi": 72,
          "name": "C5",
          "ticks": 3180,
          "time": 15.899999999999999,
          "velocity": 0.7874015748031497
        },
        {
          "duration": 0.3000000000000007,
          "durationTicks": 60,
          "midi": 74,
          "name": "D5",
          "ticks": 3240,
          "time": 16.2,
          "velocity": 0.7874015748031497
        },
        {
          "duration": 0.1999999999999993,
          "durationTicks": 40,
          "midi": 69,
          "name": "A4",
          "ticks": 3300,
          "time": 16.5,
          "velocity": 0.7874015748031497
        },
        {
          "duration": 0.3999999999999986,
          "durationTicks": 80,
          "midi": 65,
          "name": "F4",
          "ticks": 3340,
          "time": 16.7,
          "velocity": 0.7874015748031497
        },
        {
          "duration": 0.1999999999999993,
          "durationTicks": 40,
          "midi": 64,
          "name": "E4",
          "ticks": 3420,
          "time": 17.099999999999998,
          "velocity": 0.7874015748031497
        },
        {
          "duration": 0.3000000000000007,
          "durationTicks": 60,
          "midi": 65,
          "name": "F4",
          "ticks": 3460,
          "time": 17.299999999999997,
          "velocity": 0.7874015748031497
        },
        {
          "duration": 0.40000000000000213,
          "durationTicks": 80,
          "midi": 81,
          "name": "A5",
          "ticks": 3520,
          "time": 17.599999999999998,
          "velocity": 0.7874015748031497
        },
        {
          "duration": 1.1999999999999993,
          "durationTicks": 240,
          "midi": 79,
          "name": "G5",
          "ticks": 3600,
          "time": 18,
          "velocity": 0.7874015748031497
        },
        {
          "duration": 0.3000000000000007,
          "durationTicks": 60,
          "midi": 79,
          "name": "G5",
          "ticks": 3840,
          "time": 19.2,
          "velocity": 0.7874015748031497
        },
        {
          "duration": 0.3000000000000007,
          "durationTicks": 60,
          "midi": 76,
          "name": "E5",
          "ticks": 3900,
          "time": 19.5,
          "velocity": 0.7874015748031497
        },
        {
          "duration": 0.29999999999999716,
          "durationTicks": 60,
          "midi": 77,
          "name": "F5",
          "ticks": 3960,
          "time": 19.8,
          "velocity": 0.7874015748031497
        },
        {
          "duration": 0.3000000000000007,
          "durationTicks": 60,
          "midi": 74,
          "name": "D5",
          "ticks": 4020,
          "time": 20.099999999999998,
          "velocity": 0.7874015748031497
        },
        {
          "duration": 0.3000000000000007,
          "durationTicks": 60,
          "midi": 76,
          "name": "E5",
          "ticks": 4080,
          "time": 20.4,
          "velocity": 0.7874015748031497
        },
        {
          "duration": 0.3000000000000007,
          "durationTicks": 60,
          "midi": 72,
          "name": "C5",
          "ticks": 4140,
          "time": 20.7,
          "velocity": 0.7874015748031497
        },
        {
          "duration": 0.3000000000000007,
          "durationTicks": 60,
          "midi": 74,
          "name": "D5",
          "ticks": 4200,
          "time": 21,
          "velocity": 0.7874015748031497
        },
        {
          "duration": 0.1999999999999993,
          "durationTicks": 40,
          "midi": 69,
          "name": "A4",
          "ticks": 4260,
          "time": 21.3,
          "velocity": 0.7874015748031497
        },
        {
          "duration": 0.3999999999999986,
          "durationTicks": 80,
          "midi": 65,
          "name": "F4",
          "ticks": 4300,
          "time": 21.5,
          "velocity": 0.7874015748031497
        },
        {
          "duration": 0.20000000000000284,
          "durationTicks": 40,
          "midi": 64,
          "name": "E4",
          "ticks": 4380,
          "time": 21.9,
          "velocity": 0.7874015748031497
        },
        {
          "duration": 0.3000000000000007,
          "durationTicks": 60,
          "midi": 65,
          "name": "F4",
          "ticks": 4420,
          "time": 22.1,
          "velocity": 0.7874015748031497
        },
        {
          "duration": 0.3999999999999986,
          "durationTicks": 80,
          "midi": 81,
          "name": "A5",
          "ticks": 4480,
          "time": 22.400000000000002,
          "velocity": 0.7874015748031497
        },
        {
          "duration": 1.1999999999999993,
          "durationTicks": 240,
          "midi": 79,
          "name": "G5",
          "ticks": 4560,
          "time": 22.8,
          "velocity": 0.7874015748031497
        },
        {
          "duration": 0.3000000000000007,
          "durationTicks": 60,
          "midi": 79,
          "name": "G5",
          "ticks": 4800,
          "time": 24,
          "velocity": 0.7874015748031497
        },
        {
          "duration": 0.29999999999999716,
          "durationTicks": 60,
          "midi": 76,
          "name": "E5",
          "ticks": 4860,
          "time": 24.3,
          "velocity": 0.7874015748031497
        },
        {
          "duration": 0.3000000000000007,
          "durationTicks": 60,
          "midi": 77,
          "name": "F5",
          "ticks": 4920,
          "time": 24.599999999999998,
          "velocity": 0.7874015748031497
        },
        {
          "duration": 0.3000000000000007,
          "durationTicks": 60,
          "midi": 74,
          "name": "D5",
          "ticks": 4980,
          "time": 24.9,
          "velocity": 0.7874015748031497
        },
        {
          "duration": 0.3000000000000007,
          "durationTicks": 60,
          "midi": 76,
          "name": "E5",
          "ticks": 5040,
          "time": 25.2,
          "velocity": 0.7874015748031497
        },
        {
          "duration": 0.3000000000000007,
          "durationTicks": 60,
          "midi": 72,
          "name": "C5",
          "ticks": 5100,
          "time": 25.5,
          "velocity": 0.7874015748031497
        },
        {
          "duration": 0.29999999999999716,
          "durationTicks": 60,
          "midi": 74,
          "name": "D5",
          "ticks": 5160,
          "time": 25.8,
          "velocity": 0.7874015748031497
        },
        {
          "duration": 0.20000000000000284,
          "durationTicks": 40,
          "midi": 69,
          "name": "A4",
          "ticks": 5220,
          "time": 26.099999999999998,
          "velocity": 0.7874015748031497
        },
        {
          "duration": 0.3999999999999986,
          "durationTicks": 80,
          "midi": 65,
          "name": "F4",
          "ticks": 5260,
          "time": 26.3,
          "velocity": 0.7874015748031497
        },
        {
          "duration": 0.20000000000000284,
          "durationTicks": 40,
          "midi": 64,
          "name": "E4",
          "ticks": 5340,
          "time": 26.7,
          "velocity": 0.7874015748031497
        },
        {
          "duration": 0.29999999999999716,
          "durationTicks": 60,
          "midi": 65,
          "name": "F4",
          "ticks": 5380,
          "time": 26.900000000000002,
          "velocity": 0.7874015748031497
        },
        {
          "duration": 0.3999999999999986,
          "durationTicks": 80,
          "midi": 81,
          "name": "A5",
          "ticks": 5440,
          "time": 27.2,
          "velocity": 0.7874015748031497
        },
        {
          "duration": 1.1999999999999993,
          "durationTicks": 240,
          "midi": 79,
          "name": "G5",
          "ticks": 5520,
          "time": 27.599999999999998,
          "velocity": 0.7874015748031497
        },
        {
          "duration": 0.3000000000000007,
          "durationTicks": 60,
          "midi": 79,
          "name": "G5",
          "ticks": 5760,
          "time": 28.799999999999997,
          "velocity": 0.7874015748031497
        },
        {
          "duration": 0.3000000000000007,
          "durationTicks": 60,
          "midi": 76,
          "name": "E5",
          "ticks": 5820,
          "time": 29.099999999999998,
          "velocity": 0.7874015748031497
        },
        {
          "duration": 0.3000000000000007,
          "durationTicks": 60,
          "midi": 77,
          "name": "F5",
          "ticks": 5880,
          "time": 29.4,
          "velocity": 0.7874015748031497
        },
        {
          "duration": 0.3000000000000007,
          "durationTicks": 60,
          "midi": 74,
          "name": "D5",
          "ticks": 5940,
          "time": 29.7,
          "velocity": 0.7874015748031497
        },
        {
          "duration": 0.29999999999999716,
          "durationTicks": 60,
          "midi": 76,
          "name": "E5",
          "ticks": 6000,
          "time": 30,
          "velocity": 0.7874015748031497
        },
        {
          "duration": 0.3000000000000007,
          "durationTicks": 60,
          "midi": 72,
          "name": "C5",
          "ticks": 6060,
          "time": 30.299999999999997,
          "velocity": 0.7874015748031497
        },
        {
          "duration": 0.3000000000000007,
          "durationTicks": 60,
          "midi": 74,
          "name": "D5",
          "ticks": 6120,
          "time": 30.599999999999998,
          "velocity": 0.7874015748031497
        },
        {
          "duration": 0.20000000000000284,
          "durationTicks": 40,
          "midi": 69,
          "name": "A4",
          "ticks": 6180,
          "time": 30.9,
          "velocity": 0.7874015748031497
        },
        {
          "duration": 0.3999999999999986,
          "durationTicks": 80,
          "midi": 65,
          "name": "F4",
          "ticks": 6220,
          "time": 31.1,
          "velocity": 0.7874015748031497
        },
        {
          "duration": 0.1999999999999993,
          "durationTicks": 40,
          "midi": 64,
          "name": "E4",
          "ticks": 6300,
          "time": 31.5,
          "velocity": 0.7874015748031497
        },
        {
          "duration": 0.3000000000000007,
          "durationTicks": 60,
          "midi": 65,
          "name": "F4",
          "ticks": 6340,
          "time": 31.7,
          "velocity": 0.7874015748031497
        },
        {
          "duration": 0.3999999999999986,
          "durationTicks": 80,
          "midi": 81,
          "name": "A5",
          "ticks": 6400,
          "time": 32,
          "velocity": 0.7874015748031497
        },
        {
          "duration": 1.2000000000000028,
          "durationTicks": 240,
          "midi": 79,
          "name": "G5",
          "ticks": 6480,
          "time": 32.4,
          "velocity": 0.7874015748031497
        },
        {
          "duration": 0.29999999999999716,
          "durationTicks": 60,
          "midi": 79,
          "name": "G5",
          "ticks": 12000,
          "time": 60,
          "velocity": 0.7874015748031497
        },
        {
          "duration": 0.29999999999999716,
          "durationTicks": 60,
          "midi": 76,
          "name": "E5",
          "ticks": 12060,
          "time": 60.3,
          "velocity": 0.7874015748031497
        },
        {
          "duration": 0.30000000000000426,
          "durationTicks": 60,
          "midi": 77,
          "name": "F5",
          "ticks": 12120,
          "time": 60.599999999999994,
          "velocity": 0.7874015748031497
        },
        {
          "duration": 0.29999999999999716,
          "durationTicks": 60,
          "midi": 74,
          "name": "D5",
          "ticks": 12180,
          "time": 60.9,
          "velocity": 0.7874015748031497
        },
        {
          "duration": 0.30000000000000426,
          "durationTicks": 60,
          "midi": 76,
          "name": "E5",
          "ticks": 12240,
          "time": 61.199999999999996,
          "velocity": 0.7874015748031497
        },
        {
          "duration": 0.29999999999999716,
          "durationTicks": 60,
          "midi": 72,
          "name": "C5",
          "ticks": 12300,
          "time": 61.5,
          "velocity": 0.7874015748031497
        },
        {
          "duration": 0.29999999999999716,
          "durationTicks": 60,
          "midi": 74,
          "name": "D5",
          "ticks": 12360,
          "time": 61.8,
          "velocity": 0.7874015748031497
        },
        {
          "duration": 0.20000000000000284,
          "durationTicks": 40,
          "midi": 69,
          "name": "A4",
          "ticks": 12420,
          "time": 62.099999999999994,
          "velocity": 0.7874015748031497
        },
        {
          "duration": 0.3999999999999986,
          "durationTicks": 80,
          "midi": 65,
          "name": "F4",
          "ticks": 12460,
          "time": 62.3,
          "velocity": 0.7874015748031497
        },
        {
          "duration": 0.19999999999999574,
          "durationTicks": 40,
          "midi": 64,
          "name": "E4",
          "ticks": 12540,
          "time": 62.699999999999996,
          "velocity": 0.7874015748031497
        },
        {
          "duration": 0.30000000000000426,
          "durationTicks": 60,
          "midi": 65,
          "name": "F4",
          "ticks": 12580,
          "time": 62.89999999999999,
          "velocity": 0.7874015748031497
        },
        {
          "duration": 0.3999999999999986,
          "durationTicks": 80,
          "midi": 81,
          "name": "A5",
          "ticks": 12640,
          "time": 63.199999999999996,
          "velocity": 0.7874015748031497
        },
        {
          "duration": 1.2000000000000028,
          "durationTicks": 240,
          "midi": 79,
          "name": "G5",
          "ticks": 12720,
          "time": 63.599999999999994,
          "velocity": 0.7874015748031497
        },
        {
          "duration": 0.29999999999999716,
          "durationTicks": 60,
          "midi": 79,
          "name": "G5",
          "ticks": 12960,
          "time": 64.8,
          "velocity": 0.7874015748031497
        },
        {
          "duration": 0.29999999999999716,
          "durationTicks": 60,
          "midi": 76,
          "name": "E5",
          "ticks": 13020,
          "time": 65.1,
          "velocity": 0.7874015748031497
        },
        {
          "duration": 0.30000000000001137,
          "durationTicks": 60,
          "midi": 77,
          "name": "F5",
          "ticks": 13080,
          "time": 65.39999999999999,
          "velocity": 0.7874015748031497
        },
        {
          "duration": 0.29999999999999716,
          "durationTicks": 60,
          "midi": 74,
          "name": "D5",
          "ticks": 13140,
          "time": 65.7,
          "velocity": 0.7874015748031497
        },
        {
          "duration": 0.29999999999999716,
          "durationTicks": 60,
          "midi": 76,
          "name": "E5",
          "ticks": 13200,
          "time": 66,
          "velocity": 0.7874015748031497
        },
        {
          "duration": 0.29999999999999716,
          "durationTicks": 60,
          "midi": 72,
          "name": "C5",
          "ticks": 13260,
          "time": 66.3,
          "velocity": 0.7874015748031497
        },
        {
          "duration": 0.29999999999999716,
          "durationTicks": 60,
          "midi": 74,
          "name": "D5",
          "ticks": 13320,
          "time": 66.6,
          "velocity": 0.7874015748031497
        },
        {
          "duration": 0.20000000000000284,
          "durationTicks": 40,
          "midi": 69,
          "name": "A4",
          "ticks": 13380,
          "time": 66.89999999999999,
          "velocity": 0.7874015748031497
        },
        {
          "duration": 0.4000000000000057,
          "durationTicks": 80,
          "midi": 65,
          "name": "F4",
          "ticks": 13420,
          "time": 67.1,
          "velocity": 0.7874015748031497
        },
        {
          "duration": 0.19999999999998863,
          "durationTicks": 40,
          "midi": 64,
          "name": "E4",
          "ticks": 13500,
          "time": 67.5,
          "velocity": 0.7874015748031497
        },
        {
          "duration": 0.30000000000001137,
          "durationTicks": 60,
          "midi": 65,
          "name": "F4",
          "ticks": 13540,
          "time": 67.69999999999999,
          "velocity": 0.7874015748031497
        },
        {
          "duration": 0.3999999999999915,
          "durationTicks": 80,
          "midi": 81,
          "name": "A5",
          "ticks": 13600,
          "time": 68,
          "velocity": 0.7874015748031497
        },
        {
          "duration": 1.2000000000000028,
          "durationTicks": 240,
          "midi": 79,
          "name": "G5",
          "ticks": 13680,
          "time": 68.39999999999999,
          "velocity": 0.7874015748031497
        },
        {
          "duration": 0.29999999999999716,
          "durationTicks": 60,
          "midi": 79,
          "name": "G5",
          "ticks": 13920,
          "time": 69.6,
          "velocity": 0.7874015748031497
        },
        {
          "duration": 0.30000000000001137,
          "durationTicks": 60,
          "midi": 76,
          "name": "E5",
          "ticks": 13980,
          "time": 69.89999999999999,
          "velocity": 0.7874015748031497
        },
        {
          "duration": 0.29999999999999716,
          "durationTicks": 60,
          "midi": 77,
          "name": "F5",
          "ticks": 14040,
          "time": 70.2,
          "velocity": 0.7874015748031497
        },
        {
          "duration": 0.29999999999999716,
          "durationTicks": 60,
          "midi": 74,
          "name": "D5",
          "ticks": 14100,
          "time": 70.5,
          "velocity": 0.7874015748031497
        },
        {
          "duration": 0.29999999999999716,
          "durationTicks": 60,
          "midi": 76,
          "name": "E5",
          "ticks": 14160,
          "time": 70.8,
          "velocity": 0.7874015748031497
        },
        {
          "duration": 0.29999999999999716,
          "durationTicks": 60,
          "midi": 72,
          "name": "C5",
          "ticks": 14220,
          "time": 71.1,
          "velocity": 0.7874015748031497
        },
        {
          "duration": 0.30000000000001137,
          "durationTicks": 60,
          "midi": 74,
          "name": "D5",
          "ticks": 14280,
          "time": 71.39999999999999,
          "velocity": 0.7874015748031497
        },
        {
          "duration": 0.19999999999998863,
          "durationTicks": 40,
          "midi": 69,
          "name": "A4",
          "ticks": 14340,
          "time": 71.7,
          "velocity": 0.7874015748031497
        },
        {
          "duration": 0.4000000000000057,
          "durationTicks": 80,
          "midi": 65,
          "name": "F4",
          "ticks": 14380,
          "time": 71.89999999999999,
          "velocity": 0.7874015748031497
        },
        {
          "duration": 0.20000000000000284,
          "durationTicks": 40,
          "midi": 64,
          "name": "E4",
          "ticks": 14460,
          "time": 72.3,
          "velocity": 0.7874015748031497
        },
        {
          "duration": 0.29999999999999716,
          "durationTicks": 60,
          "midi": 65,
          "name": "F4",
          "ticks": 14500,
          "time": 72.5,
          "velocity": 0.7874015748031497
        },
        {
          "duration": 0.4000000000000057,
          "durationTicks": 80,
          "midi": 81,
          "name": "A5",
          "ticks": 14560,
          "time": 72.8,
          "velocity": 0.7874015748031497
        },
        {
          "duration": 1.1999999999999886,
          "durationTicks": 240,
          "midi": 79,
          "name": "G5",
          "ticks": 14640,
          "time": 73.2,
          "velocity": 0.7874015748031497
        },
        {
          "duration": 0.30000000000001137,
          "durationTicks": 60,
          "midi": 79,
          "name": "G5",
          "ticks": 14880,
          "time": 74.39999999999999,
          "velocity": 0.7874015748031497
        },
        {
          "duration": 0.29999999999999716,
          "durationTicks": 60,
          "midi": 76,
          "name": "E5",
          "ticks": 14940,
          "time": 74.7,
          "velocity": 0.7874015748031497
        },
        {
          "duration": 0.29999999999999716,
          "durationTicks": 60,
          "midi": 77,
          "name": "F5",
          "ticks": 15000,
          "time": 75,
          "velocity": 0.7874015748031497
        },
        {
          "duration": 0.29999999999999716,
          "durationTicks": 60,
          "midi": 74,
          "name": "D5",
          "ticks": 15060,
          "time": 75.3,
          "velocity": 0.7874015748031497
        },
        {
          "duration": 0.29999999999999716,
          "durationTicks": 60,
          "midi": 76,
          "name": "E5",
          "ticks": 15120,
          "time": 75.6,
          "velocity": 0.7874015748031497
        },
        {
          "duration": 0.30000000000001137,
          "durationTicks": 60,
          "midi": 72,
          "name": "C5",
          "ticks": 15180,
          "time": 75.89999999999999,
          "velocity": 0.7874015748031497
        },
        {
          "duration": 0.29999999999999716,
          "durationTicks": 60,
          "midi": 74,
          "name": "D5",
          "ticks": 15240,
          "time": 76.2,
          "velocity": 0.7874015748031497
        },
        {
          "duration": 0.19999999999998863,
          "durationTicks": 40,
          "midi": 69,
          "name": "A4",
          "ticks": 15300,
          "time": 76.5,
          "velocity": 0.7874015748031497
        },
        {
          "duration": 0.4000000000000057,
          "durationTicks": 80,
          "midi": 65,
          "name": "F4",
          "ticks": 15340,
          "time": 76.69999999999999,
          "velocity": 0.7874015748031497
        },
        {
          "duration": 0.20000000000000284,
          "durationTicks": 40,
          "midi": 64,
          "name": "E4",
          "ticks": 15420,
          "time": 77.1,
          "velocity": 0.7874015748031497
        },
        {
          "duration": 0.30000000000001137,
          "durationTicks": 60,
          "midi": 65,
          "name": "F4",
          "ticks": 15460,
          "time": 77.3,
          "velocity": 0.7874015748031497
        },
        {
          "duration": 0.3999999999999915,
          "durationTicks": 80,
          "midi": 81,
          "name": "A5",
          "ticks": 15520,
          "time": 77.60000000000001,
          "velocity": 0.7874015748031497
        },
        {
          "duration": 1.2000000000000028,
          "durationTicks": 240,
          "midi": 79,
          "name": "G5",
          "ticks": 15600,
          "time": 78,
          "velocity": 0.7874015748031497
        },
        {
          "duration": 0.30000000000001137,
          "durationTicks": 60,
          "midi": 79,
          "name": "G5",
          "ticks": 19680,
          "time": 98.39999999999999,
          "velocity": 0.7874015748031497
        },
        {
          "duration": 0.29999999999999716,
          "durationTicks": 60,
          "midi": 76,
          "name": "E5",
          "ticks": 19740,
          "time": 98.7,
          "velocity": 0.7874015748031497
        },
        {
          "duration": 0.29999999999999716,
          "durationTicks": 60,
          "midi": 77,
          "name": "F5",
          "ticks": 19800,
          "time": 99,
          "velocity": 0.7874015748031497
        },
        {
          "duration": 0.29999999999999716,
          "durationTicks": 60,
          "midi": 74,
          "name": "D5",
          "ticks": 19860,
          "time": 99.3,
          "velocity": 0.7874015748031497
        },
        {
          "duration": 0.29999999999999716,
          "durationTicks": 60,
          "midi": 76,
          "name": "E5",
          "ticks": 19920,
          "time": 99.6,
          "velocity": 0.7874015748031497
        },
        {
          "duration": 0.30000000000001137,
          "durationTicks": 60,
          "midi": 72,
          "name": "C5",
          "ticks": 19980,
          "time": 99.89999999999999,
          "velocity": 0.7874015748031497
        },
        {
          "duration": 0.29999999999999716,
          "durationTicks": 60,
          "midi": 74,
          "name": "D5",
          "ticks": 20040,
          "time": 100.2,
          "velocity": 0.7874015748031497
        },
        {
          "duration": 0.20000000000000284,
          "durationTicks": 40,
          "midi": 69,
          "name": "A4",
          "ticks": 20100,
          "time": 100.5,
          "velocity": 0.7874015748031497
        },
        {
          "duration": 0.3999999999999915,
          "durationTicks": 80,
          "midi": 65,
          "name": "F4",
          "ticks": 20140,
          "time": 100.7,
          "velocity": 0.7874015748031497
        },
        {
          "duration": 0.20000000000000284,
          "durationTicks": 40,
          "midi": 64,
          "name": "E4",
          "ticks": 20220,
          "time": 101.1,
          "velocity": 0.7874015748031497
        },
        {
          "duration": 0.30000000000001137,
          "durationTicks": 60,
          "midi": 65,
          "name": "F4",
          "ticks": 20260,
          "time": 101.3,
          "velocity": 0.7874015748031497
        },
        {
          "duration": 0.3999999999999915,
          "durationTicks": 80,
          "midi": 81,
          "name": "A5",
          "ticks": 20320,
          "time": 101.60000000000001,
          "velocity": 0.7874015748031497
        },
        {
          "duration": 1.2000000000000028,
          "durationTicks": 240,
          "midi": 79,
          "name": "G5",
          "ticks": 20400,
          "time": 102,
          "velocity": 0.7874015748031497
        },
        {
          "duration": 0.29999999999999716,
          "durationTicks": 60,
          "midi": 79,
          "name": "G5",
          "ticks": 20640,
          "time": 103.2,
          "velocity": 0.7874015748031497
        },
        {
          "duration": 0.29999999999999716,
          "durationTicks": 60,
          "midi": 76,
          "name": "E5",
          "ticks": 20700,
          "time": 103.5,
          "velocity": 0.7874015748031497
        },
        {
          "duration": 0.29999999999999716,
          "durationTicks": 60,
          "midi": 77,
          "name": "F5",
          "ticks": 20760,
          "time": 103.8,
          "velocity": 0.7874015748031497
        },
        {
          "duration": 0.29999999999999716,
          "durationTicks": 60,
          "midi": 74,
          "name": "D5",
          "ticks": 20820,
          "time": 104.1,
          "velocity": 0.7874015748031497
        },
        {
          "duration": 0.30000000000001137,
          "durationTicks": 60,
          "midi": 76,
          "name": "E5",
          "ticks": 20880,
          "time": 104.39999999999999,
          "velocity": 0.7874015748031497
        },
        {
          "duration": 0.29999999999999716,
          "durationTicks": 60,
          "midi": 72,
          "name": "C5",
          "ticks": 20940,
          "time": 104.7,
          "velocity": 0.7874015748031497
        },
        {
          "duration": 0.29999999999999716,
          "durationTicks": 60,
          "midi": 74,
          "name": "D5",
          "ticks": 21000,
          "time": 105,
          "velocity": 0.7874015748031497
        },
        {
          "duration": 0.20000000000000284,
          "durationTicks": 40,
          "midi": 69,
          "name": "A4",
          "ticks": 21060,
          "time": 105.3,
          "velocity": 0.7874015748031497
        },
        {
          "duration": 0.3999999999999915,
          "durationTicks": 80,
          "midi": 65,
          "name": "F4",
          "ticks": 21100,
          "time": 105.5,
          "velocity": 0.7874015748031497
        },
        {
          "duration": 0.20000000000001705,
          "durationTicks": 40,
          "midi": 64,
          "name": "E4",
          "ticks": 21180,
          "time": 105.89999999999999,
          "velocity": 0.7874015748031497
        },
        {
          "duration": 0.29999999999999716,
          "durationTicks": 60,
          "midi": 65,
          "name": "F4",
          "ticks": 21220,
          "time": 106.10000000000001,
          "velocity": 0.7874015748031497
        },
        {
          "duration": 0.3999999999999915,
          "durationTicks": 80,
          "midi": 81,
          "name": "A5",
          "ticks": 21280,
          "time": 106.4,
          "velocity": 0.7874015748031497
        },
        {
          "duration": 1.2000000000000028,
          "durationTicks": 240,
          "midi": 79,
          "name": "G5",
          "ticks": 21360,
          "time": 106.8,
          "velocity": 0.7874015748031497
        },
        {
          "duration": 0.29999999999999716,
          "durationTicks": 60,
          "midi": 79,
          "name": "G5",
          "ticks": 21600,
          "time": 108,
          "velocity": 0.7874015748031497
        },
        {
          "duration": 0.29999999999999716,
          "durationTicks": 60,
          "midi": 76,
          "name": "E5",
          "ticks": 21660,
          "time": 108.3,
          "velocity": 0.7874015748031497
        },
        {
          "duration": 0.29999999999999716,
          "durationTicks": 60,
          "midi": 77,
          "name": "F5",
          "ticks": 21720,
          "time": 108.6,
          "velocity": 0.7874015748031497
        },
        {
          "duration": 0.30000000000001137,
          "durationTicks": 60,
          "midi": 74,
          "name": "D5",
          "ticks": 21780,
          "time": 108.89999999999999,
          "velocity": 0.7874015748031497
        },
        {
          "duration": 0.29999999999999716,
          "durationTicks": 60,
          "midi": 76,
          "name": "E5",
          "ticks": 21840,
          "time": 109.2,
          "velocity": 0.7874015748031497
        },
        {
          "duration": 0.29999999999999716,
          "durationTicks": 60,
          "midi": 72,
          "name": "C5",
          "ticks": 21900,
          "time": 109.5,
          "velocity": 0.7874015748031497
        },
        {
          "duration": 0.29999999999999716,
          "durationTicks": 60,
          "midi": 74,
          "name": "D5",
          "ticks": 21960,
          "time": 109.8,
          "velocity": 0.7874015748031497
        },
        {
          "duration": 0.20000000000000284,
          "durationTicks": 40,
          "midi": 69,
          "name": "A4",
          "ticks": 22020,
          "time": 110.1,
          "velocity": 0.7874015748031497
        },
        {
          "duration": 0.4000000000000057,
          "durationTicks": 80,
          "midi": 65,
          "name": "F4",
          "ticks": 22060,
          "time": 110.3,
          "velocity": 0.7874015748031497
        },
        {
          "duration": 0.20000000000000284,
          "durationTicks": 40,
          "midi": 64,
          "name": "E4",
          "ticks": 22140,
          "time": 110.7,
          "velocity": 0.7874015748031497
        },
        {
          "duration": 0.29999999999999716,
          "durationTicks": 60,
          "midi": 65,
          "name": "F4",
          "ticks": 22180,
          "time": 110.9,
          "velocity": 0.7874015748031497
        },
        {
          "duration": 0.3999999999999915,
          "durationTicks": 80,
          "midi": 81,
          "name": "A5",
          "ticks": 22240,
          "time": 111.2,
          "velocity": 0.7874015748031497
        },
        {
          "duration": 1.2000000000000028,
          "durationTicks": 240,
          "midi": 79,
          "name": "G5",
          "ticks": 22320,
          "time": 111.6,
          "velocity": 0.7874015748031497
        },
        {
          "duration": 0.29999999999999716,
          "durationTicks": 60,
          "midi": 79,
          "name": "G5",
          "ticks": 22560,
          "time": 112.8,
          "velocity": 0.7874015748031497
        },
        {
          "duration": 0.29999999999999716,
          "durationTicks": 60,
          "midi": 76,
          "name": "E5",
          "ticks": 22620,
          "time": 113.1,
          "velocity": 0.7874015748031497
        },
        {
          "duration": 0.30000000000001137,
          "durationTicks": 60,
          "midi": 77,
          "name": "F5",
          "ticks": 22680,
          "time": 113.39999999999999,
          "velocity": 0.7874015748031497
        },
        {
          "duration": 0.29999999999999716,
          "durationTicks": 60,
          "midi": 74,
          "name": "D5",
          "ticks": 22740,
          "time": 113.7,
          "velocity": 0.7874015748031497
        },
        {
          "duration": 0.29999999999999716,
          "durationTicks": 60,
          "midi": 76,
          "name": "E5",
          "ticks": 22800,
          "time": 114,
          "velocity": 0.7874015748031497
        },
        {
          "duration": 0.29999999999999716,
          "durationTicks": 60,
          "midi": 72,
          "name": "C5",
          "ticks": 22860,
          "time": 114.3,
          "velocity": 0.7874015748031497
        },
        {
          "duration": 0.29999999999999716,
          "durationTicks": 60,
          "midi": 74,
          "name": "D5",
          "ticks": 22920,
          "time": 114.6,
          "velocity": 0.7874015748031497
        },
        {
          "duration": 0.20000000000001705,
          "durationTicks": 40,
          "midi": 69,
          "name": "A4",
          "ticks": 22980,
          "time": 114.89999999999999,
          "velocity": 0.7874015748031497
        },
        {
          "duration": 0.3999999999999915,
          "durationTicks": 80,
          "midi": 65,
          "name": "F4",
          "ticks": 23020,
          "time": 115.10000000000001,
          "velocity": 0.7874015748031497
        },
        {
          "duration": 0.20000000000000284,
          "durationTicks": 40,
          "midi": 64,
          "name": "E4",
          "ticks": 23100,
          "time": 115.5,
          "velocity": 0.7874015748031497
        },
        {
          "duration": 0.29999999999999716,
          "durationTicks": 60,
          "midi": 65,
          "name": "F4",
          "ticks": 23140,
          "time": 115.7,
          "velocity": 0.7874015748031497
        },
        {
          "duration": 0.3999999999999915,
          "durationTicks": 80,
          "midi": 81,
          "name": "A5",
          "ticks": 23200,
          "time": 116,
          "velocity": 0.7874015748031497
        },
        {
          "duration": 1.2000000000000028,
          "durationTicks": 240,
          "midi": 79,
          "name": "G5",
          "ticks": 23280,
          "time": 116.39999999999999,
          "velocity": 0.7874015748031497
        },
        {
          "duration": 0.29999999999999716,
          "durationTicks": 60,
          "midi": 79,
          "name": "G5",
          "ticks": 23520,
          "time": 117.6,
          "velocity": 0.7874015748031497
        },
        {
          "duration": 0.29999999999999716,
          "durationTicks": 60,
          "midi": 76,
          "name": "E5",
          "ticks": 23580,
          "time": 117.89999999999999,
          "velocity": 0.7874015748031497
        },
        {
          "duration": 0.30000000000001137,
          "durationTicks": 60,
          "midi": 77,
          "name": "F5",
          "ticks": 23640,
          "time": 118.19999999999999,
          "velocity": 0.7874015748031497
        },
        {
          "duration": 0.29999999999999716,
          "durationTicks": 60,
          "midi": 74,
          "name": "D5",
          "ticks": 23700,
          "time": 118.5,
          "velocity": 0.7874015748031497
        },
        {
          "duration": 0.29999999999999716,
          "durationTicks": 60,
          "midi": 76,
          "name": "E5",
          "ticks": 23760,
          "time": 118.8,
          "velocity": 0.7874015748031497
        },
        {
          "duration": 0.29999999999999716,
          "durationTicks": 60,
          "midi": 72,
          "name": "C5",
          "ticks": 23820,
          "time": 119.1,
          "velocity": 0.7874015748031497
        },
        {
          "duration": 0.29999999999999716,
          "durationTicks": 60,
          "midi": 74,
          "name": "D5",
          "ticks": 23880,
          "time": 119.39999999999999,
          "velocity": 0.7874015748031497
        },
        {
          "duration": 0.20000000000001705,
          "durationTicks": 40,
          "midi": 69,
          "name": "A4",
          "ticks": 23940,
          "time": 119.69999999999999,
          "velocity": 0.7874015748031497
        },
        {
          "duration": 0.3999999999999915,
          "durationTicks": 80,
          "midi": 65,
          "name": "F4",
          "ticks": 23980,
          "time": 119.9,
          "velocity": 0.7874015748031497
        },
        {
          "duration": 0.20000000000000284,
          "durationTicks": 40,
          "midi": 64,
          "name": "E4",
          "ticks": 24060,
          "time": 120.3,
          "velocity": 0.7874015748031497
        },
        {
          "duration": 0.29999999999999716,
          "durationTicks": 60,
          "midi": 65,
          "name": "F4",
          "ticks": 24100,
          "time": 120.5,
          "velocity": 0.7874015748031497
        },
        {
          "duration": 0.3999999999999915,
          "durationTicks": 80,
          "midi": 81,
          "name": "A5",
          "ticks": 24160,
          "time": 120.8,
          "velocity": 0.7874015748031497
        },
        {
          "duration": 1.2000000000000028,
          "durationTicks": 240,
          "midi": 79,
          "name": "G5",
          "ticks": 24240,
          "time": 121.19999999999999,
          "velocity": 0.7874015748031497
        },
        {
          "duration": 0.29999999999999716,
          "durationTicks": 60,
          "midi": 79,
          "name": "G5",
          "ticks": 24480,
          "time": 122.39999999999999,
          "velocity": 0.7874015748031497
        },
        {
          "duration": 0.30000000000001137,
          "durationTicks": 60,
          "midi": 76,
          "name": "E5",
          "ticks": 24540,
          "time": 122.69999999999999,
          "velocity": 0.7874015748031497
        },
        {
          "duration": 0.29999999999999716,
          "durationTicks": 60,
          "midi": 77,
          "name": "F5",
          "ticks": 24600,
          "time": 123,
          "velocity": 0.7874015748031497
        },
        {
          "duration": 0.29999999999999716,
          "durationTicks": 60,
          "midi": 74,
          "name": "D5",
          "ticks": 24660,
          "time": 123.3,
          "velocity": 0.7874015748031497
        },
        {
          "duration": 0.29999999999999716,
          "durationTicks": 60,
          "midi": 76,
          "name": "E5",
          "ticks": 24720,
          "time": 123.6,
          "velocity": 0.7874015748031497
        },
        {
          "duration": 0.29999999999999716,
          "durationTicks": 60,
          "midi": 72,
          "name": "C5",
          "ticks": 24780,
          "time": 123.89999999999999,
          "velocity": 0.7874015748031497
        },
        {
          "duration": 0.30000000000001137,
          "durationTicks": 60,
          "midi": 74,
          "name": "D5",
          "ticks": 24840,
          "time": 124.19999999999999,
          "velocity": 0.7874015748031497
        },
        {
          "duration": 0.20000000000000284,
          "durationTicks": 40,
          "midi": 69,
          "name": "A4",
          "ticks": 24900,
          "time": 124.5,
          "velocity": 0.7874015748031497
        },
        {
          "duration": 0.3999999999999915,
          "durationTicks": 80,
          "midi": 65,
          "name": "F4",
          "ticks": 24940,
          "time": 124.7,
          "velocity": 0.7874015748031497
        },
        {
          "duration": 0.20000000000000284,
          "durationTicks": 40,
          "midi": 64,
          "name": "E4",
          "ticks": 25020,
          "time": 125.1,
          "velocity": 0.7874015748031497
        },
        {
          "duration": 0.29999999999999716,
          "durationTicks": 60,
          "midi": 65,
          "name": "F4",
          "ticks": 25060,
          "time": 125.3,
          "velocity": 0.7874015748031497
        },
        {
          "duration": 0.4000000000000057,
          "durationTicks": 80,
          "midi": 81,
          "name": "A5",
          "ticks": 25120,
          "time": 125.6,
          "velocity": 0.7874015748031497
        },
        {
          "duration": 1.1999999999999886,
          "durationTicks": 240,
          "midi": 79,
          "name": "G5",
          "ticks": 25200,
          "time": 126,
          "velocity": 0.7874015748031497
        },
        {
          "duration": 0.30000000000001137,
          "durationTicks": 60,
          "midi": 79,
          "name": "G5",
          "ticks": 25440,
          "time": 127.19999999999999,
          "velocity": 0.7874015748031497
        },
        {
          "duration": 0.29999999999999716,
          "durationTicks": 60,
          "midi": 76,
          "name": "E5",
          "ticks": 25500,
          "time": 127.5,
          "velocity": 0.7874015748031497
        },
        {
          "duration": 0.29999999999999716,
          "durationTicks": 60,
          "midi": 77,
          "name": "F5",
          "ticks": 25560,
          "time": 127.8,
          "velocity": 0.7874015748031497
        },
        {
          "duration": 0.30000000000001137,
          "durationTicks": 60,
          "midi": 74,
          "name": "D5",
          "ticks": 25620,
          "time": 128.1,
          "velocity": 0.7874015748031497
        },
        {
          "duration": 0.29999999999998295,
          "durationTicks": 60,
          "midi": 76,
          "name": "E5",
          "ticks": 25680,
          "time": 128.4,
          "velocity": 0.7874015748031497
        },
        {
          "duration": 0.30000000000001137,
          "durationTicks": 60,
          "midi": 72,
          "name": "C5",
          "ticks": 25740,
          "time": 128.7,
          "velocity": 0.7874015748031497
        },
        {
          "duration": 0.29999999999998295,
          "durationTicks": 60,
          "midi": 74,
          "name": "D5",
          "ticks": 25800,
          "time": 129,
          "velocity": 0.7874015748031497
        },
        {
          "duration": 0.20000000000001705,
          "durationTicks": 40,
          "midi": 69,
          "name": "A4",
          "ticks": 25860,
          "time": 129.29999999999998,
          "velocity": 0.7874015748031497
        },
        {
          "duration": 0.4000000000000057,
          "durationTicks": 80,
          "midi": 65,
          "name": "F4",
          "ticks": 25900,
          "time": 129.5,
          "velocity": 0.7874015748031497
        },
        {
          "duration": 0.19999999999998863,
          "durationTicks": 40,
          "midi": 64,
          "name": "E4",
          "ticks": 25980,
          "time": 129.9,
          "velocity": 0.7874015748031497
        },
        {
          "duration": 0.30000000000001137,
          "durationTicks": 60,
          "midi": 65,
          "name": "F4",
          "ticks": 26020,
          "time": 130.1,
          "velocity": 0.7874015748031497
        },
        {
          "duration": 0.39999999999997726,
          "durationTicks": 80,
          "midi": 81,
          "name": "A5",
          "ticks": 26080,
          "time": 130.4,
          "velocity": 0.7874015748031497
        },
        {
          "duration": 1.200000000000017,
          "durationTicks": 240,
          "midi": 79,
          "name": "G5",
          "ticks": 26160,
          "time": 130.79999999999998,
          "velocity": 0.7874015748031497
        },
        {
          "duration": 0.29999999999998295,
          "durationTicks": 60,
          "midi": 79,
          "name": "G5",
          "ticks": 26400,
          "time": 132,
          "velocity": 0.7874015748031497
        },
        {
          "duration": 0.30000000000001137,
          "durationTicks": 60,
          "midi": 76,
          "name": "E5",
          "ticks": 26460,
          "time": 132.29999999999998,
          "velocity": 0.7874015748031497
        },
        {
          "duration": 0.30000000000001137,
          "durationTicks": 60,
          "midi": 77,
          "name": "F5",
          "ticks": 26520,
          "time": 132.6,
          "velocity": 0.7874015748031497
        },
        {
          "duration": 0.29999999999998295,
          "durationTicks": 60,
          "midi": 74,
          "name": "D5",
          "ticks": 26580,
          "time": 132.9,
          "velocity": 0.7874015748031497
        },
        {
          "duration": 0.30000000000001137,
          "durationTicks": 60,
          "midi": 76,
          "name": "E5",
          "ticks": 26640,
          "time": 133.2,
          "velocity": 0.7874015748031497
        },
        {
          "duration": 0.29999999999998295,
          "durationTicks": 60,
          "midi": 72,
          "name": "C5",
          "ticks": 26700,
          "time": 133.5,
          "velocity": 0.7874015748031497
        },
        {
          "duration": 0.30000000000001137,
          "durationTicks": 60,
          "midi": 74,
          "name": "D5",
          "ticks": 26760,
          "time": 133.79999999999998,
          "velocity": 0.7874015748031497
        },
        {
          "duration": 0.20000000000001705,
          "durationTicks": 40,
          "midi": 69,
          "name": "A4",
          "ticks": 26820,
          "time": 134.1,
          "velocity": 0.7874015748031497
        },
        {
          "duration": 0.39999999999997726,
          "durationTicks": 80,
          "midi": 65,
          "name": "F4",
          "ticks": 26860,
          "time": 134.3,
          "velocity": 0.7874015748031497
        },
        {
          "duration": 0.20000000000001705,
          "durationTicks": 40,
          "midi": 64,
          "name": "E4",
          "ticks": 26940,
          "time": 134.7,
          "velocity": 0.7874015748031497
        },
        {
          "duration": 0.29999999999998295,
          "durationTicks": 60,
          "midi": 65,
          "name": "F4",
          "ticks": 26980,
          "time": 134.9,
          "velocity": 0.7874015748031497
        },
        {
          "duration": 0.4000000000000057,
          "durationTicks": 80,
          "midi": 81,
          "name": "A5",
          "ticks": 27040,
          "time": 135.2,
          "velocity": 0.7874015748031497
        },
        {
          "duration": 1.1999999999999886,
          "durationTicks": 240,
          "midi": 79,
          "name": "G5",
          "ticks": 27120,
          "time": 135.6,
          "velocity": 0.7874015748031497
        }
      ]
    },
    {
      "channel": 0,
      "controlChanges": {
        "0": [
          {
            "number": 0,
            "ticks": 120,
            "time": 0.6,
            "value": 0
          }
        ],
        "32": [
          {
            "number": 32,
            "ticks": 130,
            "time": 0.6499999999999999,
            "value": 0
          }
        ]
      },
      "pitchBends": [],
      "instrument": {
        "family": "piano",
        "number": 0,
        "name": "acoustic grand piano"
      },
      "name": "Polysynth",
      "notes": [],
      "endOfTrackTicks": 32640
    },
    {
      "channel": 8,
      "controlChanges": {
        "1": [
          {
            "number": 1,
            "ticks": 150,
            "time": 0.75,
            "value": 0
          }
        ],
        "7": [
          {
            "number": 7,
            "ticks": 160,
            "time": 0.7999999999999999,
            "value": 0.7874015748031497
          }
        ],
        "10": [
          {
            "number": 10,
            "ticks": 170,
            "time": 0.85,
            "value": 0.5039370078740157
          },
          {
            "number": 10,
            "ticks": 6780,
            "time": 33.9,
            "value": 0.25196850393700787
          },
          {
            "number": 10,
            "ticks": 6840,
            "time": 34.199999999999996,
            "value": 0.7559055118110236
          },
          {
            "number": 10,
            "ticks": 6900,
            "time": 34.5,
            "value": 0.25196850393700787
          },
          {
            "number": 10,
            "ticks": 7020,
            "time": 35.1,
            "value": 0.7559055118110236
          },
          {
            "number": 10,
            "ticks": 7080,
            "time": 35.4,
            "value": 0.25196850393700787
          },
          {
            "number": 10,
            "ticks": 7140,
            "time": 35.699999999999996,
            "value": 0.7559055118110236
          },
          {
            "number": 10,
            "ticks": 7260,
            "time": 36.3,
            "value": 0.25196850393700787
          },
          {
            "number": 10,
            "ticks": 7320,
            "time": 36.6,
            "value": 0.7559055118110236
          },
          {
            "number": 10,
            "ticks": 7380,
            "time": 36.9,
            "value": 0.25196850393700787
          },
          {
            "number": 10,
            "ticks": 7440,
            "time": 37.199999999999996,
            "value": 0.7559055118110236
          },
          {
            "number": 10,
            "ticks": 7500,
            "time": 37.5,
            "value": 0.25196850393700787
          },
          {
            "number": 10,
            "ticks": 7560,
            "time": 37.8,
            "value": 0.7559055118110236
          },
          {
            "number": 10,
            "ticks": 7620,
            "time": 38.1,
            "value": 0.25196850393700787
          },
          {
            "number": 10,
            "ticks": 7740,
            "time": 38.699999999999996,
            "value": 0.7559055118110236
          },
          {
            "number": 10,
            "ticks": 7800,
            "time": 39,
            "value": 0.25196850393700787
          },
          {
            "number": 10,
            "ticks": 7860,
            "time": 39.3,
            "value": 0.7559055118110236
          },
          {
            "number": 10,
            "ticks": 7980,
            "time": 39.9,
            "value": 0.25196850393700787
          },
          {
            "number": 10,
            "ticks": 8040,
            "time": 40.199999999999996,
            "value": 0.7559055118110236
          },
          {
            "number": 10,
            "ticks": 8100,
            "time": 40.5,
            "value": 0.25196850393700787
          },
          {
            "number": 10,
            "ticks": 8220,
            "time": 41.1,
            "value": 0.7559055118110236
          },
          {
            "number": 10,
            "ticks": 8280,
            "time": 41.4,
            "value": 0.25196850393700787
          },
          {
            "number": 10,
            "ticks": 8340,
            "time": 41.699999999999996,
            "value": 0.7559055118110236
          },
          {
            "number": 10,
            "ticks": 8400,
            "time": 42,
            "value": 0.25196850393700787
          },
          {
            "number": 10,
            "ticks": 8460,
            "time": 42.3,
            "value": 0.7559055118110236
          },
          {
            "number": 10,
            "ticks": 8520,
            "time": 42.6,
            "value": 0.25196850393700787
          },
          {
            "number": 10,
            "ticks": 8580,
            "time": 42.9,
            "value": 0.7559055118110236
          },
          {
            "number": 10,
            "ticks": 8700,
            "time": 43.5,
            "value": 0.25196850393700787
          },
          {
            "number": 10,
            "ticks": 8760,
            "time": 43.8,
            "value": 0.7559055118110236
          },
          {
            "number": 10,
            "ticks": 8820,
            "time": 44.1,
            "value": 0.25196850393700787
          },
          {
            "number": 10,
            "ticks": 8940,
            "time": 44.699999999999996,
            "value": 0.7559055118110236
          },
          {
            "number": 10,
            "ticks": 9000,
            "time": 45,
            "value": 0.25196850393700787
          },
          {
            "number": 10,
            "ticks": 9060,
            "time": 45.3,
            "value": 0.7559055118110236
          },
          {
            "number": 10,
            "ticks": 9180,
            "time": 45.9,
            "value": 0.25196850393700787
          },
          {
            "number": 10,
            "ticks": 9240,
            "time": 46.199999999999996,
            "value": 0.7559055118110236
          },
          {
            "number": 10,
            "ticks": 9300,
            "time": 46.5,
            "value": 0.25196850393700787
          },
          {
            "number": 10,
            "ticks": 9360,
            "time": 46.8,
            "value": 0.7559055118110236
          },
          {
            "number": 10,
            "ticks": 9420,
            "time": 47.1,
            "value": 0.25196850393700787
          },
          {
            "number": 10,
            "ticks": 9480,
            "time": 47.4,
            "value": 0.7559055118110236
          },
          {
            "number": 10,
            "ticks": 9540,
            "time": 47.699999999999996,
            "value": 0.25196850393700787
          },
          {
            "number": 10,
            "ticks": 9660,
            "time": 48.3,
            "value": 0.7559055118110236
          },
          {
            "number": 10,
            "ticks": 9720,
            "time": 48.6,
            "value": 0.25196850393700787
          },
          {
            "number": 10,
            "ticks": 9780,
            "time": 48.9,
            "value": 0.7559055118110236
          },
          {
            "number": 10,
            "ticks": 9900,
            "time": 49.5,
            "value": 0.25196850393700787
          },
          {
            "number": 10,
            "ticks": 9960,
            "time": 49.8,
            "value": 0.7559055118110236
          },
          {
            "number": 10,
            "ticks": 10020,
            "time": 50.1,
            "value": 0.25196850393700787
          },
          {
            "number": 10,
            "ticks": 10140,
            "time": 50.699999999999996,
            "value": 0.7559055118110236
          },
          {
            "number": 10,
            "ticks": 10200,
            "time": 51,
            "value": 0.25196850393700787
          },
          {
            "number": 10,
            "ticks": 10260,
            "time": 51.3,
            "value": 0.7559055118110236
          },
          {
            "number": 10,
            "ticks": 10320,
            "time": 51.6,
            "value": 0.25196850393700787
          },
          {
            "number": 10,
            "ticks": 10380,
            "time": 51.9,
            "value": 0.7559055118110236
          },
          {
            "number": 10,
            "ticks": 10440,
            "time": 52.199999999999996,
            "value": 0.25196850393700787
          },
          {
            "number": 10,
            "ticks": 10500,
            "time": 52.5,
            "value": 0.7559055118110236
          },
          {
            "number": 10,
            "ticks": 10620,
            "time": 53.1,
            "value": 0.25196850393700787
          },
          {
            "number": 10,
            "ticks": 10680,
            "time": 53.4,
            "value": 0.7559055118110236
          },
          {
            "number": 10,
            "ticks": 10740,
            "time": 53.699999999999996,
            "value": 0.25196850393700787
          },
          {
            "number": 10,
            "ticks": 10860,
            "time": 54.3,
            "value": 0.7559055118110236
          },
          {
            "number": 10,
            "ticks": 10920,
            "time": 54.6,
            "value": 0.25196850393700787
          },
          {
            "number": 10,
            "ticks": 10980,
            "time": 54.9,
            "value": 0.7559055118110236
          },
          {
            "number": 10,
            "ticks": 11100,
            "time": 55.5,
            "value": 0.25196850393700787
          },
          {
            "number": 10,
            "ticks": 11160,
            "time": 55.8,
            "value": 0.7559055118110236
          },
          {
            "number": 10,
            "ticks": 11220,
            "time": 56.1,
            "value": 0.25196850393700787
          },
          {
            "number": 10,
            "ticks": 11280,
            "time": 56.4,
            "value": 0.7559055118110236
          },
          {
            "number": 10,
            "ticks": 11340,
            "time": 56.699999999999996,
            "value": 0.25196850393700787
          },
          {
            "number": 10,
            "ticks": 11400,
            "time": 57,
            "value": 0.7559055118110236
          },
          {
            "number": 10,
            "ticks": 11460,
            "time": 57.3,
            "value": 0.25196850393700787
          },
          {
            "number": 10,
            "ticks": 27420,
            "time": 137.1,
            "value": 0.25196850393700787
          },
          {
            "number": 10,
            "ticks": 27480,
            "time": 137.4,
            "value": 0.7559055118110236
          },
          {
            "number": 10,
            "ticks": 27540,
            "time": 137.7,
            "value": 0.25196850393700787
          },
          {
            "number": 10,
            "ticks": 27660,
            "time": 138.29999999999998,
            "value": 0.7559055118110236
          },
          {
            "number": 10,
            "ticks": 27720,
            "time": 138.6,
            "value": 0.25196850393700787
          },
          {
            "number": 10,
            "ticks": 27780,
            "time": 138.9,
            "value": 0.7559055118110236
          },
          {
            "number": 10,
            "ticks": 27900,
            "time": 139.5,
            "value": 0.25196850393700787
          },
          {
            "number": 10,
            "ticks": 27960,
            "time": 139.79999999999998,
            "value": 0.7559055118110236
          },
          {
            "number": 10,
            "ticks": 28020,
            "time": 140.1,
            "value": 0.25196850393700787
          },
          {
            "number": 10,
            "ticks": 28080,
            "time": 140.4,
            "value": 0.7559055118110236
          },
          {
            "number": 10,
            "ticks": 28140,
            "time": 140.7,
            "value": 0.25196850393700787
          },
          {
            "number": 10,
            "ticks": 28200,
            "time": 141,
            "value": 0.7559055118110236
          },
          {
            "number": 10,
            "ticks": 28260,
            "time": 141.29999999999998,
            "value": 0.25196850393700787
          },
          {
            "number": 10,
            "ticks": 28380,
            "time": 141.9,
            "value": 0.7559055118110236
          },
          {
            "number": 10,
            "ticks": 28440,
            "time": 142.2,
            "value": 0.25196850393700787
          },
          {
            "number": 10,
            "ticks": 28500,
            "time": 142.5,
            "value": 0.7559055118110236
          },
          {
            "number": 10,
            "ticks": 28620,
            "time": 143.1,
            "value": 0.25196850393700787
          },
          {
            "number": 10,
            "ticks": 28680,
            "time": 143.4,
            "value": 0.7559055118110236
          },
          {
            "number": 10,
            "ticks": 28740,
            "time": 143.7,
            "value": 0.25196850393700787
          },
          {
            "number": 10,
            "ticks": 28860,
            "time": 144.29999999999998,
            "value": 0.7559055118110236
          },
          {
            "number": 10,
            "ticks": 28920,
            "time": 144.6,
            "value": 0.25196850393700787
          },
          {
            "number": 10,
            "ticks": 28980,
            "time": 144.9,
            "value": 0.7559055118110236
          },
          {
            "number": 10,
            "ticks": 29040,
            "time": 145.2,
            "value": 0.25196850393700787
          },
          {
            "number": 10,
            "ticks": 29100,
            "time": 145.5,
            "value": 0.7559055118110236
          },
          {
            "number": 10,
            "ticks": 29160,
            "time": 145.79999999999998,
            "value": 0.25196850393700787
          },
          {
            "number": 10,
            "ticks": 29220,
            "time": 146.1,
            "value": 0.7559055118110236
          },
          {
            "number": 10,
            "ticks": 29340,
            "time": 146.7,
            "value": 0.25196850393700787
          },
          {
            "number": 10,
            "ticks": 29400,
            "time": 147,
            "value": 0.7559055118110236
          },
          {
            "number": 10,
            "ticks": 29460,
            "time": 147.29999999999998,
            "value": 0.25196850393700787
          },
          {
            "number": 10,
            "ticks": 29580,
            "time": 147.9,
            "value": 0.7559055118110236
          },
          {
            "number": 10,
            "ticks": 29640,
            "time": 148.2,
            "value": 0.25196850393700787
          },
          {
            "number": 10,
            "ticks": 29700,
            "time": 148.5,
            "value": 0.7559055118110236
          },
          {
            "number": 10,
            "ticks": 29820,
            "time": 149.1,
            "value": 0.25196850393700787
          },
          {
            "number": 10,
            "ticks": 29880,
            "time": 149.4,
            "value": 0.7559055118110236
          },
          {
            "number": 10,
            "ticks": 29940,
            "time": 149.7,
            "value": 0.25196850393700787
          },
          {
            "number": 10,
            "ticks": 30000,
            "time": 150,
            "value": 0.7559055118110236
          },
          {
            "number": 10,
            "ticks": 30060,
            "time": 150.29999999999998,
            "value": 0.25196850393700787
          },
          {
            "number": 10,
            "ticks": 30120,
            "time": 150.6,
            "value": 0.7559055118110236
          },
          {
            "number": 10,
            "ticks": 30180,
            "time": 150.9,
            "value": 0.25196850393700787
          },
          {
            "number": 10,
            "ticks": 30300,
            "time": 151.5,
            "value": 0.7559055118110236
          },
          {
            "number": 10,
            "ticks": 30360,
            "time": 151.79999999999998,
            "value": 0.25196850393700787
          },
          {
            "number": 10,
            "ticks": 30420,
            "time": 152.1,
            "value": 0.7559055118110236
          },
          {
            "number": 10,
            "ticks": 30540,
            "time": 152.7,
            "value": 0.25196850393700787
          },
          {
            "number": 10,
            "ticks": 30600,
            "time": 153,
            "value": 0.7559055118110236
          },
          {
            "number": 10,
            "ticks": 30660,
            "time": 153.29999999999998,
            "value": 0.25196850393700787
          },
          {
            "number": 10,
            "ticks": 30780,
            "time": 153.9,
            "value": 0.7559055118110236
          },
          {
            "number": 10,
            "ticks": 30840,
            "time": 154.2,
            "value": 0.25196850393700787
          },
          {
            "number": 10,
            "ticks": 30900,
            "time": 154.5,
            "value": 0.7559055118110236
          },
          {
            "number": 10,
            "ticks": 30960,
            "time": 154.79999999999998,
            "value": 0.25196850393700787
          },
          {
            "number": 10,
            "ticks": 31020,
            "time": 155.1,
            "value": 0.7559055118110236
          },
          {
            "number": 10,
            "ticks": 31080,
            "time": 155.4,
            "value": 0.25196850393700787
          },
          {
            "number": 10,
            "ticks": 31140,
            "time": 155.7,
            "value": 0.7559055118110236
          },
          {
            "number": 10,
            "ticks": 31260,
            "time": 156.29999999999998,
            "value": 0.25196850393700787
          },
          {
            "number": 10,
            "ticks": 31320,
            "time": 156.6,
            "value": 0.7559055118110236
          },
          {
            "number": 10,
            "ticks": 31380,
            "time": 156.9,
            "value": 0.25196850393700787
          },
          {
            "number": 10,
            "ticks": 31500,
            "time": 157.5,
            "value": 0.7559055118110236
          },
          {
            "number": 10,
            "ticks": 31560,
            "time": 157.79999999999998,
            "value": 0.25196850393700787
          },
          {
            "number": 10,
            "ticks": 31620,
            "time": 158.1,
            "value": 0.7559055118110236
          },
          {
            "number": 10,
            "ticks": 31740,
            "time": 158.7,
            "value": 0.25196850393700787
          },
          {
            "number": 10,
            "ticks": 31800,
            "time": 159,
            "value": 0.7559055118110236
          },
          {
            "number": 10,
            "ticks": 31860,
            "time": 159.29999999999998,
            "value": 0.25196850393700787
          },
          {
            "number": 10,
            "ticks": 31920,
            "time": 159.6,
            "value": 0.7559055118110236
          },
          {
            "number": 10,
            "ticks": 31980,
            "time": 159.9,
            "value": 0.25196850393700787
          },
          {
            "number": 10,
            "ticks": 32040,
            "time": 160.2,
            "value": 0.7559055118110236
          },
          {
            "number": 10,
            "ticks": 32100,
            "time": 160.5,
            "value": 0.25196850393700787
          }
        ],
        "11": [
          {
            "number": 11,
            "ticks": 180,
            "time": 0.8999999999999999,
            "value": 1
          }
        ],
        "64": [
          {
            "number": 64,
            "ticks": 190,
            "time": 0.95,
            "value": 0
          }
        ],
        "91": [
          {
            "number": 91,
            "ticks": 200,
            "time": 1,
            "value": 0
          }
        ],
        "93": [
          {
            "number": 93,
            "ticks": 210,
            "time": 1.05,
            "value": 0
          }
        ],
        "94": [
          {
            "number": 94,
            "ticks": 220,
            "time": 1.0999999999999999,
            "value": 0
          }
        ]
      },
      "pitchBends": [],
      "instrument": {
        "family": "synth pad",
        "number": 90,
        "name": "pad 3 (polysynth)"
      },
      "name": "",
      "notes": [
        {
          "duration": 0.14999999999999858,
          "durationTicks": 30,
          "midi": 72,
          "name": "C5",
          "ticks": 6780,
          "time": 33.9,
          "velocity": 0.7874015748031497
        },
        {
          "duration": 0.15000000000000568,
          "durationTicks": 30,
          "midi": 76,
          "name": "E5",
          "ticks": 6840,
          "time": 34.199999999999996,
          "velocity": 0.7874015748031497
        },
        {
          "duration": 0.14999999999999858,
          "durationTicks": 30,
          "midi": 72,
          "name": "C5",
          "ticks": 6870,
          "time": 34.35,
          "velocity": 0.5039370078740157
        },
        {
          "duration": 0.14999999999999858,
          "durationTicks": 30,
          "midi": 72,
          "name": "C5",
          "ticks": 6900,
          "time": 34.5,
          "velocity": 0.7874015748031497
        },
        {
          "duration": 0.14999999999999858,
          "durationTicks": 30,
          "midi": 76,
          "name": "E5",
          "ticks": 6930,
          "time": 34.65,
          "velocity": 0.5039370078740157
        },
        {
          "duration": 0.14999999999999858,
          "durationTicks": 30,
          "midi": 72,
          "name": "C5",
          "ticks": 6960,
          "time": 34.8,
          "velocity": 0.2440944881889764
        },
        {
          "duration": 0.15000000000000568,
          "durationTicks": 30,
          "midi": 72,
          "name": "C5",
          "ticks": 6990,
          "time": 34.949999999999996,
          "velocity": 0.5039370078740157
        },
        {
          "duration": 0.14999999999999858,
          "durationTicks": 30,
          "midi": 72,
          "name": "C5",
          "ticks": 7020,
          "time": 35.1,
          "velocity": 0.7874015748031497
        },
        {
          "duration": 0.14999999999999858,
          "durationTicks": 30,
          "midi": 76,
          "name": "E5",
          "ticks": 7020,
          "time": 35.1,
          "velocity": 0.2440944881889764
        },
        {
          "duration": 0.14999999999999858,
          "durationTicks": 30,
          "midi": 77,
          "name": "F5",
          "ticks": 7080,
          "time": 35.4,
          "velocity": 0.7874015748031497
        },
        {
          "duration": 0.14999999999999858,
          "durationTicks": 30,
          "midi": 72,
          "name": "C5",
          "ticks": 7080,
          "time": 35.4,
          "velocity": 0.2440944881889764
        },
        {
          "duration": 0.14999999999999858,
          "durationTicks": 30,
          "midi": 72,
          "name": "C5",
          "ticks": 7110,
          "time": 35.55,
          "velocity": 0.5039370078740157
        },
        {
          "duration": 0.15000000000000568,
          "durationTicks": 30,
          "midi": 72,
          "name": "C5",
          "ticks": 7140,
          "time": 35.699999999999996,
          "velocity": 0.7874015748031497
        },
        {
          "duration": 0.14999999999999858,
          "durationTicks": 30,
          "midi": 77,
          "name": "F5",
          "ticks": 7170,
          "time": 35.85,
          "velocity": 0.5039370078740157
        },
        {
          "duration": 0.14999999999999858,
          "durationTicks": 30,
          "midi": 72,
          "name": "C5",
          "ticks": 7200,
          "time": 36,
          "velocity": 0.2440944881889764
        },
        {
          "duration": 0.14999999999999858,
          "durationTicks": 30,
          "midi": 72,
          "name": "C5",
          "ticks": 7230,
          "time": 36.15,
          "velocity": 0.5039370078740157
        },
        {
          "duration": 0.14999999999999858,
          "durationTicks": 30,
          "midi": 74,
          "name": "D5",
          "ticks": 7260,
          "time": 36.3,
          "velocity": 0.7874015748031497
        },
        {
          "duration": 0.14999999999999858,
          "durationTicks": 30,
          "midi": 77,
          "name": "F5",
          "ticks": 7260,
          "time": 36.3,
          "velocity": 0.2440944881889764
        },
        {
          "duration": 0.14999999999999858,
          "durationTicks": 30,
          "midi": 91,
          "name": "G6",
          "ticks": 7320,
          "time": 36.6,
          "velocity": 0.7874015748031497
        },
        {
          "duration": 0.14999999999999858,
          "durationTicks": 30,
          "midi": 72,
          "name": "C5",
          "ticks": 7320,
          "time": 36.6,
          "velocity": 0.2440944881889764
        },
        {
          "duration": 0.14999999999999858,
          "durationTicks": 30,
          "midi": 74,
          "name": "D5",
          "ticks": 7350,
          "time": 36.75,
          "velocity": 0.5039370078740157
        },
        {
          "duration": 0.14999999999999858,
          "durationTicks": 30,
          "midi": 98,
          "name": "D7",
          "ticks": 7380,
          "time": 36.9,
          "velocity": 0.7874015748031497
        },
        {
          "duration": 0.14999999999999858,
          "durationTicks": 30,
          "midi": 91,
          "name": "G6",
          "ticks": 7410,
          "time": 37.05,
          "velocity": 0.5039370078740157
        },
        {
          "duration": 0.15000000000000568,
          "durationTicks": 30,
          "midi": 72,
          "name": "C5",
          "ticks": 7440,
          "time": 37.199999999999996,
          "velocity": 0.7874015748031497
        },
        {
          "duration": 0.15000000000000568,
          "durationTicks": 30,
          "midi": 74,
          "name": "D5",
          "ticks": 7440,
          "time": 37.199999999999996,
          "velocity": 0.2440944881889764
        },
        {
          "duration": 0.14999999999999858,
          "durationTicks": 30,
          "midi": 98,
          "name": "D7",
          "ticks": 7470,
          "time": 37.35,
          "velocity": 0.5039370078740157
        },
        {
          "duration": 0.14999999999999858,
          "durationTicks": 30,
          "midi": 81,
          "name": "A5",
          "ticks": 7500,
          "time": 37.5,
          "velocity": 0.7874015748031497
        },
        {
          "duration": 0.14999999999999858,
          "durationTicks": 30,
          "midi": 91,
          "name": "G6",
          "ticks": 7500,
          "time": 37.5,
          "velocity": 0.2440944881889764
        },
        {
          "duration": 0.14999999999999858,
          "durationTicks": 30,
          "midi": 72,
          "name": "C5",
          "ticks": 7530,
          "time": 37.65,
          "velocity": 0.5039370078740157
        },
        {
          "duration": 0.14999999999999858,
          "durationTicks": 30,
          "midi": 84,
          "name": "C6",
          "ticks": 7560,
          "time": 37.8,
          "velocity": 0.7874015748031497
        },
        {
          "duration": 0.14999999999999858,
          "durationTicks": 30,
          "midi": 98,
          "name": "D7",
          "ticks": 7560,
          "time": 37.8,
          "velocity": 0.2440944881889764
        },
        {
          "duration": 0.15000000000000568,
          "durationTicks": 30,
          "midi": 81,
          "name": "A5",
          "ticks": 7590,
          "time": 37.949999999999996,
          "velocity": 0.5039370078740157
        },
        {
          "duration": 0.14999999999999858,
          "durationTicks": 30,
          "midi": 89,
          "name": "F6",
          "ticks": 7620,
          "time": 38.1,
          "velocity": 0.7874015748031497
        },
        {
          "duration": 0.14999999999999858,
          "durationTicks": 30,
          "midi": 72,
          "name": "C5",
          "ticks": 7620,
          "time": 38.1,
          "velocity": 0.2440944881889764
        },
        {
          "duration": 0.14999999999999858,
          "durationTicks": 30,
          "midi": 84,
          "name": "C6",
          "ticks": 7650,
          "time": 38.25,
          "velocity": 0.5039370078740157
        },
        {
          "duration": 0.14999999999999858,
          "durationTicks": 30,
          "midi": 81,
          "name": "A5",
          "ticks": 7680,
          "time": 38.4,
          "velocity": 0.2440944881889764
        },
        {
          "duration": 0.14999999999999858,
          "durationTicks": 30,
          "midi": 89,
          "name": "F6",
          "ticks": 7710,
          "time": 38.55,
          "velocity": 0.5039370078740157
        },
        {
          "duration": 0.15000000000000568,
          "durationTicks": 30,
          "midi": 72,
          "name": "C5",
          "ticks": 7740,
          "time": 38.699999999999996,
          "velocity": 0.7874015748031497
        },
        {
          "duration": 0.15000000000000568,
          "durationTicks": 30,
          "midi": 84,
          "name": "C6",
          "ticks": 7740,
          "time": 38.699999999999996,
          "velocity": 0.2440944881889764
        },
        {
          "duration": 0.14999999999999858,
          "durationTicks": 30,
          "midi": 76,
          "name": "E5",
          "ticks": 7800,
          "time": 39,
          "velocity": 0.7874015748031497
        },
        {
          "duration": 0.14999999999999858,
          "durationTicks": 30,
          "midi": 89,
          "name": "F6",
          "ticks": 7800,
          "time": 39,
          "velocity": 0.2440944881889764
        },
        {
          "duration": 0.14999999999999858,
          "durationTicks": 30,
          "midi": 72,
          "name": "C5",
          "ticks": 7830,
          "time": 39.15,
          "velocity": 0.5039370078740157
        },
        {
          "duration": 0.14999999999999858,
          "durationTicks": 30,
          "midi": 72,
          "name": "C5",
          "ticks": 7860,
          "time": 39.3,
          "velocity": 0.7874015748031497
        },
        {
          "duration": 0.15000000000000568,
          "durationTicks": 30,
          "midi": 76,
          "name": "E5",
          "ticks": 7890,
          "time": 39.449999999999996,
          "velocity": 0.5039370078740157
        },
        {
          "duration": 0.14999999999999858,
          "durationTicks": 30,
          "midi": 72,
          "name": "C5",
          "ticks": 7920,
          "time": 39.6,
          "velocity": 0.2440944881889764
        },
        {
          "duration": 0.14999999999999858,
          "durationTicks": 30,
          "midi": 72,
          "name": "C5",
          "ticks": 7950,
          "time": 39.75,
          "velocity": 0.5039370078740157
        },
        {
          "duration": 0.14999999999999858,
          "durationTicks": 30,
          "midi": 72,
          "name": "C5",
          "ticks": 7980,
          "time": 39.9,
          "velocity": 0.7874015748031497
        },
        {
          "duration": 0.14999999999999858,
          "durationTicks": 30,
          "midi": 76,
          "name": "E5",
          "ticks": 7980,
          "time": 39.9,
          "velocity": 0.2440944881889764
        },
        {
          "duration": 0.15000000000000568,
          "durationTicks": 30,
          "midi": 77,
          "name": "F5",
          "ticks": 8040,
          "time": 40.199999999999996,
          "velocity": 0.7874015748031497
        },
        {
          "duration": 0.15000000000000568,
          "durationTicks": 30,
          "midi": 72,
          "name": "C5",
          "ticks": 8040,
          "time": 40.199999999999996,
          "velocity": 0.2440944881889764
        },
        {
          "duration": 0.14999999999999858,
          "durationTicks": 30,
          "midi": 72,
          "name": "C5",
          "ticks": 8070,
          "time": 40.35,
          "velocity": 0.5039370078740157
        },
        {
          "duration": 0.14999999999999858,
          "durationTicks": 30,
          "midi": 72,
          "name": "C5",
          "ticks": 8100,
          "time": 40.5,
          "velocity": 0.7874015748031497
        },
        {
          "duration": 0.14999999999999858,
          "durationTicks": 30,
          "midi": 77,
          "name": "F5",
          "ticks": 8130,
          "time": 40.65,
          "velocity": 0.5039370078740157
        },
        {
          "duration": 0.14999999999999858,
          "durationTicks": 30,
          "midi": 72,
          "name": "C5",
          "ticks": 8160,
          "time": 40.8,
          "velocity": 0.2440944881889764
        },
        {
          "duration": 0.15000000000000568,
          "durationTicks": 30,
          "midi": 72,
          "name": "C5",
          "ticks": 8190,
          "time": 40.949999999999996,
          "velocity": 0.5039370078740157
        },
        {
          "duration": 0.14999999999999858,
          "durationTicks": 30,
          "midi": 74,
          "name": "D5",
          "ticks": 8220,
          "time": 41.1,
          "velocity": 0.7874015748031497
        },
        {
          "duration": 0.14999999999999858,
          "durationTicks": 30,
          "midi": 77,
          "name": "F5",
          "ticks": 8220,
          "time": 41.1,
          "velocity": 0.2440944881889764
        },
        {
          "duration": 0.14999999999999858,
          "durationTicks": 30,
          "midi": 91,
          "name": "G6",
          "ticks": 8280,
          "time": 41.4,
          "velocity": 0.7874015748031497
        },
        {
          "duration": 0.14999999999999858,
          "durationTicks": 30,
          "midi": 72,
          "name": "C5",
          "ticks": 8280,
          "time": 41.4,
          "velocity": 0.2440944881889764
        },
        {
          "duration": 0.14999999999999858,
          "durationTicks": 30,
          "midi": 74,
          "name": "D5",
          "ticks": 8310,
          "time": 41.55,
          "velocity": 0.5039370078740157
        },
        {
          "duration": 0.15000000000000568,
          "durationTicks": 30,
          "midi": 98,
          "name": "D7",
          "ticks": 8340,
          "time": 41.699999999999996,
          "velocity": 0.7874015748031497
        },
        {
          "duration": 0.14999999999999858,
          "durationTicks": 30,
          "midi": 91,
          "name": "G6",
          "ticks": 8370,
          "time": 41.85,
          "velocity": 0.5039370078740157
        },
        {
          "duration": 0.14999999999999858,
          "durationTicks": 30,
          "midi": 72,
          "name": "C5",
          "ticks": 8400,
          "time": 42,
          "velocity": 0.7874015748031497
        },
        {
          "duration": 0.14999999999999858,
          "durationTicks": 30,
          "midi": 74,
          "name": "D5",
          "ticks": 8400,
          "time": 42,
          "velocity": 0.2440944881889764
        },
        {
          "duration": 0.14999999999999858,
          "durationTicks": 30,
          "midi": 98,
          "name": "D7",
          "ticks": 8430,
          "time": 42.15,
          "velocity": 0.5039370078740157
        },
        {
          "duration": 0.14999999999999858,
          "durationTicks": 30,
          "midi": 81,
          "name": "A5",
          "ticks": 8460,
          "time": 42.3,
          "velocity": 0.7874015748031497
        },
        {
          "duration": 0.14999999999999858,
          "durationTicks": 30,
          "midi": 91,
          "name": "G6",
          "ticks": 8460,
          "time": 42.3,
          "velocity": 0.2440944881889764
        },
        {
          "duration": 0.15000000000000568,
          "durationTicks": 30,
          "midi": 72,
          "name": "C5",
          "ticks": 8490,
          "time": 42.449999999999996,
          "velocity": 0.5039370078740157
        },
        {
          "duration": 0.14999999999999858,
          "durationTicks": 30,
          "midi": 84,
          "name": "C6",
          "ticks": 8520,
          "time": 42.6,
          "velocity": 0.7874015748031497
        },
        {
          "duration": 0.14999999999999858,
          "durationTicks": 30,
          "midi": 98,
          "name": "D7",
          "ticks": 8520,
          "time": 42.6,
          "velocity": 0.2440944881889764
        },
        {
          "duration": 0.14999999999999858,
          "durationTicks": 30,
          "midi": 81,
          "name": "A5",
          "ticks": 8550,
          "time": 42.75,
          "velocity": 0.5039370078740157
        },
        {
          "duration": 0.14999999999999858,
          "durationTicks": 30,
          "midi": 89,
          "name": "F6",
          "ticks": 8580,
          "time": 42.9,
          "velocity": 0.7874015748031497
        },
        {
          "duration": 0.14999999999999858,
          "durationTicks": 30,
          "midi": 72,
          "name": "C5",
          "ticks": 8580,
          "time": 42.9,
          "velocity": 0.2440944881889764
        },
        {
          "duration": 0.14999999999999858,
          "durationTicks": 30,
          "midi": 84,
          "name": "C6",
          "ticks": 8610,
          "time": 43.05,
          "velocity": 0.5039370078740157
        },
        {
          "duration": 0.15000000000000568,
          "durationTicks": 30,
          "midi": 81,
          "name": "A5",
          "ticks": 8640,
          "time": 43.199999999999996,
          "velocity": 0.2440944881889764
        },
        {
          "duration": 0.14999999999999858,
          "durationTicks": 30,
          "midi": 89,
          "name": "F6",
          "ticks": 8670,
          "time": 43.35,
          "velocity": 0.5039370078740157
        },
        {
          "duration": 0.14999999999999858,
          "durationTicks": 30,
          "midi": 84,
          "name": "C6",
          "ticks": 8700,
          "time": 43.5,
          "velocity": 0.2440944881889764
        },
        {
          "duration": 0.14999999999999858,
          "durationTicks": 30,
          "midi": 72,
          "name": "C5",
          "ticks": 8700,
          "time": 43.5,
          "velocity": 0.7874015748031497
        },
        {
          "duration": 0.14999999999999858,
          "durationTicks": 30,
          "midi": 89,
          "name": "F6",
          "ticks": 8760,
          "time": 43.8,
          "velocity": 0.2440944881889764
        },
        {
          "duration": 0.14999999999999858,
          "durationTicks": 30,
          "midi": 76,
          "name": "E5",
          "ticks": 8760,
          "time": 43.8,
          "velocity": 0.7874015748031497
        },
        {
          "duration": 0.15000000000000568,
          "durationTicks": 30,
          "midi": 72,
          "name": "C5",
          "ticks": 8790,
          "time": 43.949999999999996,
          "velocity": 0.5039370078740157
        },
        {
          "duration": 0.14999999999999858,
          "durationTicks": 30,
          "midi": 72,
          "name": "C5",
          "ticks": 8820,
          "time": 44.1,
          "velocity": 0.7874015748031497
        },
        {
          "duration": 0.14999999999999858,
          "durationTicks": 30,
          "midi": 76,
          "name": "E5",
          "ticks": 8850,
          "time": 44.25,
          "velocity": 0.5039370078740157
        },
        {
          "duration": 0.14999999999999858,
          "durationTicks": 30,
          "midi": 72,
          "name": "C5",
          "ticks": 8880,
          "time": 44.4,
          "velocity": 0.2440944881889764
        },
        {
          "duration": 0.14999999999999858,
          "durationTicks": 30,
          "midi": 72,
          "name": "C5",
          "ticks": 8910,
          "time": 44.55,
          "velocity": 0.5039370078740157
        },
        {
          "duration": 0.15000000000000568,
          "durationTicks": 30,
          "midi": 72,
          "name": "C5",
          "ticks": 8940,
          "time": 44.699999999999996,
          "velocity": 0.7874015748031497
        },
        {
          "duration": 0.15000000000000568,
          "durationTicks": 30,
          "midi": 76,
          "name": "E5",
          "ticks": 8940,
          "time": 44.699999999999996,
          "velocity": 0.2440944881889764
        },
        {
          "duration": 0.14999999999999858,
          "durationTicks": 30,
          "midi": 77,
          "name": "F5",
          "ticks": 9000,
          "time": 45,
          "velocity": 0.7874015748031497
        },
        {
          "duration": 0.14999999999999858,
          "durationTicks": 30,
          "midi": 72,
          "name": "C5",
          "ticks": 9000,
          "time": 45,
          "velocity": 0.2440944881889764
        },
        {
          "duration": 0.14999999999999858,
          "durationTicks": 30,
          "midi": 72,
          "name": "C5",
          "ticks": 9030,
          "time": 45.15,
          "velocity": 0.5039370078740157
        },
        {
          "duration": 0.14999999999999858,
          "durationTicks": 30,
          "midi": 72,
          "name": "C5",
          "ticks": 9060,
          "time": 45.3,
          "velocity": 0.7874015748031497
        },
        {
          "duration": 0.15000000000000568,
          "durationTicks": 30,
          "midi": 77,
          "name": "F5",
          "ticks": 9090,
          "time": 45.449999999999996,
          "velocity": 0.5039370078740157
        },
        {
          "duration": 0.14999999999999858,
          "durationTicks": 30,
          "midi": 72,
          "name": "C5",
          "ticks": 9120,
          "time": 45.6,
          "velocity": 0.2440944881889764
        },
        {
          "duration": 0.14999999999999858,
          "durationTicks": 30,
          "midi": 72,
          "name": "C5",
          "ticks": 9150,
          "time": 45.75,
          "velocity": 0.5039370078740157
        },
        {
          "duration": 0.14999999999999858,
          "durationTicks": 30,
          "midi": 74,
          "name": "D5",
          "ticks": 9180,
          "time": 45.9,
          "velocity": 0.7874015748031497
        },
        {
          "duration": 0.14999999999999858,
          "durationTicks": 30,
          "midi": 77,
          "name": "F5",
          "ticks": 9180,
          "time": 45.9,
          "velocity": 0.2440944881889764
        },
        {
          "duration": 0.15000000000000568,
          "durationTicks": 30,
          "midi": 91,
          "name": "G6",
          "ticks": 9240,
          "time": 46.199999999999996,
          "velocity": 0.7874015748031497
        },
        {
          "duration": 0.15000000000000568,
          "durationTicks": 30,
          "midi": 72,
          "name": "C5",
          "ticks": 9240,
          "time": 46.199999999999996,
          "velocity": 0.2440944881889764
        },
        {
          "duration": 0.14999999999999858,
          "durationTicks": 30,
          "midi": 74,
          "name": "D5",
          "ticks": 9270,
          "time": 46.35,
          "velocity": 0.5039370078740157
        },
        {
          "duration": 0.14999999999999858,
          "durationTicks": 30,
          "midi": 98,
          "name": "D7",
          "ticks": 9300,
          "time": 46.5,
          "velocity": 0.7874015748031497
        },
        {
          "duration": 0.14999999999999858,
          "durationTicks": 30,
          "midi": 91,
          "name": "G6",
          "ticks": 9330,
          "time": 46.65,
          "velocity": 0.5039370078740157
        },
        {
          "duration": 0.14999999999999858,
          "durationTicks": 30,
          "midi": 72,
          "name": "C5",
          "ticks": 9360,
          "time": 46.8,
          "velocity": 0.7874015748031497
        },
        {
          "duration": 0.14999999999999858,
          "durationTicks": 30,
          "midi": 74,
          "name": "D5",
          "ticks": 9360,
          "time": 46.8,
          "velocity": 0.2440944881889764
        },
        {
          "duration": 0.15000000000000568,
          "durationTicks": 30,
          "midi": 98,
          "name": "D7",
          "ticks": 9390,
          "time": 46.949999999999996,
          "velocity": 0.5039370078740157
        },
        {
          "duration": 0.14999999999999858,
          "durationTicks": 30,
          "midi": 81,
          "name": "A5",
          "ticks": 9420,
          "time": 47.1,
          "velocity": 0.7874015748031497
        },
        {
          "duration": 0.14999999999999858,
          "durationTicks": 30,
          "midi": 91,
          "name": "G6",
          "ticks": 9420,
          "time": 47.1,
          "velocity": 0.2440944881889764
        },
        {
          "duration": 0.14999999999999858,
          "durationTicks": 30,
          "midi": 72,
          "name": "C5",
          "ticks": 9450,
          "time": 47.25,
          "velocity": 0.5039370078740157
        },
        {
          "duration": 0.14999999999999858,
          "durationTicks": 30,
          "midi": 84,
          "name": "C6",
          "ticks": 9480,
          "time": 47.4,
          "velocity": 0.7874015748031497
        },
        {
          "duration": 0.14999999999999858,
          "durationTicks": 30,
          "midi": 98,
          "name": "D7",
          "ticks": 9480,
          "time": 47.4,
          "velocity": 0.2440944881889764
        },
        {
          "duration": 0.14999999999999858,
          "durationTicks": 30,
          "midi": 81,
          "name": "A5",
          "ticks": 9510,
          "time": 47.55,
          "velocity": 0.5039370078740157
        },
        {
          "duration": 0.15000000000000568,
          "durationTicks": 30,
          "midi": 89,
          "name": "F6",
          "ticks": 9540,
          "time": 47.699999999999996,
          "velocity": 0.7874015748031497
        },
        {
          "duration": 0.15000000000000568,
          "durationTicks": 30,
          "midi": 72,
          "name": "C5",
          "ticks": 9540,
          "time": 47.699999999999996,
          "velocity": 0.2440944881889764
        },
        {
          "duration": 0.14999999999999858,
          "durationTicks": 30,
          "midi": 84,
          "name": "C6",
          "ticks": 9570,
          "time": 47.85,
          "velocity": 0.5039370078740157
        },
        {
          "duration": 0.14999999999999858,
          "durationTicks": 30,
          "midi": 81,
          "name": "A5",
          "ticks": 9600,
          "time": 48,
          "velocity": 0.2440944881889764
        },
        {
          "duration": 0.14999999999999858,
          "durationTicks": 30,
          "midi": 89,
          "name": "F6",
          "ticks": 9630,
          "time": 48.15,
          "velocity": 0.5039370078740157
        },
        {
          "duration": 0.14999999999999858,
          "durationTicks": 30,
          "midi": 72,
          "name": "C5",
          "ticks": 9660,
          "time": 48.3,
          "velocity": 0.7874015748031497
        },
        {
          "duration": 0.14999999999999858,
          "durationTicks": 30,
          "midi": 84,
          "name": "C6",
          "ticks": 9660,
          "time": 48.3,
          "velocity": 0.2440944881889764
        },
        {
          "duration": 0.14999999999999858,
          "durationTicks": 30,
          "midi": 76,
          "name": "E5",
          "ticks": 9720,
          "time": 48.6,
          "velocity": 0.7874015748031497
        },
        {
          "duration": 0.14999999999999858,
          "durationTicks": 30,
          "midi": 89,
          "name": "F6",
          "ticks": 9720,
          "time": 48.6,
          "velocity": 0.2440944881889764
        },
        {
          "duration": 0.14999999999999858,
          "durationTicks": 30,
          "midi": 72,
          "name": "C5",
          "ticks": 9750,
          "time": 48.75,
          "velocity": 0.5039370078740157
        },
        {
          "duration": 0.14999999999999858,
          "durationTicks": 30,
          "midi": 72,
          "name": "C5",
          "ticks": 9780,
          "time": 48.9,
          "velocity": 0.7874015748031497
        },
        {
          "duration": 0.14999999999999858,
          "durationTicks": 30,
          "midi": 76,
          "name": "E5",
          "ticks": 9810,
          "time": 49.05,
          "velocity": 0.5039370078740157
        },
        {
          "duration": 0.15000000000000568,
          "durationTicks": 30,
          "midi": 72,
          "name": "C5",
          "ticks": 9840,
          "time": 49.199999999999996,
          "velocity": 0.2440944881889764
        },
        {
          "duration": 0.14999999999999858,
          "durationTicks": 30,
          "midi": 72,
          "name": "C5",
          "ticks": 9870,
          "time": 49.35,
          "velocity": 0.5039370078740157
        },
        {
          "duration": 0.14999999999999858,
          "durationTicks": 30,
          "midi": 72,
          "name": "C5",
          "ticks": 9900,
          "time": 49.5,
          "velocity": 0.7874015748031497
        },
        {
          "duration": 0.14999999999999858,
          "durationTicks": 30,
          "midi": 76,
          "name": "E5",
          "ticks": 9900,
          "time": 49.5,
          "velocity": 0.2440944881889764
        },
        {
          "duration": 0.14999999999999858,
          "durationTicks": 30,
          "midi": 77,
          "name": "F5",
          "ticks": 9960,
          "time": 49.8,
          "velocity": 0.7874015748031497
        },
        {
          "duration": 0.14999999999999858,
          "durationTicks": 30,
          "midi": 72,
          "name": "C5",
          "ticks": 9960,
          "time": 49.8,
          "velocity": 0.2440944881889764
        },
        {
          "duration": 0.15000000000000568,
          "durationTicks": 30,
          "midi": 72,
          "name": "C5",
          "ticks": 9990,
          "time": 49.949999999999996,
          "velocity": 0.5039370078740157
        },
        {
          "duration": 0.14999999999999858,
          "durationTicks": 30,
          "midi": 72,
          "name": "C5",
          "ticks": 10020,
          "time": 50.1,
          "velocity": 0.7874015748031497
        },
        {
          "duration": 0.14999999999999858,
          "durationTicks": 30,
          "midi": 77,
          "name": "F5",
          "ticks": 10050,
          "time": 50.25,
          "velocity": 0.5039370078740157
        },
        {
          "duration": 0.14999999999999858,
          "durationTicks": 30,
          "midi": 72,
          "name": "C5",
          "ticks": 10080,
          "time": 50.4,
          "velocity": 0.2440944881889764
        },
        {
          "duration": 0.14999999999999858,
          "durationTicks": 30,
          "midi": 72,
          "name": "C5",
          "ticks": 10110,
          "time": 50.55,
          "velocity": 0.5039370078740157
        },
        {
          "duration": 0.15000000000000568,
          "durationTicks": 30,
          "midi": 74,
          "name": "D5",
          "ticks": 10140,
          "time": 50.699999999999996,
          "velocity": 0.7874015748031497
        },
        {
          "duration": 0.15000000000000568,
          "durationTicks": 30,
          "midi": 77,
          "name": "F5",
          "ticks": 10140,
          "time": 50.699999999999996,
          "velocity": 0.2440944881889764
        },
        {
          "duration": 0.14999999999999858,
          "durationTicks": 30,
          "midi": 91,
          "name": "G6",
          "ticks": 10200,
          "time": 51,
          "velocity": 0.7874015748031497
        },
        {
          "duration": 0.14999999999999858,
          "durationTicks": 30,
          "midi": 72,
          "name": "C5",
          "ticks": 10200,
          "time": 51,
          "velocity": 0.2440944881889764
        },
        {
          "duration": 0.14999999999999858,
          "durationTicks": 30,
          "midi": 74,
          "name": "D5",
          "ticks": 10230,
          "time": 51.15,
          "velocity": 0.5039370078740157
        },
        {
          "duration": 0.14999999999999858,
          "durationTicks": 30,
          "midi": 98,
          "name": "D7",
          "ticks": 10260,
          "time": 51.3,
          "velocity": 0.7874015748031497
        },
        {
          "duration": 0.15000000000000568,
          "durationTicks": 30,
          "midi": 91,
          "name": "G6",
          "ticks": 10290,
          "time": 51.449999999999996,
          "velocity": 0.5039370078740157
        },
        {
          "duration": 0.14999999999999858,
          "durationTicks": 30,
          "midi": 72,
          "name": "C5",
          "ticks": 10320,
          "time": 51.6,
          "velocity": 0.7874015748031497
        },
        {
          "duration": 0.14999999999999858,
          "durationTicks": 30,
          "midi": 74,
          "name": "D5",
          "ticks": 10320,
          "time": 51.6,
          "velocity": 0.2440944881889764
        },
        {
          "duration": 0.14999999999999858,
          "durationTicks": 30,
          "midi": 98,
          "name": "D7",
          "ticks": 10350,
          "time": 51.75,
          "velocity": 0.5039370078740157
        },
        {
          "duration": 0.14999999999999858,
          "durationTicks": 30,
          "midi": 81,
          "name": "A5",
          "ticks": 10380,
          "time": 51.9,
          "velocity": 0.7874015748031497
        },
        {
          "duration": 0.14999999999999858,
          "durationTicks": 30,
          "midi": 91,
          "name": "G6",
          "ticks": 10380,
          "time": 51.9,
          "velocity": 0.2440944881889764
        },
        {
          "duration": 0.14999999999999858,
          "durationTicks": 30,
          "midi": 72,
          "name": "C5",
          "ticks": 10410,
          "time": 52.05,
          "velocity": 0.5039370078740157
        },
        {
          "duration": 0.15000000000000568,
          "durationTicks": 30,
          "midi": 84,
          "name": "C6",
          "ticks": 10440,
          "time": 52.199999999999996,
          "velocity": 0.7874015748031497
        },
        {
          "duration": 0.15000000000000568,
          "durationTicks": 30,
          "midi": 98,
          "name": "D7",
          "ticks": 10440,
          "time": 52.199999999999996,
          "velocity": 0.2440944881889764
        },
        {
          "duration": 0.14999999999999858,
          "durationTicks": 30,
          "midi": 81,
          "name": "A5",
          "ticks": 10470,
          "time": 52.35,
          "velocity": 0.5039370078740157
        },
        {
          "duration": 0.14999999999999858,
          "durationTicks": 30,
          "midi": 89,
          "name": "F6",
          "ticks": 10500,
          "time": 52.5,
          "velocity": 0.7874015748031497
        },
        {
          "duration": 0.14999999999999858,
          "durationTicks": 30,
          "midi": 72,
          "name": "C5",
          "ticks": 10500,
          "time": 52.5,
          "velocity": 0.2440944881889764
        },
        {
          "duration": 0.14999999999999858,
          "durationTicks": 30,
          "midi": 84,
          "name": "C6",
          "ticks": 10530,
          "time": 52.65,
          "velocity": 0.5039370078740157
        },
        {
          "duration": 0.14999999999999858,
          "durationTicks": 30,
          "midi": 81,
          "name": "A5",
          "ticks": 10560,
          "time": 52.8,
          "velocity": 0.2440944881889764
        },
        {
          "duration": 0.15000000000000568,
          "durationTicks": 30,
          "midi": 89,
          "name": "F6",
          "ticks": 10590,
          "time": 52.949999999999996,
          "velocity": 0.5039370078740157
        },
        {
          "duration": 0.14999999999999858,
          "durationTicks": 30,
          "midi": 84,
          "name": "C6",
          "ticks": 10620,
          "time": 53.1,
          "velocity": 0.2440944881889764
        },
        {
          "duration": 0.14999999999999858,
          "durationTicks": 30,
          "midi": 72,
          "name": "C5",
          "ticks": 10620,
          "time": 53.1,
          "velocity": 0.7874015748031497
        },
        {
          "duration": 0.14999999999999858,
          "durationTicks": 30,
          "midi": 89,
          "name": "F6",
          "ticks": 10680,
          "time": 53.4,
          "velocity": 0.2440944881889764
        },
        {
          "duration": 0.14999999999999858,
          "durationTicks": 30,
          "midi": 76,
          "name": "E5",
          "ticks": 10680,
          "time": 53.4,
          "velocity": 0.7874015748031497
        },
        {
          "duration": 0.14999999999999858,
          "durationTicks": 30,
          "midi": 72,
          "name": "C5",
          "ticks": 10710,
          "time": 53.55,
          "velocity": 0.5039370078740157
        },
        {
          "duration": 0.15000000000000568,
          "durationTicks": 30,
          "midi": 72,
          "name": "C5",
          "ticks": 10740,
          "time": 53.699999999999996,
          "velocity": 0.7874015748031497
        },
        {
          "duration": 0.14999999999999858,
          "durationTicks": 30,
          "midi": 76,
          "name": "E5",
          "ticks": 10770,
          "time": 53.85,
          "velocity": 0.5039370078740157
        },
        {
          "duration": 0.14999999999999858,
          "durationTicks": 30,
          "midi": 72,
          "name": "C5",
          "ticks": 10800,
          "time": 54,
          "velocity": 0.2440944881889764
        },
        {
          "duration": 0.14999999999999858,
          "durationTicks": 30,
          "midi": 72,
          "name": "C5",
          "ticks": 10830,
          "time": 54.15,
          "velocity": 0.5039370078740157
        },
        {
          "duration": 0.14999999999999858,
          "durationTicks": 30,
          "midi": 72,
          "name": "C5",
          "ticks": 10860,
          "time": 54.3,
          "velocity": 0.7874015748031497
        },
        {
          "duration": 0.14999999999999858,
          "durationTicks": 30,
          "midi": 76,
          "name": "E5",
          "ticks": 10860,
          "time": 54.3,
          "velocity": 0.2440944881889764
        },
        {
          "duration": 0.14999999999999858,
          "durationTicks": 30,
          "midi": 77,
          "name": "F5",
          "ticks": 10920,
          "time": 54.6,
          "velocity": 0.7874015748031497
        },
        {
          "duration": 0.14999999999999858,
          "durationTicks": 30,
          "midi": 72,
          "name": "C5",
          "ticks": 10920,
          "time": 54.6,
          "velocity": 0.2440944881889764
        },
        {
          "duration": 0.14999999999999858,
          "durationTicks": 30,
          "midi": 72,
          "name": "C5",
          "ticks": 10950,
          "time": 54.75,
          "velocity": 0.5039370078740157
        },
        {
          "duration": 0.14999999999999858,
          "durationTicks": 30,
          "midi": 72,
          "name": "C5",
          "ticks": 10980,
          "time": 54.9,
          "velocity": 0.7874015748031497
        },
        {
          "duration": 0.14999999999999858,
          "durationTicks": 30,
          "midi": 77,
          "name": "F5",
          "ticks": 11010,
          "time": 55.05,
          "velocity": 0.5039370078740157
        },
        {
          "duration": 0.15000000000000568,
          "durationTicks": 30,
          "midi": 72,
          "name": "C5",
          "ticks": 11040,
          "time": 55.199999999999996,
          "velocity": 0.2440944881889764
        },
        {
          "duration": 0.14999999999999858,
          "durationTicks": 30,
          "midi": 72,
          "name": "C5",
          "ticks": 11070,
          "time": 55.35,
          "velocity": 0.5039370078740157
        },
        {
          "duration": 0.14999999999999858,
          "durationTicks": 30,
          "midi": 74,
          "name": "D5",
          "ticks": 11100,
          "time": 55.5,
          "velocity": 0.7874015748031497
        },
        {
          "duration": 0.14999999999999858,
          "durationTicks": 30,
          "midi": 77,
          "name": "F5",
          "ticks": 11100,
          "time": 55.5,
          "velocity": 0.2440944881889764
        },
        {
          "duration": 0.14999999999999858,
          "durationTicks": 30,
          "midi": 91,
          "name": "G6",
          "ticks": 11160,
          "time": 55.8,
          "velocity": 0.7874015748031497
        },
        {
          "duration": 0.14999999999999858,
          "durationTicks": 30,
          "midi": 72,
          "name": "C5",
          "ticks": 11160,
          "time": 55.8,
          "velocity": 0.2440944881889764
        },
        {
          "duration": 0.15000000000000568,
          "durationTicks": 30,
          "midi": 74,
          "name": "D5",
          "ticks": 11190,
          "time": 55.949999999999996,
          "velocity": 0.5039370078740157
        },
        {
          "duration": 0.14999999999999858,
          "durationTicks": 30,
          "midi": 98,
          "name": "D7",
          "ticks": 11220,
          "time": 56.1,
          "velocity": 0.7874015748031497
        },
        {
          "duration": 0.14999999999999858,
          "durationTicks": 30,
          "midi": 91,
          "name": "G6",
          "ticks": 11250,
          "time": 56.25,
          "velocity": 0.5039370078740157
        },
        {
          "duration": 0.14999999999999858,
          "durationTicks": 30,
          "midi": 72,
          "name": "C5",
          "ticks": 11280,
          "time": 56.4,
          "velocity": 0.7874015748031497
        },
        {
          "duration": 0.14999999999999858,
          "durationTicks": 30,
          "midi": 74,
          "name": "D5",
          "ticks": 11280,
          "time": 56.4,
          "velocity": 0.2440944881889764
        },
        {
          "duration": 0.14999999999999858,
          "durationTicks": 30,
          "midi": 98,
          "name": "D7",
          "ticks": 11310,
          "time": 56.55,
          "velocity": 0.5039370078740157
        },
        {
          "duration": 0.15000000000000568,
          "durationTicks": 30,
          "midi": 81,
          "name": "A5",
          "ticks": 11340,
          "time": 56.699999999999996,
          "velocity": 0.7874015748031497
        },
        {
          "duration": 0.15000000000000568,
          "durationTicks": 30,
          "midi": 91,
          "name": "G6",
          "ticks": 11340,
          "time": 56.699999999999996,
          "velocity": 0.2440944881889764
        },
        {
          "duration": 0.14999999999999858,
          "durationTicks": 30,
          "midi": 72,
          "name": "C5",
          "ticks": 11370,
          "time": 56.85,
          "velocity": 0.5039370078740157
        },
        {
          "duration": 0.14999999999999858,
          "durationTicks": 30,
          "midi": 84,
          "name": "C6",
          "ticks": 11400,
          "time": 57,
          "velocity": 0.7874015748031497
        },
        {
          "duration": 0.14999999999999858,
          "durationTicks": 30,
          "midi": 98,
          "name": "D7",
          "ticks": 11400,
          "time": 57,
          "velocity": 0.2440944881889764
        },
        {
          "duration": 0.14999999999999858,
          "durationTicks": 30,
          "midi": 81,
          "name": "A5",
          "ticks": 11430,
          "time": 57.15,
          "velocity": 0.5039370078740157
        },
        {
          "duration": 0.14999999999999858,
          "durationTicks": 30,
          "midi": 89,
          "name": "F6",
          "ticks": 11460,
          "time": 57.3,
          "velocity": 0.7874015748031497
        },
        {
          "duration": 0.14999999999999858,
          "durationTicks": 30,
          "midi": 72,
          "name": "C5",
          "ticks": 11460,
          "time": 57.3,
          "velocity": 0.2440944881889764
        },
        {
          "duration": 0.14999999999999858,
          "durationTicks": 30,
          "midi": 84,
          "name": "C6",
          "ticks": 11490,
          "time": 57.449999999999996,
          "velocity": 0.5039370078740157
        },
        {
          "duration": 0.15000000000000568,
          "durationTicks": 30,
          "midi": 81,
          "name": "A5",
          "ticks": 11520,
          "time": 57.599999999999994,
          "velocity": 0.2440944881889764
        },
        {
          "duration": 0.14999999999999858,
          "durationTicks": 30,
          "midi": 89,
          "name": "F6",
          "ticks": 11550,
          "time": 57.75,
          "velocity": 0.5039370078740157
        },
        {
          "duration": 0.14999999999999858,
          "durationTicks": 30,
          "midi": 84,
          "name": "C6",
          "ticks": 11580,
          "time": 57.9,
          "velocity": 0.2440944881889764
        },
        {
          "duration": 0.14999999999999858,
          "durationTicks": 30,
          "midi": 89,
          "name": "F6",
          "ticks": 11640,
          "time": 58.199999999999996,
          "velocity": 0.2440944881889764
        },
        {
          "duration": 0.15000000000000568,
          "durationTicks": 30,
          "midi": 72,
          "name": "C5",
          "ticks": 27420,
          "time": 137.1,
          "velocity": 0.7874015748031497
        },
        {
          "duration": 0.14999999999997726,
          "durationTicks": 30,
          "midi": 76,
          "name": "E5",
          "ticks": 27480,
          "time": 137.4,
          "velocity": 0.7874015748031497
        },
        {
          "duration": 0.15000000000000568,
          "durationTicks": 30,
          "midi": 72,
          "name": "C5",
          "ticks": 27510,
          "time": 137.54999999999998,
          "velocity": 0.5039370078740157
        },
        {
          "duration": 0.15000000000000568,
          "durationTicks": 30,
          "midi": 72,
          "name": "C5",
          "ticks": 27540,
          "time": 137.7,
          "velocity": 0.7874015748031497
        },
        {
          "duration": 0.15000000000000568,
          "durationTicks": 30,
          "midi": 76,
          "name": "E5",
          "ticks": 27570,
          "time": 137.85,
          "velocity": 0.5039370078740157
        },
        {
          "duration": 0.15000000000000568,
          "durationTicks": 30,
          "midi": 72,
          "name": "C5",
          "ticks": 27600,
          "time": 138,
          "velocity": 0.2440944881889764
        },
        {
          "duration": 0.14999999999997726,
          "durationTicks": 30,
          "midi": 72,
          "name": "C5",
          "ticks": 27630,
          "time": 138.15,
          "velocity": 0.5039370078740157
        },
        {
          "duration": 0.15000000000000568,
          "durationTicks": 30,
          "midi": 72,
          "name": "C5",
          "ticks": 27660,
          "time": 138.29999999999998,
          "velocity": 0.7874015748031497
        },
        {
          "duration": 0.15000000000000568,
          "durationTicks": 30,
          "midi": 76,
          "name": "E5",
          "ticks": 27660,
          "time": 138.29999999999998,
          "velocity": 0.2440944881889764
        },
        {
          "duration": 0.15000000000000568,
          "durationTicks": 30,
          "midi": 77,
          "name": "F5",
          "ticks": 27720,
          "time": 138.6,
          "velocity": 0.7874015748031497
        },
        {
          "duration": 0.15000000000000568,
          "durationTicks": 30,
          "midi": 72,
          "name": "C5",
          "ticks": 27720,
          "time": 138.6,
          "velocity": 0.2440944881889764
        },
        {
          "duration": 0.15000000000000568,
          "durationTicks": 30,
          "midi": 72,
          "name": "C5",
          "ticks": 27750,
          "time": 138.75,
          "velocity": 0.5039370078740157
        },
        {
          "duration": 0.14999999999997726,
          "durationTicks": 30,
          "midi": 72,
          "name": "C5",
          "ticks": 27780,
          "time": 138.9,
          "velocity": 0.7874015748031497
        },
        {
          "duration": 0.15000000000000568,
          "durationTicks": 30,
          "midi": 77,
          "name": "F5",
          "ticks": 27810,
          "time": 139.04999999999998,
          "velocity": 0.5039370078740157
        },
        {
          "duration": 0.15000000000000568,
          "durationTicks": 30,
          "midi": 72,
          "name": "C5",
          "ticks": 27840,
          "time": 139.2,
          "velocity": 0.2440944881889764
        },
        {
          "duration": 0.15000000000000568,
          "durationTicks": 30,
          "midi": 72,
          "name": "C5",
          "ticks": 27870,
          "time": 139.35,
          "velocity": 0.5039370078740157
        },
        {
          "duration": 0.15000000000000568,
          "durationTicks": 30,
          "midi": 74,
          "name": "D5",
          "ticks": 27900,
          "time": 139.5,
          "velocity": 0.7874015748031497
        },
        {
          "duration": 0.15000000000000568,
          "durationTicks": 30,
          "midi": 77,
          "name": "F5",
          "ticks": 27900,
          "time": 139.5,
          "velocity": 0.2440944881889764
        },
        {
          "duration": 0.15000000000000568,
          "durationTicks": 30,
          "midi": 91,
          "name": "G6",
          "ticks": 27960,
          "time": 139.79999999999998,
          "velocity": 0.7874015748031497
        },
        {
          "duration": 0.15000000000000568,
          "durationTicks": 30,
          "midi": 72,
          "name": "C5",
          "ticks": 27960,
          "time": 139.79999999999998,
          "velocity": 0.2440944881889764
        },
        {
          "duration": 0.15000000000000568,
          "durationTicks": 30,
          "midi": 74,
          "name": "D5",
          "ticks": 27990,
          "time": 139.95,
          "velocity": 0.5039370078740157
        },
        {
          "duration": 0.15000000000000568,
          "durationTicks": 30,
          "midi": 98,
          "name": "D7",
          "ticks": 28020,
          "time": 140.1,
          "velocity": 0.7874015748031497
        },
        {
          "duration": 0.15000000000000568,
          "durationTicks": 30,
          "midi": 91,
          "name": "G6",
          "ticks": 28050,
          "time": 140.25,
          "velocity": 0.5039370078740157
        },
        {
          "duration": 0.14999999999997726,
          "durationTicks": 30,
          "midi": 72,
          "name": "C5",
          "ticks": 28080,
          "time": 140.4,
          "velocity": 0.7874015748031497
        },
        {
          "duration": 0.14999999999997726,
          "durationTicks": 30,
          "midi": 74,
          "name": "D5",
          "ticks": 28080,
          "time": 140.4,
          "velocity": 0.2440944881889764
        },
        {
          "duration": 0.15000000000000568,
          "durationTicks": 30,
          "midi": 98,
          "name": "D7",
          "ticks": 28110,
          "time": 140.54999999999998,
          "velocity": 0.5039370078740157
        },
        {
          "duration": 0.15000000000000568,
          "durationTicks": 30,
          "midi": 81,
          "name": "A5",
          "ticks": 28140,
          "time": 140.7,
          "velocity": 0.7874015748031497
        },
        {
          "duration": 0.15000000000000568,
          "durationTicks": 30,
          "midi": 91,
          "name": "G6",
          "ticks": 28140,
          "time": 140.7,
          "velocity": 0.2440944881889764
        },
        {
          "duration": 0.15000000000000568,
          "durationTicks": 30,
          "midi": 72,
          "name": "C5",
          "ticks": 28170,
          "time": 140.85,
          "velocity": 0.5039370078740157
        },
        {
          "duration": 0.15000000000000568,
          "durationTicks": 30,
          "midi": 84,
          "name": "C6",
          "ticks": 28200,
          "time": 141,
          "velocity": 0.7874015748031497
        },
        {
          "duration": 0.15000000000000568,
          "durationTicks": 30,
          "midi": 98,
          "name": "D7",
          "ticks": 28200,
          "time": 141,
          "velocity": 0.2440944881889764
        },
        {
          "duration": 0.14999999999997726,
          "durationTicks": 30,
          "midi": 81,
          "name": "A5",
          "ticks": 28230,
          "time": 141.15,
          "velocity": 0.5039370078740157
        },
        {
          "duration": 0.15000000000000568,
          "durationTicks": 30,
          "midi": 89,
          "name": "F6",
          "ticks": 28260,
          "time": 141.29999999999998,
          "velocity": 0.7874015748031497
        },
        {
          "duration": 0.15000000000000568,
          "durationTicks": 30,
          "midi": 72,
          "name": "C5",
          "ticks": 28260,
          "time": 141.29999999999998,
          "velocity": 0.2440944881889764
        },
        {
          "duration": 0.15000000000000568,
          "durationTicks": 30,
          "midi": 84,
          "name": "C6",
          "ticks": 28290,
          "time": 141.45,
          "velocity": 0.5039370078740157
        },
        {
          "duration": 0.15000000000000568,
          "durationTicks": 30,
          "midi": 81,
          "name": "A5",
          "ticks": 28320,
          "time": 141.6,
          "velocity": 0.2440944881889764
        },
        {
          "duration": 0.15000000000000568,
          "durationTicks": 30,
          "midi": 89,
          "name": "F6",
          "ticks": 28350,
          "time": 141.75,
          "velocity": 0.5039370078740157
        },
        {
          "duration": 0.14999999999997726,
          "durationTicks": 30,
          "midi": 72,
          "name": "C5",
          "ticks": 28380,
          "time": 141.9,
          "velocity": 0.7874015748031497
        },
        {
          "duration": 0.14999999999997726,
          "durationTicks": 30,
          "midi": 84,
          "name": "C6",
          "ticks": 28380,
          "time": 141.9,
          "velocity": 0.2440944881889764
        },
        {
          "duration": 0.15000000000000568,
          "durationTicks": 30,
          "midi": 76,
          "name": "E5",
          "ticks": 28440,
          "time": 142.2,
          "velocity": 0.7874015748031497
        },
        {
          "duration": 0.15000000000000568,
          "durationTicks": 30,
          "midi": 89,
          "name": "F6",
          "ticks": 28440,
          "time": 142.2,
          "velocity": 0.2440944881889764
        },
        {
          "duration": 0.15000000000000568,
          "durationTicks": 30,
          "midi": 72,
          "name": "C5",
          "ticks": 28470,
          "time": 142.35,
          "velocity": 0.5039370078740157
        },
        {
          "duration": 0.15000000000000568,
          "durationTicks": 30,
          "midi": 72,
          "name": "C5",
          "ticks": 28500,
          "time": 142.5,
          "velocity": 0.7874015748031497
        },
        {
          "duration": 0.14999999999997726,
          "durationTicks": 30,
          "midi": 76,
          "name": "E5",
          "ticks": 28530,
          "time": 142.65,
          "velocity": 0.5039370078740157
        },
        {
          "duration": 0.15000000000000568,
          "durationTicks": 30,
          "midi": 72,
          "name": "C5",
          "ticks": 28560,
          "time": 142.79999999999998,
          "velocity": 0.2440944881889764
        },
        {
          "duration": 0.15000000000000568,
          "durationTicks": 30,
          "midi": 72,
          "name": "C5",
          "ticks": 28590,
          "time": 142.95,
          "velocity": 0.5039370078740157
        },
        {
          "duration": 0.15000000000000568,
          "durationTicks": 30,
          "midi": 72,
          "name": "C5",
          "ticks": 28620,
          "time": 143.1,
          "velocity": 0.7874015748031497
        },
        {
          "duration": 0.15000000000000568,
          "durationTicks": 30,
          "midi": 76,
          "name": "E5",
          "ticks": 28620,
          "time": 143.1,
          "velocity": 0.2440944881889764
        },
        {
          "duration": 0.14999999999997726,
          "durationTicks": 30,
          "midi": 77,
          "name": "F5",
          "ticks": 28680,
          "time": 143.4,
          "velocity": 0.7874015748031497
        },
        {
          "duration": 0.14999999999997726,
          "durationTicks": 30,
          "midi": 72,
          "name": "C5",
          "ticks": 28680,
          "time": 143.4,
          "velocity": 0.2440944881889764
        },
        {
          "duration": 0.15000000000000568,
          "durationTicks": 30,
          "midi": 72,
          "name": "C5",
          "ticks": 28710,
          "time": 143.54999999999998,
          "velocity": 0.5039370078740157
        },
        {
          "duration": 0.15000000000000568,
          "durationTicks": 30,
          "midi": 72,
          "name": "C5",
          "ticks": 28740,
          "time": 143.7,
          "velocity": 0.7874015748031497
        },
        {
          "duration": 0.15000000000000568,
          "durationTicks": 30,
          "midi": 77,
          "name": "F5",
          "ticks": 28770,
          "time": 143.85,
          "velocity": 0.5039370078740157
        },
        {
          "duration": 0.15000000000000568,
          "durationTicks": 30,
          "midi": 72,
          "name": "C5",
          "ticks": 28800,
          "time": 144,
          "velocity": 0.2440944881889764
        },
        {
          "duration": 0.14999999999997726,
          "durationTicks": 30,
          "midi": 72,
          "name": "C5",
          "ticks": 28830,
          "time": 144.15,
          "velocity": 0.5039370078740157
        },
        {
          "duration": 0.15000000000000568,
          "durationTicks": 30,
          "midi": 74,
          "name": "D5",
          "ticks": 28860,
          "time": 144.29999999999998,
          "velocity": 0.7874015748031497
        },
        {
          "duration": 0.15000000000000568,
          "durationTicks": 30,
          "midi": 77,
          "name": "F5",
          "ticks": 28860,
          "time": 144.29999999999998,
          "velocity": 0.2440944881889764
        },
        {
          "duration": 0.15000000000000568,
          "durationTicks": 30,
          "midi": 91,
          "name": "G6",
          "ticks": 28920,
          "time": 144.6,
          "velocity": 0.7874015748031497
        },
        {
          "duration": 0.15000000000000568,
          "durationTicks": 30,
          "midi": 72,
          "name": "C5",
          "ticks": 28920,
          "time": 144.6,
          "velocity": 0.2440944881889764
        },
        {
          "duration": 0.15000000000000568,
          "durationTicks": 30,
          "midi": 74,
          "name": "D5",
          "ticks": 28950,
          "time": 144.75,
          "velocity": 0.5039370078740157
        },
        {
          "duration": 0.14999999999997726,
          "durationTicks": 30,
          "midi": 98,
          "name": "D7",
          "ticks": 28980,
          "time": 144.9,
          "velocity": 0.7874015748031497
        },
        {
          "duration": 0.15000000000000568,
          "durationTicks": 30,
          "midi": 91,
          "name": "G6",
          "ticks": 29010,
          "time": 145.04999999999998,
          "velocity": 0.5039370078740157
        },
        {
          "duration": 0.15000000000000568,
          "durationTicks": 30,
          "midi": 72,
          "name": "C5",
          "ticks": 29040,
          "time": 145.2,
          "velocity": 0.7874015748031497
        },
        {
          "duration": 0.15000000000000568,
          "durationTicks": 30,
          "midi": 74,
          "name": "D5",
          "ticks": 29040,
          "time": 145.2,
          "velocity": 0.2440944881889764
        },
        {
          "duration": 0.15000000000000568,
          "durationTicks": 30,
          "midi": 98,
          "name": "D7",
          "ticks": 29070,
          "time": 145.35,
          "velocity": 0.5039370078740157
        },
        {
          "duration": 0.15000000000000568,
          "durationTicks": 30,
          "midi": 81,
          "name": "A5",
          "ticks": 29100,
          "time": 145.5,
          "velocity": 0.7874015748031497
        },
        {
          "duration": 0.15000000000000568,
          "durationTicks": 30,
          "midi": 91,
          "name": "G6",
          "ticks": 29100,
          "time": 145.5,
          "velocity": 0.2440944881889764
        },
        {
          "duration": 0.14999999999997726,
          "durationTicks": 30,
          "midi": 72,
          "name": "C5",
          "ticks": 29130,
          "time": 145.65,
          "velocity": 0.5039370078740157
        },
        {
          "duration": 0.15000000000000568,
          "durationTicks": 30,
          "midi": 84,
          "name": "C6",
          "ticks": 29160,
          "time": 145.79999999999998,
          "velocity": 0.7874015748031497
        },
        {
          "duration": 0.15000000000000568,
          "durationTicks": 30,
          "midi": 98,
          "name": "D7",
          "ticks": 29160,
          "time": 145.79999999999998,
          "velocity": 0.2440944881889764
        },
        {
          "duration": 0.15000000000000568,
          "durationTicks": 30,
          "midi": 81,
          "name": "A5",
          "ticks": 29190,
          "time": 145.95,
          "velocity": 0.5039370078740157
        },
        {
          "duration": 0.15000000000000568,
          "durationTicks": 30,
          "midi": 89,
          "name": "F6",
          "ticks": 29220,
          "time": 146.1,
          "velocity": 0.7874015748031497
        },
        {
          "duration": 0.15000000000000568,
          "durationTicks": 30,
          "midi": 72,
          "name": "C5",
          "ticks": 29220,
          "time": 146.1,
          "velocity": 0.2440944881889764
        },
        {
          "duration": 0.15000000000000568,
          "durationTicks": 30,
          "midi": 84,
          "name": "C6",
          "ticks": 29250,
          "time": 146.25,
          "velocity": 0.5039370078740157
        },
        {
          "duration": 0.14999999999997726,
          "durationTicks": 30,
          "midi": 81,
          "name": "A5",
          "ticks": 29280,
          "time": 146.4,
          "velocity": 0.2440944881889764
        },
        {
          "duration": 0.15000000000000568,
          "durationTicks": 30,
          "midi": 89,
          "name": "F6",
          "ticks": 29310,
          "time": 146.54999999999998,
          "velocity": 0.5039370078740157
        },
        {
          "duration": 0.15000000000000568,
          "durationTicks": 30,
          "midi": 84,
          "name": "C6",
          "ticks": 29340,
          "time": 146.7,
          "velocity": 0.2440944881889764
        },
        {
          "duration": 0.15000000000000568,
          "durationTicks": 30,
          "midi": 72,
          "name": "C5",
          "ticks": 29340,
          "time": 146.7,
          "velocity": 0.7874015748031497
        },
        {
          "duration": 0.15000000000000568,
          "durationTicks": 30,
          "midi": 89,
          "name": "F6",
          "ticks": 29400,
          "time": 147,
          "velocity": 0.2440944881889764
        },
        {
          "duration": 0.15000000000000568,
          "durationTicks": 30,
          "midi": 76,
          "name": "E5",
          "ticks": 29400,
          "time": 147,
          "velocity": 0.7874015748031497
        },
        {
          "duration": 0.14999999999997726,
          "durationTicks": 30,
          "midi": 72,
          "name": "C5",
          "ticks": 29430,
          "time": 147.15,
          "velocity": 0.5039370078740157
        },
        {
          "duration": 0.15000000000000568,
          "durationTicks": 30,
          "midi": 72,
          "name": "C5",
          "ticks": 29460,
          "time": 147.29999999999998,
          "velocity": 0.7874015748031497
        },
        {
          "duration": 0.15000000000000568,
          "durationTicks": 30,
          "midi": 76,
          "name": "E5",
          "ticks": 29490,
          "time": 147.45,
          "velocity": 0.5039370078740157
        },
        {
          "duration": 0.15000000000000568,
          "durationTicks": 30,
          "midi": 72,
          "name": "C5",
          "ticks": 29520,
          "time": 147.6,
          "velocity": 0.2440944881889764
        },
        {
          "duration": 0.15000000000000568,
          "durationTicks": 30,
          "midi": 72,
          "name": "C5",
          "ticks": 29550,
          "time": 147.75,
          "velocity": 0.5039370078740157
        },
        {
          "duration": 0.14999999999997726,
          "durationTicks": 30,
          "midi": 72,
          "name": "C5",
          "ticks": 29580,
          "time": 147.9,
          "velocity": 0.7874015748031497
        },
        {
          "duration": 0.14999999999997726,
          "durationTicks": 30,
          "midi": 76,
          "name": "E5",
          "ticks": 29580,
          "time": 147.9,
          "velocity": 0.2440944881889764
        },
        {
          "duration": 0.15000000000000568,
          "durationTicks": 30,
          "midi": 77,
          "name": "F5",
          "ticks": 29640,
          "time": 148.2,
          "velocity": 0.7874015748031497
        },
        {
          "duration": 0.15000000000000568,
          "durationTicks": 30,
          "midi": 72,
          "name": "C5",
          "ticks": 29640,
          "time": 148.2,
          "velocity": 0.2440944881889764
        },
        {
          "duration": 0.15000000000000568,
          "durationTicks": 30,
          "midi": 72,
          "name": "C5",
          "ticks": 29670,
          "time": 148.35,
          "velocity": 0.5039370078740157
        },
        {
          "duration": 0.15000000000000568,
          "durationTicks": 30,
          "midi": 72,
          "name": "C5",
          "ticks": 29700,
          "time": 148.5,
          "velocity": 0.7874015748031497
        },
        {
          "duration": 0.14999999999997726,
          "durationTicks": 30,
          "midi": 77,
          "name": "F5",
          "ticks": 29730,
          "time": 148.65,
          "velocity": 0.5039370078740157
        },
        {
          "duration": 0.15000000000000568,
          "durationTicks": 30,
          "midi": 72,
          "name": "C5",
          "ticks": 29760,
          "time": 148.79999999999998,
          "velocity": 0.2440944881889764
        },
        {
          "duration": 0.15000000000000568,
          "durationTicks": 30,
          "midi": 72,
          "name": "C5",
          "ticks": 29790,
          "time": 148.95,
          "velocity": 0.5039370078740157
        },
        {
          "duration": 0.15000000000000568,
          "durationTicks": 30,
          "midi": 74,
          "name": "D5",
          "ticks": 29820,
          "time": 149.1,
          "velocity": 0.7874015748031497
        },
        {
          "duration": 0.15000000000000568,
          "durationTicks": 30,
          "midi": 77,
          "name": "F5",
          "ticks": 29820,
          "time": 149.1,
          "velocity": 0.2440944881889764
        },
        {
          "duration": 0.14999999999997726,
          "durationTicks": 30,
          "midi": 91,
          "name": "G6",
          "ticks": 29880,
          "time": 149.4,
          "velocity": 0.7874015748031497
        },
        {
          "duration": 0.14999999999997726,
          "durationTicks": 30,
          "midi": 72,
          "name": "C5",
          "ticks": 29880,
          "time": 149.4,
          "velocity": 0.2440944881889764
        },
        {
          "duration": 0.15000000000000568,
          "durationTicks": 30,
          "midi": 74,
          "name": "D5",
          "ticks": 29910,
          "time": 149.54999999999998,
          "velocity": 0.5039370078740157
        },
        {
          "duration": 0.15000000000000568,
          "durationTicks": 30,
          "midi": 98,
          "name": "D7",
          "ticks": 29940,
          "time": 149.7,
          "velocity": 0.7874015748031497
        },
        {
          "duration": 0.15000000000000568,
          "durationTicks": 30,
          "midi": 91,
          "name": "G6",
          "ticks": 29970,
          "time": 149.85,
          "velocity": 0.5039370078740157
        },
        {
          "duration": 0.15000000000000568,
          "durationTicks": 30,
          "midi": 72,
          "name": "C5",
          "ticks": 30000,
          "time": 150,
          "velocity": 0.7874015748031497
        },
        {
          "duration": 0.15000000000000568,
          "durationTicks": 30,
          "midi": 74,
          "name": "D5",
          "ticks": 30000,
          "time": 150,
          "velocity": 0.2440944881889764
        },
        {
          "duration": 0.14999999999997726,
          "durationTicks": 30,
          "midi": 98,
          "name": "D7",
          "ticks": 30030,
          "time": 150.15,
          "velocity": 0.5039370078740157
        },
        {
          "duration": 0.15000000000000568,
          "durationTicks": 30,
          "midi": 81,
          "name": "A5",
          "ticks": 30060,
          "time": 150.29999999999998,
          "velocity": 0.7874015748031497
        },
        {
          "duration": 0.15000000000000568,
          "durationTicks": 30,
          "midi": 91,
          "name": "G6",
          "ticks": 30060,
          "time": 150.29999999999998,
          "velocity": 0.2440944881889764
        },
        {
          "duration": 0.15000000000000568,
          "durationTicks": 30,
          "midi": 72,
          "name": "C5",
          "ticks": 30090,
          "time": 150.45,
          "velocity": 0.5039370078740157
        },
        {
          "duration": 0.15000000000000568,
          "durationTicks": 30,
          "midi": 84,
          "name": "C6",
          "ticks": 30120,
          "time": 150.6,
          "velocity": 0.7874015748031497
        },
        {
          "duration": 0.15000000000000568,
          "durationTicks": 30,
          "midi": 98,
          "name": "D7",
          "ticks": 30120,
          "time": 150.6,
          "velocity": 0.2440944881889764
        },
        {
          "duration": 0.15000000000000568,
          "durationTicks": 30,
          "midi": 81,
          "name": "A5",
          "ticks": 30150,
          "time": 150.75,
          "velocity": 0.5039370078740157
        },
        {
          "duration": 0.14999999999997726,
          "durationTicks": 30,
          "midi": 89,
          "name": "F6",
          "ticks": 30180,
          "time": 150.9,
          "velocity": 0.7874015748031497
        },
        {
          "duration": 0.14999999999997726,
          "durationTicks": 30,
          "midi": 72,
          "name": "C5",
          "ticks": 30180,
          "time": 150.9,
          "velocity": 0.2440944881889764
        },
        {
          "duration": 0.15000000000000568,
          "durationTicks": 30,
          "midi": 84,
          "name": "C6",
          "ticks": 30210,
          "time": 151.04999999999998,
          "velocity": 0.5039370078740157
        },
        {
          "duration": 0.15000000000000568,
          "durationTicks": 30,
          "midi": 81,
          "name": "A5",
          "ticks": 30240,
          "time": 151.2,
          "velocity": 0.2440944881889764
        },
        {
          "duration": 0.15000000000000568,
          "durationTicks": 30,
          "midi": 89,
          "name": "F6",
          "ticks": 30270,
          "time": 151.35,
          "velocity": 0.5039370078740157
        },
        {
          "duration": 0.15000000000000568,
          "durationTicks": 30,
          "midi": 72,
          "name": "C5",
          "ticks": 30300,
          "time": 151.5,
          "velocity": 0.7874015748031497
        },
        {
          "duration": 0.15000000000000568,
          "durationTicks": 30,
          "midi": 84,
          "name": "C6",
          "ticks": 30300,
          "time": 151.5,
          "velocity": 0.2440944881889764
        },
        {
          "duration": 0.15000000000000568,
          "durationTicks": 30,
          "midi": 76,
          "name": "E5",
          "ticks": 30360,
          "time": 151.79999999999998,
          "velocity": 0.7874015748031497
        },
        {
          "duration": 0.15000000000000568,
          "durationTicks": 30,
          "midi": 89,
          "name": "F6",
          "ticks": 30360,
          "time": 151.79999999999998,
          "velocity": 0.2440944881889764
        },
        {
          "duration": 0.15000000000000568,
          "durationTicks": 30,
          "midi": 72,
          "name": "C5",
          "ticks": 30390,
          "time": 151.95,
          "velocity": 0.5039370078740157
        },
        {
          "duration": 0.15000000000000568,
          "durationTicks": 30,
          "midi": 72,
          "name": "C5",
          "ticks": 30420,
          "time": 152.1,
          "velocity": 0.7874015748031497
        },
        {
          "duration": 0.15000000000000568,
          "durationTicks": 30,
          "midi": 76,
          "name": "E5",
          "ticks": 30450,
          "time": 152.25,
          "velocity": 0.5039370078740157
        },
        {
          "duration": 0.14999999999997726,
          "durationTicks": 30,
          "midi": 72,
          "name": "C5",
          "ticks": 30480,
          "time": 152.4,
          "velocity": 0.2440944881889764
        },
        {
          "duration": 0.15000000000000568,
          "durationTicks": 30,
          "midi": 72,
          "name": "C5",
          "ticks": 30510,
          "time": 152.54999999999998,
          "velocity": 0.5039370078740157
        },
        {
          "duration": 0.15000000000000568,
          "durationTicks": 30,
          "midi": 72,
          "name": "C5",
          "ticks": 30540,
          "time": 152.7,
          "velocity": 0.7874015748031497
        },
        {
          "duration": 0.15000000000000568,
          "durationTicks": 30,
          "midi": 76,
          "name": "E5",
          "ticks": 30540,
          "time": 152.7,
          "velocity": 0.2440944881889764
        },
        {
          "duration": 0.15000000000000568,
          "durationTicks": 30,
          "midi": 77,
          "name": "F5",
          "ticks": 30600,
          "time": 153,
          "velocity": 0.7874015748031497
        },
        {
          "duration": 0.15000000000000568,
          "durationTicks": 30,
          "midi": 72,
          "name": "C5",
          "ticks": 30600,
          "time": 153,
          "velocity": 0.2440944881889764
        },
        {
          "duration": 0.14999999999997726,
          "durationTicks": 30,
          "midi": 72,
          "name": "C5",
          "ticks": 30630,
          "time": 153.15,
          "velocity": 0.5039370078740157
        },
        {
          "duration": 0.15000000000000568,
          "durationTicks": 30,
          "midi": 72,
          "name": "C5",
          "ticks": 30660,
          "time": 153.29999999999998,
          "velocity": 0.7874015748031497
        },
        {
          "duration": 0.15000000000000568,
          "durationTicks": 30,
          "midi": 77,
          "name": "F5",
          "ticks": 30690,
          "time": 153.45,
          "velocity": 0.5039370078740157
        },
        {
          "duration": 0.15000000000000568,
          "durationTicks": 30,
          "midi": 72,
          "name": "C5",
          "ticks": 30720,
          "time": 153.6,
          "velocity": 0.2440944881889764
        },
        {
          "duration": 0.15000000000000568,
          "durationTicks": 30,
          "midi": 72,
          "name": "C5",
          "ticks": 30750,
          "time": 153.75,
          "velocity": 0.5039370078740157
        },
        {
          "duration": 0.14999999999997726,
          "durationTicks": 30,
          "midi": 74,
          "name": "D5",
          "ticks": 30780,
          "time": 153.9,
          "velocity": 0.7874015748031497
        },
        {
          "duration": 0.14999999999997726,
          "durationTicks": 30,
          "midi": 77,
          "name": "F5",
          "ticks": 30780,
          "time": 153.9,
          "velocity": 0.2440944881889764
        },
        {
          "duration": 0.15000000000000568,
          "durationTicks": 30,
          "midi": 91,
          "name": "G6",
          "ticks": 30840,
          "time": 154.2,
          "velocity": 0.7874015748031497
        },
        {
          "duration": 0.15000000000000568,
          "durationTicks": 30,
          "midi": 72,
          "name": "C5",
          "ticks": 30840,
          "time": 154.2,
          "velocity": 0.2440944881889764
        },
        {
          "duration": 0.15000000000000568,
          "durationTicks": 30,
          "midi": 74,
          "name": "D5",
          "ticks": 30870,
          "time": 154.35,
          "velocity": 0.5039370078740157
        },
        {
          "duration": 0.15000000000000568,
          "durationTicks": 30,
          "midi": 98,
          "name": "D7",
          "ticks": 30900,
          "time": 154.5,
          "velocity": 0.7874015748031497
        },
        {
          "duration": 0.14999999999997726,
          "durationTicks": 30,
          "midi": 91,
          "name": "G6",
          "ticks": 30930,
          "time": 154.65,
          "velocity": 0.5039370078740157
        },
        {
          "duration": 0.15000000000000568,
          "durationTicks": 30,
          "midi": 72,
          "name": "C5",
          "ticks": 30960,
          "time": 154.79999999999998,
          "velocity": 0.7874015748031497
        },
        {
          "duration": 0.15000000000000568,
          "durationTicks": 30,
          "midi": 74,
          "name": "D5",
          "ticks": 30960,
          "time": 154.79999999999998,
          "velocity": 0.2440944881889764
        },
        {
          "duration": 0.15000000000000568,
          "durationTicks": 30,
          "midi": 98,
          "name": "D7",
          "ticks": 30990,
          "time": 154.95,
          "velocity": 0.5039370078740157
        },
        {
          "duration": 0.15000000000000568,
          "durationTicks": 30,
          "midi": 81,
          "name": "A5",
          "ticks": 31020,
          "time": 155.1,
          "velocity": 0.7874015748031497
        },
        {
          "duration": 0.15000000000000568,
          "durationTicks": 30,
          "midi": 91,
          "name": "G6",
          "ticks": 31020,
          "time": 155.1,
          "velocity": 0.2440944881889764
        },
        {
          "duration": 0.15000000000000568,
          "durationTicks": 30,
          "midi": 72,
          "name": "C5",
          "ticks": 31050,
          "time": 155.25,
          "velocity": 0.5039370078740157
        },
        {
          "duration": 0.14999999999997726,
          "durationTicks": 30,
          "midi": 84,
          "name": "C6",
          "ticks": 31080,
          "time": 155.4,
          "velocity": 0.7874015748031497
        },
        {
          "duration": 0.14999999999997726,
          "durationTicks": 30,
          "midi": 98,
          "name": "D7",
          "ticks": 31080,
          "time": 155.4,
          "velocity": 0.2440944881889764
        },
        {
          "duration": 0.15000000000000568,
          "durationTicks": 30,
          "midi": 81,
          "name": "A5",
          "ticks": 31110,
          "time": 155.54999999999998,
          "velocity": 0.5039370078740157
        },
        {
          "duration": 0.15000000000000568,
          "durationTicks": 30,
          "midi": 89,
          "name": "F6",
          "ticks": 31140,
          "time": 155.7,
          "velocity": 0.7874015748031497
        },
        {
          "duration": 0.15000000000000568,
          "durationTicks": 30,
          "midi": 72,
          "name": "C5",
          "ticks": 31140,
          "time": 155.7,
          "velocity": 0.2440944881889764
        },
        {
          "duration": 0.15000000000000568,
          "durationTicks": 30,
          "midi": 84,
          "name": "C6",
          "ticks": 31170,
          "time": 155.85,
          "velocity": 0.5039370078740157
        },
        {
          "duration": 0.15000000000000568,
          "durationTicks": 30,
          "midi": 81,
          "name": "A5",
          "ticks": 31200,
          "time": 156,
          "velocity": 0.2440944881889764
        },
        {
          "duration": 0.14999999999997726,
          "durationTicks": 30,
          "midi": 89,
          "name": "F6",
          "ticks": 31230,
          "time": 156.15,
          "velocity": 0.5039370078740157
        },
        {
          "duration": 0.15000000000000568,
          "durationTicks": 30,
          "midi": 84,
          "name": "C6",
          "ticks": 31260,
          "time": 156.29999999999998,
          "velocity": 0.2440944881889764
        },
        {
          "duration": 0.15000000000000568,
          "durationTicks": 30,
          "midi": 72,
          "name": "C5",
          "ticks": 31260,
          "time": 156.29999999999998,
          "velocity": 0.7874015748031497
        },
        {
          "duration": 0.15000000000000568,
          "durationTicks": 30,
          "midi": 89,
          "name": "F6",
          "ticks": 31320,
          "time": 156.6,
          "velocity": 0.2440944881889764
        },
        {
          "duration": 0.15000000000000568,
          "durationTicks": 30,
          "midi": 76,
          "name": "E5",
          "ticks": 31320,
          "time": 156.6,
          "velocity": 0.7874015748031497
        },
        {
          "duration": 0.15000000000000568,
          "durationTicks": 30,
          "midi": 72,
          "name": "C5",
          "ticks": 31350,
          "time": 156.75,
          "velocity": 0.5039370078740157
        },
        {
          "duration": 0.14999999999997726,
          "durationTicks": 30,
          "midi": 72,
          "name": "C5",
          "ticks": 31380,
          "time": 156.9,
          "velocity": 0.7874015748031497
        },
        {
          "duration": 0.15000000000000568,
          "durationTicks": 30,
          "midi": 76,
          "name": "E5",
          "ticks": 31410,
          "time": 157.04999999999998,
          "velocity": 0.5039370078740157
        },
        {
          "duration": 0.15000000000000568,
          "durationTicks": 30,
          "midi": 72,
          "name": "C5",
          "ticks": 31440,
          "time": 157.2,
          "velocity": 0.2440944881889764
        },
        {
          "duration": 0.15000000000000568,
          "durationTicks": 30,
          "midi": 72,
          "name": "C5",
          "ticks": 31470,
          "time": 157.35,
          "velocity": 0.5039370078740157
        },
        {
          "duration": 0.15000000000000568,
          "durationTicks": 30,
          "midi": 72,
          "name": "C5",
          "ticks": 31500,
          "time": 157.5,
          "velocity": 0.7874015748031497
        },
        {
          "duration": 0.15000000000000568,
          "durationTicks": 30,
          "midi": 76,
          "name": "E5",
          "ticks": 31500,
          "time": 157.5,
          "velocity": 0.2440944881889764
        },
        {
          "duration": 0.15000000000000568,
          "durationTicks": 30,
          "midi": 77,
          "name": "F5",
          "ticks": 31560,
          "time": 157.79999999999998,
          "velocity": 0.7874015748031497
        },
        {
          "duration": 0.15000000000000568,
          "durationTicks": 30,
          "midi": 72,
          "name": "C5",
          "ticks": 31560,
          "time": 157.79999999999998,
          "velocity": 0.2440944881889764
        },
        {
          "duration": 0.15000000000000568,
          "durationTicks": 30,
          "midi": 72,
          "name": "C5",
          "ticks": 31590,
          "time": 157.95,
          "velocity": 0.5039370078740157
        },
        {
          "duration": 0.15000000000000568,
          "durationTicks": 30,
          "midi": 72,
          "name": "C5",
          "ticks": 31620,
          "time": 158.1,
          "velocity": 0.7874015748031497
        },
        {
          "duration": 0.15000000000000568,
          "durationTicks": 30,
          "midi": 77,
          "name": "F5",
          "ticks": 31650,
          "time": 158.25,
          "velocity": 0.5039370078740157
        },
        {
          "duration": 0.14999999999997726,
          "durationTicks": 30,
          "midi": 72,
          "name": "C5",
          "ticks": 31680,
          "time": 158.4,
          "velocity": 0.2440944881889764
        },
        {
          "duration": 0.15000000000000568,
          "durationTicks": 30,
          "midi": 72,
          "name": "C5",
          "ticks": 31710,
          "time": 158.54999999999998,
          "velocity": 0.5039370078740157
        },
        {
          "duration": 0.15000000000000568,
          "durationTicks": 30,
          "midi": 74,
          "name": "D5",
          "ticks": 31740,
          "time": 158.7,
          "velocity": 0.7874015748031497
        },
        {
          "duration": 0.15000000000000568,
          "durationTicks": 30,
          "midi": 77,
          "name": "F5",
          "ticks": 31740,
          "time": 158.7,
          "velocity": 0.2440944881889764
        },
        {
          "duration": 0.15000000000000568,
          "durationTicks": 30,
          "midi": 91,
          "name": "G6",
          "ticks": 31800,
          "time": 159,
          "velocity": 0.7874015748031497
        },
        {
          "duration": 0.15000000000000568,
          "durationTicks": 30,
          "midi": 72,
          "name": "C5",
          "ticks": 31800,
          "time": 159,
          "velocity": 0.2440944881889764
        },
        {
          "duration": 0.14999999999997726,
          "durationTicks": 30,
          "midi": 74,
          "name": "D5",
          "ticks": 31830,
          "time": 159.15,
          "velocity": 0.5039370078740157
        },
        {
          "duration": 0.15000000000000568,
          "durationTicks": 30,
          "midi": 98,
          "name": "D7",
          "ticks": 31860,
          "time": 159.29999999999998,
          "velocity": 0.7874015748031497
        },
        {
          "duration": 0.15000000000000568,
          "durationTicks": 30,
          "midi": 91,
          "name": "G6",
          "ticks": 31890,
          "time": 159.45,
          "velocity": 0.5039370078740157
        },
        {
          "duration": 0.15000000000000568,
          "durationTicks": 30,
          "midi": 72,
          "name": "C5",
          "ticks": 31920,
          "time": 159.6,
          "velocity": 0.7874015748031497
        },
        {
          "duration": 0.15000000000000568,
          "durationTicks": 30,
          "midi": 74,
          "name": "D5",
          "ticks": 31920,
          "time": 159.6,
          "velocity": 0.2440944881889764
        },
        {
          "duration": 0.15000000000000568,
          "durationTicks": 30,
          "midi": 98,
          "name": "D7",
          "ticks": 31950,
          "time": 159.75,
          "velocity": 0.5039370078740157
        },
        {
          "duration": 0.14999999999997726,
          "durationTicks": 30,
          "midi": 81,
          "name": "A5",
          "ticks": 31980,
          "time": 159.9,
          "velocity": 0.7874015748031497
        },
        {
          "duration": 0.14999999999997726,
          "durationTicks": 30,
          "midi": 91,
          "name": "G6",
          "ticks": 31980,
          "time": 159.9,
          "velocity": 0.2440944881889764
        },
        {
          "duration": 0.15000000000000568,
          "durationTicks": 30,
          "midi": 72,
          "name": "C5",
          "ticks": 32010,
          "time": 160.04999999999998,
          "velocity": 0.5039370078740157
        },
        {
          "duration": 0.15000000000000568,
          "durationTicks": 30,
          "midi": 84,
          "name": "C6",
          "ticks": 32040,
          "time": 160.2,
          "velocity": 0.7874015748031497
        },
        {
          "duration": 0.15000000000000568,
          "durationTicks": 30,
          "midi": 98,
          "name": "D7",
          "ticks": 32040,
          "time": 160.2,
          "velocity": 0.2440944881889764
        },
        {
          "duration": 0.15000000000000568,
          "durationTicks": 30,
          "midi": 81,
          "name": "A5",
          "ticks": 32070,
          "time": 160.35,
          "velocity": 0.5039370078740157
        },
        {
          "duration": 0.15000000000000568,
          "durationTicks": 30,
          "midi": 89,
          "name": "F6",
          "ticks": 32100,
          "time": 160.5,
          "velocity": 0.7874015748031497
        },
        {
          "duration": 0.15000000000000568,
          "durationTicks": 30,
          "midi": 72,
          "name": "C5",
          "ticks": 32100,
          "time": 160.5,
          "velocity": 0.2440944881889764
        },
        {
          "duration": 0.14999999999997726,
          "durationTicks": 30,
          "midi": 84,
          "name": "C6",
          "ticks": 32130,
          "time": 160.65,
          "velocity": 0.5039370078740157
        },
        {
          "duration": 0.15000000000000568,
          "durationTicks": 30,
          "midi": 81,
          "name": "A5",
          "ticks": 32160,
          "time": 160.79999999999998,
          "velocity": 0.2440944881889764
        },
        {
          "duration": 0.15000000000000568,
          "durationTicks": 30,
          "midi": 89,
          "name": "F6",
          "ticks": 32190,
          "time": 160.95,
          "velocity": 0.5039370078740157
        },
        {
          "duration": 0.15000000000000568,
          "durationTicks": 30,
          "midi": 84,
          "name": "C6",
          "ticks": 32220,
          "time": 161.1,
          "velocity": 0.2440944881889764
        },
        {
          "duration": 0.14999999999997726,
          "durationTicks": 30,
          "midi": 89,
          "name": "F6",
          "ticks": 32280,
          "time": 161.4,
          "velocity": 0.2440944881889764
        }
      ]
    },
    {
      "channel": 9,
      "controlChanges": {
        "0": [
          {
            "number": 0,
            "ticks": 0,
            "time": 0,
            "value": 0
          }
        ],
        "1": [
          {
            "number": 1,
            "ticks": 0,
            "time": 0,
            "value": 0
          }
        ],
        "7": [
          {
            "number": 7,
            "ticks": 0,
            "time": 0,
            "value": 0.7874015748031497
          }
        ],
        "10": [
          {
            "number": 10,
            "ticks": 0,
            "time": 0,
            "value": 0.5039370078740157
          }
        ],
        "11": [
          {
            "number": 11,
            "ticks": 0,
            "time": 0,
            "value": 1
          }
        ],
        "32": [
          {
            "number": 32,
            "ticks": 0,
            "time": 0,
            "value": 0
          }
        ],
        "64": [
          {
            "number": 64,
            "ticks": 0,
            "time": 0,
            "value": 0
          }
        ],
        "91": [
          {
            "number": 91,
            "ticks": 0,
            "time": 0,
            "value": 0.31496062992125984
          }
        ],
        "93": [
          {
            "number": 93,
            "ticks": 0,
            "time": 0,
            "value": 0
          }
        ],
        "94": [
          {
            "number": 94,
            "ticks": 0,
            "time": 0,
            "value": 0
          }
        ]
      },
      "pitchBends": [],
      "instrument": {
        "family": "drums",
        "number": 0,
        "name": "standard kit"
      },
      "name": "Drums",
      "notes": [
        {
          "duration": 0.09999999999999999,
          "durationTicks": 20,
          "midi": 62,
          "name": "D4",
          "ticks": 0,
          "time": 0,
          "velocity": 0.7874015748031497
        },
        {
          "duration": 0.09999999999999998,
          "durationTicks": 20,
          "midi": 62,
          "name": "D4",
          "ticks": 60,
          "time": 0.3,
          "velocity": 0.7874015748031497
        },
        {
          "duration": 0.10000000000000009,
          "durationTicks": 20,
          "midi": 28,
          "name": "E1",
          "ticks": 120,
          "time": 0.6,
          "velocity": 0.7874015748031497
        },
        {
          "duration": 0.10000000000000009,
          "durationTicks": 20,
          "midi": 82,
          "name": "A#5",
          "ticks": 180,
          "time": 0.8999999999999999,
          "velocity": 0.47244094488188976
        },
        {
          "duration": 0.10000000000000009,
          "durationTicks": 20,
          "midi": 82,
          "name": "A#5",
          "ticks": 220,
          "time": 1.0999999999999999,
          "velocity": 0.7874015748031497
        },
        {
          "duration": 0.09999999999999987,
          "durationTicks": 20,
          "midi": 82,
          "name": "A#5",
          "ticks": 240,
          "time": 1.2,
          "velocity": 0.47244094488188976
        },
        {
          "duration": 0.09999999999999987,
          "durationTicks": 20,
          "midi": 82,
          "name": "A#5",
          "ticks": 280,
          "time": 1.4000000000000001,
          "velocity": 0.7874015748031497
        },
        {
          "duration": 0.09999999999999987,
          "durationTicks": 20,
          "midi": 62,
          "name": "D4",
          "ticks": 300,
          "time": 1.5,
          "velocity": 0.7874015748031497
        },
        {
          "duration": 0.10000000000000009,
          "durationTicks": 20,
          "midi": 28,
          "name": "E1",
          "ticks": 360,
          "time": 1.7999999999999998,
          "velocity": 0.7874015748031497
        },
        {
          "duration": 0.10000000000000009,
          "durationTicks": 20,
          "midi": 62,
          "name": "D4",
          "ticks": 480,
          "time": 2.4,
          "velocity": 0.7874015748031497
        },
        {
          "duration": 0.10000000000000053,
          "durationTicks": 20,
          "midi": 62,
          "name": "D4",
          "ticks": 540,
          "time": 2.6999999999999997,
          "velocity": 0.7874015748031497
        },
        {
          "duration": 0.10000000000000009,
          "durationTicks": 20,
          "midi": 28,
          "name": "E1",
          "ticks": 600,
          "time": 3,
          "velocity": 0.7874015748031497
        },
        {
          "duration": 0.10000000000000009,
          "durationTicks": 20,
          "midi": 82,
          "name": "A#5",
          "ticks": 660,
          "time": 3.3,
          "velocity": 0.47244094488188976
        },
        {
          "duration": 0.10000000000000009,
          "durationTicks": 20,
          "midi": 82,
          "name": "A#5",
          "ticks": 700,
          "time": 3.4999999999999996,
          "velocity": 0.7874015748031497
        },
        {
          "duration": 0.10000000000000053,
          "durationTicks": 20,
          "midi": 82,
          "name": "A#5",
          "ticks": 720,
          "time": 3.5999999999999996,
          "velocity": 0.47244094488188976
        },
        {
          "duration": 0.10000000000000009,
          "durationTicks": 20,
          "midi": 82,
          "name": "A#5",
          "ticks": 760,
          "time": 3.8,
          "velocity": 0.7874015748031497
        },
        {
          "duration": 0.10000000000000009,
          "durationTicks": 20,
          "midi": 62,
          "name": "D4",
          "ticks": 780,
          "time": 3.9,
          "velocity": 0.7874015748031497
        },
        {
          "duration": 0.09999999999999964,
          "durationTicks": 20,
          "midi": 28,
          "name": "E1",
          "ticks": 840,
          "time": 4.2,
          "velocity": 0.7874015748031497
        },
        {
          "duration": 0.09999999999999964,
          "durationTicks": 20,
          "midi": 62,
          "name": "D4",
          "ticks": 960,
          "time": 4.8,
          "velocity": 0.7874015748031497
        },
        {
          "duration": 0.09999999999999964,
          "durationTicks": 20,
          "midi": 62,
          "name": "D4",
          "ticks": 1020,
          "time": 5.1,
          "velocity": 0.7874015748031497
        },
        {
          "duration": 0.09999999999999964,
          "durationTicks": 20,
          "midi": 28,
          "name": "E1",
          "ticks": 1080,
          "time": 5.3999999999999995,
          "velocity": 0.7874015748031497
        },
        {
          "duration": 0.09999999999999964,
          "durationTicks": 20,
          "midi": 82,
          "name": "A#5",
          "ticks": 1140,
          "time": 5.7,
          "velocity": 0.47244094488188976
        },
        {
          "duration": 0.09999999999999964,
          "durationTicks": 20,
          "midi": 82,
          "name": "A#5",
          "ticks": 1180,
          "time": 5.9,
          "velocity": 0.7874015748031497
        },
        {
          "duration": 0.09999999999999964,
          "durationTicks": 20,
          "midi": 82,
          "name": "A#5",
          "ticks": 1200,
          "time": 6,
          "velocity": 0.47244094488188976
        },
        {
          "duration": 0.09999999999999964,
          "durationTicks": 20,
          "midi": 82,
          "name": "A#5",
          "ticks": 1240,
          "time": 6.2,
          "velocity": 0.7874015748031497
        },
        {
          "duration": 0.09999999999999964,
          "durationTicks": 20,
          "midi": 62,
          "name": "D4",
          "ticks": 1260,
          "time": 6.3,
          "velocity": 0.7874015748031497
        },
        {
          "duration": 0.09999999999999964,
          "durationTicks": 20,
          "midi": 28,
          "name": "E1",
          "ticks": 1320,
          "time": 6.6,
          "velocity": 0.7874015748031497
        },
        {
          "duration": 0.09999999999999964,
          "durationTicks": 20,
          "midi": 62,
          "name": "D4",
          "ticks": 1440,
          "time": 7.199999999999999,
          "velocity": 0.7874015748031497
        },
        {
          "duration": 0.09999999999999964,
          "durationTicks": 20,
          "midi": 62,
          "name": "D4",
          "ticks": 1500,
          "time": 7.5,
          "velocity": 0.7874015748031497
        },
        {
          "duration": 0.09999999999999964,
          "durationTicks": 20,
          "midi": 28,
          "name": "E1",
          "ticks": 1560,
          "time": 7.8,
          "velocity": 0.7874015748031497
        },
        {
          "duration": 0.09999999999999964,
          "durationTicks": 20,
          "midi": 82,
          "name": "A#5",
          "ticks": 1620,
          "time": 8.1,
          "velocity": 0.47244094488188976
        },
        {
          "duration": 0.09999999999999964,
          "durationTicks": 20,
          "midi": 82,
          "name": "A#5",
          "ticks": 1660,
          "time": 8.3,
          "velocity": 0.7874015748031497
        },
        {
          "duration": 0.09999999999999964,
          "durationTicks": 20,
          "midi": 82,
          "name": "A#5",
          "ticks": 1680,
          "time": 8.4,
          "velocity": 0.47244094488188976
        },
        {
          "duration": 0.09999999999999964,
          "durationTicks": 20,
          "midi": 82,
          "name": "A#5",
          "ticks": 1720,
          "time": 8.6,
          "velocity": 0.7874015748031497
        },
        {
          "duration": 0.09999999999999964,
          "durationTicks": 20,
          "midi": 62,
          "name": "D4",
          "ticks": 1740,
          "time": 8.7,
          "velocity": 0.7874015748031497
        },
        {
          "duration": 0.09999999999999964,
          "durationTicks": 20,
          "midi": 28,
          "name": "E1",
          "ticks": 1800,
          "time": 9,
          "velocity": 0.7874015748031497
        },
        {
          "duration": 0.10000000000000142,
          "durationTicks": 20,
          "midi": 62,
          "name": "D4",
          "ticks": 1920,
          "time": 9.6,
          "velocity": 0.7874015748031497
        },
        {
          "duration": 0.09999999999999964,
          "durationTicks": 20,
          "midi": 62,
          "name": "D4",
          "ticks": 1980,
          "time": 9.9,
          "velocity": 0.7874015748031497
        },
        {
          "duration": 0.10000000000000142,
          "durationTicks": 20,
          "midi": 28,
          "name": "E1",
          "ticks": 2040,
          "time": 10.2,
          "velocity": 0.7874015748031497
        },
        {
          "duration": 0.09999999999999964,
          "durationTicks": 20,
          "midi": 82,
          "name": "A#5",
          "ticks": 2100,
          "time": 10.5,
          "velocity": 0.47244094488188976
        },
        {
          "duration": 0.09999999999999964,
          "durationTicks": 20,
          "midi": 82,
          "name": "A#5",
          "ticks": 2140,
          "time": 10.7,
          "velocity": 0.7874015748031497
        },
        {
          "duration": 0.10000000000000142,
          "durationTicks": 20,
          "midi": 82,
          "name": "A#5",
          "ticks": 2160,
          "time": 10.799999999999999,
          "velocity": 0.47244094488188976
        },
        {
          "duration": 0.10000000000000142,
          "durationTicks": 20,
          "midi": 82,
          "name": "A#5",
          "ticks": 2200,
          "time": 10.999999999999998,
          "velocity": 0.7874015748031497
        },
        {
          "duration": 0.10000000000000142,
          "durationTicks": 20,
          "midi": 62,
          "name": "D4",
          "ticks": 2220,
          "time": 11.1,
          "velocity": 0.7874015748031497
        },
        {
          "duration": 0.09999999999999964,
          "durationTicks": 20,
          "midi": 28,
          "name": "E1",
          "ticks": 2280,
          "time": 11.4,
          "velocity": 0.7874015748031497
        },
        {
          "duration": 0.09999999999999964,
          "durationTicks": 20,
          "midi": 62,
          "name": "D4",
          "ticks": 2400,
          "time": 12,
          "velocity": 0.7874015748031497
        },
        {
          "duration": 0.10000000000000142,
          "durationTicks": 20,
          "midi": 62,
          "name": "D4",
          "ticks": 2460,
          "time": 12.299999999999999,
          "velocity": 0.7874015748031497
        },
        {
          "duration": 0.10000000000000142,
          "durationTicks": 20,
          "midi": 28,
          "name": "E1",
          "ticks": 2520,
          "time": 12.6,
          "velocity": 0.7874015748031497
        },
        {
          "duration": 0.09999999999999964,
          "durationTicks": 20,
          "midi": 82,
          "name": "A#5",
          "ticks": 2580,
          "time": 12.9,
          "velocity": 0.47244094488188976
        },
        {
          "duration": 0.09999999999999964,
          "durationTicks": 20,
          "midi": 82,
          "name": "A#5",
          "ticks": 2620,
          "time": 13.1,
          "velocity": 0.7874015748031497
        },
        {
          "duration": 0.10000000000000142,
          "durationTicks": 20,
          "midi": 82,
          "name": "A#5",
          "ticks": 2640,
          "time": 13.2,
          "velocity": 0.47244094488188976
        },
        {
          "duration": 0.10000000000000142,
          "durationTicks": 20,
          "midi": 82,
          "name": "A#5",
          "ticks": 2680,
          "time": 13.399999999999999,
          "velocity": 0.7874015748031497
        },
        {
          "duration": 0.09999999999999964,
          "durationTicks": 20,
          "midi": 62,
          "name": "D4",
          "ticks": 2700,
          "time": 13.5,
          "velocity": 0.7874015748031497
        },
        {
          "duration": 0.10000000000000142,
          "durationTicks": 20,
          "midi": 28,
          "name": "E1",
          "ticks": 2760,
          "time": 13.799999999999999,
          "velocity": 0.7874015748031497
        },
        {
          "duration": 0.10000000000000142,
          "durationTicks": 20,
          "midi": 62,
          "name": "D4",
          "ticks": 2880,
          "time": 14.399999999999999,
          "velocity": 0.7874015748031497
        },
        {
          "duration": 0.10000000000000142,
          "durationTicks": 20,
          "midi": 62,
          "name": "D4",
          "ticks": 2940,
          "time": 14.7,
          "velocity": 0.7874015748031497
        },
        {
          "duration": 0.09999999999999964,
          "durationTicks": 20,
          "midi": 28,
          "name": "E1",
          "ticks": 3000,
          "time": 15,
          "velocity": 0.7874015748031497
        },
        {
          "duration": 0.10000000000000142,
          "durationTicks": 20,
          "midi": 82,
          "name": "A#5",
          "ticks": 3060,
          "time": 15.299999999999999,
          "velocity": 0.47244094488188976
        },
        {
          "duration": 0.10000000000000142,
          "durationTicks": 20,
          "midi": 82,
          "name": "A#5",
          "ticks": 3100,
          "time": 15.499999999999998,
          "velocity": 0.7874015748031497
        },
        {
          "duration": 0.09999999999999964,
          "durationTicks": 20,
          "midi": 82,
          "name": "A#5",
          "ticks": 3120,
          "time": 15.6,
          "velocity": 0.47244094488188976
        },
        {
          "duration": 0.09999999999999964,
          "durationTicks": 20,
          "midi": 82,
          "name": "A#5",
          "ticks": 3160,
          "time": 15.799999999999999,
          "velocity": 0.7874015748031497
        },
        {
          "duration": 0.10000000000000142,
          "durationTicks": 20,
          "midi": 62,
          "name": "D4",
          "ticks": 3180,
          "time": 15.899999999999999,
          "velocity": 0.7874015748031497
        },
        {
          "duration": 0.10000000000000142,
          "durationTicks": 20,
          "midi": 28,
          "name": "E1",
          "ticks": 3240,
          "time": 16.2,
          "velocity": 0.7874015748031497
        },
        {
          "duration": 0.09999999999999787,
          "durationTicks": 20,
          "midi": 62,
          "name": "D4",
          "ticks": 3360,
          "time": 16.8,
          "velocity": 0.7874015748031497
        },
        {
          "duration": 0.10000000000000142,
          "durationTicks": 20,
          "midi": 62,
          "name": "D4",
          "ticks": 3420,
          "time": 17.099999999999998,
          "velocity": 0.7874015748031497
        },
        {
          "duration": 0.10000000000000142,
          "durationTicks": 20,
          "midi": 28,
          "name": "E1",
          "ticks": 3480,
          "time": 17.4,
          "velocity": 0.7874015748031497
        },
        {
          "duration": 0.10000000000000142,
          "durationTicks": 20,
          "midi": 82,
          "name": "A#5",
          "ticks": 3540,
          "time": 17.7,
          "velocity": 0.47244094488188976
        },
        {
          "duration": 0.10000000000000142,
          "durationTicks": 20,
          "midi": 82,
          "name": "A#5",
          "ticks": 3580,
          "time": 17.9,
          "velocity": 0.7874015748031497
        },
        {
          "duration": 0.10000000000000142,
          "durationTicks": 20,
          "midi": 82,
          "name": "A#5",
          "ticks": 3600,
          "time": 18,
          "velocity": 0.47244094488188976
        },
        {
          "duration": 0.10000000000000142,
          "durationTicks": 20,
          "midi": 82,
          "name": "A#5",
          "ticks": 3640,
          "time": 18.2,
          "velocity": 0.7874015748031497
        },
        {
          "duration": 0.09999999999999787,
          "durationTicks": 20,
          "midi": 62,
          "name": "D4",
          "ticks": 3660,
          "time": 18.3,
          "velocity": 0.7874015748031497
        },
        {
          "duration": 0.10000000000000142,
          "durationTicks": 20,
          "midi": 28,
          "name": "E1",
          "ticks": 3720,
          "time": 18.599999999999998,
          "velocity": 0.7874015748031497
        },
        {
          "duration": 0.09999999999999787,
          "durationTicks": 20,
          "midi": 62,
          "name": "D4",
          "ticks": 3840,
          "time": 19.2,
          "velocity": 0.7874015748031497
        },
        {
          "duration": 0.09999999999999787,
          "durationTicks": 20,
          "midi": 62,
          "name": "D4",
          "ticks": 3900,
          "time": 19.5,
          "velocity": 0.7874015748031497
        },
        {
          "duration": 0.09999999999999787,
          "durationTicks": 20,
          "midi": 28,
          "name": "E1",
          "ticks": 3960,
          "time": 19.8,
          "velocity": 0.7874015748031497
        },
        {
          "duration": 0.10000000000000142,
          "durationTicks": 20,
          "midi": 82,
          "name": "A#5",
          "ticks": 4020,
          "time": 20.099999999999998,
          "velocity": 0.47244094488188976
        },
        {
          "duration": 0.09999999999999787,
          "durationTicks": 20,
          "midi": 82,
          "name": "A#5",
          "ticks": 4060,
          "time": 20.3,
          "velocity": 0.7874015748031497
        },
        {
          "duration": 0.09999999999999787,
          "durationTicks": 20,
          "midi": 82,
          "name": "A#5",
          "ticks": 4080,
          "time": 20.4,
          "velocity": 0.47244094488188976
        },
        {
          "duration": 0.09999999999999787,
          "durationTicks": 20,
          "midi": 82,
          "name": "A#5",
          "ticks": 4120,
          "time": 20.6,
          "velocity": 0.7874015748031497
        },
        {
          "duration": 0.09999999999999787,
          "durationTicks": 20,
          "midi": 62,
          "name": "D4",
          "ticks": 4140,
          "time": 20.7,
          "velocity": 0.7874015748031497
        },
        {
          "duration": 0.09999999999999787,
          "durationTicks": 20,
          "midi": 28,
          "name": "E1",
          "ticks": 4200,
          "time": 21,
          "velocity": 0.7874015748031497
        },
        {
          "duration": 0.10000000000000142,
          "durationTicks": 20,
          "midi": 62,
          "name": "D4",
          "ticks": 4320,
          "time": 21.599999999999998,
          "velocity": 0.7874015748031497
        },
        {
          "duration": 0.09999999999999787,
          "durationTicks": 20,
          "midi": 62,
          "name": "D4",
          "ticks": 4380,
          "time": 21.9,
          "velocity": 0.7874015748031497
        },
        {
          "duration": 0.09999999999999787,
          "durationTicks": 20,
          "midi": 28,
          "name": "E1",
          "ticks": 4440,
          "time": 22.2,
          "velocity": 0.7874015748031497
        },
        {
          "duration": 0.09999999999999787,
          "durationTicks": 20,
          "midi": 82,
          "name": "A#5",
          "ticks": 4500,
          "time": 22.5,
          "velocity": 0.47244094488188976
        },
        {
          "duration": 0.10000000000000142,
          "durationTicks": 20,
          "midi": 82,
          "name": "A#5",
          "ticks": 4540,
          "time": 22.7,
          "velocity": 0.7874015748031497
        },
        {
          "duration": 0.09999999999999787,
          "durationTicks": 20,
          "midi": 82,
          "name": "A#5",
          "ticks": 4560,
          "time": 22.8,
          "velocity": 0.47244094488188976
        },
        {
          "duration": 0.09999999999999787,
          "durationTicks": 20,
          "midi": 82,
          "name": "A#5",
          "ticks": 4600,
          "time": 23,
          "velocity": 0.7874015748031497
        },
        {
          "duration": 0.10000000000000142,
          "durationTicks": 20,
          "midi": 62,
          "name": "D4",
          "ticks": 4620,
          "time": 23.099999999999998,
          "velocity": 0.7874015748031497
        },
        {
          "duration": 0.09999999999999787,
          "durationTicks": 20,
          "midi": 28,
          "name": "E1",
          "ticks": 4680,
          "time": 23.4,
          "velocity": 0.7874015748031497
        },
        {
          "duration": 0.09999999999999787,
          "durationTicks": 20,
          "midi": 62,
          "name": "D4",
          "ticks": 4800,
          "time": 24,
          "velocity": 0.7874015748031497
        },
        {
          "duration": 0.09999999999999787,
          "durationTicks": 20,
          "midi": 62,
          "name": "D4",
          "ticks": 4860,
          "time": 24.3,
          "velocity": 0.7874015748031497
        },
        {
          "duration": 0.10000000000000142,
          "durationTicks": 20,
          "midi": 28,
          "name": "E1",
          "ticks": 4920,
          "time": 24.599999999999998,
          "velocity": 0.7874015748031497
        },
        {
          "duration": 0.09999999999999787,
          "durationTicks": 20,
          "midi": 82,
          "name": "A#5",
          "ticks": 4980,
          "time": 24.9,
          "velocity": 0.47244094488188976
        },
        {
          "duration": 0.09999999999999787,
          "durationTicks": 20,
          "midi": 82,
          "name": "A#5",
          "ticks": 5020,
          "time": 25.1,
          "velocity": 0.7874015748031497
        },
        {
          "duration": 0.09999999999999787,
          "durationTicks": 20,
          "midi": 82,
          "name": "A#5",
          "ticks": 5040,
          "time": 25.2,
          "velocity": 0.47244094488188976
        },
        {
          "duration": 0.09999999999999787,
          "durationTicks": 20,
          "midi": 82,
          "name": "A#5",
          "ticks": 5080,
          "time": 25.400000000000002,
          "velocity": 0.7874015748031497
        },
        {
          "duration": 0.09999999999999787,
          "durationTicks": 20,
          "midi": 62,
          "name": "D4",
          "ticks": 5100,
          "time": 25.5,
          "velocity": 0.7874015748031497
        },
        {
          "duration": 0.09999999999999787,
          "durationTicks": 20,
          "midi": 28,
          "name": "E1",
          "ticks": 5160,
          "time": 25.8,
          "velocity": 0.7874015748031497
        },
        {
          "duration": 0.09999999999999787,
          "durationTicks": 20,
          "midi": 62,
          "name": "D4",
          "ticks": 5280,
          "time": 26.4,
          "velocity": 0.7874015748031497
        },
        {
          "duration": 0.09999999999999787,
          "durationTicks": 20,
          "midi": 62,
          "name": "D4",
          "ticks": 5340,
          "time": 26.7,
          "velocity": 0.7874015748031497
        },
        {
          "duration": 0.09999999999999787,
          "durationTicks": 20,
          "midi": 28,
          "name": "E1",
          "ticks": 5400,
          "time": 27,
          "velocity": 0.7874015748031497
        },
        {
          "duration": 0.09999999999999787,
          "durationTicks": 20,
          "midi": 82,
          "name": "A#5",
          "ticks": 5460,
          "time": 27.3,
          "velocity": 0.47244094488188976
        },
        {
          "duration": 0.09999999999999787,
          "durationTicks": 20,
          "midi": 82,
          "name": "A#5",
          "ticks": 5500,
          "time": 27.5,
          "velocity": 0.7874015748031497
        },
        {
          "duration": 0.10000000000000142,
          "durationTicks": 20,
          "midi": 82,
          "name": "A#5",
          "ticks": 5520,
          "time": 27.599999999999998,
          "velocity": 0.47244094488188976
        },
        {
          "duration": 0.09999999999999787,
          "durationTicks": 20,
          "midi": 82,
          "name": "A#5",
          "ticks": 5560,
          "time": 27.8,
          "velocity": 0.7874015748031497
        },
        {
          "duration": 0.09999999999999787,
          "durationTicks": 20,
          "midi": 62,
          "name": "D4",
          "ticks": 5580,
          "time": 27.9,
          "velocity": 0.7874015748031497
        },
        {
          "duration": 0.09999999999999787,
          "durationTicks": 20,
          "midi": 28,
          "name": "E1",
          "ticks": 5640,
          "time": 28.2,
          "velocity": 0.7874015748031497
        },
        {
          "duration": 0.10000000000000142,
          "durationTicks": 20,
          "midi": 62,
          "name": "D4",
          "ticks": 5760,
          "time": 28.799999999999997,
          "velocity": 0.7874015748031497
        },
        {
          "duration": 0.09999999999999787,
          "durationTicks": 20,
          "midi": 62,
          "name": "D4",
          "ticks": 5820,
          "time": 29.099999999999998,
          "velocity": 0.7874015748031497
        },
        {
          "duration": 0.09999999999999787,
          "durationTicks": 20,
          "midi": 28,
          "name": "E1",
          "ticks": 5880,
          "time": 29.4,
          "velocity": 0.7874015748031497
        },
        {
          "duration": 0.09999999999999787,
          "durationTicks": 20,
          "midi": 82,
          "name": "A#5",
          "ticks": 5940,
          "time": 29.7,
          "velocity": 0.47244094488188976
        },
        {
          "duration": 0.10000000000000142,
          "durationTicks": 20,
          "midi": 82,
          "name": "A#5",
          "ticks": 5980,
          "time": 29.9,
          "velocity": 0.7874015748031497
        },
        {
          "duration": 0.09999999999999787,
          "durationTicks": 20,
          "midi": 82,
          "name": "A#5",
          "ticks": 6000,
          "time": 30,
          "velocity": 0.47244094488188976
        },
        {
          "duration": 0.09999999999999787,
          "durationTicks": 20,
          "midi": 82,
          "name": "A#5",
          "ticks": 6040,
          "time": 30.2,
          "velocity": 0.7874015748031497
        },
        {
          "duration": 0.10000000000000142,
          "durationTicks": 20,
          "midi": 62,
          "name": "D4",
          "ticks": 6060,
          "time": 30.299999999999997,
          "velocity": 0.7874015748031497
        },
        {
          "duration": 0.09999999999999787,
          "durationTicks": 20,
          "midi": 28,
          "name": "E1",
          "ticks": 6120,
          "time": 30.599999999999998,
          "velocity": 0.7874015748031497
        },
        {
          "duration": 0.09999999999999787,
          "durationTicks": 20,
          "midi": 62,
          "name": "D4",
          "ticks": 6240,
          "time": 31.2,
          "velocity": 0.7874015748031497
        },
        {
          "duration": 0.09999999999999787,
          "durationTicks": 20,
          "midi": 62,
          "name": "D4",
          "ticks": 6300,
          "time": 31.5,
          "velocity": 0.7874015748031497
        },
        {
          "duration": 0.10000000000000142,
          "durationTicks": 20,
          "midi": 28,
          "name": "E1",
          "ticks": 6360,
          "time": 31.799999999999997,
          "velocity": 0.7874015748031497
        },
        {
          "duration": 0.09999999999999432,
          "durationTicks": 20,
          "midi": 82,
          "name": "A#5",
          "ticks": 6420,
          "time": 32.1,
          "velocity": 0.47244094488188976
        },
        {
          "duration": 0.10000000000000142,
          "durationTicks": 20,
          "midi": 82,
          "name": "A#5",
          "ticks": 6460,
          "time": 32.3,
          "velocity": 0.7874015748031497
        },
        {
          "duration": 0.10000000000000142,
          "durationTicks": 20,
          "midi": 82,
          "name": "A#5",
          "ticks": 6480,
          "time": 32.4,
          "velocity": 0.47244094488188976
        },
        {
          "duration": 0.09999999999999432,
          "durationTicks": 20,
          "midi": 82,
          "name": "A#5",
          "ticks": 6520,
          "time": 32.6,
          "velocity": 0.7874015748031497
        },
        {
          "duration": 0.10000000000000142,
          "durationTicks": 20,
          "midi": 62,
          "name": "D4",
          "ticks": 6540,
          "time": 32.699999999999996,
          "velocity": 0.7874015748031497
        },
        {
          "duration": 0.09999999999999432,
          "durationTicks": 20,
          "midi": 28,
          "name": "E1",
          "ticks": 6600,
          "time": 33,
          "velocity": 0.7874015748031497
        },
        {
          "duration": 0.09999999999999432,
          "durationTicks": 20,
          "midi": 62,
          "name": "D4",
          "ticks": 6720,
          "time": 33.6,
          "velocity": 0.7874015748031497
        },
        {
          "duration": 0.10000000000000142,
          "durationTicks": 20,
          "midi": 62,
          "name": "D4",
          "ticks": 6780,
          "time": 33.9,
          "velocity": 0.7874015748031497
        },
        {
          "duration": 0.10000000000000142,
          "durationTicks": 20,
          "midi": 28,
          "name": "E1",
          "ticks": 6840,
          "time": 34.199999999999996,
          "velocity": 0.7874015748031497
        },
        {
          "duration": 0.09999999999999432,
          "durationTicks": 20,
          "midi": 82,
          "name": "A#5",
          "ticks": 6900,
          "time": 34.5,
          "velocity": 0.47244094488188976
        },
        {
          "duration": 0.09999999999999432,
          "durationTicks": 20,
          "midi": 82,
          "name": "A#5",
          "ticks": 6940,
          "time": 34.7,
          "velocity": 0.7874015748031497
        },
        {
          "duration": 0.10000000000000142,
          "durationTicks": 20,
          "midi": 82,
          "name": "A#5",
          "ticks": 6960,
          "time": 34.8,
          "velocity": 0.47244094488188976
        },
        {
          "duration": 0.10000000000000142,
          "durationTicks": 20,
          "midi": 82,
          "name": "A#5",
          "ticks": 7000,
          "time": 35,
          "velocity": 0.7874015748031497
        },
        {
          "duration": 0.09999999999999432,
          "durationTicks": 20,
          "midi": 62,
          "name": "D4",
          "ticks": 7020,
          "time": 35.1,
          "velocity": 0.7874015748031497
        },
        {
          "duration": 0.10000000000000142,
          "durationTicks": 20,
          "midi": 28,
          "name": "E1",
          "ticks": 7080,
          "time": 35.4,
          "velocity": 0.7874015748031497
        },
        {
          "duration": 0.09999999999999432,
          "durationTicks": 20,
          "midi": 62,
          "name": "D4",
          "ticks": 7200,
          "time": 36,
          "velocity": 0.7874015748031497
        },
        {
          "duration": 0.10000000000000142,
          "durationTicks": 20,
          "midi": 62,
          "name": "D4",
          "ticks": 7260,
          "time": 36.3,
          "velocity": 0.7874015748031497
        },
        {
          "duration": 0.09999999999999432,
          "durationTicks": 20,
          "midi": 28,
          "name": "E1",
          "ticks": 7320,
          "time": 36.6,
          "velocity": 0.7874015748031497
        },
        {
          "duration": 0.10000000000000142,
          "durationTicks": 20,
          "midi": 82,
          "name": "A#5",
          "ticks": 7380,
          "time": 36.9,
          "velocity": 0.47244094488188976
        },
        {
          "duration": 0.09999999999999432,
          "durationTicks": 20,
          "midi": 82,
          "name": "A#5",
          "ticks": 7420,
          "time": 37.1,
          "velocity": 0.7874015748031497
        },
        {
          "duration": 0.10000000000000142,
          "durationTicks": 20,
          "midi": 82,
          "name": "A#5",
          "ticks": 7440,
          "time": 37.199999999999996,
          "velocity": 0.47244094488188976
        },
        {
          "duration": 0.10000000000000142,
          "durationTicks": 20,
          "midi": 82,
          "name": "A#5",
          "ticks": 7480,
          "time": 37.4,
          "velocity": 0.7874015748031497
        },
        {
          "duration": 0.09999999999999432,
          "durationTicks": 20,
          "midi": 62,
          "name": "D4",
          "ticks": 7500,
          "time": 37.5,
          "velocity": 0.7874015748031497
        },
        {
          "duration": 0.10000000000000142,
          "durationTicks": 20,
          "midi": 28,
          "name": "E1",
          "ticks": 7560,
          "time": 37.8,
          "velocity": 0.7874015748031497
        },
        {
          "duration": 0.10000000000000142,
          "durationTicks": 20,
          "midi": 62,
          "name": "D4",
          "ticks": 7680,
          "time": 38.4,
          "velocity": 0.7874015748031497
        },
        {
          "duration": 0.10000000000000853,
          "durationTicks": 20,
          "midi": 62,
          "name": "D4",
          "ticks": 7740,
          "time": 38.699999999999996,
          "velocity": 0.7874015748031497
        },
        {
          "duration": 0.10000000000000142,
          "durationTicks": 20,
          "midi": 28,
          "name": "E1",
          "ticks": 7800,
          "time": 39,
          "velocity": 0.7874015748031497
        },
        {
          "duration": 0.10000000000000142,
          "durationTicks": 20,
          "midi": 82,
          "name": "A#5",
          "ticks": 7860,
          "time": 39.3,
          "velocity": 0.47244094488188976
        },
        {
          "duration": 0.10000000000000853,
          "durationTicks": 20,
          "midi": 82,
          "name": "A#5",
          "ticks": 7900,
          "time": 39.49999999999999,
          "velocity": 0.7874015748031497
        },
        {
          "duration": 0.10000000000000142,
          "durationTicks": 20,
          "midi": 82,
          "name": "A#5",
          "ticks": 7920,
          "time": 39.6,
          "velocity": 0.47244094488188976
        },
        {
          "duration": 0.10000000000000142,
          "durationTicks": 20,
          "midi": 82,
          "name": "A#5",
          "ticks": 7960,
          "time": 39.8,
          "velocity": 0.7874015748031497
        },
        {
          "duration": 0.10000000000000142,
          "durationTicks": 20,
          "midi": 62,
          "name": "D4",
          "ticks": 7980,
          "time": 39.9,
          "velocity": 0.7874015748031497
        },
        {
          "duration": 0.10000000000000853,
          "durationTicks": 20,
          "midi": 28,
          "name": "E1",
          "ticks": 8040,
          "time": 40.199999999999996,
          "velocity": 0.7874015748031497
        },
        {
          "duration": 0.10000000000000142,
          "durationTicks": 20,
          "midi": 62,
          "name": "D4",
          "ticks": 8160,
          "time": 40.8,
          "velocity": 0.7874015748031497
        },
        {
          "duration": 0.10000000000000142,
          "durationTicks": 20,
          "midi": 62,
          "name": "D4",
          "ticks": 8220,
          "time": 41.1,
          "velocity": 0.7874015748031497
        },
        {
          "duration": 0.10000000000000142,
          "durationTicks": 20,
          "midi": 28,
          "name": "E1",
          "ticks": 8280,
          "time": 41.4,
          "velocity": 0.7874015748031497
        },
        {
          "duration": 0.10000000000000853,
          "durationTicks": 20,
          "midi": 82,
          "name": "A#5",
          "ticks": 8340,
          "time": 41.699999999999996,
          "velocity": 0.47244094488188976
        },
        {
          "duration": 0.10000000000000142,
          "durationTicks": 20,
          "midi": 82,
          "name": "A#5",
          "ticks": 8380,
          "time": 41.9,
          "velocity": 0.7874015748031497
        },
        {
          "duration": 0.10000000000000142,
          "durationTicks": 20,
          "midi": 82,
          "name": "A#5",
          "ticks": 8400,
          "time": 42,
          "velocity": 0.47244094488188976
        },
        {
          "duration": 0.10000000000000142,
          "durationTicks": 20,
          "midi": 82,
          "name": "A#5",
          "ticks": 8440,
          "time": 42.199999999999996,
          "velocity": 0.7874015748031497
        },
        {
          "duration": 0.10000000000000142,
          "durationTicks": 20,
          "midi": 62,
          "name": "D4",
          "ticks": 8460,
          "time": 42.3,
          "velocity": 0.7874015748031497
        },
        {
          "duration": 0.10000000000000142,
          "durationTicks": 20,
          "midi": 28,
          "name": "E1",
          "ticks": 8520,
          "time": 42.6,
          "velocity": 0.7874015748031497
        },
        {
          "duration": 0.10000000000000853,
          "durationTicks": 20,
          "midi": 62,
          "name": "D4",
          "ticks": 8640,
          "time": 43.199999999999996,
          "velocity": 0.7874015748031497
        },
        {
          "duration": 0.10000000000000142,
          "durationTicks": 20,
          "midi": 62,
          "name": "D4",
          "ticks": 8700,
          "time": 43.5,
          "velocity": 0.7874015748031497
        },
        {
          "duration": 0.10000000000000142,
          "durationTicks": 20,
          "midi": 28,
          "name": "E1",
          "ticks": 8760,
          "time": 43.8,
          "velocity": 0.7874015748031497
        },
        {
          "duration": 0.10000000000000142,
          "durationTicks": 20,
          "midi": 82,
          "name": "A#5",
          "ticks": 8820,
          "time": 44.1,
          "velocity": 0.47244094488188976
        },
        {
          "duration": 0.10000000000000142,
          "durationTicks": 20,
          "midi": 82,
          "name": "A#5",
          "ticks": 8860,
          "time": 44.3,
          "velocity": 0.7874015748031497
        },
        {
          "duration": 0.10000000000000142,
          "durationTicks": 20,
          "midi": 82,
          "name": "A#5",
          "ticks": 8880,
          "time": 44.4,
          "velocity": 0.47244094488188976
        },
        {
          "duration": 0.10000000000000142,
          "durationTicks": 20,
          "midi": 82,
          "name": "A#5",
          "ticks": 8920,
          "time": 44.599999999999994,
          "velocity": 0.7874015748031497
        },
        {
          "duration": 0.10000000000000853,
          "durationTicks": 20,
          "midi": 62,
          "name": "D4",
          "ticks": 8940,
          "time": 44.699999999999996,
          "velocity": 0.7874015748031497
        },
        {
          "duration": 0.10000000000000142,
          "durationTicks": 20,
          "midi": 28,
          "name": "E1",
          "ticks": 9000,
          "time": 45,
          "velocity": 0.7874015748031497
        },
        {
          "duration": 0.10000000000000142,
          "durationTicks": 20,
          "midi": 62,
          "name": "D4",
          "ticks": 9120,
          "time": 45.6,
          "velocity": 0.7874015748031497
        },
        {
          "duration": 0.10000000000000142,
          "durationTicks": 20,
          "midi": 62,
          "name": "D4",
          "ticks": 9180,
          "time": 45.9,
          "velocity": 0.7874015748031497
        },
        {
          "duration": 0.10000000000000853,
          "durationTicks": 20,
          "midi": 28,
          "name": "E1",
          "ticks": 9240,
          "time": 46.199999999999996,
          "velocity": 0.7874015748031497
        },
        {
          "duration": 0.10000000000000142,
          "durationTicks": 20,
          "midi": 82,
          "name": "A#5",
          "ticks": 9300,
          "time": 46.5,
          "velocity": 0.47244094488188976
        },
        {
          "duration": 0.10000000000000142,
          "durationTicks": 20,
          "midi": 82,
          "name": "A#5",
          "ticks": 9340,
          "time": 46.699999999999996,
          "velocity": 0.7874015748031497
        },
        {
          "duration": 0.10000000000000142,
          "durationTicks": 20,
          "midi": 82,
          "name": "A#5",
          "ticks": 9360,
          "time": 46.8,
          "velocity": 0.47244094488188976
        },
        {
          "duration": 0.10000000000000853,
          "durationTicks": 20,
          "midi": 82,
          "name": "A#5",
          "ticks": 9400,
          "time": 46.99999999999999,
          "velocity": 0.7874015748031497
        },
        {
          "duration": 0.10000000000000142,
          "durationTicks": 20,
          "midi": 62,
          "name": "D4",
          "ticks": 9420,
          "time": 47.1,
          "velocity": 0.7874015748031497
        },
        {
          "duration": 0.10000000000000142,
          "durationTicks": 20,
          "midi": 28,
          "name": "E1",
          "ticks": 9480,
          "time": 47.4,
          "velocity": 0.7874015748031497
        },
        {
          "duration": 0.10000000000000142,
          "durationTicks": 20,
          "midi": 62,
          "name": "D4",
          "ticks": 9600,
          "time": 48,
          "velocity": 0.7874015748031497
        },
        {
          "duration": 0.10000000000000142,
          "durationTicks": 20,
          "midi": 62,
          "name": "D4",
          "ticks": 9660,
          "time": 48.3,
          "velocity": 0.7874015748031497
        },
        {
          "duration": 0.10000000000000142,
          "durationTicks": 20,
          "midi": 28,
          "name": "E1",
          "ticks": 9720,
          "time": 48.6,
          "velocity": 0.7874015748031497
        },
        {
          "duration": 0.10000000000000142,
          "durationTicks": 20,
          "midi": 82,
          "name": "A#5",
          "ticks": 9780,
          "time": 48.9,
          "velocity": 0.47244094488188976
        },
        {
          "duration": 0.10000000000000142,
          "durationTicks": 20,
          "midi": 82,
          "name": "A#5",
          "ticks": 9820,
          "time": 49.099999999999994,
          "velocity": 0.7874015748031497
        },
        {
          "duration": 0.10000000000000853,
          "durationTicks": 20,
          "midi": 82,
          "name": "A#5",
          "ticks": 9840,
          "time": 49.199999999999996,
          "velocity": 0.47244094488188976
        },
        {
          "duration": 0.10000000000000142,
          "durationTicks": 20,
          "midi": 82,
          "name": "A#5",
          "ticks": 9880,
          "time": 49.4,
          "velocity": 0.7874015748031497
        },
        {
          "duration": 0.10000000000000142,
          "durationTicks": 20,
          "midi": 62,
          "name": "D4",
          "ticks": 9900,
          "time": 49.5,
          "velocity": 0.7874015748031497
        },
        {
          "duration": 0.10000000000000142,
          "durationTicks": 20,
          "midi": 28,
          "name": "E1",
          "ticks": 9960,
          "time": 49.8,
          "velocity": 0.7874015748031497
        },
        {
          "duration": 0.10000000000000142,
          "durationTicks": 20,
          "midi": 62,
          "name": "D4",
          "ticks": 10080,
          "time": 50.4,
          "velocity": 0.7874015748031497
        },
        {
          "duration": 0.10000000000000853,
          "durationTicks": 20,
          "midi": 62,
          "name": "D4",
          "ticks": 10140,
          "time": 50.699999999999996,
          "velocity": 0.7874015748031497
        },
        {
          "duration": 0.10000000000000142,
          "durationTicks": 20,
          "midi": 28,
          "name": "E1",
          "ticks": 10200,
          "time": 51,
          "velocity": 0.7874015748031497
        },
        {
          "duration": 0.10000000000000142,
          "durationTicks": 20,
          "midi": 82,
          "name": "A#5",
          "ticks": 10260,
          "time": 51.3,
          "velocity": 0.47244094488188976
        },
        {
          "duration": 0.10000000000000853,
          "durationTicks": 20,
          "midi": 82,
          "name": "A#5",
          "ticks": 10300,
          "time": 51.49999999999999,
          "velocity": 0.7874015748031497
        },
        {
          "duration": 0.10000000000000142,
          "durationTicks": 20,
          "midi": 82,
          "name": "A#5",
          "ticks": 10320,
          "time": 51.6,
          "velocity": 0.47244094488188976
        },
        {
          "duration": 0.10000000000000142,
          "durationTicks": 20,
          "midi": 82,
          "name": "A#5",
          "ticks": 10360,
          "time": 51.8,
          "velocity": 0.7874015748031497
        },
        {
          "duration": 0.10000000000000142,
          "durationTicks": 20,
          "midi": 62,
          "name": "D4",
          "ticks": 10380,
          "time": 51.9,
          "velocity": 0.7874015748031497
        },
        {
          "duration": 0.10000000000000853,
          "durationTicks": 20,
          "midi": 28,
          "name": "E1",
          "ticks": 10440,
          "time": 52.199999999999996,
          "velocity": 0.7874015748031497
        },
        {
          "duration": 0.10000000000000142,
          "durationTicks": 20,
          "midi": 62,
          "name": "D4",
          "ticks": 10560,
          "time": 52.8,
          "velocity": 0.7874015748031497
        },
        {
          "duration": 0.10000000000000142,
          "durationTicks": 20,
          "midi": 62,
          "name": "D4",
          "ticks": 10620,
          "time": 53.1,
          "velocity": 0.7874015748031497
        },
        {
          "duration": 0.10000000000000142,
          "durationTicks": 20,
          "midi": 28,
          "name": "E1",
          "ticks": 10680,
          "time": 53.4,
          "velocity": 0.7874015748031497
        },
        {
          "duration": 0.10000000000000853,
          "durationTicks": 20,
          "midi": 82,
          "name": "A#5",
          "ticks": 10740,
          "time": 53.699999999999996,
          "velocity": 0.47244094488188976
        },
        {
          "duration": 0.10000000000000142,
          "durationTicks": 20,
          "midi": 82,
          "name": "A#5",
          "ticks": 10780,
          "time": 53.9,
          "velocity": 0.7874015748031497
        },
        {
          "duration": 0.10000000000000142,
          "durationTicks": 20,
          "midi": 82,
          "name": "A#5",
          "ticks": 10800,
          "time": 54,
          "velocity": 0.47244094488188976
        },
        {
          "duration": 0.10000000000000142,
          "durationTicks": 20,
          "midi": 82,
          "name": "A#5",
          "ticks": 10840,
          "time": 54.199999999999996,
          "velocity": 0.7874015748031497
        },
        {
          "duration": 0.10000000000000142,
          "durationTicks": 20,
          "midi": 62,
          "name": "D4",
          "ticks": 10860,
          "time": 54.3,
          "velocity": 0.7874015748031497
        },
        {
          "duration": 0.10000000000000142,
          "durationTicks": 20,
          "midi": 28,
          "name": "E1",
          "ticks": 10920,
          "time": 54.6,
          "velocity": 0.7874015748031497
        },
        {
          "duration": 0.10000000000000853,
          "durationTicks": 20,
          "midi": 62,
          "name": "D4",
          "ticks": 11040,
          "time": 55.199999999999996,
          "velocity": 0.7874015748031497
        },
        {
          "duration": 0.10000000000000142,
          "durationTicks": 20,
          "midi": 62,
          "name": "D4",
          "ticks": 11100,
          "time": 55.5,
          "velocity": 0.7874015748031497
        },
        {
          "duration": 0.10000000000000142,
          "durationTicks": 20,
          "midi": 28,
          "name": "E1",
          "ticks": 11160,
          "time": 55.8,
          "velocity": 0.7874015748031497
        },
        {
          "duration": 0.10000000000000142,
          "durationTicks": 20,
          "midi": 82,
          "name": "A#5",
          "ticks": 11220,
          "time": 56.1,
          "velocity": 0.47244094488188976
        },
        {
          "duration": 0.10000000000000142,
          "durationTicks": 20,
          "midi": 82,
          "name": "A#5",
          "ticks": 11260,
          "time": 56.3,
          "velocity": 0.7874015748031497
        },
        {
          "duration": 0.10000000000000142,
          "durationTicks": 20,
          "midi": 82,
          "name": "A#5",
          "ticks": 11280,
          "time": 56.4,
          "velocity": 0.47244094488188976
        },
        {
          "duration": 0.10000000000000142,
          "durationTicks": 20,
          "midi": 82,
          "name": "A#5",
          "ticks": 11320,
          "time": 56.599999999999994,
          "velocity": 0.7874015748031497
        },
        {
          "duration": 0.10000000000000853,
          "durationTicks": 20,
          "midi": 62,
          "name": "D4",
          "ticks": 11340,
          "time": 56.699999999999996,
          "velocity": 0.7874015748031497
        },
        {
          "duration": 0.10000000000000142,
          "durationTicks": 20,
          "midi": 28,
          "name": "E1",
          "ticks": 11400,
          "time": 57,
          "velocity": 0.7874015748031497
        },
        {
          "duration": 0.10000000000000142,
          "durationTicks": 20,
          "midi": 82,
          "name": "A#5",
          "ticks": 11700,
          "time": 58.5,
          "velocity": 0.47244094488188976
        },
        {
          "duration": 0.10000000000000142,
          "durationTicks": 20,
          "midi": 82,
          "name": "A#5",
          "ticks": 11740,
          "time": 58.699999999999996,
          "velocity": 0.7874015748031497
        },
        {
          "duration": 0.10000000000000142,
          "durationTicks": 20,
          "midi": 82,
          "name": "A#5",
          "ticks": 11760,
          "time": 58.8,
          "velocity": 0.47244094488188976
        },
        {
          "duration": 0.10000000000000142,
          "durationTicks": 20,
          "midi": 82,
          "name": "A#5",
          "ticks": 11800,
          "time": 58.99999999999999,
          "velocity": 0.7874015748031497
        },
        {
          "duration": 0.10000000000000853,
          "durationTicks": 20,
          "midi": 82,
          "name": "A#5",
          "ticks": 11820,
          "time": 59.099999999999994,
          "velocity": 0.47244094488188976
        },
        {
          "duration": 0.10000000000000142,
          "durationTicks": 20,
          "midi": 28,
          "name": "E1",
          "ticks": 11880,
          "time": 59.4,
          "velocity": 0.7874015748031497
        },
        {
          "duration": 0.10000000000000142,
          "durationTicks": 20,
          "midi": 62,
          "name": "D4",
          "ticks": 12000,
          "time": 60,
          "velocity": 0.7874015748031497
        },
        {
          "duration": 0.14999999999999858,
          "durationTicks": 30,
          "midi": 36,
          "name": "C2",
          "ticks": 12000,
          "time": 60,
          "velocity": 0.7874015748031497
        },
        {
          "duration": 0.10000000000000142,
          "durationTicks": 20,
          "midi": 62,
          "name": "D4",
          "ticks": 12060,
          "time": 60.3,
          "velocity": 0.7874015748031497
        },
        {
          "duration": 0.14999999999999858,
          "durationTicks": 30,
          "midi": 44,
          "name": "G#2",
          "ticks": 12060,
          "time": 60.3,
          "velocity": 0.7874015748031497
        },
        {
          "duration": 0.10000000000000853,
          "durationTicks": 20,
          "midi": 28,
          "name": "E1",
          "ticks": 12120,
          "time": 60.599999999999994,
          "velocity": 0.7874015748031497
        },
        {
          "duration": 0.15000000000000568,
          "durationTicks": 30,
          "midi": 36,
          "name": "C2",
          "ticks": 12120,
          "time": 60.599999999999994,
          "velocity": 0.7874015748031497
        },
        {
          "duration": 0.14999999999999858,
          "durationTicks": 30,
          "midi": 44,
          "name": "G#2",
          "ticks": 12180,
          "time": 60.9,
          "velocity": 0.7874015748031497
        },
        {
          "duration": 0.10000000000000142,
          "durationTicks": 20,
          "midi": 82,
          "name": "A#5",
          "ticks": 12180,
          "time": 60.9,
          "velocity": 0.47244094488188976
        },
        {
          "duration": 0.10000000000000142,
          "durationTicks": 20,
          "midi": 82,
          "name": "A#5",
          "ticks": 12220,
          "time": 61.099999999999994,
          "velocity": 0.7874015748031497
        },
        {
          "duration": 0.14999999999999858,
          "durationTicks": 30,
          "midi": 36,
          "name": "C2",
          "ticks": 12240,
          "time": 61.199999999999996,
          "velocity": 0.7874015748031497
        },
        {
          "duration": 0.10000000000000142,
          "durationTicks": 20,
          "midi": 82,
          "name": "A#5",
          "ticks": 12240,
          "time": 61.199999999999996,
          "velocity": 0.47244094488188976
        },
        {
          "duration": 0.10000000000000853,
          "durationTicks": 20,
          "midi": 82,
          "name": "A#5",
          "ticks": 12280,
          "time": 61.39999999999999,
          "velocity": 0.7874015748031497
        },
        {
          "duration": 0.10000000000000142,
          "durationTicks": 20,
          "midi": 62,
          "name": "D4",
          "ticks": 12300,
          "time": 61.5,
          "velocity": 0.7874015748031497
        },
        {
          "duration": 0.14999999999999858,
          "durationTicks": 30,
          "midi": 44,
          "name": "G#2",
          "ticks": 12300,
          "time": 61.5,
          "velocity": 0.7874015748031497
        },
        {
          "duration": 0.10000000000000142,
          "durationTicks": 20,
          "midi": 28,
          "name": "E1",
          "ticks": 12360,
          "time": 61.8,
          "velocity": 0.7874015748031497
        },
        {
          "duration": 0.14999999999999858,
          "durationTicks": 30,
          "midi": 36,
          "name": "C2",
          "ticks": 12360,
          "time": 61.8,
          "velocity": 0.7874015748031497
        },
        {
          "duration": 0.15000000000000568,
          "durationTicks": 30,
          "midi": 44,
          "name": "G#2",
          "ticks": 12420,
          "time": 62.099999999999994,
          "velocity": 0.7874015748031497
        },
        {
          "duration": 0.10000000000000142,
          "durationTicks": 20,
          "midi": 62,
          "name": "D4",
          "ticks": 12480,
          "time": 62.4,
          "velocity": 0.7874015748031497
        },
        {
          "duration": 0.14999999999999858,
          "durationTicks": 30,
          "midi": 36,
          "name": "C2",
          "ticks": 12480,
          "time": 62.4,
          "velocity": 0.7874015748031497
        },
        {
          "duration": 0.10000000000000142,
          "durationTicks": 20,
          "midi": 62,
          "name": "D4",
          "ticks": 12540,
          "time": 62.699999999999996,
          "velocity": 0.7874015748031497
        },
        {
          "duration": 0.14999999999999858,
          "durationTicks": 30,
          "midi": 44,
          "name": "G#2",
          "ticks": 12540,
          "time": 62.699999999999996,
          "velocity": 0.7874015748031497
        },
        {
          "duration": 0.10000000000000142,
          "durationTicks": 20,
          "midi": 28,
          "name": "E1",
          "ticks": 12600,
          "time": 63,
          "velocity": 0.7874015748031497
        },
        {
          "duration": 0.14999999999999858,
          "durationTicks": 30,
          "midi": 36,
          "name": "C2",
          "ticks": 12600,
          "time": 63,
          "velocity": 0.7874015748031497
        },
        {
          "duration": 0.14999999999999858,
          "durationTicks": 30,
          "midi": 44,
          "name": "G#2",
          "ticks": 12660,
          "time": 63.3,
          "velocity": 0.7874015748031497
        },
        {
          "duration": 0.10000000000000142,
          "durationTicks": 20,
          "midi": 82,
          "name": "A#5",
          "ticks": 12660,
          "time": 63.3,
          "velocity": 0.47244094488188976
        },
        {
          "duration": 0.10000000000000142,
          "durationTicks": 20,
          "midi": 82,
          "name": "A#5",
          "ticks": 12700,
          "time": 63.49999999999999,
          "velocity": 0.7874015748031497
        },
        {
          "duration": 0.15000000000000568,
          "durationTicks": 30,
          "midi": 36,
          "name": "C2",
          "ticks": 12720,
          "time": 63.599999999999994,
          "velocity": 0.7874015748031497
        },
        {
          "duration": 0.10000000000000853,
          "durationTicks": 20,
          "midi": 82,
          "name": "A#5",
          "ticks": 12720,
          "time": 63.599999999999994,
          "velocity": 0.47244094488188976
        },
        {
          "duration": 0.10000000000000142,
          "durationTicks": 20,
          "midi": 82,
          "name": "A#5",
          "ticks": 12760,
          "time": 63.8,
          "velocity": 0.7874015748031497
        },
        {
          "duration": 0.10000000000000142,
          "durationTicks": 20,
          "midi": 62,
          "name": "D4",
          "ticks": 12780,
          "time": 63.9,
          "velocity": 0.7874015748031497
        },
        {
          "duration": 0.14999999999999858,
          "durationTicks": 30,
          "midi": 44,
          "name": "G#2",
          "ticks": 12780,
          "time": 63.9,
          "velocity": 0.7874015748031497
        },
        {
          "duration": 0.09999999999999432,
          "durationTicks": 20,
          "midi": 28,
          "name": "E1",
          "ticks": 12840,
          "time": 64.2,
          "velocity": 0.7874015748031497
        },
        {
          "duration": 0.14999999999999147,
          "durationTicks": 30,
          "midi": 36,
          "name": "C2",
          "ticks": 12840,
          "time": 64.2,
          "velocity": 0.7874015748031497
        },
        {
          "duration": 0.14999999999999147,
          "durationTicks": 30,
          "midi": 44,
          "name": "G#2",
          "ticks": 12900,
          "time": 64.5,
          "velocity": 0.7874015748031497
        },
        {
          "duration": 0.10000000000000853,
          "durationTicks": 20,
          "midi": 62,
          "name": "D4",
          "ticks": 12960,
          "time": 64.8,
          "velocity": 0.7874015748031497
        },
        {
          "duration": 0.15000000000000568,
          "durationTicks": 30,
          "midi": 36,
          "name": "C2",
          "ticks": 12960,
          "time": 64.8,
          "velocity": 0.7874015748031497
        },
        {
          "duration": 0.10000000000000853,
          "durationTicks": 20,
          "midi": 62,
          "name": "D4",
          "ticks": 13020,
          "time": 65.1,
          "velocity": 0.7874015748031497
        },
        {
          "duration": 0.15000000000000568,
          "durationTicks": 30,
          "midi": 44,
          "name": "G#2",
          "ticks": 13020,
          "time": 65.1,
          "velocity": 0.7874015748031497
        },
        {
          "duration": 0.10000000000000853,
          "durationTicks": 20,
          "midi": 28,
          "name": "E1",
          "ticks": 13080,
          "time": 65.39999999999999,
          "velocity": 0.7874015748031497
        },
        {
          "duration": 0.15000000000000568,
          "durationTicks": 30,
          "midi": 36,
          "name": "C2",
          "ticks": 13080,
          "time": 65.39999999999999,
          "velocity": 0.7874015748031497
        },
        {
          "duration": 0.14999999999999147,
          "durationTicks": 30,
          "midi": 44,
          "name": "G#2",
          "ticks": 13140,
          "time": 65.7,
          "velocity": 0.7874015748031497
        },
        {
          "duration": 0.09999999999999432,
          "durationTicks": 20,
          "midi": 82,
          "name": "A#5",
          "ticks": 13140,
          "time": 65.7,
          "velocity": 0.47244094488188976
        },
        {
          "duration": 0.10000000000000853,
          "durationTicks": 20,
          "midi": 82,
          "name": "A#5",
          "ticks": 13180,
          "time": 65.89999999999999,
          "velocity": 0.7874015748031497
        },
        {
          "duration": 0.14999999999999147,
          "durationTicks": 30,
          "midi": 36,
          "name": "C2",
          "ticks": 13200,
          "time": 66,
          "velocity": 0.7874015748031497
        },
        {
          "duration": 0.09999999999999432,
          "durationTicks": 20,
          "midi": 82,
          "name": "A#5",
          "ticks": 13200,
          "time": 66,
          "velocity": 0.47244094488188976
        },
        {
          "duration": 0.10000000000000853,
          "durationTicks": 20,
          "midi": 82,
          "name": "A#5",
          "ticks": 13240,
          "time": 66.19999999999999,
          "velocity": 0.7874015748031497
        },
        {
          "duration": 0.10000000000000853,
          "durationTicks": 20,
          "midi": 62,
          "name": "D4",
          "ticks": 13260,
          "time": 66.3,
          "velocity": 0.7874015748031497
        },
        {
          "duration": 0.15000000000000568,
          "durationTicks": 30,
          "midi": 44,
          "name": "G#2",
          "ticks": 13260,
          "time": 66.3,
          "velocity": 0.7874015748031497
        },
        {
          "duration": 0.10000000000000853,
          "durationTicks": 20,
          "midi": 28,
          "name": "E1",
          "ticks": 13320,
          "time": 66.6,
          "velocity": 0.7874015748031497
        },
        {
          "duration": 0.15000000000000568,
          "durationTicks": 30,
          "midi": 36,
          "name": "C2",
          "ticks": 13320,
          "time": 66.6,
          "velocity": 0.7874015748031497
        },
        {
          "duration": 0.15000000000000568,
          "durationTicks": 30,
          "midi": 44,
          "name": "G#2",
          "ticks": 13380,
          "time": 66.89999999999999,
          "velocity": 0.7874015748031497
        },
        {
          "duration": 0.09999999999999432,
          "durationTicks": 20,
          "midi": 62,
          "name": "D4",
          "ticks": 13440,
          "time": 67.2,
          "velocity": 0.7874015748031497
        },
        {
          "duration": 0.14999999999999147,
          "durationTicks": 30,
          "midi": 36,
          "name": "C2",
          "ticks": 13440,
          "time": 67.2,
          "velocity": 0.7874015748031497
        },
        {
          "duration": 0.09999999999999432,
          "durationTicks": 20,
          "midi": 62,
          "name": "D4",
          "ticks": 13500,
          "time": 67.5,
          "velocity": 0.7874015748031497
        },
        {
          "duration": 0.14999999999999147,
          "durationTicks": 30,
          "midi": 44,
          "name": "G#2",
          "ticks": 13500,
          "time": 67.5,
          "velocity": 0.7874015748031497
        },
        {
          "duration": 0.10000000000000853,
          "durationTicks": 20,
          "midi": 28,
          "name": "E1",
          "ticks": 13560,
          "time": 67.8,
          "velocity": 0.7874015748031497
        },
        {
          "duration": 0.15000000000000568,
          "durationTicks": 30,
          "midi": 36,
          "name": "C2",
          "ticks": 13560,
          "time": 67.8,
          "velocity": 0.7874015748031497
        },
        {
          "duration": 0.15000000000000568,
          "durationTicks": 30,
          "midi": 44,
          "name": "G#2",
          "ticks": 13620,
          "time": 68.1,
          "velocity": 0.7874015748031497
        },
        {
          "duration": 0.10000000000000853,
          "durationTicks": 20,
          "midi": 82,
          "name": "A#5",
          "ticks": 13620,
          "time": 68.1,
          "velocity": 0.47244094488188976
        },
        {
          "duration": 0.09999999999999432,
          "durationTicks": 20,
          "midi": 82,
          "name": "A#5",
          "ticks": 13660,
          "time": 68.3,
          "velocity": 0.7874015748031497
        },
        {
          "duration": 0.15000000000000568,
          "durationTicks": 30,
          "midi": 36,
          "name": "C2",
          "ticks": 13680,
          "time": 68.39999999999999,
          "velocity": 0.7874015748031497
        },
        {
          "duration": 0.10000000000000853,
          "durationTicks": 20,
          "midi": 82,
          "name": "A#5",
          "ticks": 13680,
          "time": 68.39999999999999,
          "velocity": 0.47244094488188976
        },
        {
          "duration": 0.10000000000000853,
          "durationTicks": 20,
          "midi": 82,
          "name": "A#5",
          "ticks": 13720,
          "time": 68.6,
          "velocity": 0.7874015748031497
        },
        {
          "duration": 0.09999999999999432,
          "durationTicks": 20,
          "midi": 62,
          "name": "D4",
          "ticks": 13740,
          "time": 68.7,
          "velocity": 0.7874015748031497
        },
        {
          "duration": 0.14999999999999147,
          "durationTicks": 30,
          "midi": 44,
          "name": "G#2",
          "ticks": 13740,
          "time": 68.7,
          "velocity": 0.7874015748031497
        },
        {
          "duration": 0.09999999999999432,
          "durationTicks": 20,
          "midi": 28,
          "name": "E1",
          "ticks": 13800,
          "time": 69,
          "velocity": 0.7874015748031497
        },
        {
          "duration": 0.14999999999999147,
          "durationTicks": 30,
          "midi": 36,
          "name": "C2",
          "ticks": 13800,
          "time": 69,
          "velocity": 0.7874015748031497
        },
        {
          "duration": 0.15000000000000568,
          "durationTicks": 30,
          "midi": 44,
          "name": "G#2",
          "ticks": 13860,
          "time": 69.3,
          "velocity": 0.7874015748031497
        },
        {
          "duration": 0.10000000000000853,
          "durationTicks": 20,
          "midi": 62,
          "name": "D4",
          "ticks": 13920,
          "time": 69.6,
          "velocity": 0.7874015748031497
        },
        {
          "duration": 0.15000000000000568,
          "durationTicks": 30,
          "midi": 36,
          "name": "C2",
          "ticks": 13920,
          "time": 69.6,
          "velocity": 0.7874015748031497
        },
        {
          "duration": 0.10000000000000853,
          "durationTicks": 20,
          "midi": 62,
          "name": "D4",
          "ticks": 13980,
          "time": 69.89999999999999,
          "velocity": 0.7874015748031497
        },
        {
          "duration": 0.15000000000000568,
          "durationTicks": 30,
          "midi": 44,
          "name": "G#2",
          "ticks": 13980,
          "time": 69.89999999999999,
          "velocity": 0.7874015748031497
        },
        {
          "duration": 0.09999999999999432,
          "durationTicks": 20,
          "midi": 28,
          "name": "E1",
          "ticks": 14040,
          "time": 70.2,
          "velocity": 0.7874015748031497
        },
        {
          "duration": 0.14999999999999147,
          "durationTicks": 30,
          "midi": 36,
          "name": "C2",
          "ticks": 14040,
          "time": 70.2,
          "velocity": 0.7874015748031497
        },
        {
          "duration": 0.14999999999999147,
          "durationTicks": 30,
          "midi": 44,
          "name": "G#2",
          "ticks": 14100,
          "time": 70.5,
          "velocity": 0.7874015748031497
        },
        {
          "duration": 0.09999999999999432,
          "durationTicks": 20,
          "midi": 82,
          "name": "A#5",
          "ticks": 14100,
          "time": 70.5,
          "velocity": 0.47244094488188976
        },
        {
          "duration": 0.10000000000000853,
          "durationTicks": 20,
          "midi": 82,
          "name": "A#5",
          "ticks": 14140,
          "time": 70.69999999999999,
          "velocity": 0.7874015748031497
        },
        {
          "duration": 0.15000000000000568,
          "durationTicks": 30,
          "midi": 36,
          "name": "C2",
          "ticks": 14160,
          "time": 70.8,
          "velocity": 0.7874015748031497
        },
        {
          "duration": 0.10000000000000853,
          "durationTicks": 20,
          "midi": 82,
          "name": "A#5",
          "ticks": 14160,
          "time": 70.8,
          "velocity": 0.47244094488188976
        },
        {
          "duration": 0.09999999999999432,
          "durationTicks": 20,
          "midi": 82,
          "name": "A#5",
          "ticks": 14200,
          "time": 71,
          "velocity": 0.7874015748031497
        },
        {
          "duration": 0.10000000000000853,
          "durationTicks": 20,
          "midi": 62,
          "name": "D4",
          "ticks": 14220,
          "time": 71.1,
          "velocity": 0.7874015748031497
        },
        {
          "duration": 0.15000000000000568,
          "durationTicks": 30,
          "midi": 44,
          "name": "G#2",
          "ticks": 14220,
          "time": 71.1,
          "velocity": 0.7874015748031497
        },
        {
          "duration": 0.10000000000000853,
          "durationTicks": 20,
          "midi": 28,
          "name": "E1",
          "ticks": 14280,
          "time": 71.39999999999999,
          "velocity": 0.7874015748031497
        },
        {
          "duration": 0.15000000000000568,
          "durationTicks": 30,
          "midi": 36,
          "name": "C2",
          "ticks": 14280,
          "time": 71.39999999999999,
          "velocity": 0.7874015748031497
        },
        {
          "duration": 0.14999999999999147,
          "durationTicks": 30,
          "midi": 44,
          "name": "G#2",
          "ticks": 14340,
          "time": 71.7,
          "velocity": 0.7874015748031497
        },
        {
          "duration": 0.09999999999999432,
          "durationTicks": 20,
          "midi": 62,
          "name": "D4",
          "ticks": 14400,
          "time": 72,
          "velocity": 0.7874015748031497
        },
        {
          "duration": 0.14999999999999147,
          "durationTicks": 30,
          "midi": 36,
          "name": "C2",
          "ticks": 14400,
          "time": 72,
          "velocity": 0.7874015748031497
        },
        {
          "duration": 0.10000000000000853,
          "durationTicks": 20,
          "midi": 62,
          "name": "D4",
          "ticks": 14460,
          "time": 72.3,
          "velocity": 0.7874015748031497
        },
        {
          "duration": 0.15000000000000568,
          "durationTicks": 30,
          "midi": 44,
          "name": "G#2",
          "ticks": 14460,
          "time": 72.3,
          "velocity": 0.7874015748031497
        },
        {
          "duration": 0.10000000000000853,
          "durationTicks": 20,
          "midi": 28,
          "name": "E1",
          "ticks": 14520,
          "time": 72.6,
          "velocity": 0.7874015748031497
        },
        {
          "duration": 0.15000000000000568,
          "durationTicks": 30,
          "midi": 36,
          "name": "C2",
          "ticks": 14520,
          "time": 72.6,
          "velocity": 0.7874015748031497
        },
        {
          "duration": 0.15000000000000568,
          "durationTicks": 30,
          "midi": 44,
          "name": "G#2",
          "ticks": 14580,
          "time": 72.89999999999999,
          "velocity": 0.7874015748031497
        },
        {
          "duration": 0.10000000000000853,
          "durationTicks": 20,
          "midi": 82,
          "name": "A#5",
          "ticks": 14580,
          "time": 72.89999999999999,
          "velocity": 0.47244094488188976
        },
        {
          "duration": 0.10000000000000853,
          "durationTicks": 20,
          "midi": 82,
          "name": "A#5",
          "ticks": 14620,
          "time": 73.1,
          "velocity": 0.7874015748031497
        },
        {
          "duration": 0.14999999999999147,
          "durationTicks": 30,
          "midi": 36,
          "name": "C2",
          "ticks": 14640,
          "time": 73.2,
          "velocity": 0.7874015748031497
        },
        {
          "duration": 0.09999999999999432,
          "durationTicks": 20,
          "midi": 82,
          "name": "A#5",
          "ticks": 14640,
          "time": 73.2,
          "velocity": 0.47244094488188976
        },
        {
          "duration": 0.10000000000000853,
          "durationTicks": 20,
          "midi": 82,
          "name": "A#5",
          "ticks": 14680,
          "time": 73.39999999999999,
          "velocity": 0.7874015748031497
        },
        {
          "duration": 0.09999999999999432,
          "durationTicks": 20,
          "midi": 62,
          "name": "D4",
          "ticks": 14700,
          "time": 73.5,
          "velocity": 0.7874015748031497
        },
        {
          "duration": 0.14999999999999147,
          "durationTicks": 30,
          "midi": 44,
          "name": "G#2",
          "ticks": 14700,
          "time": 73.5,
          "velocity": 0.7874015748031497
        },
        {
          "duration": 0.10000000000000853,
          "durationTicks": 20,
          "midi": 28,
          "name": "E1",
          "ticks": 14760,
          "time": 73.8,
          "velocity": 0.7874015748031497
        },
        {
          "duration": 0.15000000000000568,
          "durationTicks": 30,
          "midi": 36,
          "name": "C2",
          "ticks": 14760,
          "time": 73.8,
          "velocity": 0.7874015748031497
        },
        {
          "duration": 0.15000000000000568,
          "durationTicks": 30,
          "midi": 44,
          "name": "G#2",
          "ticks": 14820,
          "time": 74.1,
          "velocity": 0.7874015748031497
        },
        {
          "duration": 0.10000000000000853,
          "durationTicks": 20,
          "midi": 62,
          "name": "D4",
          "ticks": 14880,
          "time": 74.39999999999999,
          "velocity": 0.7874015748031497
        },
        {
          "duration": 0.15000000000000568,
          "durationTicks": 30,
          "midi": 36,
          "name": "C2",
          "ticks": 14880,
          "time": 74.39999999999999,
          "velocity": 0.7874015748031497
        },
        {
          "duration": 0.09999999999999432,
          "durationTicks": 20,
          "midi": 62,
          "name": "D4",
          "ticks": 14940,
          "time": 74.7,
          "velocity": 0.7874015748031497
        },
        {
          "duration": 0.14999999999999147,
          "durationTicks": 30,
          "midi": 44,
          "name": "G#2",
          "ticks": 14940,
          "time": 74.7,
          "velocity": 0.7874015748031497
        },
        {
          "duration": 0.09999999999999432,
          "durationTicks": 20,
          "midi": 28,
          "name": "E1",
          "ticks": 15000,
          "time": 75,
          "velocity": 0.7874015748031497
        },
        {
          "duration": 0.14999999999999147,
          "durationTicks": 30,
          "midi": 36,
          "name": "C2",
          "ticks": 15000,
          "time": 75,
          "velocity": 0.7874015748031497
        },
        {
          "duration": 0.15000000000000568,
          "durationTicks": 30,
          "midi": 44,
          "name": "G#2",
          "ticks": 15060,
          "time": 75.3,
          "velocity": 0.7874015748031497
        },
        {
          "duration": 0.10000000000000853,
          "durationTicks": 20,
          "midi": 82,
          "name": "A#5",
          "ticks": 15060,
          "time": 75.3,
          "velocity": 0.47244094488188976
        },
        {
          "duration": 0.09999999999999432,
          "durationTicks": 20,
          "midi": 82,
          "name": "A#5",
          "ticks": 15100,
          "time": 75.5,
          "velocity": 0.7874015748031497
        },
        {
          "duration": 0.15000000000000568,
          "durationTicks": 30,
          "midi": 36,
          "name": "C2",
          "ticks": 15120,
          "time": 75.6,
          "velocity": 0.7874015748031497
        },
        {
          "duration": 0.10000000000000853,
          "durationTicks": 20,
          "midi": 82,
          "name": "A#5",
          "ticks": 15120,
          "time": 75.6,
          "velocity": 0.47244094488188976
        },
        {
          "duration": 0.09999999999999432,
          "durationTicks": 20,
          "midi": 82,
          "name": "A#5",
          "ticks": 15160,
          "time": 75.8,
          "velocity": 0.7874015748031497
        },
        {
          "duration": 0.10000000000000853,
          "durationTicks": 20,
          "midi": 62,
          "name": "D4",
          "ticks": 15180,
          "time": 75.89999999999999,
          "velocity": 0.7874015748031497
        },
        {
          "duration": 0.15000000000000568,
          "durationTicks": 30,
          "midi": 44,
          "name": "G#2",
          "ticks": 15180,
          "time": 75.89999999999999,
          "velocity": 0.7874015748031497
        },
        {
          "duration": 0.09999999999999432,
          "durationTicks": 20,
          "midi": 28,
          "name": "E1",
          "ticks": 15240,
          "time": 76.2,
          "velocity": 0.7874015748031497
        },
        {
          "duration": 0.14999999999999147,
          "durationTicks": 30,
          "midi": 36,
          "name": "C2",
          "ticks": 15240,
          "time": 76.2,
          "velocity": 0.7874015748031497
        },
        {
          "duration": 0.14999999999999147,
          "durationTicks": 30,
          "midi": 44,
          "name": "G#2",
          "ticks": 15300,
          "time": 76.5,
          "velocity": 0.7874015748031497
        },
        {
          "duration": 0.09999999999999432,
          "durationTicks": 20,
          "midi": 62,
          "name": "D4",
          "ticks": 15360,
          "time": 76.8,
          "velocity": 0.7874015748031497
        },
        {
          "duration": 0.15000000000000568,
          "durationTicks": 30,
          "midi": 36,
          "name": "C2",
          "ticks": 15360,
          "time": 76.8,
          "velocity": 0.7874015748031497
        },
        {
          "duration": 0.09999999999999432,
          "durationTicks": 20,
          "midi": 62,
          "name": "D4",
          "ticks": 15420,
          "time": 77.1,
          "velocity": 0.7874015748031497
        },
        {
          "duration": 0.15000000000000568,
          "durationTicks": 30,
          "midi": 44,
          "name": "G#2",
          "ticks": 15420,
          "time": 77.1,
          "velocity": 0.7874015748031497
        },
        {
          "duration": 0.09999999999999432,
          "durationTicks": 20,
          "midi": 28,
          "name": "E1",
          "ticks": 15480,
          "time": 77.39999999999999,
          "velocity": 0.7874015748031497
        },
        {
          "duration": 0.15000000000000568,
          "durationTicks": 30,
          "midi": 36,
          "name": "C2",
          "ticks": 15480,
          "time": 77.39999999999999,
          "velocity": 0.7874015748031497
        },
        {
          "duration": 0.14999999999999147,
          "durationTicks": 30,
          "midi": 44,
          "name": "G#2",
          "ticks": 15540,
          "time": 77.7,
          "velocity": 0.7874015748031497
        },
        {
          "duration": 0.09999999999999432,
          "durationTicks": 20,
          "midi": 82,
          "name": "A#5",
          "ticks": 15540,
          "time": 77.7,
          "velocity": 0.47244094488188976
        },
        {
          "duration": 0.09999999999999432,
          "durationTicks": 20,
          "midi": 82,
          "name": "A#5",
          "ticks": 15580,
          "time": 77.9,
          "velocity": 0.7874015748031497
        },
        {
          "duration": 0.14999999999999147,
          "durationTicks": 30,
          "midi": 36,
          "name": "C2",
          "ticks": 15600,
          "time": 78,
          "velocity": 0.7874015748031497
        },
        {
          "duration": 0.09999999999999432,
          "durationTicks": 20,
          "midi": 82,
          "name": "A#5",
          "ticks": 15600,
          "time": 78,
          "velocity": 0.47244094488188976
        },
        {
          "duration": 0.09999999999999432,
          "durationTicks": 20,
          "midi": 82,
          "name": "A#5",
          "ticks": 15640,
          "time": 78.2,
          "velocity": 0.7874015748031497
        },
        {
          "duration": 0.09999999999999432,
          "durationTicks": 20,
          "midi": 62,
          "name": "D4",
          "ticks": 15660,
          "time": 78.3,
          "velocity": 0.7874015748031497
        },
        {
          "duration": 0.15000000000000568,
          "durationTicks": 30,
          "midi": 44,
          "name": "G#2",
          "ticks": 15660,
          "time": 78.3,
          "velocity": 0.7874015748031497
        },
        {
          "duration": 0.09999999999999432,
          "durationTicks": 20,
          "midi": 28,
          "name": "E1",
          "ticks": 15720,
          "time": 78.6,
          "velocity": 0.7874015748031497
        },
        {
          "duration": 0.15000000000000568,
          "durationTicks": 30,
          "midi": 36,
          "name": "C2",
          "ticks": 15720,
          "time": 78.6,
          "velocity": 0.7874015748031497
        },
        {
          "duration": 0.09999999999999432,
          "durationTicks": 20,
          "midi": 62,
          "name": "D4",
          "ticks": 15840,
          "time": 79.2,
          "velocity": 0.7874015748031497
        },
        {
          "duration": 0.14999999999999147,
          "durationTicks": 30,
          "midi": 36,
          "name": "C2",
          "ticks": 15840,
          "time": 79.2,
          "velocity": 0.7874015748031497
        },
        {
          "duration": 0.09999999999999432,
          "durationTicks": 20,
          "midi": 62,
          "name": "D4",
          "ticks": 15900,
          "time": 79.5,
          "velocity": 0.7874015748031497
        },
        {
          "duration": 0.14999999999999147,
          "durationTicks": 30,
          "midi": 44,
          "name": "G#2",
          "ticks": 15900,
          "time": 79.5,
          "velocity": 0.7874015748031497
        },
        {
          "duration": 0.09999999999999432,
          "durationTicks": 20,
          "midi": 28,
          "name": "E1",
          "ticks": 15960,
          "time": 79.8,
          "velocity": 0.7874015748031497
        },
        {
          "duration": 0.15000000000000568,
          "durationTicks": 30,
          "midi": 36,
          "name": "C2",
          "ticks": 15960,
          "time": 79.8,
          "velocity": 0.7874015748031497
        },
        {
          "duration": 0.15000000000000568,
          "durationTicks": 30,
          "midi": 44,
          "name": "G#2",
          "ticks": 16020,
          "time": 80.1,
          "velocity": 0.7874015748031497
        },
        {
          "duration": 0.09999999999999432,
          "durationTicks": 20,
          "midi": 82,
          "name": "A#5",
          "ticks": 16020,
          "time": 80.1,
          "velocity": 0.47244094488188976
        },
        {
          "duration": 0.09999999999999432,
          "durationTicks": 20,
          "midi": 82,
          "name": "A#5",
          "ticks": 16060,
          "time": 80.3,
          "velocity": 0.7874015748031497
        },
        {
          "duration": 0.15000000000000568,
          "durationTicks": 30,
          "midi": 36,
          "name": "C2",
          "ticks": 16080,
          "time": 80.39999999999999,
          "velocity": 0.7874015748031497
        },
        {
          "duration": 0.09999999999999432,
          "durationTicks": 20,
          "midi": 82,
          "name": "A#5",
          "ticks": 16080,
          "time": 80.39999999999999,
          "velocity": 0.47244094488188976
        },
        {
          "duration": 0.09999999999999432,
          "durationTicks": 20,
          "midi": 82,
          "name": "A#5",
          "ticks": 16120,
          "time": 80.60000000000001,
          "velocity": 0.7874015748031497
        },
        {
          "duration": 0.09999999999999432,
          "durationTicks": 20,
          "midi": 62,
          "name": "D4",
          "ticks": 16140,
          "time": 80.7,
          "velocity": 0.7874015748031497
        },
        {
          "duration": 0.14999999999999147,
          "durationTicks": 30,
          "midi": 44,
          "name": "G#2",
          "ticks": 16140,
          "time": 80.7,
          "velocity": 0.7874015748031497
        },
        {
          "duration": 0.09999999999999432,
          "durationTicks": 20,
          "midi": 28,
          "name": "E1",
          "ticks": 16200,
          "time": 81,
          "velocity": 0.7874015748031497
        },
        {
          "duration": 0.14999999999999147,
          "durationTicks": 30,
          "midi": 36,
          "name": "C2",
          "ticks": 16200,
          "time": 81,
          "velocity": 0.7874015748031497
        },
        {
          "duration": 0.15000000000000568,
          "durationTicks": 30,
          "midi": 44,
          "name": "G#2",
          "ticks": 16260,
          "time": 81.3,
          "velocity": 0.7874015748031497
        },
        {
          "duration": 0.09999999999999432,
          "durationTicks": 20,
          "midi": 62,
          "name": "D4",
          "ticks": 16320,
          "time": 81.6,
          "velocity": 0.7874015748031497
        },
        {
          "duration": 0.15000000000000568,
          "durationTicks": 30,
          "midi": 36,
          "name": "C2",
          "ticks": 16320,
          "time": 81.6,
          "velocity": 0.7874015748031497
        },
        {
          "duration": 0.09999999999999432,
          "durationTicks": 20,
          "midi": 62,
          "name": "D4",
          "ticks": 16380,
          "time": 81.89999999999999,
          "velocity": 0.7874015748031497
        },
        {
          "duration": 0.15000000000000568,
          "durationTicks": 30,
          "midi": 44,
          "name": "G#2",
          "ticks": 16380,
          "time": 81.89999999999999,
          "velocity": 0.7874015748031497
        },
        {
          "duration": 0.09999999999999432,
          "durationTicks": 20,
          "midi": 28,
          "name": "E1",
          "ticks": 16440,
          "time": 82.2,
          "velocity": 0.7874015748031497
        },
        {
          "duration": 0.14999999999999147,
          "durationTicks": 30,
          "midi": 36,
          "name": "C2",
          "ticks": 16440,
          "time": 82.2,
          "velocity": 0.7874015748031497
        },
        {
          "duration": 0.14999999999999147,
          "durationTicks": 30,
          "midi": 44,
          "name": "G#2",
          "ticks": 16500,
          "time": 82.5,
          "velocity": 0.7874015748031497
        },
        {
          "duration": 0.09999999999999432,
          "durationTicks": 20,
          "midi": 82,
          "name": "A#5",
          "ticks": 16500,
          "time": 82.5,
          "velocity": 0.47244094488188976
        },
        {
          "duration": 0.09999999999999432,
          "durationTicks": 20,
          "midi": 82,
          "name": "A#5",
          "ticks": 16540,
          "time": 82.7,
          "velocity": 0.7874015748031497
        },
        {
          "duration": 0.15000000000000568,
          "durationTicks": 30,
          "midi": 36,
          "name": "C2",
          "ticks": 16560,
          "time": 82.8,
          "velocity": 0.7874015748031497
        },
        {
          "duration": 0.09999999999999432,
          "durationTicks": 20,
          "midi": 82,
          "name": "A#5",
          "ticks": 16560,
          "time": 82.8,
          "velocity": 0.47244094488188976
        },
        {
          "duration": 0.09999999999999432,
          "durationTicks": 20,
          "midi": 82,
          "name": "A#5",
          "ticks": 16600,
          "time": 83,
          "velocity": 0.7874015748031497
        },
        {
          "duration": 0.09999999999999432,
          "durationTicks": 20,
          "midi": 62,
          "name": "D4",
          "ticks": 16620,
          "time": 83.1,
          "velocity": 0.7874015748031497
        },
        {
          "duration": 0.15000000000000568,
          "durationTicks": 30,
          "midi": 44,
          "name": "G#2",
          "ticks": 16620,
          "time": 83.1,
          "velocity": 0.7874015748031497
        },
        {
          "duration": 0.09999999999999432,
          "durationTicks": 20,
          "midi": 28,
          "name": "E1",
          "ticks": 16680,
          "time": 83.39999999999999,
          "velocity": 0.7874015748031497
        },
        {
          "duration": 0.15000000000000568,
          "durationTicks": 30,
          "midi": 36,
          "name": "C2",
          "ticks": 16680,
          "time": 83.39999999999999,
          "velocity": 0.7874015748031497
        },
        {
          "duration": 0.14999999999999147,
          "durationTicks": 30,
          "midi": 44,
          "name": "G#2",
          "ticks": 16740,
          "time": 83.7,
          "velocity": 0.7874015748031497
        },
        {
          "duration": 0.09999999999999432,
          "durationTicks": 20,
          "midi": 62,
          "name": "D4",
          "ticks": 16800,
          "time": 84,
          "velocity": 0.7874015748031497
        },
        {
          "duration": 0.14999999999999147,
          "durationTicks": 30,
          "midi": 36,
          "name": "C2",
          "ticks": 16800,
          "time": 84,
          "velocity": 0.7874015748031497
        },
        {
          "duration": 0.09999999999999432,
          "durationTicks": 20,
          "midi": 62,
          "name": "D4",
          "ticks": 16860,
          "time": 84.3,
          "velocity": 0.7874015748031497
        },
        {
          "duration": 0.15000000000000568,
          "durationTicks": 30,
          "midi": 44,
          "name": "G#2",
          "ticks": 16860,
          "time": 84.3,
          "velocity": 0.7874015748031497
        },
        {
          "duration": 0.09999999999999432,
          "durationTicks": 20,
          "midi": 28,
          "name": "E1",
          "ticks": 16920,
          "time": 84.6,
          "velocity": 0.7874015748031497
        },
        {
          "duration": 0.15000000000000568,
          "durationTicks": 30,
          "midi": 36,
          "name": "C2",
          "ticks": 16920,
          "time": 84.6,
          "velocity": 0.7874015748031497
        },
        {
          "duration": 0.15000000000000568,
          "durationTicks": 30,
          "midi": 44,
          "name": "G#2",
          "ticks": 16980,
          "time": 84.89999999999999,
          "velocity": 0.7874015748031497
        },
        {
          "duration": 0.09999999999999432,
          "durationTicks": 20,
          "midi": 82,
          "name": "A#5",
          "ticks": 16980,
          "time": 84.89999999999999,
          "velocity": 0.47244094488188976
        },
        {
          "duration": 0.09999999999999432,
          "durationTicks": 20,
          "midi": 82,
          "name": "A#5",
          "ticks": 17020,
          "time": 85.10000000000001,
          "velocity": 0.7874015748031497
        },
        {
          "duration": 0.14999999999999147,
          "durationTicks": 30,
          "midi": 36,
          "name": "C2",
          "ticks": 17040,
          "time": 85.2,
          "velocity": 0.7874015748031497
        },
        {
          "duration": 0.09999999999999432,
          "durationTicks": 20,
          "midi": 82,
          "name": "A#5",
          "ticks": 17040,
          "time": 85.2,
          "velocity": 0.47244094488188976
        },
        {
          "duration": 0.09999999999999432,
          "durationTicks": 20,
          "midi": 82,
          "name": "A#5",
          "ticks": 17080,
          "time": 85.4,
          "velocity": 0.7874015748031497
        },
        {
          "duration": 0.09999999999999432,
          "durationTicks": 20,
          "midi": 62,
          "name": "D4",
          "ticks": 17100,
          "time": 85.5,
          "velocity": 0.7874015748031497
        },
        {
          "duration": 0.14999999999999147,
          "durationTicks": 30,
          "midi": 44,
          "name": "G#2",
          "ticks": 17100,
          "time": 85.5,
          "velocity": 0.7874015748031497
        },
        {
          "duration": 0.09999999999999432,
          "durationTicks": 20,
          "midi": 28,
          "name": "E1",
          "ticks": 17160,
          "time": 85.8,
          "velocity": 0.7874015748031497
        },
        {
          "duration": 0.15000000000000568,
          "durationTicks": 30,
          "midi": 36,
          "name": "C2",
          "ticks": 17160,
          "time": 85.8,
          "velocity": 0.7874015748031497
        },
        {
          "duration": 0.15000000000000568,
          "durationTicks": 30,
          "midi": 44,
          "name": "G#2",
          "ticks": 17220,
          "time": 86.1,
          "velocity": 0.7874015748031497
        },
        {
          "duration": 0.09999999999999432,
          "durationTicks": 20,
          "midi": 62,
          "name": "D4",
          "ticks": 17280,
          "time": 86.39999999999999,
          "velocity": 0.7874015748031497
        },
        {
          "duration": 0.15000000000000568,
          "durationTicks": 30,
          "midi": 36,
          "name": "C2",
          "ticks": 17280,
          "time": 86.39999999999999,
          "velocity": 0.7874015748031497
        },
        {
          "duration": 0.09999999999999432,
          "durationTicks": 20,
          "midi": 62,
          "name": "D4",
          "ticks": 17340,
          "time": 86.7,
          "velocity": 0.7874015748031497
        },
        {
          "duration": 0.14999999999999147,
          "durationTicks": 30,
          "midi": 44,
          "name": "G#2",
          "ticks": 17340,
          "time": 86.7,
          "velocity": 0.7874015748031497
        },
        {
          "duration": 0.09999999999999432,
          "durationTicks": 20,
          "midi": 28,
          "name": "E1",
          "ticks": 17400,
          "time": 87,
          "velocity": 0.7874015748031497
        },
        {
          "duration": 0.14999999999999147,
          "durationTicks": 30,
          "midi": 36,
          "name": "C2",
          "ticks": 17400,
          "time": 87,
          "velocity": 0.7874015748031497
        },
        {
          "duration": 0.15000000000000568,
          "durationTicks": 30,
          "midi": 44,
          "name": "G#2",
          "ticks": 17460,
          "time": 87.3,
          "velocity": 0.7874015748031497
        },
        {
          "duration": 0.09999999999999432,
          "durationTicks": 20,
          "midi": 82,
          "name": "A#5",
          "ticks": 17460,
          "time": 87.3,
          "velocity": 0.47244094488188976
        },
        {
          "duration": 0.09999999999999432,
          "durationTicks": 20,
          "midi": 82,
          "name": "A#5",
          "ticks": 17500,
          "time": 87.5,
          "velocity": 0.7874015748031497
        },
        {
          "duration": 0.15000000000000568,
          "durationTicks": 30,
          "midi": 36,
          "name": "C2",
          "ticks": 17520,
          "time": 87.6,
          "velocity": 0.7874015748031497
        },
        {
          "duration": 0.09999999999999432,
          "durationTicks": 20,
          "midi": 82,
          "name": "A#5",
          "ticks": 17520,
          "time": 87.6,
          "velocity": 0.47244094488188976
        },
        {
          "duration": 0.09999999999999432,
          "durationTicks": 20,
          "midi": 82,
          "name": "A#5",
          "ticks": 17560,
          "time": 87.8,
          "velocity": 0.7874015748031497
        },
        {
          "duration": 0.09999999999999432,
          "durationTicks": 20,
          "midi": 62,
          "name": "D4",
          "ticks": 17580,
          "time": 87.89999999999999,
          "velocity": 0.7874015748031497
        },
        {
          "duration": 0.15000000000000568,
          "durationTicks": 30,
          "midi": 44,
          "name": "G#2",
          "ticks": 17580,
          "time": 87.89999999999999,
          "velocity": 0.7874015748031497
        },
        {
          "duration": 0.09999999999999432,
          "durationTicks": 20,
          "midi": 28,
          "name": "E1",
          "ticks": 17640,
          "time": 88.2,
          "velocity": 0.7874015748031497
        },
        {
          "duration": 0.14999999999999147,
          "durationTicks": 30,
          "midi": 36,
          "name": "C2",
          "ticks": 17640,
          "time": 88.2,
          "velocity": 0.7874015748031497
        },
        {
          "duration": 0.14999999999999147,
          "durationTicks": 30,
          "midi": 44,
          "name": "G#2",
          "ticks": 17700,
          "time": 88.5,
          "velocity": 0.7874015748031497
        },
        {
          "duration": 0.09999999999999432,
          "durationTicks": 20,
          "midi": 62,
          "name": "D4",
          "ticks": 17760,
          "time": 88.8,
          "velocity": 0.7874015748031497
        },
        {
          "duration": 0.15000000000000568,
          "durationTicks": 30,
          "midi": 36,
          "name": "C2",
          "ticks": 17760,
          "time": 88.8,
          "velocity": 0.7874015748031497
        },
        {
          "duration": 0.09999999999999432,
          "durationTicks": 20,
          "midi": 62,
          "name": "D4",
          "ticks": 17820,
          "time": 89.1,
          "velocity": 0.7874015748031497
        },
        {
          "duration": 0.15000000000000568,
          "durationTicks": 30,
          "midi": 44,
          "name": "G#2",
          "ticks": 17820,
          "time": 89.1,
          "velocity": 0.7874015748031497
        },
        {
          "duration": 0.09999999999999432,
          "durationTicks": 20,
          "midi": 28,
          "name": "E1",
          "ticks": 17880,
          "time": 89.39999999999999,
          "velocity": 0.7874015748031497
        },
        {
          "duration": 0.15000000000000568,
          "durationTicks": 30,
          "midi": 36,
          "name": "C2",
          "ticks": 17880,
          "time": 89.39999999999999,
          "velocity": 0.7874015748031497
        },
        {
          "duration": 0.14999999999999147,
          "durationTicks": 30,
          "midi": 44,
          "name": "G#2",
          "ticks": 17940,
          "time": 89.7,
          "velocity": 0.7874015748031497
        },
        {
          "duration": 0.09999999999999432,
          "durationTicks": 20,
          "midi": 82,
          "name": "A#5",
          "ticks": 17940,
          "time": 89.7,
          "velocity": 0.47244094488188976
        },
        {
          "duration": 0.09999999999999432,
          "durationTicks": 20,
          "midi": 82,
          "name": "A#5",
          "ticks": 17980,
          "time": 89.9,
          "velocity": 0.7874015748031497
        },
        {
          "duration": 0.14999999999999147,
          "durationTicks": 30,
          "midi": 36,
          "name": "C2",
          "ticks": 18000,
          "time": 90,
          "velocity": 0.7874015748031497
        },
        {
          "duration": 0.09999999999999432,
          "durationTicks": 20,
          "midi": 82,
          "name": "A#5",
          "ticks": 18000,
          "time": 90,
          "velocity": 0.47244094488188976
        },
        {
          "duration": 0.09999999999999432,
          "durationTicks": 20,
          "midi": 82,
          "name": "A#5",
          "ticks": 18040,
          "time": 90.2,
          "velocity": 0.7874015748031497
        },
        {
          "duration": 0.09999999999999432,
          "durationTicks": 20,
          "midi": 62,
          "name": "D4",
          "ticks": 18060,
          "time": 90.3,
          "velocity": 0.7874015748031497
        },
        {
          "duration": 0.15000000000000568,
          "durationTicks": 30,
          "midi": 44,
          "name": "G#2",
          "ticks": 18060,
          "time": 90.3,
          "velocity": 0.7874015748031497
        },
        {
          "duration": 0.09999999999999432,
          "durationTicks": 20,
          "midi": 28,
          "name": "E1",
          "ticks": 18120,
          "time": 90.6,
          "velocity": 0.7874015748031497
        },
        {
          "duration": 0.15000000000000568,
          "durationTicks": 30,
          "midi": 36,
          "name": "C2",
          "ticks": 18120,
          "time": 90.6,
          "velocity": 0.7874015748031497
        },
        {
          "duration": 0.15000000000000568,
          "durationTicks": 30,
          "midi": 44,
          "name": "G#2",
          "ticks": 18180,
          "time": 90.89999999999999,
          "velocity": 0.7874015748031497
        },
        {
          "duration": 0.09999999999999432,
          "durationTicks": 20,
          "midi": 62,
          "name": "D4",
          "ticks": 18240,
          "time": 91.2,
          "velocity": 0.7874015748031497
        },
        {
          "duration": 0.14999999999999147,
          "durationTicks": 30,
          "midi": 36,
          "name": "C2",
          "ticks": 18240,
          "time": 91.2,
          "velocity": 0.7874015748031497
        },
        {
          "duration": 0.09999999999999432,
          "durationTicks": 20,
          "midi": 62,
          "name": "D4",
          "ticks": 18300,
          "time": 91.5,
          "velocity": 0.7874015748031497
        },
        {
          "duration": 0.14999999999999147,
          "durationTicks": 30,
          "midi": 44,
          "name": "G#2",
          "ticks": 18300,
          "time": 91.5,
          "velocity": 0.7874015748031497
        },
        {
          "duration": 0.09999999999999432,
          "durationTicks": 20,
          "midi": 28,
          "name": "E1",
          "ticks": 18360,
          "time": 91.8,
          "velocity": 0.7874015748031497
        },
        {
          "duration": 0.15000000000000568,
          "durationTicks": 30,
          "midi": 36,
          "name": "C2",
          "ticks": 18360,
          "time": 91.8,
          "velocity": 0.7874015748031497
        },
        {
          "duration": 0.15000000000000568,
          "durationTicks": 30,
          "midi": 44,
          "name": "G#2",
          "ticks": 18420,
          "time": 92.1,
          "velocity": 0.7874015748031497
        },
        {
          "duration": 0.09999999999999432,
          "durationTicks": 20,
          "midi": 82,
          "name": "A#5",
          "ticks": 18420,
          "time": 92.1,
          "velocity": 0.47244094488188976
        },
        {
          "duration": 0.09999999999999432,
          "durationTicks": 20,
          "midi": 82,
          "name": "A#5",
          "ticks": 18460,
          "time": 92.3,
          "velocity": 0.7874015748031497
        },
        {
          "duration": 0.15000000000000568,
          "durationTicks": 30,
          "midi": 36,
          "name": "C2",
          "ticks": 18480,
          "time": 92.39999999999999,
          "velocity": 0.7874015748031497
        },
        {
          "duration": 0.09999999999999432,
          "durationTicks": 20,
          "midi": 82,
          "name": "A#5",
          "ticks": 18480,
          "time": 92.39999999999999,
          "velocity": 0.47244094488188976
        },
        {
          "duration": 0.09999999999999432,
          "durationTicks": 20,
          "midi": 82,
          "name": "A#5",
          "ticks": 18520,
          "time": 92.60000000000001,
          "velocity": 0.7874015748031497
        },
        {
          "duration": 0.09999999999999432,
          "durationTicks": 20,
          "midi": 62,
          "name": "D4",
          "ticks": 18540,
          "time": 92.7,
          "velocity": 0.7874015748031497
        },
        {
          "duration": 0.14999999999999147,
          "durationTicks": 30,
          "midi": 44,
          "name": "G#2",
          "ticks": 18540,
          "time": 92.7,
          "velocity": 0.7874015748031497
        },
        {
          "duration": 0.09999999999999432,
          "durationTicks": 20,
          "midi": 28,
          "name": "E1",
          "ticks": 18600,
          "time": 93,
          "velocity": 0.7874015748031497
        },
        {
          "duration": 0.14999999999999147,
          "durationTicks": 30,
          "midi": 36,
          "name": "C2",
          "ticks": 18600,
          "time": 93,
          "velocity": 0.7874015748031497
        },
        {
          "duration": 0.15000000000000568,
          "durationTicks": 30,
          "midi": 44,
          "name": "G#2",
          "ticks": 18660,
          "time": 93.3,
          "velocity": 0.7874015748031497
        },
        {
          "duration": 0.09999999999999432,
          "durationTicks": 20,
          "midi": 62,
          "name": "D4",
          "ticks": 18720,
          "time": 93.6,
          "velocity": 0.7874015748031497
        },
        {
          "duration": 0.15000000000000568,
          "durationTicks": 30,
          "midi": 36,
          "name": "C2",
          "ticks": 18720,
          "time": 93.6,
          "velocity": 0.7874015748031497
        },
        {
          "duration": 0.09999999999999432,
          "durationTicks": 20,
          "midi": 62,
          "name": "D4",
          "ticks": 18780,
          "time": 93.89999999999999,
          "velocity": 0.7874015748031497
        },
        {
          "duration": 0.15000000000000568,
          "durationTicks": 30,
          "midi": 44,
          "name": "G#2",
          "ticks": 18780,
          "time": 93.89999999999999,
          "velocity": 0.7874015748031497
        },
        {
          "duration": 0.09999999999999432,
          "durationTicks": 20,
          "midi": 28,
          "name": "E1",
          "ticks": 18840,
          "time": 94.2,
          "velocity": 0.7874015748031497
        },
        {
          "duration": 0.14999999999999147,
          "durationTicks": 30,
          "midi": 36,
          "name": "C2",
          "ticks": 18840,
          "time": 94.2,
          "velocity": 0.7874015748031497
        },
        {
          "duration": 0.14999999999999147,
          "durationTicks": 30,
          "midi": 44,
          "name": "G#2",
          "ticks": 18900,
          "time": 94.5,
          "velocity": 0.7874015748031497
        },
        {
          "duration": 0.09999999999999432,
          "durationTicks": 20,
          "midi": 82,
          "name": "A#5",
          "ticks": 18900,
          "time": 94.5,
          "velocity": 0.47244094488188976
        },
        {
          "duration": 0.09999999999999432,
          "durationTicks": 20,
          "midi": 82,
          "name": "A#5",
          "ticks": 18940,
          "time": 94.7,
          "velocity": 0.7874015748031497
        },
        {
          "duration": 0.15000000000000568,
          "durationTicks": 30,
          "midi": 36,
          "name": "C2",
          "ticks": 18960,
          "time": 94.8,
          "velocity": 0.7874015748031497
        },
        {
          "duration": 0.09999999999999432,
          "durationTicks": 20,
          "midi": 82,
          "name": "A#5",
          "ticks": 18960,
          "time": 94.8,
          "velocity": 0.47244094488188976
        },
        {
          "duration": 0.09999999999999432,
          "durationTicks": 20,
          "midi": 82,
          "name": "A#5",
          "ticks": 19000,
          "time": 95,
          "velocity": 0.7874015748031497
        },
        {
          "duration": 0.09999999999999432,
          "durationTicks": 20,
          "midi": 62,
          "name": "D4",
          "ticks": 19020,
          "time": 95.1,
          "velocity": 0.7874015748031497
        },
        {
          "duration": 0.15000000000000568,
          "durationTicks": 30,
          "midi": 44,
          "name": "G#2",
          "ticks": 19020,
          "time": 95.1,
          "velocity": 0.7874015748031497
        },
        {
          "duration": 0.09999999999999432,
          "durationTicks": 20,
          "midi": 28,
          "name": "E1",
          "ticks": 19080,
          "time": 95.39999999999999,
          "velocity": 0.7874015748031497
        },
        {
          "duration": 0.15000000000000568,
          "durationTicks": 30,
          "midi": 36,
          "name": "C2",
          "ticks": 19080,
          "time": 95.39999999999999,
          "velocity": 0.7874015748031497
        },
        {
          "duration": 0.14999999999999147,
          "durationTicks": 30,
          "midi": 44,
          "name": "G#2",
          "ticks": 19140,
          "time": 95.7,
          "velocity": 0.7874015748031497
        },
        {
          "duration": 0.09999999999999432,
          "durationTicks": 20,
          "midi": 62,
          "name": "D4",
          "ticks": 19200,
          "time": 96,
          "velocity": 0.7874015748031497
        },
        {
          "duration": 0.14999999999999147,
          "durationTicks": 30,
          "midi": 36,
          "name": "C2",
          "ticks": 19200,
          "time": 96,
          "velocity": 0.7874015748031497
        },
        {
          "duration": 0.09999999999999432,
          "durationTicks": 20,
          "midi": 62,
          "name": "D4",
          "ticks": 19260,
          "time": 96.3,
          "velocity": 0.7874015748031497
        },
        {
          "duration": 0.15000000000000568,
          "durationTicks": 30,
          "midi": 44,
          "name": "G#2",
          "ticks": 19260,
          "time": 96.3,
          "velocity": 0.7874015748031497
        },
        {
          "duration": 0.09999999999999432,
          "durationTicks": 20,
          "midi": 28,
          "name": "E1",
          "ticks": 19320,
          "time": 96.6,
          "velocity": 0.7874015748031497
        },
        {
          "duration": 0.15000000000000568,
          "durationTicks": 30,
          "midi": 36,
          "name": "C2",
          "ticks": 19320,
          "time": 96.6,
          "velocity": 0.7874015748031497
        },
        {
          "duration": 0.15000000000000568,
          "durationTicks": 30,
          "midi": 44,
          "name": "G#2",
          "ticks": 19380,
          "time": 96.89999999999999,
          "velocity": 0.7874015748031497
        },
        {
          "duration": 0.09999999999999432,
          "durationTicks": 20,
          "midi": 82,
          "name": "A#5",
          "ticks": 19380,
          "time": 96.89999999999999,
          "velocity": 0.47244094488188976
        },
        {
          "duration": 0.09999999999999432,
          "durationTicks": 20,
          "midi": 82,
          "name": "A#5",
          "ticks": 19420,
          "time": 97.10000000000001,
          "velocity": 0.7874015748031497
        },
        {
          "duration": 0.14999999999999147,
          "durationTicks": 30,
          "midi": 36,
          "name": "C2",
          "ticks": 19440,
          "time": 97.2,
          "velocity": 0.7874015748031497
        },
        {
          "duration": 0.09999999999999432,
          "durationTicks": 20,
          "midi": 82,
          "name": "A#5",
          "ticks": 19440,
          "time": 97.2,
          "velocity": 0.47244094488188976
        },
        {
          "duration": 0.09999999999999432,
          "durationTicks": 20,
          "midi": 82,
          "name": "A#5",
          "ticks": 19480,
          "time": 97.4,
          "velocity": 0.7874015748031497
        },
        {
          "duration": 0.09999999999999432,
          "durationTicks": 20,
          "midi": 62,
          "name": "D4",
          "ticks": 19500,
          "time": 97.5,
          "velocity": 0.7874015748031497
        },
        {
          "duration": 0.14999999999999147,
          "durationTicks": 30,
          "midi": 44,
          "name": "G#2",
          "ticks": 19500,
          "time": 97.5,
          "velocity": 0.7874015748031497
        },
        {
          "duration": 0.09999999999999432,
          "durationTicks": 20,
          "midi": 28,
          "name": "E1",
          "ticks": 19560,
          "time": 97.8,
          "velocity": 0.7874015748031497
        },
        {
          "duration": 0.15000000000000568,
          "durationTicks": 30,
          "midi": 36,
          "name": "C2",
          "ticks": 19560,
          "time": 97.8,
          "velocity": 0.7874015748031497
        },
        {
          "duration": 0.15000000000000568,
          "durationTicks": 30,
          "midi": 44,
          "name": "G#2",
          "ticks": 19620,
          "time": 98.1,
          "velocity": 0.7874015748031497
        },
        {
          "duration": 0.09999999999999432,
          "durationTicks": 20,
          "midi": 62,
          "name": "D4",
          "ticks": 19680,
          "time": 98.39999999999999,
          "velocity": 0.7874015748031497
        },
        {
          "duration": 0.15000000000000568,
          "durationTicks": 30,
          "midi": 36,
          "name": "C2",
          "ticks": 19680,
          "time": 98.39999999999999,
          "velocity": 0.7874015748031497
        },
        {
          "duration": 0.09999999999999432,
          "durationTicks": 20,
          "midi": 62,
          "name": "D4",
          "ticks": 19740,
          "time": 98.7,
          "velocity": 0.7874015748031497
        },
        {
          "duration": 0.14999999999999147,
          "durationTicks": 30,
          "midi": 44,
          "name": "G#2",
          "ticks": 19740,
          "time": 98.7,
          "velocity": 0.7874015748031497
        },
        {
          "duration": 0.09999999999999432,
          "durationTicks": 20,
          "midi": 28,
          "name": "E1",
          "ticks": 19800,
          "time": 99,
          "velocity": 0.7874015748031497
        },
        {
          "duration": 0.14999999999999147,
          "durationTicks": 30,
          "midi": 36,
          "name": "C2",
          "ticks": 19800,
          "time": 99,
          "velocity": 0.7874015748031497
        },
        {
          "duration": 0.15000000000000568,
          "durationTicks": 30,
          "midi": 44,
          "name": "G#2",
          "ticks": 19860,
          "time": 99.3,
          "velocity": 0.7874015748031497
        },
        {
          "duration": 0.09999999999999432,
          "durationTicks": 20,
          "midi": 82,
          "name": "A#5",
          "ticks": 19860,
          "time": 99.3,
          "velocity": 0.47244094488188976
        },
        {
          "duration": 0.09999999999999432,
          "durationTicks": 20,
          "midi": 82,
          "name": "A#5",
          "ticks": 19900,
          "time": 99.5,
          "velocity": 0.7874015748031497
        },
        {
          "duration": 0.15000000000000568,
          "durationTicks": 30,
          "midi": 36,
          "name": "C2",
          "ticks": 19920,
          "time": 99.6,
          "velocity": 0.7874015748031497
        },
        {
          "duration": 0.09999999999999432,
          "durationTicks": 20,
          "midi": 82,
          "name": "A#5",
          "ticks": 19920,
          "time": 99.6,
          "velocity": 0.47244094488188976
        },
        {
          "duration": 0.09999999999999432,
          "durationTicks": 20,
          "midi": 82,
          "name": "A#5",
          "ticks": 19960,
          "time": 99.8,
          "velocity": 0.7874015748031497
        },
        {
          "duration": 0.09999999999999432,
          "durationTicks": 20,
          "midi": 62,
          "name": "D4",
          "ticks": 19980,
          "time": 99.89999999999999,
          "velocity": 0.7874015748031497
        },
        {
          "duration": 0.15000000000000568,
          "durationTicks": 30,
          "midi": 44,
          "name": "G#2",
          "ticks": 19980,
          "time": 99.89999999999999,
          "velocity": 0.7874015748031497
        },
        {
          "duration": 0.09999999999999432,
          "durationTicks": 20,
          "midi": 28,
          "name": "E1",
          "ticks": 20040,
          "time": 100.2,
          "velocity": 0.7874015748031497
        },
        {
          "duration": 0.14999999999999147,
          "durationTicks": 30,
          "midi": 36,
          "name": "C2",
          "ticks": 20040,
          "time": 100.2,
          "velocity": 0.7874015748031497
        },
        {
          "duration": 0.14999999999999147,
          "durationTicks": 30,
          "midi": 44,
          "name": "G#2",
          "ticks": 20100,
          "time": 100.5,
          "velocity": 0.7874015748031497
        },
        {
          "duration": 0.09999999999999432,
          "durationTicks": 20,
          "midi": 62,
          "name": "D4",
          "ticks": 20160,
          "time": 100.8,
          "velocity": 0.7874015748031497
        },
        {
          "duration": 0.15000000000000568,
          "durationTicks": 30,
          "midi": 36,
          "name": "C2",
          "ticks": 20160,
          "time": 100.8,
          "velocity": 0.7874015748031497
        },
        {
          "duration": 0.09999999999999432,
          "durationTicks": 20,
          "midi": 62,
          "name": "D4",
          "ticks": 20220,
          "time": 101.1,
          "velocity": 0.7874015748031497
        },
        {
          "duration": 0.15000000000000568,
          "durationTicks": 30,
          "midi": 44,
          "name": "G#2",
          "ticks": 20220,
          "time": 101.1,
          "velocity": 0.7874015748031497
        },
        {
          "duration": 0.09999999999999432,
          "durationTicks": 20,
          "midi": 28,
          "name": "E1",
          "ticks": 20280,
          "time": 101.39999999999999,
          "velocity": 0.7874015748031497
        },
        {
          "duration": 0.15000000000000568,
          "durationTicks": 30,
          "midi": 36,
          "name": "C2",
          "ticks": 20280,
          "time": 101.39999999999999,
          "velocity": 0.7874015748031497
        },
        {
          "duration": 0.14999999999999147,
          "durationTicks": 30,
          "midi": 44,
          "name": "G#2",
          "ticks": 20340,
          "time": 101.7,
          "velocity": 0.7874015748031497
        },
        {
          "duration": 0.09999999999999432,
          "durationTicks": 20,
          "midi": 82,
          "name": "A#5",
          "ticks": 20340,
          "time": 101.7,
          "velocity": 0.47244094488188976
        },
        {
          "duration": 0.09999999999999432,
          "durationTicks": 20,
          "midi": 82,
          "name": "A#5",
          "ticks": 20380,
          "time": 101.9,
          "velocity": 0.7874015748031497
        },
        {
          "duration": 0.14999999999999147,
          "durationTicks": 30,
          "midi": 36,
          "name": "C2",
          "ticks": 20400,
          "time": 102,
          "velocity": 0.7874015748031497
        },
        {
          "duration": 0.09999999999999432,
          "durationTicks": 20,
          "midi": 82,
          "name": "A#5",
          "ticks": 20400,
          "time": 102,
          "velocity": 0.47244094488188976
        },
        {
          "duration": 0.09999999999999432,
          "durationTicks": 20,
          "midi": 82,
          "name": "A#5",
          "ticks": 20440,
          "time": 102.2,
          "velocity": 0.7874015748031497
        },
        {
          "duration": 0.09999999999999432,
          "durationTicks": 20,
          "midi": 62,
          "name": "D4",
          "ticks": 20460,
          "time": 102.3,
          "velocity": 0.7874015748031497
        },
        {
          "duration": 0.15000000000000568,
          "durationTicks": 30,
          "midi": 44,
          "name": "G#2",
          "ticks": 20460,
          "time": 102.3,
          "velocity": 0.7874015748031497
        },
        {
          "duration": 0.09999999999999432,
          "durationTicks": 20,
          "midi": 28,
          "name": "E1",
          "ticks": 20520,
          "time": 102.6,
          "velocity": 0.7874015748031497
        },
        {
          "duration": 0.15000000000000568,
          "durationTicks": 30,
          "midi": 36,
          "name": "C2",
          "ticks": 20520,
          "time": 102.6,
          "velocity": 0.7874015748031497
        },
        {
          "duration": 0.15000000000000568,
          "durationTicks": 30,
          "midi": 44,
          "name": "G#2",
          "ticks": 20580,
          "time": 102.89999999999999,
          "velocity": 0.7874015748031497
        },
        {
          "duration": 0.09999999999999432,
          "durationTicks": 20,
          "midi": 62,
          "name": "D4",
          "ticks": 20640,
          "time": 103.2,
          "velocity": 0.7874015748031497
        },
        {
          "duration": 0.14999999999999147,
          "durationTicks": 30,
          "midi": 36,
          "name": "C2",
          "ticks": 20640,
          "time": 103.2,
          "velocity": 0.7874015748031497
        },
        {
          "duration": 0.09999999999999432,
          "durationTicks": 20,
          "midi": 62,
          "name": "D4",
          "ticks": 20700,
          "time": 103.5,
          "velocity": 0.7874015748031497
        },
        {
          "duration": 0.14999999999999147,
          "durationTicks": 30,
          "midi": 44,
          "name": "G#2",
          "ticks": 20700,
          "time": 103.5,
          "velocity": 0.7874015748031497
        },
        {
          "duration": 0.09999999999999432,
          "durationTicks": 20,
          "midi": 28,
          "name": "E1",
          "ticks": 20760,
          "time": 103.8,
          "velocity": 0.7874015748031497
        },
        {
          "duration": 0.15000000000000568,
          "durationTicks": 30,
          "midi": 36,
          "name": "C2",
          "ticks": 20760,
          "time": 103.8,
          "velocity": 0.7874015748031497
        },
        {
          "duration": 0.15000000000000568,
          "durationTicks": 30,
          "midi": 44,
          "name": "G#2",
          "ticks": 20820,
          "time": 104.1,
          "velocity": 0.7874015748031497
        },
        {
          "duration": 0.09999999999999432,
          "durationTicks": 20,
          "midi": 82,
          "name": "A#5",
          "ticks": 20820,
          "time": 104.1,
          "velocity": 0.47244094488188976
        },
        {
          "duration": 0.09999999999999432,
          "durationTicks": 20,
          "midi": 82,
          "name": "A#5",
          "ticks": 20860,
          "time": 104.3,
          "velocity": 0.7874015748031497
        },
        {
          "duration": 0.15000000000000568,
          "durationTicks": 30,
          "midi": 36,
          "name": "C2",
          "ticks": 20880,
          "time": 104.39999999999999,
          "velocity": 0.7874015748031497
        },
        {
          "duration": 0.09999999999999432,
          "durationTicks": 20,
          "midi": 82,
          "name": "A#5",
          "ticks": 20880,
          "time": 104.39999999999999,
          "velocity": 0.47244094488188976
        },
        {
          "duration": 0.09999999999999432,
          "durationTicks": 20,
          "midi": 82,
          "name": "A#5",
          "ticks": 20920,
          "time": 104.60000000000001,
          "velocity": 0.7874015748031497
        },
        {
          "duration": 0.09999999999999432,
          "durationTicks": 20,
          "midi": 62,
          "name": "D4",
          "ticks": 20940,
          "time": 104.7,
          "velocity": 0.7874015748031497
        },
        {
          "duration": 0.14999999999999147,
          "durationTicks": 30,
          "midi": 44,
          "name": "G#2",
          "ticks": 20940,
          "time": 104.7,
          "velocity": 0.7874015748031497
        },
        {
          "duration": 0.09999999999999432,
          "durationTicks": 20,
          "midi": 28,
          "name": "E1",
          "ticks": 21000,
          "time": 105,
          "velocity": 0.7874015748031497
        },
        {
          "duration": 0.14999999999999147,
          "durationTicks": 30,
          "midi": 36,
          "name": "C2",
          "ticks": 21000,
          "time": 105,
          "velocity": 0.7874015748031497
        },
        {
          "duration": 0.15000000000000568,
          "durationTicks": 30,
          "midi": 44,
          "name": "G#2",
          "ticks": 21060,
          "time": 105.3,
          "velocity": 0.7874015748031497
        },
        {
          "duration": 0.09999999999999432,
          "durationTicks": 20,
          "midi": 62,
          "name": "D4",
          "ticks": 21120,
          "time": 105.6,
          "velocity": 0.7874015748031497
        },
        {
          "duration": 0.15000000000000568,
          "durationTicks": 30,
          "midi": 36,
          "name": "C2",
          "ticks": 21120,
          "time": 105.6,
          "velocity": 0.7874015748031497
        },
        {
          "duration": 0.09999999999999432,
          "durationTicks": 20,
          "midi": 62,
          "name": "D4",
          "ticks": 21180,
          "time": 105.89999999999999,
          "velocity": 0.7874015748031497
        },
        {
          "duration": 0.15000000000000568,
          "durationTicks": 30,
          "midi": 44,
          "name": "G#2",
          "ticks": 21180,
          "time": 105.89999999999999,
          "velocity": 0.7874015748031497
        },
        {
          "duration": 0.09999999999999432,
          "durationTicks": 20,
          "midi": 28,
          "name": "E1",
          "ticks": 21240,
          "time": 106.2,
          "velocity": 0.7874015748031497
        },
        {
          "duration": 0.14999999999999147,
          "durationTicks": 30,
          "midi": 36,
          "name": "C2",
          "ticks": 21240,
          "time": 106.2,
          "velocity": 0.7874015748031497
        },
        {
          "duration": 0.14999999999999147,
          "durationTicks": 30,
          "midi": 44,
          "name": "G#2",
          "ticks": 21300,
          "time": 106.5,
          "velocity": 0.7874015748031497
        },
        {
          "duration": 0.09999999999999432,
          "durationTicks": 20,
          "midi": 82,
          "name": "A#5",
          "ticks": 21300,
          "time": 106.5,
          "velocity": 0.47244094488188976
        },
        {
          "duration": 0.09999999999999432,
          "durationTicks": 20,
          "midi": 82,
          "name": "A#5",
          "ticks": 21340,
          "time": 106.7,
          "velocity": 0.7874015748031497
        },
        {
          "duration": 0.15000000000000568,
          "durationTicks": 30,
          "midi": 36,
          "name": "C2",
          "ticks": 21360,
          "time": 106.8,
          "velocity": 0.7874015748031497
        },
        {
          "duration": 0.09999999999999432,
          "durationTicks": 20,
          "midi": 82,
          "name": "A#5",
          "ticks": 21360,
          "time": 106.8,
          "velocity": 0.47244094488188976
        },
        {
          "duration": 0.09999999999999432,
          "durationTicks": 20,
          "midi": 82,
          "name": "A#5",
          "ticks": 21400,
          "time": 107,
          "velocity": 0.7874015748031497
        },
        {
          "duration": 0.09999999999999432,
          "durationTicks": 20,
          "midi": 62,
          "name": "D4",
          "ticks": 21420,
          "time": 107.1,
          "velocity": 0.7874015748031497
        },
        {
          "duration": 0.15000000000000568,
          "durationTicks": 30,
          "midi": 44,
          "name": "G#2",
          "ticks": 21420,
          "time": 107.1,
          "velocity": 0.7874015748031497
        },
        {
          "duration": 0.09999999999999432,
          "durationTicks": 20,
          "midi": 28,
          "name": "E1",
          "ticks": 21480,
          "time": 107.39999999999999,
          "velocity": 0.7874015748031497
        },
        {
          "duration": 0.15000000000000568,
          "durationTicks": 30,
          "midi": 36,
          "name": "C2",
          "ticks": 21480,
          "time": 107.39999999999999,
          "velocity": 0.7874015748031497
        },
        {
          "duration": 0.14999999999999147,
          "durationTicks": 30,
          "midi": 44,
          "name": "G#2",
          "ticks": 21540,
          "time": 107.7,
          "velocity": 0.7874015748031497
        },
        {
          "duration": 0.09999999999999432,
          "durationTicks": 20,
          "midi": 62,
          "name": "D4",
          "ticks": 21600,
          "time": 108,
          "velocity": 0.7874015748031497
        },
        {
          "duration": 0.14999999999999147,
          "durationTicks": 30,
          "midi": 36,
          "name": "C2",
          "ticks": 21600,
          "time": 108,
          "velocity": 0.7874015748031497
        },
        {
          "duration": 0.09999999999999432,
          "durationTicks": 20,
          "midi": 62,
          "name": "D4",
          "ticks": 21660,
          "time": 108.3,
          "velocity": 0.7874015748031497
        },
        {
          "duration": 0.15000000000000568,
          "durationTicks": 30,
          "midi": 44,
          "name": "G#2",
          "ticks": 21660,
          "time": 108.3,
          "velocity": 0.7874015748031497
        },
        {
          "duration": 0.09999999999999432,
          "durationTicks": 20,
          "midi": 28,
          "name": "E1",
          "ticks": 21720,
          "time": 108.6,
          "velocity": 0.7874015748031497
        },
        {
          "duration": 0.15000000000000568,
          "durationTicks": 30,
          "midi": 36,
          "name": "C2",
          "ticks": 21720,
          "time": 108.6,
          "velocity": 0.7874015748031497
        },
        {
          "duration": 0.15000000000000568,
          "durationTicks": 30,
          "midi": 44,
          "name": "G#2",
          "ticks": 21780,
          "time": 108.89999999999999,
          "velocity": 0.7874015748031497
        },
        {
          "duration": 0.09999999999999432,
          "durationTicks": 20,
          "midi": 82,
          "name": "A#5",
          "ticks": 21780,
          "time": 108.89999999999999,
          "velocity": 0.47244094488188976
        },
        {
          "duration": 0.09999999999999432,
          "durationTicks": 20,
          "midi": 82,
          "name": "A#5",
          "ticks": 21820,
          "time": 109.10000000000001,
          "velocity": 0.7874015748031497
        },
        {
          "duration": 0.14999999999999147,
          "durationTicks": 30,
          "midi": 36,
          "name": "C2",
          "ticks": 21840,
          "time": 109.2,
          "velocity": 0.7874015748031497
        },
        {
          "duration": 0.09999999999999432,
          "durationTicks": 20,
          "midi": 82,
          "name": "A#5",
          "ticks": 21840,
          "time": 109.2,
          "velocity": 0.47244094488188976
        },
        {
          "duration": 0.09999999999999432,
          "durationTicks": 20,
          "midi": 82,
          "name": "A#5",
          "ticks": 21880,
          "time": 109.4,
          "velocity": 0.7874015748031497
        },
        {
          "duration": 0.09999999999999432,
          "durationTicks": 20,
          "midi": 62,
          "name": "D4",
          "ticks": 21900,
          "time": 109.5,
          "velocity": 0.7874015748031497
        },
        {
          "duration": 0.14999999999999147,
          "durationTicks": 30,
          "midi": 44,
          "name": "G#2",
          "ticks": 21900,
          "time": 109.5,
          "velocity": 0.7874015748031497
        },
        {
          "duration": 0.09999999999999432,
          "durationTicks": 20,
          "midi": 28,
          "name": "E1",
          "ticks": 21960,
          "time": 109.8,
          "velocity": 0.7874015748031497
        },
        {
          "duration": 0.15000000000000568,
          "durationTicks": 30,
          "midi": 36,
          "name": "C2",
          "ticks": 21960,
          "time": 109.8,
          "velocity": 0.7874015748031497
        },
        {
          "duration": 0.15000000000000568,
          "durationTicks": 30,
          "midi": 44,
          "name": "G#2",
          "ticks": 22020,
          "time": 110.1,
          "velocity": 0.7874015748031497
        },
        {
          "duration": 0.09999999999999432,
          "durationTicks": 20,
          "midi": 62,
          "name": "D4",
          "ticks": 22080,
          "time": 110.39999999999999,
          "velocity": 0.7874015748031497
        },
        {
          "duration": 0.15000000000000568,
          "durationTicks": 30,
          "midi": 36,
          "name": "C2",
          "ticks": 22080,
          "time": 110.39999999999999,
          "velocity": 0.7874015748031497
        },
        {
          "duration": 0.09999999999999432,
          "durationTicks": 20,
          "midi": 62,
          "name": "D4",
          "ticks": 22140,
          "time": 110.7,
          "velocity": 0.7874015748031497
        },
        {
          "duration": 0.14999999999999147,
          "durationTicks": 30,
          "midi": 44,
          "name": "G#2",
          "ticks": 22140,
          "time": 110.7,
          "velocity": 0.7874015748031497
        },
        {
          "duration": 0.09999999999999432,
          "durationTicks": 20,
          "midi": 28,
          "name": "E1",
          "ticks": 22200,
          "time": 111,
          "velocity": 0.7874015748031497
        },
        {
          "duration": 0.14999999999999147,
          "durationTicks": 30,
          "midi": 36,
          "name": "C2",
          "ticks": 22200,
          "time": 111,
          "velocity": 0.7874015748031497
        },
        {
          "duration": 0.15000000000000568,
          "durationTicks": 30,
          "midi": 44,
          "name": "G#2",
          "ticks": 22260,
          "time": 111.3,
          "velocity": 0.7874015748031497
        },
        {
          "duration": 0.09999999999999432,
          "durationTicks": 20,
          "midi": 82,
          "name": "A#5",
          "ticks": 22260,
          "time": 111.3,
          "velocity": 0.47244094488188976
        },
        {
          "duration": 0.09999999999999432,
          "durationTicks": 20,
          "midi": 82,
          "name": "A#5",
          "ticks": 22300,
          "time": 111.5,
          "velocity": 0.7874015748031497
        },
        {
          "duration": 0.15000000000000568,
          "durationTicks": 30,
          "midi": 36,
          "name": "C2",
          "ticks": 22320,
          "time": 111.6,
          "velocity": 0.7874015748031497
        },
        {
          "duration": 0.09999999999999432,
          "durationTicks": 20,
          "midi": 82,
          "name": "A#5",
          "ticks": 22320,
          "time": 111.6,
          "velocity": 0.47244094488188976
        },
        {
          "duration": 0.09999999999999432,
          "durationTicks": 20,
          "midi": 82,
          "name": "A#5",
          "ticks": 22360,
          "time": 111.8,
          "velocity": 0.7874015748031497
        },
        {
          "duration": 0.09999999999999432,
          "durationTicks": 20,
          "midi": 62,
          "name": "D4",
          "ticks": 22380,
          "time": 111.89999999999999,
          "velocity": 0.7874015748031497
        },
        {
          "duration": 0.15000000000000568,
          "durationTicks": 30,
          "midi": 44,
          "name": "G#2",
          "ticks": 22380,
          "time": 111.89999999999999,
          "velocity": 0.7874015748031497
        },
        {
          "duration": 0.09999999999999432,
          "durationTicks": 20,
          "midi": 28,
          "name": "E1",
          "ticks": 22440,
          "time": 112.2,
          "velocity": 0.7874015748031497
        },
        {
          "duration": 0.14999999999999147,
          "durationTicks": 30,
          "midi": 36,
          "name": "C2",
          "ticks": 22440,
          "time": 112.2,
          "velocity": 0.7874015748031497
        },
        {
          "duration": 0.14999999999999147,
          "durationTicks": 30,
          "midi": 44,
          "name": "G#2",
          "ticks": 22500,
          "time": 112.5,
          "velocity": 0.7874015748031497
        },
        {
          "duration": 0.09999999999999432,
          "durationTicks": 20,
          "midi": 62,
          "name": "D4",
          "ticks": 22560,
          "time": 112.8,
          "velocity": 0.7874015748031497
        },
        {
          "duration": 0.15000000000000568,
          "durationTicks": 30,
          "midi": 36,
          "name": "C2",
          "ticks": 22560,
          "time": 112.8,
          "velocity": 0.7874015748031497
        },
        {
          "duration": 0.09999999999999432,
          "durationTicks": 20,
          "midi": 62,
          "name": "D4",
          "ticks": 22620,
          "time": 113.1,
          "velocity": 0.7874015748031497
        },
        {
          "duration": 0.15000000000000568,
          "durationTicks": 30,
          "midi": 44,
          "name": "G#2",
          "ticks": 22620,
          "time": 113.1,
          "velocity": 0.7874015748031497
        },
        {
          "duration": 0.09999999999999432,
          "durationTicks": 20,
          "midi": 28,
          "name": "E1",
          "ticks": 22680,
          "time": 113.39999999999999,
          "velocity": 0.7874015748031497
        },
        {
          "duration": 0.15000000000000568,
          "durationTicks": 30,
          "midi": 36,
          "name": "C2",
          "ticks": 22680,
          "time": 113.39999999999999,
          "velocity": 0.7874015748031497
        },
        {
          "duration": 0.14999999999999147,
          "durationTicks": 30,
          "midi": 44,
          "name": "G#2",
          "ticks": 22740,
          "time": 113.7,
          "velocity": 0.7874015748031497
        },
        {
          "duration": 0.09999999999999432,
          "durationTicks": 20,
          "midi": 82,
          "name": "A#5",
          "ticks": 22740,
          "time": 113.7,
          "velocity": 0.47244094488188976
        },
        {
          "duration": 0.09999999999999432,
          "durationTicks": 20,
          "midi": 82,
          "name": "A#5",
          "ticks": 22780,
          "time": 113.9,
          "velocity": 0.7874015748031497
        },
        {
          "duration": 0.14999999999999147,
          "durationTicks": 30,
          "midi": 36,
          "name": "C2",
          "ticks": 22800,
          "time": 114,
          "velocity": 0.7874015748031497
        },
        {
          "duration": 0.09999999999999432,
          "durationTicks": 20,
          "midi": 82,
          "name": "A#5",
          "ticks": 22800,
          "time": 114,
          "velocity": 0.47244094488188976
        },
        {
          "duration": 0.09999999999999432,
          "durationTicks": 20,
          "midi": 82,
          "name": "A#5",
          "ticks": 22840,
          "time": 114.2,
          "velocity": 0.7874015748031497
        },
        {
          "duration": 0.09999999999999432,
          "durationTicks": 20,
          "midi": 62,
          "name": "D4",
          "ticks": 22860,
          "time": 114.3,
          "velocity": 0.7874015748031497
        },
        {
          "duration": 0.15000000000000568,
          "durationTicks": 30,
          "midi": 44,
          "name": "G#2",
          "ticks": 22860,
          "time": 114.3,
          "velocity": 0.7874015748031497
        },
        {
          "duration": 0.09999999999999432,
          "durationTicks": 20,
          "midi": 28,
          "name": "E1",
          "ticks": 22920,
          "time": 114.6,
          "velocity": 0.7874015748031497
        },
        {
          "duration": 0.15000000000000568,
          "durationTicks": 30,
          "midi": 36,
          "name": "C2",
          "ticks": 22920,
          "time": 114.6,
          "velocity": 0.7874015748031497
        },
        {
          "duration": 0.15000000000000568,
          "durationTicks": 30,
          "midi": 44,
          "name": "G#2",
          "ticks": 22980,
          "time": 114.89999999999999,
          "velocity": 0.7874015748031497
        },
        {
          "duration": 0.09999999999999432,
          "durationTicks": 20,
          "midi": 62,
          "name": "D4",
          "ticks": 23040,
          "time": 115.19999999999999,
          "velocity": 0.7874015748031497
        },
        {
          "duration": 0.15000000000000568,
          "durationTicks": 30,
          "midi": 36,
          "name": "C2",
          "ticks": 23040,
          "time": 115.19999999999999,
          "velocity": 0.7874015748031497
        },
        {
          "duration": 0.09999999999999432,
          "durationTicks": 20,
          "midi": 62,
          "name": "D4",
          "ticks": 23100,
          "time": 115.5,
          "velocity": 0.7874015748031497
        },
        {
          "duration": 0.14999999999999147,
          "durationTicks": 30,
          "midi": 44,
          "name": "G#2",
          "ticks": 23100,
          "time": 115.5,
          "velocity": 0.7874015748031497
        },
        {
          "duration": 0.09999999999999432,
          "durationTicks": 20,
          "midi": 28,
          "name": "E1",
          "ticks": 23160,
          "time": 115.8,
          "velocity": 0.7874015748031497
        },
        {
          "duration": 0.14999999999999147,
          "durationTicks": 30,
          "midi": 36,
          "name": "C2",
          "ticks": 23160,
          "time": 115.8,
          "velocity": 0.7874015748031497
        },
        {
          "duration": 0.15000000000000568,
          "durationTicks": 30,
          "midi": 44,
          "name": "G#2",
          "ticks": 23220,
          "time": 116.1,
          "velocity": 0.7874015748031497
        },
        {
          "duration": 0.09999999999999432,
          "durationTicks": 20,
          "midi": 82,
          "name": "A#5",
          "ticks": 23220,
          "time": 116.1,
          "velocity": 0.47244094488188976
        },
        {
          "duration": 0.09999999999999432,
          "durationTicks": 20,
          "midi": 82,
          "name": "A#5",
          "ticks": 23260,
          "time": 116.3,
          "velocity": 0.7874015748031497
        },
        {
          "duration": 0.15000000000000568,
          "durationTicks": 30,
          "midi": 36,
          "name": "C2",
          "ticks": 23280,
          "time": 116.39999999999999,
          "velocity": 0.7874015748031497
        },
        {
          "duration": 0.09999999999999432,
          "durationTicks": 20,
          "midi": 82,
          "name": "A#5",
          "ticks": 23280,
          "time": 116.39999999999999,
          "velocity": 0.47244094488188976
        },
        {
          "duration": 0.09999999999999432,
          "durationTicks": 20,
          "midi": 82,
          "name": "A#5",
          "ticks": 23320,
          "time": 116.6,
          "velocity": 0.7874015748031497
        },
        {
          "duration": 0.09999999999999432,
          "durationTicks": 20,
          "midi": 62,
          "name": "D4",
          "ticks": 23340,
          "time": 116.69999999999999,
          "velocity": 0.7874015748031497
        },
        {
          "duration": 0.15000000000000568,
          "durationTicks": 30,
          "midi": 44,
          "name": "G#2",
          "ticks": 23340,
          "time": 116.69999999999999,
          "velocity": 0.7874015748031497
        },
        {
          "duration": 0.09999999999999432,
          "durationTicks": 20,
          "midi": 28,
          "name": "E1",
          "ticks": 23400,
          "time": 117,
          "velocity": 0.7874015748031497
        },
        {
          "duration": 0.14999999999999147,
          "durationTicks": 30,
          "midi": 36,
          "name": "C2",
          "ticks": 23400,
          "time": 117,
          "velocity": 0.7874015748031497
        },
        {
          "duration": 0.09999999999999432,
          "durationTicks": 20,
          "midi": 62,
          "name": "D4",
          "ticks": 23520,
          "time": 117.6,
          "velocity": 0.7874015748031497
        },
        {
          "duration": 0.09999999999999432,
          "durationTicks": 20,
          "midi": 62,
          "name": "D4",
          "ticks": 23580,
          "time": 117.89999999999999,
          "velocity": 0.7874015748031497
        },
        {
          "duration": 0.09999999999999432,
          "durationTicks": 20,
          "midi": 28,
          "name": "E1",
          "ticks": 23640,
          "time": 118.19999999999999,
          "velocity": 0.7874015748031497
        },
        {
          "duration": 0.09999999999999432,
          "durationTicks": 20,
          "midi": 82,
          "name": "A#5",
          "ticks": 23700,
          "time": 118.5,
          "velocity": 0.47244094488188976
        },
        {
          "duration": 0.09999999999999432,
          "durationTicks": 20,
          "midi": 82,
          "name": "A#5",
          "ticks": 23740,
          "time": 118.7,
          "velocity": 0.7874015748031497
        },
        {
          "duration": 0.09999999999999432,
          "durationTicks": 20,
          "midi": 82,
          "name": "A#5",
          "ticks": 23760,
          "time": 118.8,
          "velocity": 0.47244094488188976
        },
        {
          "duration": 0.09999999999999432,
          "durationTicks": 20,
          "midi": 82,
          "name": "A#5",
          "ticks": 23800,
          "time": 119,
          "velocity": 0.7874015748031497
        },
        {
          "duration": 0.09999999999999432,
          "durationTicks": 20,
          "midi": 62,
          "name": "D4",
          "ticks": 23820,
          "time": 119.1,
          "velocity": 0.7874015748031497
        },
        {
          "duration": 0.09999999999999432,
          "durationTicks": 20,
          "midi": 28,
          "name": "E1",
          "ticks": 23880,
          "time": 119.39999999999999,
          "velocity": 0.7874015748031497
        },
        {
          "duration": 0.09999999999999432,
          "durationTicks": 20,
          "midi": 62,
          "name": "D4",
          "ticks": 24000,
          "time": 120,
          "velocity": 0.7874015748031497
        },
        {
          "duration": 0.09999999999999432,
          "durationTicks": 20,
          "midi": 62,
          "name": "D4",
          "ticks": 24060,
          "time": 120.3,
          "velocity": 0.7874015748031497
        },
        {
          "duration": 0.09999999999999432,
          "durationTicks": 20,
          "midi": 28,
          "name": "E1",
          "ticks": 24120,
          "time": 120.6,
          "velocity": 0.7874015748031497
        },
        {
          "duration": 0.09999999999999432,
          "durationTicks": 20,
          "midi": 82,
          "name": "A#5",
          "ticks": 24180,
          "time": 120.89999999999999,
          "velocity": 0.47244094488188976
        },
        {
          "duration": 0.09999999999999432,
          "durationTicks": 20,
          "midi": 82,
          "name": "A#5",
          "ticks": 24220,
          "time": 121.1,
          "velocity": 0.7874015748031497
        },
        {
          "duration": 0.09999999999999432,
          "durationTicks": 20,
          "midi": 82,
          "name": "A#5",
          "ticks": 24240,
          "time": 121.19999999999999,
          "velocity": 0.47244094488188976
        },
        {
          "duration": 0.09999999999999432,
          "durationTicks": 20,
          "midi": 82,
          "name": "A#5",
          "ticks": 24280,
          "time": 121.4,
          "velocity": 0.7874015748031497
        },
        {
          "duration": 0.09999999999999432,
          "durationTicks": 20,
          "midi": 62,
          "name": "D4",
          "ticks": 24300,
          "time": 121.5,
          "velocity": 0.7874015748031497
        },
        {
          "duration": 0.09999999999999432,
          "durationTicks": 20,
          "midi": 28,
          "name": "E1",
          "ticks": 24360,
          "time": 121.8,
          "velocity": 0.7874015748031497
        },
        {
          "duration": 0.09999999999999432,
          "durationTicks": 20,
          "midi": 62,
          "name": "D4",
          "ticks": 24480,
          "time": 122.39999999999999,
          "velocity": 0.7874015748031497
        },
        {
          "duration": 0.09999999999999432,
          "durationTicks": 20,
          "midi": 62,
          "name": "D4",
          "ticks": 24540,
          "time": 122.69999999999999,
          "velocity": 0.7874015748031497
        },
        {
          "duration": 0.09999999999999432,
          "durationTicks": 20,
          "midi": 28,
          "name": "E1",
          "ticks": 24600,
          "time": 123,
          "velocity": 0.7874015748031497
        },
        {
          "duration": 0.09999999999999432,
          "durationTicks": 20,
          "midi": 82,
          "name": "A#5",
          "ticks": 24660,
          "time": 123.3,
          "velocity": 0.47244094488188976
        },
        {
          "duration": 0.09999999999999432,
          "durationTicks": 20,
          "midi": 82,
          "name": "A#5",
          "ticks": 24700,
          "time": 123.5,
          "velocity": 0.7874015748031497
        },
        {
          "duration": 0.09999999999999432,
          "durationTicks": 20,
          "midi": 82,
          "name": "A#5",
          "ticks": 24720,
          "time": 123.6,
          "velocity": 0.47244094488188976
        },
        {
          "duration": 0.09999999999999432,
          "durationTicks": 20,
          "midi": 82,
          "name": "A#5",
          "ticks": 24760,
          "time": 123.8,
          "velocity": 0.7874015748031497
        },
        {
          "duration": 0.09999999999999432,
          "durationTicks": 20,
          "midi": 62,
          "name": "D4",
          "ticks": 24780,
          "time": 123.89999999999999,
          "velocity": 0.7874015748031497
        },
        {
          "duration": 0.09999999999999432,
          "durationTicks": 20,
          "midi": 28,
          "name": "E1",
          "ticks": 24840,
          "time": 124.19999999999999,
          "velocity": 0.7874015748031497
        },
        {
          "duration": 0.09999999999999432,
          "durationTicks": 20,
          "midi": 62,
          "name": "D4",
          "ticks": 24960,
          "time": 124.8,
          "velocity": 0.7874015748031497
        },
        {
          "duration": 0.09999999999999432,
          "durationTicks": 20,
          "midi": 62,
          "name": "D4",
          "ticks": 25020,
          "time": 125.1,
          "velocity": 0.7874015748031497
        },
        {
          "duration": 0.09999999999999432,
          "durationTicks": 20,
          "midi": 28,
          "name": "E1",
          "ticks": 25080,
          "time": 125.39999999999999,
          "velocity": 0.7874015748031497
        },
        {
          "duration": 0.09999999999999432,
          "durationTicks": 20,
          "midi": 82,
          "name": "A#5",
          "ticks": 25140,
          "time": 125.69999999999999,
          "velocity": 0.47244094488188976
        },
        {
          "duration": 0.09999999999999432,
          "durationTicks": 20,
          "midi": 82,
          "name": "A#5",
          "ticks": 25180,
          "time": 125.9,
          "velocity": 0.7874015748031497
        },
        {
          "duration": 0.09999999999999432,
          "durationTicks": 20,
          "midi": 82,
          "name": "A#5",
          "ticks": 25200,
          "time": 126,
          "velocity": 0.47244094488188976
        },
        {
          "duration": 0.09999999999999432,
          "durationTicks": 20,
          "midi": 82,
          "name": "A#5",
          "ticks": 25240,
          "time": 126.2,
          "velocity": 0.7874015748031497
        },
        {
          "duration": 0.09999999999999432,
          "durationTicks": 20,
          "midi": 62,
          "name": "D4",
          "ticks": 25260,
          "time": 126.3,
          "velocity": 0.7874015748031497
        },
        {
          "duration": 0.09999999999999432,
          "durationTicks": 20,
          "midi": 28,
          "name": "E1",
          "ticks": 25320,
          "time": 126.6,
          "velocity": 0.7874015748031497
        },
        {
          "duration": 0.09999999999999432,
          "durationTicks": 20,
          "midi": 62,
          "name": "D4",
          "ticks": 25440,
          "time": 127.19999999999999,
          "velocity": 0.7874015748031497
        },
        {
          "duration": 0.09999999999999432,
          "durationTicks": 20,
          "midi": 62,
          "name": "D4",
          "ticks": 25500,
          "time": 127.5,
          "velocity": 0.7874015748031497
        },
        {
          "duration": 0.09999999999999432,
          "durationTicks": 20,
          "midi": 28,
          "name": "E1",
          "ticks": 25560,
          "time": 127.8,
          "velocity": 0.7874015748031497
        },
        {
          "duration": 0.09999999999999432,
          "durationTicks": 20,
          "midi": 82,
          "name": "A#5",
          "ticks": 25620,
          "time": 128.1,
          "velocity": 0.47244094488188976
        },
        {
          "duration": 0.09999999999999432,
          "durationTicks": 20,
          "midi": 82,
          "name": "A#5",
          "ticks": 25660,
          "time": 128.3,
          "velocity": 0.7874015748031497
        },
        {
          "duration": 0.09999999999999432,
          "durationTicks": 20,
          "midi": 82,
          "name": "A#5",
          "ticks": 25680,
          "time": 128.4,
          "velocity": 0.47244094488188976
        },
        {
          "duration": 0.09999999999999432,
          "durationTicks": 20,
          "midi": 82,
          "name": "A#5",
          "ticks": 25720,
          "time": 128.6,
          "velocity": 0.7874015748031497
        },
        {
          "duration": 0.09999999999999432,
          "durationTicks": 20,
          "midi": 62,
          "name": "D4",
          "ticks": 25740,
          "time": 128.7,
          "velocity": 0.7874015748031497
        },
        {
          "duration": 0.09999999999999432,
          "durationTicks": 20,
          "midi": 28,
          "name": "E1",
          "ticks": 25800,
          "time": 129,
          "velocity": 0.7874015748031497
        },
        {
          "duration": 0.09999999999999432,
          "durationTicks": 20,
          "midi": 62,
          "name": "D4",
          "ticks": 25920,
          "time": 129.6,
          "velocity": 0.7874015748031497
        },
        {
          "duration": 0.09999999999999432,
          "durationTicks": 20,
          "midi": 62,
          "name": "D4",
          "ticks": 25980,
          "time": 129.9,
          "velocity": 0.7874015748031497
        },
        {
          "duration": 0.09999999999999432,
          "durationTicks": 20,
          "midi": 28,
          "name": "E1",
          "ticks": 26040,
          "time": 130.2,
          "velocity": 0.7874015748031497
        },
        {
          "duration": 0.09999999999999432,
          "durationTicks": 20,
          "midi": 82,
          "name": "A#5",
          "ticks": 26100,
          "time": 130.5,
          "velocity": 0.47244094488188976
        },
        {
          "duration": 0.09999999999999432,
          "durationTicks": 20,
          "midi": 82,
          "name": "A#5",
          "ticks": 26140,
          "time": 130.7,
          "velocity": 0.7874015748031497
        },
        {
          "duration": 0.09999999999999432,
          "durationTicks": 20,
          "midi": 82,
          "name": "A#5",
          "ticks": 26160,
          "time": 130.79999999999998,
          "velocity": 0.47244094488188976
        },
        {
          "duration": 0.09999999999999432,
          "durationTicks": 20,
          "midi": 82,
          "name": "A#5",
          "ticks": 26200,
          "time": 131,
          "velocity": 0.7874015748031497
        },
        {
          "duration": 0.09999999999999432,
          "durationTicks": 20,
          "midi": 62,
          "name": "D4",
          "ticks": 26220,
          "time": 131.1,
          "velocity": 0.7874015748031497
        },
        {
          "duration": 0.09999999999999432,
          "durationTicks": 20,
          "midi": 28,
          "name": "E1",
          "ticks": 26280,
          "time": 131.4,
          "velocity": 0.7874015748031497
        },
        {
          "duration": 0.09999999999999432,
          "durationTicks": 20,
          "midi": 62,
          "name": "D4",
          "ticks": 26400,
          "time": 132,
          "velocity": 0.7874015748031497
        },
        {
          "duration": 0.09999999999999432,
          "durationTicks": 20,
          "midi": 62,
          "name": "D4",
          "ticks": 26460,
          "time": 132.29999999999998,
          "velocity": 0.7874015748031497
        },
        {
          "duration": 0.09999999999999432,
          "durationTicks": 20,
          "midi": 28,
          "name": "E1",
          "ticks": 26520,
          "time": 132.6,
          "velocity": 0.7874015748031497
        },
        {
          "duration": 0.09999999999999432,
          "durationTicks": 20,
          "midi": 82,
          "name": "A#5",
          "ticks": 26580,
          "time": 132.9,
          "velocity": 0.47244094488188976
        },
        {
          "duration": 0.09999999999999432,
          "durationTicks": 20,
          "midi": 82,
          "name": "A#5",
          "ticks": 26620,
          "time": 133.1,
          "velocity": 0.7874015748031497
        },
        {
          "duration": 0.09999999999999432,
          "durationTicks": 20,
          "midi": 82,
          "name": "A#5",
          "ticks": 26640,
          "time": 133.2,
          "velocity": 0.47244094488188976
        },
        {
          "duration": 0.09999999999999432,
          "durationTicks": 20,
          "midi": 82,
          "name": "A#5",
          "ticks": 26680,
          "time": 133.4,
          "velocity": 0.7874015748031497
        },
        {
          "duration": 0.09999999999999432,
          "durationTicks": 20,
          "midi": 62,
          "name": "D4",
          "ticks": 26700,
          "time": 133.5,
          "velocity": 0.7874015748031497
        },
        {
          "duration": 0.09999999999999432,
          "durationTicks": 20,
          "midi": 28,
          "name": "E1",
          "ticks": 26760,
          "time": 133.79999999999998,
          "velocity": 0.7874015748031497
        },
        {
          "duration": 0.09999999999999432,
          "durationTicks": 20,
          "midi": 62,
          "name": "D4",
          "ticks": 26880,
          "time": 134.4,
          "velocity": 0.7874015748031497
        },
        {
          "duration": 0.09999999999999432,
          "durationTicks": 20,
          "midi": 62,
          "name": "D4",
          "ticks": 26940,
          "time": 134.7,
          "velocity": 0.7874015748031497
        },
        {
          "duration": 0.09999999999999432,
          "durationTicks": 20,
          "midi": 28,
          "name": "E1",
          "ticks": 27000,
          "time": 135,
          "velocity": 0.7874015748031497
        },
        {
          "duration": 0.09999999999999432,
          "durationTicks": 20,
          "midi": 82,
          "name": "A#5",
          "ticks": 27060,
          "time": 135.29999999999998,
          "velocity": 0.47244094488188976
        },
        {
          "duration": 0.09999999999999432,
          "durationTicks": 20,
          "midi": 82,
          "name": "A#5",
          "ticks": 27100,
          "time": 135.5,
          "velocity": 0.7874015748031497
        },
        {
          "duration": 0.09999999999999432,
          "durationTicks": 20,
          "midi": 82,
          "name": "A#5",
          "ticks": 27120,
          "time": 135.6,
          "velocity": 0.47244094488188976
        },
        {
          "duration": 0.09999999999999432,
          "durationTicks": 20,
          "midi": 82,
          "name": "A#5",
          "ticks": 27160,
          "time": 135.8,
          "velocity": 0.7874015748031497
        },
        {
          "duration": 0.09999999999999432,
          "durationTicks": 20,
          "midi": 62,
          "name": "D4",
          "ticks": 27180,
          "time": 135.9,
          "velocity": 0.7874015748031497
        },
        {
          "duration": 0.09999999999999432,
          "durationTicks": 20,
          "midi": 28,
          "name": "E1",
          "ticks": 27240,
          "time": 136.2,
          "velocity": 0.7874015748031497
        },
        {
          "duration": 0.09999999999999432,
          "durationTicks": 20,
          "midi": 62,
          "name": "D4",
          "ticks": 27360,
          "time": 136.79999999999998,
          "velocity": 0.7874015748031497
        },
        {
          "duration": 0.09999999999999432,
          "durationTicks": 20,
          "midi": 62,
          "name": "D4",
          "ticks": 27420,
          "time": 137.1,
          "velocity": 0.7874015748031497
        },
        {
          "duration": 0.09999999999999432,
          "durationTicks": 20,
          "midi": 28,
          "name": "E1",
          "ticks": 27480,
          "time": 137.4,
          "velocity": 0.7874015748031497
        },
        {
          "duration": 0.09999999999999432,
          "durationTicks": 20,
          "midi": 82,
          "name": "A#5",
          "ticks": 27540,
          "time": 137.7,
          "velocity": 0.47244094488188976
        },
        {
          "duration": 0.09999999999999432,
          "durationTicks": 20,
          "midi": 82,
          "name": "A#5",
          "ticks": 27580,
          "time": 137.9,
          "velocity": 0.7874015748031497
        },
        {
          "duration": 0.09999999999999432,
          "durationTicks": 20,
          "midi": 82,
          "name": "A#5",
          "ticks": 27600,
          "time": 138,
          "velocity": 0.47244094488188976
        },
        {
          "duration": 0.09999999999999432,
          "durationTicks": 20,
          "midi": 82,
          "name": "A#5",
          "ticks": 27640,
          "time": 138.2,
          "velocity": 0.7874015748031497
        },
        {
          "duration": 0.09999999999999432,
          "durationTicks": 20,
          "midi": 62,
          "name": "D4",
          "ticks": 27660,
          "time": 138.29999999999998,
          "velocity": 0.7874015748031497
        },
        {
          "duration": 0.09999999999999432,
          "durationTicks": 20,
          "midi": 28,
          "name": "E1",
          "ticks": 27720,
          "time": 138.6,
          "velocity": 0.7874015748031497
        },
        {
          "duration": 0.09999999999999432,
          "durationTicks": 20,
          "midi": 62,
          "name": "D4",
          "ticks": 27840,
          "time": 139.2,
          "velocity": 0.7874015748031497
        },
        {
          "duration": 0.09999999999999432,
          "durationTicks": 20,
          "midi": 62,
          "name": "D4",
          "ticks": 27900,
          "time": 139.5,
          "velocity": 0.7874015748031497
        },
        {
          "duration": 0.09999999999999432,
          "durationTicks": 20,
          "midi": 28,
          "name": "E1",
          "ticks": 27960,
          "time": 139.79999999999998,
          "velocity": 0.7874015748031497
        },
        {
          "duration": 0.09999999999999432,
          "durationTicks": 20,
          "midi": 82,
          "name": "A#5",
          "ticks": 28020,
          "time": 140.1,
          "velocity": 0.47244094488188976
        },
        {
          "duration": 0.09999999999999432,
          "durationTicks": 20,
          "midi": 82,
          "name": "A#5",
          "ticks": 28060,
          "time": 140.3,
          "velocity": 0.7874015748031497
        },
        {
          "duration": 0.09999999999999432,
          "durationTicks": 20,
          "midi": 82,
          "name": "A#5",
          "ticks": 28080,
          "time": 140.4,
          "velocity": 0.47244094488188976
        },
        {
          "duration": 0.09999999999999432,
          "durationTicks": 20,
          "midi": 82,
          "name": "A#5",
          "ticks": 28120,
          "time": 140.6,
          "velocity": 0.7874015748031497
        },
        {
          "duration": 0.09999999999999432,
          "durationTicks": 20,
          "midi": 62,
          "name": "D4",
          "ticks": 28140,
          "time": 140.7,
          "velocity": 0.7874015748031497
        },
        {
          "duration": 0.09999999999999432,
          "durationTicks": 20,
          "midi": 28,
          "name": "E1",
          "ticks": 28200,
          "time": 141,
          "velocity": 0.7874015748031497
        },
        {
          "duration": 0.09999999999999432,
          "durationTicks": 20,
          "midi": 62,
          "name": "D4",
          "ticks": 28320,
          "time": 141.6,
          "velocity": 0.7874015748031497
        },
        {
          "duration": 0.09999999999999432,
          "durationTicks": 20,
          "midi": 62,
          "name": "D4",
          "ticks": 28380,
          "time": 141.9,
          "velocity": 0.7874015748031497
        },
        {
          "duration": 0.09999999999999432,
          "durationTicks": 20,
          "midi": 28,
          "name": "E1",
          "ticks": 28440,
          "time": 142.2,
          "velocity": 0.7874015748031497
        },
        {
          "duration": 0.09999999999999432,
          "durationTicks": 20,
          "midi": 82,
          "name": "A#5",
          "ticks": 28500,
          "time": 142.5,
          "velocity": 0.47244094488188976
        },
        {
          "duration": 0.09999999999999432,
          "durationTicks": 20,
          "midi": 82,
          "name": "A#5",
          "ticks": 28540,
          "time": 142.7,
          "velocity": 0.7874015748031497
        },
        {
          "duration": 0.09999999999999432,
          "durationTicks": 20,
          "midi": 82,
          "name": "A#5",
          "ticks": 28560,
          "time": 142.79999999999998,
          "velocity": 0.47244094488188976
        },
        {
          "duration": 0.09999999999999432,
          "durationTicks": 20,
          "midi": 82,
          "name": "A#5",
          "ticks": 28600,
          "time": 143,
          "velocity": 0.7874015748031497
        },
        {
          "duration": 0.09999999999999432,
          "durationTicks": 20,
          "midi": 62,
          "name": "D4",
          "ticks": 28620,
          "time": 143.1,
          "velocity": 0.7874015748031497
        },
        {
          "duration": 0.09999999999999432,
          "durationTicks": 20,
          "midi": 28,
          "name": "E1",
          "ticks": 28680,
          "time": 143.4,
          "velocity": 0.7874015748031497
        },
        {
          "duration": 0.09999999999999432,
          "durationTicks": 20,
          "midi": 62,
          "name": "D4",
          "ticks": 28800,
          "time": 144,
          "velocity": 0.7874015748031497
        },
        {
          "duration": 0.09999999999999432,
          "durationTicks": 20,
          "midi": 62,
          "name": "D4",
          "ticks": 28860,
          "time": 144.29999999999998,
          "velocity": 0.7874015748031497
        },
        {
          "duration": 0.09999999999999432,
          "durationTicks": 20,
          "midi": 28,
          "name": "E1",
          "ticks": 28920,
          "time": 144.6,
          "velocity": 0.7874015748031497
        },
        {
          "duration": 0.09999999999999432,
          "durationTicks": 20,
          "midi": 82,
          "name": "A#5",
          "ticks": 28980,
          "time": 144.9,
          "velocity": 0.47244094488188976
        },
        {
          "duration": 0.09999999999999432,
          "durationTicks": 20,
          "midi": 82,
          "name": "A#5",
          "ticks": 29020,
          "time": 145.1,
          "velocity": 0.7874015748031497
        },
        {
          "duration": 0.09999999999999432,
          "durationTicks": 20,
          "midi": 82,
          "name": "A#5",
          "ticks": 29040,
          "time": 145.2,
          "velocity": 0.47244094488188976
        },
        {
          "duration": 0.09999999999999432,
          "durationTicks": 20,
          "midi": 82,
          "name": "A#5",
          "ticks": 29080,
          "time": 145.4,
          "velocity": 0.7874015748031497
        },
        {
          "duration": 0.09999999999999432,
          "durationTicks": 20,
          "midi": 62,
          "name": "D4",
          "ticks": 29100,
          "time": 145.5,
          "velocity": 0.7874015748031497
        },
        {
          "duration": 0.09999999999999432,
          "durationTicks": 20,
          "midi": 28,
          "name": "E1",
          "ticks": 29160,
          "time": 145.79999999999998,
          "velocity": 0.7874015748031497
        },
        {
          "duration": 0.09999999999999432,
          "durationTicks": 20,
          "midi": 62,
          "name": "D4",
          "ticks": 29280,
          "time": 146.4,
          "velocity": 0.7874015748031497
        },
        {
          "duration": 0.09999999999999432,
          "durationTicks": 20,
          "midi": 62,
          "name": "D4",
          "ticks": 29340,
          "time": 146.7,
          "velocity": 0.7874015748031497
        },
        {
          "duration": 0.09999999999999432,
          "durationTicks": 20,
          "midi": 28,
          "name": "E1",
          "ticks": 29400,
          "time": 147,
          "velocity": 0.7874015748031497
        },
        {
          "duration": 0.09999999999999432,
          "durationTicks": 20,
          "midi": 82,
          "name": "A#5",
          "ticks": 29460,
          "time": 147.29999999999998,
          "velocity": 0.47244094488188976
        },
        {
          "duration": 0.09999999999999432,
          "durationTicks": 20,
          "midi": 82,
          "name": "A#5",
          "ticks": 29500,
          "time": 147.5,
          "velocity": 0.7874015748031497
        },
        {
          "duration": 0.09999999999999432,
          "durationTicks": 20,
          "midi": 82,
          "name": "A#5",
          "ticks": 29520,
          "time": 147.6,
          "velocity": 0.47244094488188976
        },
        {
          "duration": 0.09999999999999432,
          "durationTicks": 20,
          "midi": 82,
          "name": "A#5",
          "ticks": 29560,
          "time": 147.8,
          "velocity": 0.7874015748031497
        },
        {
          "duration": 0.09999999999999432,
          "durationTicks": 20,
          "midi": 62,
          "name": "D4",
          "ticks": 29580,
          "time": 147.9,
          "velocity": 0.7874015748031497
        },
        {
          "duration": 0.09999999999999432,
          "durationTicks": 20,
          "midi": 28,
          "name": "E1",
          "ticks": 29640,
          "time": 148.2,
          "velocity": 0.7874015748031497
        },
        {
          "duration": 0.09999999999999432,
          "durationTicks": 20,
          "midi": 62,
          "name": "D4",
          "ticks": 29760,
          "time": 148.79999999999998,
          "velocity": 0.7874015748031497
        },
        {
          "duration": 0.09999999999999432,
          "durationTicks": 20,
          "midi": 62,
          "name": "D4",
          "ticks": 29820,
          "time": 149.1,
          "velocity": 0.7874015748031497
        },
        {
          "duration": 0.09999999999999432,
          "durationTicks": 20,
          "midi": 28,
          "name": "E1",
          "ticks": 29880,
          "time": 149.4,
          "velocity": 0.7874015748031497
        },
        {
          "duration": 0.09999999999999432,
          "durationTicks": 20,
          "midi": 82,
          "name": "A#5",
          "ticks": 29940,
          "time": 149.7,
          "velocity": 0.47244094488188976
        },
        {
          "duration": 0.09999999999999432,
          "durationTicks": 20,
          "midi": 82,
          "name": "A#5",
          "ticks": 29980,
          "time": 149.9,
          "velocity": 0.7874015748031497
        },
        {
          "duration": 0.09999999999999432,
          "durationTicks": 20,
          "midi": 82,
          "name": "A#5",
          "ticks": 30000,
          "time": 150,
          "velocity": 0.47244094488188976
        },
        {
          "duration": 0.09999999999999432,
          "durationTicks": 20,
          "midi": 82,
          "name": "A#5",
          "ticks": 30040,
          "time": 150.2,
          "velocity": 0.7874015748031497
        },
        {
          "duration": 0.09999999999999432,
          "durationTicks": 20,
          "midi": 62,
          "name": "D4",
          "ticks": 30060,
          "time": 150.29999999999998,
          "velocity": 0.7874015748031497
        },
        {
          "duration": 0.09999999999999432,
          "durationTicks": 20,
          "midi": 28,
          "name": "E1",
          "ticks": 30120,
          "time": 150.6,
          "velocity": 0.7874015748031497
        },
        {
          "duration": 0.09999999999999432,
          "durationTicks": 20,
          "midi": 62,
          "name": "D4",
          "ticks": 30240,
          "time": 151.2,
          "velocity": 0.7874015748031497
        },
        {
          "duration": 0.09999999999999432,
          "durationTicks": 20,
          "midi": 62,
          "name": "D4",
          "ticks": 30300,
          "time": 151.5,
          "velocity": 0.7874015748031497
        },
        {
          "duration": 0.09999999999999432,
          "durationTicks": 20,
          "midi": 28,
          "name": "E1",
          "ticks": 30360,
          "time": 151.79999999999998,
          "velocity": 0.7874015748031497
        },
        {
          "duration": 0.09999999999999432,
          "durationTicks": 20,
          "midi": 82,
          "name": "A#5",
          "ticks": 30420,
          "time": 152.1,
          "velocity": 0.47244094488188976
        },
        {
          "duration": 0.09999999999999432,
          "durationTicks": 20,
          "midi": 82,
          "name": "A#5",
          "ticks": 30460,
          "time": 152.3,
          "velocity": 0.7874015748031497
        },
        {
          "duration": 0.09999999999999432,
          "durationTicks": 20,
          "midi": 82,
          "name": "A#5",
          "ticks": 30480,
          "time": 152.4,
          "velocity": 0.47244094488188976
        },
        {
          "duration": 0.09999999999999432,
          "durationTicks": 20,
          "midi": 82,
          "name": "A#5",
          "ticks": 30520,
          "time": 152.6,
          "velocity": 0.7874015748031497
        },
        {
          "duration": 0.09999999999999432,
          "durationTicks": 20,
          "midi": 62,
          "name": "D4",
          "ticks": 30540,
          "time": 152.7,
          "velocity": 0.7874015748031497
        },
        {
          "duration": 0.09999999999999432,
          "durationTicks": 20,
          "midi": 28,
          "name": "E1",
          "ticks": 30600,
          "time": 153,
          "velocity": 0.7874015748031497
        },
        {
          "duration": 0.10000000000002274,
          "durationTicks": 20,
          "midi": 62,
          "name": "D4",
          "ticks": 30720,
          "time": 153.6,
          "velocity": 0.7874015748031497
        },
        {
          "duration": 0.09999999999999432,
          "durationTicks": 20,
          "midi": 62,
          "name": "D4",
          "ticks": 30780,
          "time": 153.9,
          "velocity": 0.7874015748031497
        },
        {
          "duration": 0.10000000000002274,
          "durationTicks": 20,
          "midi": 28,
          "name": "E1",
          "ticks": 30840,
          "time": 154.2,
          "velocity": 0.7874015748031497
        },
        {
          "duration": 0.09999999999999432,
          "durationTicks": 20,
          "midi": 82,
          "name": "A#5",
          "ticks": 30900,
          "time": 154.5,
          "velocity": 0.47244094488188976
        },
        {
          "duration": 0.09999999999999432,
          "durationTicks": 20,
          "midi": 82,
          "name": "A#5",
          "ticks": 30940,
          "time": 154.7,
          "velocity": 0.7874015748031497
        },
        {
          "duration": 0.10000000000002274,
          "durationTicks": 20,
          "midi": 82,
          "name": "A#5",
          "ticks": 30960,
          "time": 154.79999999999998,
          "velocity": 0.47244094488188976
        },
        {
          "duration": 0.10000000000002274,
          "durationTicks": 20,
          "midi": 82,
          "name": "A#5",
          "ticks": 31000,
          "time": 154.99999999999997,
          "velocity": 0.7874015748031497
        },
        {
          "duration": 0.10000000000002274,
          "durationTicks": 20,
          "midi": 62,
          "name": "D4",
          "ticks": 31020,
          "time": 155.1,
          "velocity": 0.7874015748031497
        },
        {
          "duration": 0.09999999999999432,
          "durationTicks": 20,
          "midi": 28,
          "name": "E1",
          "ticks": 31080,
          "time": 155.4,
          "velocity": 0.7874015748031497
        },
        {
          "duration": 0.09999999999999432,
          "durationTicks": 20,
          "midi": 62,
          "name": "D4",
          "ticks": 31200,
          "time": 156,
          "velocity": 0.7874015748031497
        },
        {
          "duration": 0.10000000000002274,
          "durationTicks": 20,
          "midi": 62,
          "name": "D4",
          "ticks": 31260,
          "time": 156.29999999999998,
          "velocity": 0.7874015748031497
        },
        {
          "duration": 0.10000000000002274,
          "durationTicks": 20,
          "midi": 28,
          "name": "E1",
          "ticks": 31320,
          "time": 156.6,
          "velocity": 0.7874015748031497
        },
        {
          "duration": 0.09999999999999432,
          "durationTicks": 20,
          "midi": 82,
          "name": "A#5",
          "ticks": 31380,
          "time": 156.9,
          "velocity": 0.47244094488188976
        },
        {
          "duration": 0.09999999999999432,
          "durationTicks": 20,
          "midi": 82,
          "name": "A#5",
          "ticks": 31420,
          "time": 157.1,
          "velocity": 0.7874015748031497
        },
        {
          "duration": 0.10000000000002274,
          "durationTicks": 20,
          "midi": 82,
          "name": "A#5",
          "ticks": 31440,
          "time": 157.2,
          "velocity": 0.47244094488188976
        },
        {
          "duration": 0.10000000000002274,
          "durationTicks": 20,
          "midi": 82,
          "name": "A#5",
          "ticks": 31480,
          "time": 157.39999999999998,
          "velocity": 0.7874015748031497
        },
        {
          "duration": 0.09999999999999432,
          "durationTicks": 20,
          "midi": 62,
          "name": "D4",
          "ticks": 31500,
          "time": 157.5,
          "velocity": 0.7874015748031497
        },
        {
          "duration": 0.10000000000002274,
          "durationTicks": 20,
          "midi": 28,
          "name": "E1",
          "ticks": 31560,
          "time": 157.79999999999998,
          "velocity": 0.7874015748031497
        },
        {
          "duration": 0.09999999999999432,
          "durationTicks": 20,
          "midi": 62,
          "name": "D4",
          "ticks": 31680,
          "time": 158.4,
          "velocity": 0.7874015748031497
        },
        {
          "duration": 0.10000000000002274,
          "durationTicks": 20,
          "midi": 62,
          "name": "D4",
          "ticks": 31740,
          "time": 158.7,
          "velocity": 0.7874015748031497
        },
        {
          "duration": 0.09999999999999432,
          "durationTicks": 20,
          "midi": 28,
          "name": "E1",
          "ticks": 31800,
          "time": 159,
          "velocity": 0.7874015748031497
        },
        {
          "duration": 0.10000000000002274,
          "durationTicks": 20,
          "midi": 82,
          "name": "A#5",
          "ticks": 31860,
          "time": 159.29999999999998,
          "velocity": 0.47244094488188976
        },
        {
          "duration": 0.10000000000002274,
          "durationTicks": 20,
          "midi": 82,
          "name": "A#5",
          "ticks": 31900,
          "time": 159.49999999999997,
          "velocity": 0.7874015748031497
        },
        {
          "duration": 0.10000000000002274,
          "durationTicks": 20,
          "midi": 82,
          "name": "A#5",
          "ticks": 31920,
          "time": 159.6,
          "velocity": 0.47244094488188976
        },
        {
          "duration": 0.10000000000002274,
          "durationTicks": 20,
          "midi": 82,
          "name": "A#5",
          "ticks": 31960,
          "time": 159.79999999999998,
          "velocity": 0.7874015748031497
        },
        {
          "duration": 0.09999999999999432,
          "durationTicks": 20,
          "midi": 62,
          "name": "D4",
          "ticks": 31980,
          "time": 159.9,
          "velocity": 0.7874015748031497
        },
        {
          "duration": 0.10000000000002274,
          "durationTicks": 20,
          "midi": 28,
          "name": "E1",
          "ticks": 32040,
          "time": 160.2,
          "velocity": 0.7874015748031497
        },
        {
          "duration": 0.10000000000002274,
          "durationTicks": 20,
          "midi": 82,
          "name": "A#5",
          "ticks": 32340,
          "time": 161.7,
          "velocity": 0.47244094488188976
        },
        {
          "duration": 0.10000000000002274,
          "durationTicks": 20,
          "midi": 82,
          "name": "A#5",
          "ticks": 32380,
          "time": 161.89999999999998,
          "velocity": 0.7874015748031497
        },
        {
          "duration": 0.09999999999999432,
          "durationTicks": 20,
          "midi": 82,
          "name": "A#5",
          "ticks": 32400,
          "time": 162,
          "velocity": 0.47244094488188976
        },
        {
          "duration": 0.09999999999999432,
          "durationTicks": 20,
          "midi": 82,
          "name": "A#5",
          "ticks": 32440,
          "time": 162.2,
          "velocity": 0.7874015748031497
        },
        {
          "duration": 0.10000000000002274,
          "durationTicks": 20,
          "midi": 82,
          "name": "A#5",
          "ticks": 32460,
          "time": 162.29999999999998,
          "velocity": 0.47244094488188976
        },
        {
          "duration": 0.10000000000002274,
          "durationTicks": 20,
          "midi": 28,
          "name": "E1",
          "ticks": 32520,
          "time": 162.6,
          "velocity": 0.7874015748031497
        }
      ],
      "endOfTrackTicks": 32640
    },
    {
      "channel": 0,
      "controlChanges": {},
      "pitchBends": [],
      "instrument": {
        "family": "piano",
        "number": 0,
        "name": "acoustic grand piano"
      },
      "name": "",
      "notes": [],
      "endOfTrackTicks": 32640
    },
    {
      "channel": 0,
      "controlChanges": {},
      "pitchBends": [],
      "instrument": {
        "family": "piano",
        "number": 0,
        "name": "acoustic grand piano"
      },
      "name": "",
      "notes": [],
      "endOfTrackTicks": 32640
    },
    {
      "channel": 0,
      "controlChanges": {},
      "pitchBends": [],
      "instrument": {
        "family": "piano",
        "number": 0,
        "name": "acoustic grand piano"
      },
      "name": "",
      "notes": [],
      "endOfTrackTicks": 32640
    },
    {
      "channel": 0,
      "controlChanges": {},
      "pitchBends": [],
      "instrument": {
        "family": "piano",
        "number": 0,
        "name": "acoustic grand piano"
      },
      "name": "",
      "notes": [],
      "endOfTrackTicks": 32640
    },
    {
      "channel": 0,
      "controlChanges": {},
      "pitchBends": [],
      "instrument": {
        "family": "piano",
        "number": 0,
        "name": "acoustic grand piano"
      },
      "name": "",
      "notes": [],
      "endOfTrackTicks": 32640
    },
    {
      "channel": 0,
      "controlChanges": {},
      "pitchBends": [],
      "instrument": {
        "family": "piano",
        "number": 0,
        "name": "acoustic grand piano"
      },
      "name": "",
      "notes": [],
      "endOfTrackTicks": 32640
    }
  ]
}
