var My_Confession = {
  "header": {
    "keySignatures": [
      {
        "key": "G",
        "scale": "major",
        "ticks": 0
      },
      {
        "key": "G",
        "scale": "major",
        "ticks": 0
      },
      {
        "key": "G",
        "scale": "major",
        "ticks": 0
      },
      {
        "key": "G",
        "scale": "major",
        "ticks": 0
      },
      {
        "key": "G",
        "scale": "major",
        "ticks": 0
      },
      {
        "key": "G",
        "scale": "major",
        "ticks": 0
      },
      {
        "key": "G",
        "scale": "major",
        "ticks": 0
      },
      {
        "key": "G",
        "scale": "major",
        "ticks": 0
      }
    ],
    "meta": [],
    "name": "My Confession",
    "ppq": 480,
    "tempos": [
      {
        "bpm": 79.99978666723555,
        "ticks": 0
      }
    ],
    "timeSignatures": [
      {
        "ticks": 0,
        "timeSignature": [
          4,
          4
        ],
        "measures": 0
      }
    ]
  },
  "tracks": [
    {
      "channel": 1,
      "controlChanges": {
        "2": [
          {
            "number": 2,
            "ticks": 34560,
            "time": 54.000144,
            "value": 0.6299212598425197
          }
        ],
        "7": [
          {
            "number": 7,
            "ticks": 0,
            "time": 0,
            "value": 0.7874015748031497
          }
        ],
        "10": [
          {
            "number": 10,
            "ticks": 0,
            "time": 0,
            "value": 0.5039370078740157
          }
        ],
        "91": [
          {
            "number": 91,
            "ticks": 0,
            "time": 0,
            "value": 0
          }
        ],
        "93": [
          {
            "number": 93,
            "ticks": 0,
            "time": 0,
            "value": 0
          }
        ]
      },
      "pitchBends": [],
      "instrument": {
        "family": "pipe",
        "number": 73,
        "name": "flute"
      },
      "name": "",
      "notes": [
        {
          "duration": 2.848445095833327,
          "durationTicks": 1823,
          "midi": 62,
          "name": "D4",
          "ticks": 34560,
          "time": 54.000144,
          "velocity": 0.6299212598425197
        },
        {
          "duration": 2.848445095833334,
          "durationTicks": 1823,
          "midi": 65,
          "name": "F4",
          "ticks": 36480,
          "time": 57.00015199999999,
          "velocity": 0.6299212598425197
        },
        {
          "duration": 2.848445095833334,
          "durationTicks": 1823,
          "midi": 67,
          "name": "G4",
          "ticks": 38400,
          "time": 60.000159999999994,
          "velocity": 0.6299212598425197
        },
        {
          "duration": 2.848445095833334,
          "durationTicks": 1823,
          "midi": 69,
          "name": "A4",
          "ticks": 40320,
          "time": 63.000167999999995,
          "velocity": 0.6299212598425197
        }
      ]
    },
    {
      "channel": 0,
      "controlChanges": {
        "121": [
          {
            "number": 121,
            "ticks": 0,
            "time": 0,
            "value": 0
          }
        ]
      },
      "pitchBends": [],
      "instrument": {
        "family": "piano",
        "number": 0,
        "name": "acoustic grand piano"
      },
      "name": "Glockenspiel\u0000",
      "notes": [],
      "endOfTrackTicks": 57600
    },
    {
      "channel": 2,
      "controlChanges": {
        "7": [
          {
            "number": 7,
            "ticks": 0,
            "time": 0,
            "value": 0.7874015748031497
          }
        ],
        "10": [
          {
            "number": 10,
            "ticks": 0,
            "time": 0,
            "value": 0.5039370078740157
          }
        ],
        "91": [
          {
            "number": 91,
            "ticks": 0,
            "time": 0,
            "value": 0
          }
        ],
        "93": [
          {
            "number": 93,
            "ticks": 0,
            "time": 0,
            "value": 0
          }
        ]
      },
      "pitchBends": [],
      "instrument": {
        "family": "chromatic percussion",
        "number": 9,
        "name": "glockenspiel"
      },
      "name": "",
      "notes": [
        {
          "duration": 0.37343849583334077,
          "durationTicks": 239,
          "midi": 91,
          "name": "G6",
          "ticks": 42480,
          "time": 66.375177,
          "velocity": 0.6299212598425197
        },
        {
          "duration": 0.37343849583334077,
          "durationTicks": 239,
          "midi": 95,
          "name": "B6",
          "ticks": 42720,
          "time": 66.75017799999999,
          "velocity": 0.6299212598425197
        },
        {
          "duration": 0.37343849583334077,
          "durationTicks": 239,
          "midi": 91,
          "name": "G6",
          "ticks": 42960,
          "time": 67.12517899999999,
          "velocity": 0.6299212598425197
        },
        {
          "duration": 0.37343849583332656,
          "durationTicks": 239,
          "midi": 91,
          "name": "G6",
          "ticks": 43440,
          "time": 67.875181,
          "velocity": 0.6299212598425197
        },
        {
          "duration": 0.37343849583334077,
          "durationTicks": 239,
          "midi": 96,
          "name": "C7",
          "ticks": 43680,
          "time": 68.250182,
          "velocity": 0.6299212598425197
        },
        {
          "duration": 0.37343849583334077,
          "durationTicks": 239,
          "midi": 91,
          "name": "G6",
          "ticks": 43920,
          "time": 68.62518299999999,
          "velocity": 0.6299212598425197
        },
        {
          "duration": 0.37343849583332656,
          "durationTicks": 239,
          "midi": 91,
          "name": "G6",
          "ticks": 44400,
          "time": 69.375185,
          "velocity": 0.6299212598425197
        },
        {
          "duration": 0.37343849583332656,
          "durationTicks": 239,
          "midi": 96,
          "name": "C7",
          "ticks": 44640,
          "time": 69.750186,
          "velocity": 0.6299212598425197
        },
        {
          "duration": 0.37343849583332656,
          "durationTicks": 239,
          "midi": 103,
          "name": "G7",
          "ticks": 44880,
          "time": 70.125187,
          "velocity": 0.6299212598425197
        },
        {
          "duration": 0.37343849583334077,
          "durationTicks": 239,
          "midi": 84,
          "name": "C6",
          "ticks": 45120,
          "time": 70.500188,
          "velocity": 0.6299212598425197
        },
        {
          "duration": 0.37343849583334077,
          "durationTicks": 239,
          "midi": 89,
          "name": "F6",
          "ticks": 45360,
          "time": 70.87518899999999,
          "velocity": 0.6299212598425197
        },
        {
          "duration": 0.37343849583334077,
          "durationTicks": 239,
          "midi": 93,
          "name": "A6",
          "ticks": 45600,
          "time": 71.25018999999999,
          "velocity": 0.6299212598425197
        },
        {
          "duration": 0.37343849583332656,
          "durationTicks": 239,
          "midi": 95,
          "name": "B6",
          "ticks": 45840,
          "time": 71.625191,
          "velocity": 0.6299212598425197
        },
        {
          "duration": 0.37343849583334077,
          "durationTicks": 239,
          "midi": 91,
          "name": "G6",
          "ticks": 46320,
          "time": 72.375193,
          "velocity": 0.6299212598425197
        },
        {
          "duration": 0.37343849583334077,
          "durationTicks": 239,
          "midi": 95,
          "name": "B6",
          "ticks": 46560,
          "time": 72.750194,
          "velocity": 0.6299212598425197
        },
        {
          "duration": 0.37343849583334077,
          "durationTicks": 239,
          "midi": 91,
          "name": "G6",
          "ticks": 46800,
          "time": 73.12519499999999,
          "velocity": 0.6299212598425197
        },
        {
          "duration": 0.37343849583332656,
          "durationTicks": 239,
          "midi": 91,
          "name": "G6",
          "ticks": 47280,
          "time": 73.875197,
          "velocity": 0.6299212598425197
        },
        {
          "duration": 0.37343849583332656,
          "durationTicks": 239,
          "midi": 96,
          "name": "C7",
          "ticks": 47520,
          "time": 74.250198,
          "velocity": 0.6299212598425197
        },
        {
          "duration": 0.37343849583334077,
          "durationTicks": 239,
          "midi": 91,
          "name": "G6",
          "ticks": 47760,
          "time": 74.625199,
          "velocity": 0.6299212598425197
        },
        {
          "duration": 0.37343849583334077,
          "durationTicks": 239,
          "midi": 91,
          "name": "G6",
          "ticks": 48240,
          "time": 75.37520099999999,
          "velocity": 0.6299212598425197
        },
        {
          "duration": 0.37343849583332656,
          "durationTicks": 239,
          "midi": 96,
          "name": "C7",
          "ticks": 48480,
          "time": 75.750202,
          "velocity": 0.6299212598425197
        },
        {
          "duration": 0.37343849583332656,
          "durationTicks": 239,
          "midi": 103,
          "name": "G7",
          "ticks": 48720,
          "time": 76.125203,
          "velocity": 0.6299212598425197
        },
        {
          "duration": 0.37343849583332656,
          "durationTicks": 239,
          "midi": 84,
          "name": "C6",
          "ticks": 48960,
          "time": 76.500204,
          "velocity": 0.6299212598425197
        },
        {
          "duration": 0.37343849583334077,
          "durationTicks": 239,
          "midi": 89,
          "name": "F6",
          "ticks": 49200,
          "time": 76.875205,
          "velocity": 0.6299212598425197
        },
        {
          "duration": 0.37343849583334077,
          "durationTicks": 239,
          "midi": 93,
          "name": "A6",
          "ticks": 49440,
          "time": 77.25020599999999,
          "velocity": 0.6299212598425197
        },
        {
          "duration": 0.37343849583334077,
          "durationTicks": 239,
          "midi": 95,
          "name": "B6",
          "ticks": 49680,
          "time": 77.62520699999999,
          "velocity": 0.6299212598425197
        },
        {
          "duration": 0.37343849583332656,
          "durationTicks": 239,
          "midi": 91,
          "name": "G6",
          "ticks": 50160,
          "time": 78.375209,
          "velocity": 0.6299212598425197
        },
        {
          "duration": 0.37343849583332656,
          "durationTicks": 239,
          "midi": 95,
          "name": "B6",
          "ticks": 50400,
          "time": 78.75021,
          "velocity": 0.6299212598425197
        },
        {
          "duration": 0.37343849583334077,
          "durationTicks": 239,
          "midi": 91,
          "name": "G6",
          "ticks": 50640,
          "time": 79.125211,
          "velocity": 0.6299212598425197
        },
        {
          "duration": 0.37343849583334077,
          "durationTicks": 239,
          "midi": 91,
          "name": "G6",
          "ticks": 51120,
          "time": 79.87521299999999,
          "velocity": 0.6299212598425197
        },
        {
          "duration": 0.37343849583332656,
          "durationTicks": 239,
          "midi": 96,
          "name": "C7",
          "ticks": 51360,
          "time": 80.250214,
          "velocity": 0.6299212598425197
        },
        {
          "duration": 0.37343849583332656,
          "durationTicks": 239,
          "midi": 91,
          "name": "G6",
          "ticks": 51600,
          "time": 80.625215,
          "velocity": 0.6299212598425197
        },
        {
          "duration": 0.37343849583334077,
          "durationTicks": 239,
          "midi": 91,
          "name": "G6",
          "ticks": 52080,
          "time": 81.37521699999999,
          "velocity": 0.6299212598425197
        },
        {
          "duration": 0.37343849583334077,
          "durationTicks": 239,
          "midi": 96,
          "name": "C7",
          "ticks": 52320,
          "time": 81.75021799999999,
          "velocity": 0.6299212598425197
        },
        {
          "duration": 0.37343849583334077,
          "durationTicks": 239,
          "midi": 103,
          "name": "G7",
          "ticks": 52560,
          "time": 82.12521899999999,
          "velocity": 0.6299212598425197
        },
        {
          "duration": 0.37343849583332656,
          "durationTicks": 239,
          "midi": 84,
          "name": "C6",
          "ticks": 52800,
          "time": 82.50022,
          "velocity": 0.6299212598425197
        },
        {
          "duration": 0.37343849583332656,
          "durationTicks": 239,
          "midi": 89,
          "name": "F6",
          "ticks": 53040,
          "time": 82.875221,
          "velocity": 0.6299212598425197
        },
        {
          "duration": 0.37343849583334077,
          "durationTicks": 239,
          "midi": 93,
          "name": "A6",
          "ticks": 53280,
          "time": 83.250222,
          "velocity": 0.6299212598425197
        },
        {
          "duration": 0.37343849583334077,
          "durationTicks": 239,
          "midi": 95,
          "name": "B6",
          "ticks": 53520,
          "time": 83.62522299999999,
          "velocity": 0.6299212598425197
        },
        {
          "duration": 0.37343849583332656,
          "durationTicks": 239,
          "midi": 91,
          "name": "G6",
          "ticks": 54000,
          "time": 84.375225,
          "velocity": 0.6299212598425197
        },
        {
          "duration": 0.37343849583332656,
          "durationTicks": 239,
          "midi": 95,
          "name": "B6",
          "ticks": 54240,
          "time": 84.750226,
          "velocity": 0.6299212598425197
        },
        {
          "duration": 0.37343849583332656,
          "durationTicks": 239,
          "midi": 91,
          "name": "G6",
          "ticks": 54480,
          "time": 85.125227,
          "velocity": 0.6299212598425197
        },
        {
          "duration": 0.37343849583334077,
          "durationTicks": 239,
          "midi": 91,
          "name": "G6",
          "ticks": 54960,
          "time": 85.87522899999999,
          "velocity": 0.6299212598425197
        },
        {
          "duration": 0.37343849583334077,
          "durationTicks": 239,
          "midi": 96,
          "name": "C7",
          "ticks": 55200,
          "time": 86.25022999999999,
          "velocity": 0.6299212598425197
        },
        {
          "duration": 0.37343849583332656,
          "durationTicks": 239,
          "midi": 91,
          "name": "G6",
          "ticks": 55440,
          "time": 86.625231,
          "velocity": 0.6299212598425197
        },
        {
          "duration": 0.37343849583334077,
          "durationTicks": 239,
          "midi": 91,
          "name": "G6",
          "ticks": 55920,
          "time": 87.375233,
          "velocity": 0.6299212598425197
        },
        {
          "duration": 0.37343849583334077,
          "durationTicks": 239,
          "midi": 96,
          "name": "C7",
          "ticks": 56160,
          "time": 87.75023399999999,
          "velocity": 0.6299212598425197
        },
        {
          "duration": 0.37343849583334077,
          "durationTicks": 239,
          "midi": 103,
          "name": "G7",
          "ticks": 56400,
          "time": 88.12523499999999,
          "velocity": 0.6299212598425197
        },
        {
          "duration": 0.37343849583334077,
          "durationTicks": 239,
          "midi": 84,
          "name": "C6",
          "ticks": 56640,
          "time": 88.50023599999999,
          "velocity": 0.6299212598425197
        },
        {
          "duration": 0.37343849583332656,
          "durationTicks": 239,
          "midi": 89,
          "name": "F6",
          "ticks": 56880,
          "time": 88.875237,
          "velocity": 0.6299212598425197
        },
        {
          "duration": 0.37343849583332656,
          "durationTicks": 239,
          "midi": 93,
          "name": "A6",
          "ticks": 57120,
          "time": 89.250238,
          "velocity": 0.6299212598425197
        },
        {
          "duration": 0.37343849583334077,
          "durationTicks": 239,
          "midi": 95,
          "name": "B6",
          "ticks": 57360,
          "time": 89.625239,
          "velocity": 0.6299212598425197
        }
      ]
    },
    {
      "channel": 0,
      "controlChanges": {
        "121": [
          {
            "number": 121,
            "ticks": 0,
            "time": 0,
            "value": 0
          }
        ]
      },
      "pitchBends": [],
      "instrument": {
        "family": "piano",
        "number": 0,
        "name": "acoustic grand piano"
      },
      "name": "Glockenspiel Echo 1\u0000",
      "notes": [],
      "endOfTrackTicks": 58080
    },
    {
      "channel": 3,
      "controlChanges": {
        "7": [
          {
            "number": 7,
            "ticks": 0,
            "time": 0,
            "value": 0.7874015748031497
          }
        ],
        "10": [
          {
            "number": 10,
            "ticks": 0,
            "time": 0,
            "value": 0.5039370078740157
          }
        ],
        "91": [
          {
            "number": 91,
            "ticks": 0,
            "time": 0,
            "value": 0
          }
        ],
        "93": [
          {
            "number": 93,
            "ticks": 0,
            "time": 0,
            "value": 0
          }
        ]
      },
      "pitchBends": [],
      "instrument": {
        "family": "chromatic percussion",
        "number": 9,
        "name": "glockenspiel"
      },
      "name": "",
      "notes": [
        {
          "duration": 0.37343849583334077,
          "durationTicks": 239,
          "midi": 91,
          "name": "G6",
          "ticks": 42960,
          "time": 67.12517899999999,
          "velocity": 0.5039370078740157
        },
        {
          "duration": 0.37343849583332656,
          "durationTicks": 239,
          "midi": 95,
          "name": "B6",
          "ticks": 43200,
          "time": 67.50018,
          "velocity": 0.5039370078740157
        },
        {
          "duration": 0.37343849583332656,
          "durationTicks": 239,
          "midi": 91,
          "name": "G6",
          "ticks": 43440,
          "time": 67.875181,
          "velocity": 0.5039370078740157
        },
        {
          "duration": 0.37343849583334077,
          "durationTicks": 239,
          "midi": 91,
          "name": "G6",
          "ticks": 43920,
          "time": 68.62518299999999,
          "velocity": 0.5039370078740157
        },
        {
          "duration": 0.37343849583334077,
          "durationTicks": 239,
          "midi": 96,
          "name": "C7",
          "ticks": 44160,
          "time": 69.00018399999999,
          "velocity": 0.5039370078740157
        },
        {
          "duration": 0.37343849583332656,
          "durationTicks": 239,
          "midi": 91,
          "name": "G6",
          "ticks": 44400,
          "time": 69.375185,
          "velocity": 0.5039370078740157
        },
        {
          "duration": 0.37343849583332656,
          "durationTicks": 239,
          "midi": 91,
          "name": "G6",
          "ticks": 44880,
          "time": 70.125187,
          "velocity": 0.5039370078740157
        },
        {
          "duration": 0.37343849583334077,
          "durationTicks": 239,
          "midi": 96,
          "name": "C7",
          "ticks": 45120,
          "time": 70.500188,
          "velocity": 0.5039370078740157
        },
        {
          "duration": 0.37343849583334077,
          "durationTicks": 239,
          "midi": 103,
          "name": "G7",
          "ticks": 45360,
          "time": 70.87518899999999,
          "velocity": 0.5039370078740157
        },
        {
          "duration": 0.37343849583334077,
          "durationTicks": 239,
          "midi": 84,
          "name": "C6",
          "ticks": 45600,
          "time": 71.25018999999999,
          "velocity": 0.5039370078740157
        },
        {
          "duration": 0.37343849583332656,
          "durationTicks": 239,
          "midi": 89,
          "name": "F6",
          "ticks": 45840,
          "time": 71.625191,
          "velocity": 0.5039370078740157
        },
        {
          "duration": 0.37343849583332656,
          "durationTicks": 239,
          "midi": 93,
          "name": "A6",
          "ticks": 46080,
          "time": 72.000192,
          "velocity": 0.5039370078740157
        },
        {
          "duration": 0.37343849583334077,
          "durationTicks": 239,
          "midi": 95,
          "name": "B6",
          "ticks": 46320,
          "time": 72.375193,
          "velocity": 0.5039370078740157
        },
        {
          "duration": 0.37343849583334077,
          "durationTicks": 239,
          "midi": 91,
          "name": "G6",
          "ticks": 46800,
          "time": 73.12519499999999,
          "velocity": 0.5039370078740157
        },
        {
          "duration": 0.37343849583334077,
          "durationTicks": 239,
          "midi": 95,
          "name": "B6",
          "ticks": 47040,
          "time": 73.50019599999999,
          "velocity": 0.5039370078740157
        },
        {
          "duration": 0.37343849583332656,
          "durationTicks": 239,
          "midi": 91,
          "name": "G6",
          "ticks": 47280,
          "time": 73.875197,
          "velocity": 0.5039370078740157
        },
        {
          "duration": 0.37343849583334077,
          "durationTicks": 239,
          "midi": 91,
          "name": "G6",
          "ticks": 47760,
          "time": 74.625199,
          "velocity": 0.5039370078740157
        },
        {
          "duration": 0.37343849583334077,
          "durationTicks": 239,
          "midi": 96,
          "name": "C7",
          "ticks": 48000,
          "time": 75.00019999999999,
          "velocity": 0.5039370078740157
        },
        {
          "duration": 0.37343849583334077,
          "durationTicks": 239,
          "midi": 91,
          "name": "G6",
          "ticks": 48240,
          "time": 75.37520099999999,
          "velocity": 0.5039370078740157
        },
        {
          "duration": 0.37343849583332656,
          "durationTicks": 239,
          "midi": 91,
          "name": "G6",
          "ticks": 48720,
          "time": 76.125203,
          "velocity": 0.5039370078740157
        },
        {
          "duration": 0.37343849583332656,
          "durationTicks": 239,
          "midi": 96,
          "name": "C7",
          "ticks": 48960,
          "time": 76.500204,
          "velocity": 0.5039370078740157
        },
        {
          "duration": 0.37343849583334077,
          "durationTicks": 239,
          "midi": 103,
          "name": "G7",
          "ticks": 49200,
          "time": 76.875205,
          "velocity": 0.5039370078740157
        },
        {
          "duration": 0.37343849583334077,
          "durationTicks": 239,
          "midi": 84,
          "name": "C6",
          "ticks": 49440,
          "time": 77.25020599999999,
          "velocity": 0.5039370078740157
        },
        {
          "duration": 0.37343849583334077,
          "durationTicks": 239,
          "midi": 89,
          "name": "F6",
          "ticks": 49680,
          "time": 77.62520699999999,
          "velocity": 0.5039370078740157
        },
        {
          "duration": 0.37343849583332656,
          "durationTicks": 239,
          "midi": 93,
          "name": "A6",
          "ticks": 49920,
          "time": 78.000208,
          "velocity": 0.5039370078740157
        },
        {
          "duration": 0.37343849583332656,
          "durationTicks": 239,
          "midi": 95,
          "name": "B6",
          "ticks": 50160,
          "time": 78.375209,
          "velocity": 0.5039370078740157
        },
        {
          "duration": 0.37343849583334077,
          "durationTicks": 239,
          "midi": 91,
          "name": "G6",
          "ticks": 50640,
          "time": 79.125211,
          "velocity": 0.5039370078740157
        },
        {
          "duration": 0.37343849583334077,
          "durationTicks": 239,
          "midi": 95,
          "name": "B6",
          "ticks": 50880,
          "time": 79.50021199999999,
          "velocity": 0.5039370078740157
        },
        {
          "duration": 0.37343849583334077,
          "durationTicks": 239,
          "midi": 91,
          "name": "G6",
          "ticks": 51120,
          "time": 79.87521299999999,
          "velocity": 0.5039370078740157
        },
        {
          "duration": 0.37343849583332656,
          "durationTicks": 239,
          "midi": 91,
          "name": "G6",
          "ticks": 51600,
          "time": 80.625215,
          "velocity": 0.5039370078740157
        },
        {
          "duration": 0.37343849583334077,
          "durationTicks": 239,
          "midi": 96,
          "name": "C7",
          "ticks": 51840,
          "time": 81.000216,
          "velocity": 0.5039370078740157
        },
        {
          "duration": 0.37343849583334077,
          "durationTicks": 239,
          "midi": 91,
          "name": "G6",
          "ticks": 52080,
          "time": 81.37521699999999,
          "velocity": 0.5039370078740157
        },
        {
          "duration": 0.37343849583334077,
          "durationTicks": 239,
          "midi": 91,
          "name": "G6",
          "ticks": 52560,
          "time": 82.12521899999999,
          "velocity": 0.5039370078740157
        },
        {
          "duration": 0.37343849583332656,
          "durationTicks": 239,
          "midi": 96,
          "name": "C7",
          "ticks": 52800,
          "time": 82.50022,
          "velocity": 0.5039370078740157
        },
        {
          "duration": 0.37343849583332656,
          "durationTicks": 239,
          "midi": 103,
          "name": "G7",
          "ticks": 53040,
          "time": 82.875221,
          "velocity": 0.5039370078740157
        },
        {
          "duration": 0.37343849583334077,
          "durationTicks": 239,
          "midi": 84,
          "name": "C6",
          "ticks": 53280,
          "time": 83.250222,
          "velocity": 0.5039370078740157
        },
        {
          "duration": 0.37343849583334077,
          "durationTicks": 239,
          "midi": 89,
          "name": "F6",
          "ticks": 53520,
          "time": 83.62522299999999,
          "velocity": 0.5039370078740157
        },
        {
          "duration": 0.37343849583334077,
          "durationTicks": 239,
          "midi": 93,
          "name": "A6",
          "ticks": 53760,
          "time": 84.00022399999999,
          "velocity": 0.5039370078740157
        },
        {
          "duration": 0.37343849583332656,
          "durationTicks": 239,
          "midi": 95,
          "name": "B6",
          "ticks": 54000,
          "time": 84.375225,
          "velocity": 0.5039370078740157
        },
        {
          "duration": 0.37343849583332656,
          "durationTicks": 239,
          "midi": 91,
          "name": "G6",
          "ticks": 54480,
          "time": 85.125227,
          "velocity": 0.5039370078740157
        },
        {
          "duration": 0.37343849583334077,
          "durationTicks": 239,
          "midi": 95,
          "name": "B6",
          "ticks": 54720,
          "time": 85.50022799999999,
          "velocity": 0.5039370078740157
        },
        {
          "duration": 0.37343849583334077,
          "durationTicks": 239,
          "midi": 91,
          "name": "G6",
          "ticks": 54960,
          "time": 85.87522899999999,
          "velocity": 0.5039370078740157
        },
        {
          "duration": 0.37343849583332656,
          "durationTicks": 239,
          "midi": 91,
          "name": "G6",
          "ticks": 55440,
          "time": 86.625231,
          "velocity": 0.5039370078740157
        },
        {
          "duration": 0.37343849583332656,
          "durationTicks": 239,
          "midi": 96,
          "name": "C7",
          "ticks": 55680,
          "time": 87.000232,
          "velocity": 0.5039370078740157
        },
        {
          "duration": 0.37343849583334077,
          "durationTicks": 239,
          "midi": 91,
          "name": "G6",
          "ticks": 55920,
          "time": 87.375233,
          "velocity": 0.5039370078740157
        },
        {
          "duration": 0.37343849583334077,
          "durationTicks": 239,
          "midi": 91,
          "name": "G6",
          "ticks": 56400,
          "time": 88.12523499999999,
          "velocity": 0.5039370078740157
        },
        {
          "duration": 0.37343849583334077,
          "durationTicks": 239,
          "midi": 96,
          "name": "C7",
          "ticks": 56640,
          "time": 88.50023599999999,
          "velocity": 0.5039370078740157
        },
        {
          "duration": 0.37343849583332656,
          "durationTicks": 239,
          "midi": 103,
          "name": "G7",
          "ticks": 56880,
          "time": 88.875237,
          "velocity": 0.5039370078740157
        },
        {
          "duration": 0.37343849583332656,
          "durationTicks": 239,
          "midi": 84,
          "name": "C6",
          "ticks": 57120,
          "time": 89.250238,
          "velocity": 0.5039370078740157
        },
        {
          "duration": 0.37343849583334077,
          "durationTicks": 239,
          "midi": 89,
          "name": "F6",
          "ticks": 57360,
          "time": 89.625239,
          "velocity": 0.5039370078740157
        },
        {
          "duration": 0.37343849583334077,
          "durationTicks": 239,
          "midi": 93,
          "name": "A6",
          "ticks": 57600,
          "time": 90.00023999999999,
          "velocity": 0.5039370078740157
        },
        {
          "duration": 0.37343849583334077,
          "durationTicks": 239,
          "midi": 95,
          "name": "B6",
          "ticks": 57840,
          "time": 90.37524099999999,
          "velocity": 0.5039370078740157
        }
      ]
    },
    {
      "channel": 0,
      "controlChanges": {
        "121": [
          {
            "number": 121,
            "ticks": 0,
            "time": 0,
            "value": 0
          }
        ]
      },
      "pitchBends": [],
      "instrument": {
        "family": "piano",
        "number": 0,
        "name": "acoustic grand piano"
      },
      "name": "Glockenspiel Echo 2\u0000",
      "notes": [],
      "endOfTrackTicks": 58560
    },
    {
      "channel": 4,
      "controlChanges": {
        "7": [
          {
            "number": 7,
            "ticks": 0,
            "time": 0,
            "value": 0.7874015748031497
          }
        ],
        "10": [
          {
            "number": 10,
            "ticks": 0,
            "time": 0,
            "value": 0.5039370078740157
          }
        ],
        "91": [
          {
            "number": 91,
            "ticks": 0,
            "time": 0,
            "value": 0
          }
        ],
        "93": [
          {
            "number": 93,
            "ticks": 0,
            "time": 0,
            "value": 0
          }
        ]
      },
      "pitchBends": [],
      "instrument": {
        "family": "chromatic percussion",
        "number": 9,
        "name": "glockenspiel"
      },
      "name": "",
      "notes": [
        {
          "duration": 0.37343849583332656,
          "durationTicks": 239,
          "midi": 91,
          "name": "G6",
          "ticks": 43440,
          "time": 67.875181,
          "velocity": 0.3858267716535433
        },
        {
          "duration": 0.37343849583334077,
          "durationTicks": 239,
          "midi": 95,
          "name": "B6",
          "ticks": 43680,
          "time": 68.250182,
          "velocity": 0.3858267716535433
        },
        {
          "duration": 0.37343849583334077,
          "durationTicks": 239,
          "midi": 91,
          "name": "G6",
          "ticks": 43920,
          "time": 68.62518299999999,
          "velocity": 0.3858267716535433
        },
        {
          "duration": 0.37343849583332656,
          "durationTicks": 239,
          "midi": 91,
          "name": "G6",
          "ticks": 44400,
          "time": 69.375185,
          "velocity": 0.3858267716535433
        },
        {
          "duration": 0.37343849583332656,
          "durationTicks": 239,
          "midi": 96,
          "name": "C7",
          "ticks": 44640,
          "time": 69.750186,
          "velocity": 0.3858267716535433
        },
        {
          "duration": 0.37343849583332656,
          "durationTicks": 239,
          "midi": 91,
          "name": "G6",
          "ticks": 44880,
          "time": 70.125187,
          "velocity": 0.3858267716535433
        },
        {
          "duration": 0.37343849583334077,
          "durationTicks": 239,
          "midi": 91,
          "name": "G6",
          "ticks": 45360,
          "time": 70.87518899999999,
          "velocity": 0.3858267716535433
        },
        {
          "duration": 0.37343849583334077,
          "durationTicks": 239,
          "midi": 96,
          "name": "C7",
          "ticks": 45600,
          "time": 71.25018999999999,
          "velocity": 0.3858267716535433
        },
        {
          "duration": 0.37343849583332656,
          "durationTicks": 239,
          "midi": 103,
          "name": "G7",
          "ticks": 45840,
          "time": 71.625191,
          "velocity": 0.3858267716535433
        },
        {
          "duration": 0.37343849583332656,
          "durationTicks": 239,
          "midi": 84,
          "name": "C6",
          "ticks": 46080,
          "time": 72.000192,
          "velocity": 0.3858267716535433
        },
        {
          "duration": 0.37343849583334077,
          "durationTicks": 239,
          "midi": 89,
          "name": "F6",
          "ticks": 46320,
          "time": 72.375193,
          "velocity": 0.3858267716535433
        },
        {
          "duration": 0.37343849583334077,
          "durationTicks": 239,
          "midi": 93,
          "name": "A6",
          "ticks": 46560,
          "time": 72.750194,
          "velocity": 0.3858267716535433
        },
        {
          "duration": 0.37343849583334077,
          "durationTicks": 239,
          "midi": 95,
          "name": "B6",
          "ticks": 46800,
          "time": 73.12519499999999,
          "velocity": 0.3858267716535433
        },
        {
          "duration": 0.37343849583332656,
          "durationTicks": 239,
          "midi": 91,
          "name": "G6",
          "ticks": 47280,
          "time": 73.875197,
          "velocity": 0.3858267716535433
        },
        {
          "duration": 0.37343849583332656,
          "durationTicks": 239,
          "midi": 95,
          "name": "B6",
          "ticks": 47520,
          "time": 74.250198,
          "velocity": 0.3858267716535433
        },
        {
          "duration": 0.37343849583334077,
          "durationTicks": 239,
          "midi": 91,
          "name": "G6",
          "ticks": 47760,
          "time": 74.625199,
          "velocity": 0.3858267716535433
        },
        {
          "duration": 0.37343849583334077,
          "durationTicks": 239,
          "midi": 91,
          "name": "G6",
          "ticks": 48240,
          "time": 75.37520099999999,
          "velocity": 0.3858267716535433
        },
        {
          "duration": 0.37343849583332656,
          "durationTicks": 239,
          "midi": 96,
          "name": "C7",
          "ticks": 48480,
          "time": 75.750202,
          "velocity": 0.3858267716535433
        },
        {
          "duration": 0.37343849583332656,
          "durationTicks": 239,
          "midi": 91,
          "name": "G6",
          "ticks": 48720,
          "time": 76.125203,
          "velocity": 0.3858267716535433
        },
        {
          "duration": 0.37343849583334077,
          "durationTicks": 239,
          "midi": 91,
          "name": "G6",
          "ticks": 49200,
          "time": 76.875205,
          "velocity": 0.3858267716535433
        },
        {
          "duration": 0.37343849583334077,
          "durationTicks": 239,
          "midi": 96,
          "name": "C7",
          "ticks": 49440,
          "time": 77.25020599999999,
          "velocity": 0.3858267716535433
        },
        {
          "duration": 0.37343849583334077,
          "durationTicks": 239,
          "midi": 103,
          "name": "G7",
          "ticks": 49680,
          "time": 77.62520699999999,
          "velocity": 0.3858267716535433
        },
        {
          "duration": 0.37343849583332656,
          "durationTicks": 239,
          "midi": 84,
          "name": "C6",
          "ticks": 49920,
          "time": 78.000208,
          "velocity": 0.3858267716535433
        },
        {
          "duration": 0.37343849583332656,
          "durationTicks": 239,
          "midi": 89,
          "name": "F6",
          "ticks": 50160,
          "time": 78.375209,
          "velocity": 0.3858267716535433
        },
        {
          "duration": 0.37343849583332656,
          "durationTicks": 239,
          "midi": 93,
          "name": "A6",
          "ticks": 50400,
          "time": 78.75021,
          "velocity": 0.3858267716535433
        },
        {
          "duration": 0.37343849583334077,
          "durationTicks": 239,
          "midi": 95,
          "name": "B6",
          "ticks": 50640,
          "time": 79.125211,
          "velocity": 0.3858267716535433
        },
        {
          "duration": 0.37343849583334077,
          "durationTicks": 239,
          "midi": 91,
          "name": "G6",
          "ticks": 51120,
          "time": 79.87521299999999,
          "velocity": 0.3858267716535433
        },
        {
          "duration": 0.37343849583332656,
          "durationTicks": 239,
          "midi": 95,
          "name": "B6",
          "ticks": 51360,
          "time": 80.250214,
          "velocity": 0.3858267716535433
        },
        {
          "duration": 0.37343849583332656,
          "durationTicks": 239,
          "midi": 91,
          "name": "G6",
          "ticks": 51600,
          "time": 80.625215,
          "velocity": 0.3858267716535433
        },
        {
          "duration": 0.37343849583334077,
          "durationTicks": 239,
          "midi": 91,
          "name": "G6",
          "ticks": 52080,
          "time": 81.37521699999999,
          "velocity": 0.3858267716535433
        },
        {
          "duration": 0.37343849583334077,
          "durationTicks": 239,
          "midi": 96,
          "name": "C7",
          "ticks": 52320,
          "time": 81.75021799999999,
          "velocity": 0.3858267716535433
        },
        {
          "duration": 0.37343849583334077,
          "durationTicks": 239,
          "midi": 91,
          "name": "G6",
          "ticks": 52560,
          "time": 82.12521899999999,
          "velocity": 0.3858267716535433
        },
        {
          "duration": 0.37343849583332656,
          "durationTicks": 239,
          "midi": 91,
          "name": "G6",
          "ticks": 53040,
          "time": 82.875221,
          "velocity": 0.3858267716535433
        },
        {
          "duration": 0.37343849583334077,
          "durationTicks": 239,
          "midi": 96,
          "name": "C7",
          "ticks": 53280,
          "time": 83.250222,
          "velocity": 0.3858267716535433
        },
        {
          "duration": 0.37343849583334077,
          "durationTicks": 239,
          "midi": 103,
          "name": "G7",
          "ticks": 53520,
          "time": 83.62522299999999,
          "velocity": 0.3858267716535433
        },
        {
          "duration": 0.37343849583334077,
          "durationTicks": 239,
          "midi": 84,
          "name": "C6",
          "ticks": 53760,
          "time": 84.00022399999999,
          "velocity": 0.3858267716535433
        },
        {
          "duration": 0.37343849583332656,
          "durationTicks": 239,
          "midi": 89,
          "name": "F6",
          "ticks": 54000,
          "time": 84.375225,
          "velocity": 0.3858267716535433
        },
        {
          "duration": 0.37343849583332656,
          "durationTicks": 239,
          "midi": 93,
          "name": "A6",
          "ticks": 54240,
          "time": 84.750226,
          "velocity": 0.3858267716535433
        },
        {
          "duration": 0.37343849583332656,
          "durationTicks": 239,
          "midi": 95,
          "name": "B6",
          "ticks": 54480,
          "time": 85.125227,
          "velocity": 0.3858267716535433
        },
        {
          "duration": 0.37343849583334077,
          "durationTicks": 239,
          "midi": 91,
          "name": "G6",
          "ticks": 54960,
          "time": 85.87522899999999,
          "velocity": 0.3858267716535433
        },
        {
          "duration": 0.37343849583334077,
          "durationTicks": 239,
          "midi": 95,
          "name": "B6",
          "ticks": 55200,
          "time": 86.25022999999999,
          "velocity": 0.3858267716535433
        },
        {
          "duration": 0.37343849583332656,
          "durationTicks": 239,
          "midi": 91,
          "name": "G6",
          "ticks": 55440,
          "time": 86.625231,
          "velocity": 0.3858267716535433
        },
        {
          "duration": 0.37343849583334077,
          "durationTicks": 239,
          "midi": 91,
          "name": "G6",
          "ticks": 55920,
          "time": 87.375233,
          "velocity": 0.3858267716535433
        },
        {
          "duration": 0.37343849583334077,
          "durationTicks": 239,
          "midi": 96,
          "name": "C7",
          "ticks": 56160,
          "time": 87.75023399999999,
          "velocity": 0.3858267716535433
        },
        {
          "duration": 0.37343849583334077,
          "durationTicks": 239,
          "midi": 91,
          "name": "G6",
          "ticks": 56400,
          "time": 88.12523499999999,
          "velocity": 0.3858267716535433
        },
        {
          "duration": 0.37343849583332656,
          "durationTicks": 239,
          "midi": 91,
          "name": "G6",
          "ticks": 56880,
          "time": 88.875237,
          "velocity": 0.3858267716535433
        },
        {
          "duration": 0.37343849583332656,
          "durationTicks": 239,
          "midi": 96,
          "name": "C7",
          "ticks": 57120,
          "time": 89.250238,
          "velocity": 0.3858267716535433
        },
        {
          "duration": 0.37343849583334077,
          "durationTicks": 239,
          "midi": 103,
          "name": "G7",
          "ticks": 57360,
          "time": 89.625239,
          "velocity": 0.3858267716535433
        },
        {
          "duration": 0.37343849583334077,
          "durationTicks": 239,
          "midi": 84,
          "name": "C6",
          "ticks": 57600,
          "time": 90.00023999999999,
          "velocity": 0.3858267716535433
        },
        {
          "duration": 0.37343849583334077,
          "durationTicks": 239,
          "midi": 89,
          "name": "F6",
          "ticks": 57840,
          "time": 90.37524099999999,
          "velocity": 0.3858267716535433
        },
        {
          "duration": 0.37343849583332656,
          "durationTicks": 239,
          "midi": 93,
          "name": "A6",
          "ticks": 58080,
          "time": 90.750242,
          "velocity": 0.3858267716535433
        },
        {
          "duration": 0.37343849583332656,
          "durationTicks": 239,
          "midi": 95,
          "name": "B6",
          "ticks": 58320,
          "time": 91.125243,
          "velocity": 0.3858267716535433
        }
      ]
    },
    {
      "channel": 0,
      "controlChanges": {
        "121": [
          {
            "number": 121,
            "ticks": 0,
            "time": 0,
            "value": 0
          }
        ]
      },
      "pitchBends": [],
      "instrument": {
        "family": "piano",
        "number": 0,
        "name": "acoustic grand piano"
      },
      "name": "Glockenspiel Echo 3\u0000",
      "notes": [],
      "endOfTrackTicks": 59040
    },
    {
      "channel": 5,
      "controlChanges": {
        "7": [
          {
            "number": 7,
            "ticks": 0,
            "time": 0,
            "value": 0.7874015748031497
          }
        ],
        "10": [
          {
            "number": 10,
            "ticks": 0,
            "time": 0,
            "value": 0.5039370078740157
          }
        ],
        "91": [
          {
            "number": 91,
            "ticks": 0,
            "time": 0,
            "value": 0
          }
        ],
        "93": [
          {
            "number": 93,
            "ticks": 0,
            "time": 0,
            "value": 0
          }
        ]
      },
      "pitchBends": [],
      "instrument": {
        "family": "chromatic percussion",
        "number": 9,
        "name": "glockenspiel"
      },
      "name": "",
      "notes": [
        {
          "duration": 0.37343849583334077,
          "durationTicks": 239,
          "midi": 91,
          "name": "G6",
          "ticks": 43920,
          "time": 68.62518299999999,
          "velocity": 0.25984251968503935
        },
        {
          "duration": 0.37343849583334077,
          "durationTicks": 239,
          "midi": 95,
          "name": "B6",
          "ticks": 44160,
          "time": 69.00018399999999,
          "velocity": 0.25984251968503935
        },
        {
          "duration": 0.37343849583332656,
          "durationTicks": 239,
          "midi": 91,
          "name": "G6",
          "ticks": 44400,
          "time": 69.375185,
          "velocity": 0.25984251968503935
        },
        {
          "duration": 0.37343849583332656,
          "durationTicks": 239,
          "midi": 91,
          "name": "G6",
          "ticks": 44880,
          "time": 70.125187,
          "velocity": 0.25984251968503935
        },
        {
          "duration": 0.37343849583334077,
          "durationTicks": 239,
          "midi": 96,
          "name": "C7",
          "ticks": 45120,
          "time": 70.500188,
          "velocity": 0.25984251968503935
        },
        {
          "duration": 0.37343849583334077,
          "durationTicks": 239,
          "midi": 91,
          "name": "G6",
          "ticks": 45360,
          "time": 70.87518899999999,
          "velocity": 0.25984251968503935
        },
        {
          "duration": 0.37343849583332656,
          "durationTicks": 239,
          "midi": 91,
          "name": "G6",
          "ticks": 45840,
          "time": 71.625191,
          "velocity": 0.25984251968503935
        },
        {
          "duration": 0.37343849583332656,
          "durationTicks": 239,
          "midi": 96,
          "name": "C7",
          "ticks": 46080,
          "time": 72.000192,
          "velocity": 0.25984251968503935
        },
        {
          "duration": 0.37343849583334077,
          "durationTicks": 239,
          "midi": 103,
          "name": "G7",
          "ticks": 46320,
          "time": 72.375193,
          "velocity": 0.25984251968503935
        },
        {
          "duration": 0.37343849583334077,
          "durationTicks": 239,
          "midi": 84,
          "name": "C6",
          "ticks": 46560,
          "time": 72.750194,
          "velocity": 0.25984251968503935
        },
        {
          "duration": 0.37343849583334077,
          "durationTicks": 239,
          "midi": 89,
          "name": "F6",
          "ticks": 46800,
          "time": 73.12519499999999,
          "velocity": 0.25984251968503935
        },
        {
          "duration": 0.37343849583334077,
          "durationTicks": 239,
          "midi": 93,
          "name": "A6",
          "ticks": 47040,
          "time": 73.50019599999999,
          "velocity": 0.25984251968503935
        },
        {
          "duration": 0.37343849583332656,
          "durationTicks": 239,
          "midi": 95,
          "name": "B6",
          "ticks": 47280,
          "time": 73.875197,
          "velocity": 0.25984251968503935
        },
        {
          "duration": 0.37343849583334077,
          "durationTicks": 239,
          "midi": 91,
          "name": "G6",
          "ticks": 47760,
          "time": 74.625199,
          "velocity": 0.25984251968503935
        },
        {
          "duration": 0.37343849583334077,
          "durationTicks": 239,
          "midi": 95,
          "name": "B6",
          "ticks": 48000,
          "time": 75.00019999999999,
          "velocity": 0.25984251968503935
        },
        {
          "duration": 0.37343849583334077,
          "durationTicks": 239,
          "midi": 91,
          "name": "G6",
          "ticks": 48240,
          "time": 75.37520099999999,
          "velocity": 0.25984251968503935
        },
        {
          "duration": 0.37343849583332656,
          "durationTicks": 239,
          "midi": 91,
          "name": "G6",
          "ticks": 48720,
          "time": 76.125203,
          "velocity": 0.25984251968503935
        },
        {
          "duration": 0.37343849583332656,
          "durationTicks": 239,
          "midi": 96,
          "name": "C7",
          "ticks": 48960,
          "time": 76.500204,
          "velocity": 0.25984251968503935
        },
        {
          "duration": 0.37343849583334077,
          "durationTicks": 239,
          "midi": 91,
          "name": "G6",
          "ticks": 49200,
          "time": 76.875205,
          "velocity": 0.25984251968503935
        },
        {
          "duration": 0.37343849583334077,
          "durationTicks": 239,
          "midi": 91,
          "name": "G6",
          "ticks": 49680,
          "time": 77.62520699999999,
          "velocity": 0.25984251968503935
        },
        {
          "duration": 0.37343849583332656,
          "durationTicks": 239,
          "midi": 96,
          "name": "C7",
          "ticks": 49920,
          "time": 78.000208,
          "velocity": 0.25984251968503935
        },
        {
          "duration": 0.37343849583332656,
          "durationTicks": 239,
          "midi": 103,
          "name": "G7",
          "ticks": 50160,
          "time": 78.375209,
          "velocity": 0.25984251968503935
        },
        {
          "duration": 0.37343849583332656,
          "durationTicks": 239,
          "midi": 84,
          "name": "C6",
          "ticks": 50400,
          "time": 78.75021,
          "velocity": 0.25984251968503935
        },
        {
          "duration": 0.37343849583334077,
          "durationTicks": 239,
          "midi": 89,
          "name": "F6",
          "ticks": 50640,
          "time": 79.125211,
          "velocity": 0.25984251968503935
        },
        {
          "duration": 0.37343849583334077,
          "durationTicks": 239,
          "midi": 93,
          "name": "A6",
          "ticks": 50880,
          "time": 79.50021199999999,
          "velocity": 0.25984251968503935
        },
        {
          "duration": 0.37343849583334077,
          "durationTicks": 239,
          "midi": 95,
          "name": "B6",
          "ticks": 51120,
          "time": 79.87521299999999,
          "velocity": 0.25984251968503935
        },
        {
          "duration": 0.37343849583332656,
          "durationTicks": 239,
          "midi": 91,
          "name": "G6",
          "ticks": 51600,
          "time": 80.625215,
          "velocity": 0.25984251968503935
        },
        {
          "duration": 0.37343849583334077,
          "durationTicks": 239,
          "midi": 95,
          "name": "B6",
          "ticks": 51840,
          "time": 81.000216,
          "velocity": 0.25984251968503935
        },
        {
          "duration": 0.37343849583334077,
          "durationTicks": 239,
          "midi": 91,
          "name": "G6",
          "ticks": 52080,
          "time": 81.37521699999999,
          "velocity": 0.25984251968503935
        },
        {
          "duration": 0.37343849583334077,
          "durationTicks": 239,
          "midi": 91,
          "name": "G6",
          "ticks": 52560,
          "time": 82.12521899999999,
          "velocity": 0.25984251968503935
        },
        {
          "duration": 0.37343849583332656,
          "durationTicks": 239,
          "midi": 96,
          "name": "C7",
          "ticks": 52800,
          "time": 82.50022,
          "velocity": 0.25984251968503935
        },
        {
          "duration": 0.37343849583332656,
          "durationTicks": 239,
          "midi": 91,
          "name": "G6",
          "ticks": 53040,
          "time": 82.875221,
          "velocity": 0.25984251968503935
        },
        {
          "duration": 0.37343849583334077,
          "durationTicks": 239,
          "midi": 91,
          "name": "G6",
          "ticks": 53520,
          "time": 83.62522299999999,
          "velocity": 0.25984251968503935
        },
        {
          "duration": 0.37343849583334077,
          "durationTicks": 239,
          "midi": 96,
          "name": "C7",
          "ticks": 53760,
          "time": 84.00022399999999,
          "velocity": 0.25984251968503935
        },
        {
          "duration": 0.37343849583332656,
          "durationTicks": 239,
          "midi": 103,
          "name": "G7",
          "ticks": 54000,
          "time": 84.375225,
          "velocity": 0.25984251968503935
        },
        {
          "duration": 0.37343849583332656,
          "durationTicks": 239,
          "midi": 84,
          "name": "C6",
          "ticks": 54240,
          "time": 84.750226,
          "velocity": 0.25984251968503935
        },
        {
          "duration": 0.37343849583332656,
          "durationTicks": 239,
          "midi": 89,
          "name": "F6",
          "ticks": 54480,
          "time": 85.125227,
          "velocity": 0.25984251968503935
        },
        {
          "duration": 0.37343849583334077,
          "durationTicks": 239,
          "midi": 93,
          "name": "A6",
          "ticks": 54720,
          "time": 85.50022799999999,
          "velocity": 0.25984251968503935
        },
        {
          "duration": 0.37343849583334077,
          "durationTicks": 239,
          "midi": 95,
          "name": "B6",
          "ticks": 54960,
          "time": 85.87522899999999,
          "velocity": 0.25984251968503935
        },
        {
          "duration": 0.37343849583332656,
          "durationTicks": 239,
          "midi": 91,
          "name": "G6",
          "ticks": 55440,
          "time": 86.625231,
          "velocity": 0.25984251968503935
        },
        {
          "duration": 0.37343849583332656,
          "durationTicks": 239,
          "midi": 95,
          "name": "B6",
          "ticks": 55680,
          "time": 87.000232,
          "velocity": 0.25984251968503935
        },
        {
          "duration": 0.37343849583334077,
          "durationTicks": 239,
          "midi": 91,
          "name": "G6",
          "ticks": 55920,
          "time": 87.375233,
          "velocity": 0.25984251968503935
        },
        {
          "duration": 0.37343849583334077,
          "durationTicks": 239,
          "midi": 91,
          "name": "G6",
          "ticks": 56400,
          "time": 88.12523499999999,
          "velocity": 0.25984251968503935
        },
        {
          "duration": 0.37343849583334077,
          "durationTicks": 239,
          "midi": 96,
          "name": "C7",
          "ticks": 56640,
          "time": 88.50023599999999,
          "velocity": 0.25984251968503935
        },
        {
          "duration": 0.37343849583332656,
          "durationTicks": 239,
          "midi": 91,
          "name": "G6",
          "ticks": 56880,
          "time": 88.875237,
          "velocity": 0.25984251968503935
        },
        {
          "duration": 0.37343849583334077,
          "durationTicks": 239,
          "midi": 91,
          "name": "G6",
          "ticks": 57360,
          "time": 89.625239,
          "velocity": 0.25984251968503935
        },
        {
          "duration": 0.37343849583334077,
          "durationTicks": 239,
          "midi": 96,
          "name": "C7",
          "ticks": 57600,
          "time": 90.00023999999999,
          "velocity": 0.25984251968503935
        },
        {
          "duration": 0.37343849583334077,
          "durationTicks": 239,
          "midi": 103,
          "name": "G7",
          "ticks": 57840,
          "time": 90.37524099999999,
          "velocity": 0.25984251968503935
        },
        {
          "duration": 0.37343849583332656,
          "durationTicks": 239,
          "midi": 84,
          "name": "C6",
          "ticks": 58080,
          "time": 90.750242,
          "velocity": 0.25984251968503935
        },
        {
          "duration": 0.37343849583332656,
          "durationTicks": 239,
          "midi": 89,
          "name": "F6",
          "ticks": 58320,
          "time": 91.125243,
          "velocity": 0.25984251968503935
        },
        {
          "duration": 0.37343849583332656,
          "durationTicks": 239,
          "midi": 93,
          "name": "A6",
          "ticks": 58560,
          "time": 91.500244,
          "velocity": 0.25984251968503935
        },
        {
          "duration": 0.37343849583334077,
          "durationTicks": 239,
          "midi": 95,
          "name": "B6",
          "ticks": 58800,
          "time": 91.87524499999999,
          "velocity": 0.25984251968503935
        }
      ]
    },
    {
      "channel": 0,
      "controlChanges": {
        "121": [
          {
            "number": 121,
            "ticks": 0,
            "time": 0,
            "value": 0
          }
        ]
      },
      "pitchBends": [],
      "instrument": {
        "family": "piano",
        "number": 0,
        "name": "acoustic grand piano"
      },
      "name": "Glockenspiel Echo 4\u0000",
      "notes": [],
      "endOfTrackTicks": 59520
    },
    {
      "channel": 6,
      "controlChanges": {
        "7": [
          {
            "number": 7,
            "ticks": 0,
            "time": 0,
            "value": 0.7874015748031497
          }
        ],
        "10": [
          {
            "number": 10,
            "ticks": 0,
            "time": 0,
            "value": 0.5039370078740157
          }
        ],
        "91": [
          {
            "number": 91,
            "ticks": 0,
            "time": 0,
            "value": 0
          }
        ],
        "93": [
          {
            "number": 93,
            "ticks": 0,
            "time": 0,
            "value": 0
          }
        ]
      },
      "pitchBends": [],
      "instrument": {
        "family": "chromatic percussion",
        "number": 9,
        "name": "glockenspiel"
      },
      "name": "",
      "notes": [
        {
          "duration": 0.37343849583332656,
          "durationTicks": 239,
          "midi": 91,
          "name": "G6",
          "ticks": 44400,
          "time": 69.375185,
          "velocity": 0.12598425196850394
        },
        {
          "duration": 0.37343849583332656,
          "durationTicks": 239,
          "midi": 95,
          "name": "B6",
          "ticks": 44640,
          "time": 69.750186,
          "velocity": 0.12598425196850394
        },
        {
          "duration": 0.37343849583332656,
          "durationTicks": 239,
          "midi": 91,
          "name": "G6",
          "ticks": 44880,
          "time": 70.125187,
          "velocity": 0.12598425196850394
        },
        {
          "duration": 0.37343849583334077,
          "durationTicks": 239,
          "midi": 91,
          "name": "G6",
          "ticks": 45360,
          "time": 70.87518899999999,
          "velocity": 0.12598425196850394
        },
        {
          "duration": 0.37343849583334077,
          "durationTicks": 239,
          "midi": 96,
          "name": "C7",
          "ticks": 45600,
          "time": 71.25018999999999,
          "velocity": 0.12598425196850394
        },
        {
          "duration": 0.37343849583332656,
          "durationTicks": 239,
          "midi": 91,
          "name": "G6",
          "ticks": 45840,
          "time": 71.625191,
          "velocity": 0.12598425196850394
        },
        {
          "duration": 0.37343849583334077,
          "durationTicks": 239,
          "midi": 91,
          "name": "G6",
          "ticks": 46320,
          "time": 72.375193,
          "velocity": 0.12598425196850394
        },
        {
          "duration": 0.37343849583334077,
          "durationTicks": 239,
          "midi": 96,
          "name": "C7",
          "ticks": 46560,
          "time": 72.750194,
          "velocity": 0.12598425196850394
        },
        {
          "duration": 0.37343849583334077,
          "durationTicks": 239,
          "midi": 103,
          "name": "G7",
          "ticks": 46800,
          "time": 73.12519499999999,
          "velocity": 0.12598425196850394
        },
        {
          "duration": 0.37343849583334077,
          "durationTicks": 239,
          "midi": 84,
          "name": "C6",
          "ticks": 47040,
          "time": 73.50019599999999,
          "velocity": 0.12598425196850394
        },
        {
          "duration": 0.37343849583332656,
          "durationTicks": 239,
          "midi": 89,
          "name": "F6",
          "ticks": 47280,
          "time": 73.875197,
          "velocity": 0.12598425196850394
        },
        {
          "duration": 0.37343849583332656,
          "durationTicks": 239,
          "midi": 93,
          "name": "A6",
          "ticks": 47520,
          "time": 74.250198,
          "velocity": 0.12598425196850394
        },
        {
          "duration": 0.37343849583334077,
          "durationTicks": 239,
          "midi": 95,
          "name": "B6",
          "ticks": 47760,
          "time": 74.625199,
          "velocity": 0.12598425196850394
        },
        {
          "duration": 0.37343849583334077,
          "durationTicks": 239,
          "midi": 91,
          "name": "G6",
          "ticks": 48240,
          "time": 75.37520099999999,
          "velocity": 0.12598425196850394
        },
        {
          "duration": 0.37343849583332656,
          "durationTicks": 239,
          "midi": 95,
          "name": "B6",
          "ticks": 48480,
          "time": 75.750202,
          "velocity": 0.12598425196850394
        },
        {
          "duration": 0.37343849583332656,
          "durationTicks": 239,
          "midi": 91,
          "name": "G6",
          "ticks": 48720,
          "time": 76.125203,
          "velocity": 0.12598425196850394
        },
        {
          "duration": 0.37343849583334077,
          "durationTicks": 239,
          "midi": 91,
          "name": "G6",
          "ticks": 49200,
          "time": 76.875205,
          "velocity": 0.12598425196850394
        },
        {
          "duration": 0.37343849583334077,
          "durationTicks": 239,
          "midi": 96,
          "name": "C7",
          "ticks": 49440,
          "time": 77.25020599999999,
          "velocity": 0.12598425196850394
        },
        {
          "duration": 0.37343849583334077,
          "durationTicks": 239,
          "midi": 91,
          "name": "G6",
          "ticks": 49680,
          "time": 77.62520699999999,
          "velocity": 0.12598425196850394
        },
        {
          "duration": 0.37343849583332656,
          "durationTicks": 239,
          "midi": 91,
          "name": "G6",
          "ticks": 50160,
          "time": 78.375209,
          "velocity": 0.12598425196850394
        },
        {
          "duration": 0.37343849583332656,
          "durationTicks": 239,
          "midi": 96,
          "name": "C7",
          "ticks": 50400,
          "time": 78.75021,
          "velocity": 0.12598425196850394
        },
        {
          "duration": 0.37343849583334077,
          "durationTicks": 239,
          "midi": 103,
          "name": "G7",
          "ticks": 50640,
          "time": 79.125211,
          "velocity": 0.12598425196850394
        },
        {
          "duration": 0.37343849583334077,
          "durationTicks": 239,
          "midi": 84,
          "name": "C6",
          "ticks": 50880,
          "time": 79.50021199999999,
          "velocity": 0.12598425196850394
        },
        {
          "duration": 0.37343849583334077,
          "durationTicks": 239,
          "midi": 89,
          "name": "F6",
          "ticks": 51120,
          "time": 79.87521299999999,
          "velocity": 0.12598425196850394
        },
        {
          "duration": 0.37343849583332656,
          "durationTicks": 239,
          "midi": 93,
          "name": "A6",
          "ticks": 51360,
          "time": 80.250214,
          "velocity": 0.12598425196850394
        },
        {
          "duration": 0.37343849583332656,
          "durationTicks": 239,
          "midi": 95,
          "name": "B6",
          "ticks": 51600,
          "time": 80.625215,
          "velocity": 0.12598425196850394
        },
        {
          "duration": 0.37343849583334077,
          "durationTicks": 239,
          "midi": 91,
          "name": "G6",
          "ticks": 52080,
          "time": 81.37521699999999,
          "velocity": 0.12598425196850394
        },
        {
          "duration": 0.37343849583334077,
          "durationTicks": 239,
          "midi": 95,
          "name": "B6",
          "ticks": 52320,
          "time": 81.75021799999999,
          "velocity": 0.12598425196850394
        },
        {
          "duration": 0.37343849583334077,
          "durationTicks": 239,
          "midi": 91,
          "name": "G6",
          "ticks": 52560,
          "time": 82.12521899999999,
          "velocity": 0.12598425196850394
        },
        {
          "duration": 0.37343849583332656,
          "durationTicks": 239,
          "midi": 91,
          "name": "G6",
          "ticks": 53040,
          "time": 82.875221,
          "velocity": 0.12598425196850394
        },
        {
          "duration": 0.37343849583334077,
          "durationTicks": 239,
          "midi": 96,
          "name": "C7",
          "ticks": 53280,
          "time": 83.250222,
          "velocity": 0.12598425196850394
        },
        {
          "duration": 0.37343849583334077,
          "durationTicks": 239,
          "midi": 91,
          "name": "G6",
          "ticks": 53520,
          "time": 83.62522299999999,
          "velocity": 0.12598425196850394
        },
        {
          "duration": 0.37343849583332656,
          "durationTicks": 239,
          "midi": 91,
          "name": "G6",
          "ticks": 54000,
          "time": 84.375225,
          "velocity": 0.12598425196850394
        },
        {
          "duration": 0.37343849583332656,
          "durationTicks": 239,
          "midi": 96,
          "name": "C7",
          "ticks": 54240,
          "time": 84.750226,
          "velocity": 0.12598425196850394
        },
        {
          "duration": 0.37343849583332656,
          "durationTicks": 239,
          "midi": 103,
          "name": "G7",
          "ticks": 54480,
          "time": 85.125227,
          "velocity": 0.12598425196850394
        },
        {
          "duration": 0.37343849583334077,
          "durationTicks": 239,
          "midi": 84,
          "name": "C6",
          "ticks": 54720,
          "time": 85.50022799999999,
          "velocity": 0.12598425196850394
        },
        {
          "duration": 0.37343849583334077,
          "durationTicks": 239,
          "midi": 89,
          "name": "F6",
          "ticks": 54960,
          "time": 85.87522899999999,
          "velocity": 0.12598425196850394
        },
        {
          "duration": 0.37343849583334077,
          "durationTicks": 239,
          "midi": 93,
          "name": "A6",
          "ticks": 55200,
          "time": 86.25022999999999,
          "velocity": 0.12598425196850394
        },
        {
          "duration": 0.37343849583332656,
          "durationTicks": 239,
          "midi": 95,
          "name": "B6",
          "ticks": 55440,
          "time": 86.625231,
          "velocity": 0.12598425196850394
        },
        {
          "duration": 0.37343849583334077,
          "durationTicks": 239,
          "midi": 91,
          "name": "G6",
          "ticks": 55920,
          "time": 87.375233,
          "velocity": 0.12598425196850394
        },
        {
          "duration": 0.37343849583334077,
          "durationTicks": 239,
          "midi": 95,
          "name": "B6",
          "ticks": 56160,
          "time": 87.75023399999999,
          "velocity": 0.12598425196850394
        },
        {
          "duration": 0.37343849583334077,
          "durationTicks": 239,
          "midi": 91,
          "name": "G6",
          "ticks": 56400,
          "time": 88.12523499999999,
          "velocity": 0.12598425196850394
        },
        {
          "duration": 0.37343849583332656,
          "durationTicks": 239,
          "midi": 91,
          "name": "G6",
          "ticks": 56880,
          "time": 88.875237,
          "velocity": 0.12598425196850394
        },
        {
          "duration": 0.37343849583332656,
          "durationTicks": 239,
          "midi": 96,
          "name": "C7",
          "ticks": 57120,
          "time": 89.250238,
          "velocity": 0.12598425196850394
        },
        {
          "duration": 0.37343849583334077,
          "durationTicks": 239,
          "midi": 91,
          "name": "G6",
          "ticks": 57360,
          "time": 89.625239,
          "velocity": 0.12598425196850394
        },
        {
          "duration": 0.37343849583334077,
          "durationTicks": 239,
          "midi": 91,
          "name": "G6",
          "ticks": 57840,
          "time": 90.37524099999999,
          "velocity": 0.12598425196850394
        },
        {
          "duration": 0.37343849583332656,
          "durationTicks": 239,
          "midi": 96,
          "name": "C7",
          "ticks": 58080,
          "time": 90.750242,
          "velocity": 0.12598425196850394
        },
        {
          "duration": 0.37343849583332656,
          "durationTicks": 239,
          "midi": 103,
          "name": "G7",
          "ticks": 58320,
          "time": 91.125243,
          "velocity": 0.12598425196850394
        },
        {
          "duration": 0.37343849583332656,
          "durationTicks": 239,
          "midi": 84,
          "name": "C6",
          "ticks": 58560,
          "time": 91.500244,
          "velocity": 0.12598425196850394
        },
        {
          "duration": 0.37343849583334077,
          "durationTicks": 239,
          "midi": 89,
          "name": "F6",
          "ticks": 58800,
          "time": 91.87524499999999,
          "velocity": 0.12598425196850394
        },
        {
          "duration": 0.37343849583334077,
          "durationTicks": 239,
          "midi": 93,
          "name": "A6",
          "ticks": 59040,
          "time": 92.25024599999999,
          "velocity": 0.12598425196850394
        },
        {
          "duration": 0.37343849583334077,
          "durationTicks": 239,
          "midi": 95,
          "name": "B6",
          "ticks": 59280,
          "time": 92.62524699999999,
          "velocity": 0.12598425196850394
        }
      ]
    },
    {
      "channel": 0,
      "controlChanges": {
        "7": [
          {
            "number": 7,
            "ticks": 0,
            "time": 0,
            "value": 0.7874015748031497
          }
        ],
        "10": [
          {
            "number": 10,
            "ticks": 0,
            "time": 0,
            "value": 0.5039370078740157
          }
        ],
        "91": [
          {
            "number": 91,
            "ticks": 0,
            "time": 0,
            "value": 0
          }
        ],
        "93": [
          {
            "number": 93,
            "ticks": 0,
            "time": 0,
            "value": 0
          }
        ],
        "121": [
          {
            "number": 121,
            "ticks": 0,
            "time": 0,
            "value": 0
          }
        ]
      },
      "pitchBends": [],
      "instrument": {
        "family": "piano",
        "number": 0,
        "name": "acoustic grand piano"
      },
      "name": "Piano\u0000",
      "notes": [
        {
          "duration": 0.7109393958333339,
          "durationTicks": 455,
          "midi": 83,
          "name": "B5",
          "ticks": 7680,
          "time": 12.000032,
          "velocity": 0.6299212598425197
        },
        {
          "duration": 0.35468844583333237,
          "durationTicks": 227,
          "midi": 84,
          "name": "C6",
          "ticks": 9360,
          "time": 14.625039,
          "velocity": 0.6299212598425197
        },
        {
          "duration": 0.7109393958333339,
          "durationTicks": 455,
          "midi": 83,
          "name": "B5",
          "ticks": 9600,
          "time": 15.000039999999998,
          "velocity": 0.6299212598425197
        },
        {
          "duration": 0.7109393958333339,
          "durationTicks": 455,
          "midi": 81,
          "name": "A5",
          "ticks": 10080,
          "time": 15.750041999999999,
          "velocity": 0.6299212598425197
        },
        {
          "duration": 0.3546884458333359,
          "durationTicks": 227,
          "midi": 79,
          "name": "G5",
          "ticks": 11040,
          "time": 17.250045999999998,
          "velocity": 0.6299212598425197
        },
        {
          "duration": 0.35468844583333237,
          "durationTicks": 227,
          "midi": 77,
          "name": "F5",
          "ticks": 11280,
          "time": 17.625047,
          "velocity": 0.6299212598425197
        },
        {
          "duration": 0.7109393958333321,
          "durationTicks": 455,
          "midi": 76,
          "name": "E5",
          "ticks": 11520,
          "time": 18.000048,
          "velocity": 0.6299212598425197
        },
        {
          "duration": 0.35468844583333237,
          "durationTicks": 227,
          "midi": 74,
          "name": "D5",
          "ticks": 13200,
          "time": 20.625055,
          "velocity": 0.6299212598425197
        },
        {
          "duration": 0.7109393958333357,
          "durationTicks": 455,
          "midi": 72,
          "name": "C5",
          "ticks": 13440,
          "time": 21.000055999999997,
          "velocity": 0.6299212598425197
        },
        {
          "duration": 0.7484394958333347,
          "durationTicks": 479,
          "midi": 79,
          "name": "G5",
          "ticks": 15360,
          "time": 24.000064,
          "velocity": 0.6299212598425197
        },
        {
          "duration": 0.6812518166666663,
          "durationTicks": 436,
          "midi": 83,
          "name": "B5",
          "ticks": 15402,
          "time": 24.065689174999996,
          "velocity": 0.6299212598425197
        },
        {
          "duration": 0.3546884458333359,
          "durationTicks": 227,
          "midi": 79,
          "name": "G5",
          "ticks": 17040,
          "time": 26.625071,
          "velocity": 0.6299212598425197
        },
        {
          "duration": 0.3546884458333359,
          "durationTicks": 227,
          "midi": 84,
          "name": "C6",
          "ticks": 17040,
          "time": 26.625071,
          "velocity": 0.6299212598425197
        },
        {
          "duration": 0.7109393958333285,
          "durationTicks": 455,
          "midi": 79,
          "name": "G5",
          "ticks": 17280,
          "time": 27.000072,
          "velocity": 0.6299212598425197
        },
        {
          "duration": 0.7109393958333285,
          "durationTicks": 455,
          "midi": 83,
          "name": "B5",
          "ticks": 17280,
          "time": 27.000072,
          "velocity": 0.6299212598425197
        },
        {
          "duration": 0.7109393958333321,
          "durationTicks": 455,
          "midi": 77,
          "name": "F5",
          "ticks": 17760,
          "time": 27.750073999999998,
          "velocity": 0.6299212598425197
        },
        {
          "duration": 0.7109393958333321,
          "durationTicks": 455,
          "midi": 81,
          "name": "A5",
          "ticks": 17760,
          "time": 27.750073999999998,
          "velocity": 0.6299212598425197
        },
        {
          "duration": 0.3546884458333359,
          "durationTicks": 227,
          "midi": 79,
          "name": "G5",
          "ticks": 18720,
          "time": 29.250078,
          "velocity": 0.6299212598425197
        },
        {
          "duration": 0.3546884458333359,
          "durationTicks": 227,
          "midi": 77,
          "name": "F5",
          "ticks": 18960,
          "time": 29.625079,
          "velocity": 0.6299212598425197
        },
        {
          "duration": 0.7109393958333321,
          "durationTicks": 455,
          "midi": 76,
          "name": "E5",
          "ticks": 19200,
          "time": 30.000079999999997,
          "velocity": 0.6299212598425197
        },
        {
          "duration": 0.35468844583333947,
          "durationTicks": 227,
          "midi": 91,
          "name": "G6",
          "ticks": 20640,
          "time": 32.250085999999996,
          "velocity": 0.6299212598425197
        },
        {
          "duration": 0.35468844583333237,
          "durationTicks": 227,
          "midi": 89,
          "name": "F6",
          "ticks": 20880,
          "time": 32.625087,
          "velocity": 0.6299212598425197
        },
        {
          "duration": 1.0671903458333318,
          "durationTicks": 683,
          "midi": 84,
          "name": "C6",
          "ticks": 21120,
          "time": 33.000088,
          "velocity": 0.6299212598425197
        },
        {
          "duration": 1.0671903458333318,
          "durationTicks": 683,
          "midi": 88,
          "name": "E6",
          "ticks": 21120,
          "time": 33.000088,
          "velocity": 0.6299212598425197
        },
        {
          "duration": 1.0671903458333318,
          "durationTicks": 683,
          "midi": 83,
          "name": "B5",
          "ticks": 21840,
          "time": 34.125091,
          "velocity": 0.6299212598425197
        },
        {
          "duration": 1.0671903458333318,
          "durationTicks": 683,
          "midi": 86,
          "name": "D6",
          "ticks": 21840,
          "time": 34.125091,
          "velocity": 0.6299212598425197
        },
        {
          "duration": 0.7109393958333285,
          "durationTicks": 455,
          "midi": 81,
          "name": "A5",
          "ticks": 22560,
          "time": 35.250094,
          "velocity": 0.6299212598425197
        },
        {
          "duration": 0.7109393958333285,
          "durationTicks": 455,
          "midi": 84,
          "name": "C6",
          "ticks": 22560,
          "time": 35.250094,
          "velocity": 0.6299212598425197
        },
        {
          "duration": 0.7109393958333285,
          "durationTicks": 455,
          "midi": 79,
          "name": "G5",
          "ticks": 23040,
          "time": 36.000096,
          "velocity": 0.6299212598425197
        },
        {
          "duration": 0.7109393958333285,
          "durationTicks": 455,
          "midi": 83,
          "name": "B5",
          "ticks": 23040,
          "time": 36.000096,
          "velocity": 0.6299212598425197
        },
        {
          "duration": 0.06250016666667335,
          "durationTicks": 40,
          "midi": 85,
          "name": "C#6",
          "ticks": 23520,
          "time": 36.750097999999994,
          "velocity": 0.6299212598425197
        },
        {
          "duration": 0.2921882791666661,
          "durationTicks": 187,
          "midi": 86,
          "name": "D6",
          "ticks": 23561,
          "time": 36.81416067083333,
          "velocity": 0.6299212598425197
        },
        {
          "duration": 0.35468844583333237,
          "durationTicks": 227,
          "midi": 86,
          "name": "D6",
          "ticks": 23760,
          "time": 37.125099,
          "velocity": 0.6299212598425197
        },
        {
          "duration": 0.17656297083333072,
          "durationTicks": 113,
          "midi": 83,
          "name": "B5",
          "ticks": 25200,
          "time": 39.375105,
          "velocity": 0.6299212598425197
        },
        {
          "duration": 0.17656297083333072,
          "durationTicks": 113,
          "midi": 84,
          "name": "C6",
          "ticks": 25320,
          "time": 39.5626055,
          "velocity": 0.6299212598425197
        },
        {
          "duration": 0.35468844583333947,
          "durationTicks": 227,
          "midi": 86,
          "name": "D6",
          "ticks": 25440,
          "time": 39.750105999999995,
          "velocity": 0.6299212598425197
        },
        {
          "duration": 0.35468844583333237,
          "durationTicks": 227,
          "midi": 81,
          "name": "A5",
          "ticks": 25680,
          "time": 40.125107,
          "velocity": 0.6299212598425197
        },
        {
          "duration": 0.35468844583333237,
          "durationTicks": 227,
          "midi": 79,
          "name": "G5",
          "ticks": 26400,
          "time": 41.25011,
          "velocity": 0.6299212598425197
        },
        {
          "duration": 0.35468844583333947,
          "durationTicks": 227,
          "midi": 81,
          "name": "A5",
          "ticks": 26640,
          "time": 41.625111,
          "velocity": 0.6299212598425197
        },
        {
          "duration": 0.35468844583333947,
          "durationTicks": 227,
          "midi": 83,
          "name": "B5",
          "ticks": 26880,
          "time": 42.000111999999994,
          "velocity": 0.6299212598425197
        },
        {
          "duration": 0.35468844583333237,
          "durationTicks": 227,
          "midi": 79,
          "name": "G5",
          "ticks": 27120,
          "time": 42.375113,
          "velocity": 0.6299212598425197
        },
        {
          "duration": 0.35468844583333947,
          "durationTicks": 227,
          "midi": 74,
          "name": "D5",
          "ticks": 27360,
          "time": 42.750113999999996,
          "velocity": 0.6299212598425197
        },
        {
          "duration": 0.06250016666665914,
          "durationTicks": 40,
          "midi": 85,
          "name": "C#6",
          "ticks": 31200,
          "time": 48.75013,
          "velocity": 0.6299212598425197
        },
        {
          "duration": 0.2921882791666732,
          "durationTicks": 187,
          "midi": 86,
          "name": "D6",
          "ticks": 31241,
          "time": 48.81419267083332,
          "velocity": 0.6299212598425197
        },
        {
          "duration": 0.35468844583333237,
          "durationTicks": 227,
          "midi": 86,
          "name": "D6",
          "ticks": 31440,
          "time": 49.125130999999996,
          "velocity": 0.6299212598425197
        },
        {
          "duration": 0.17656297083333072,
          "durationTicks": 113,
          "midi": 83,
          "name": "B5",
          "ticks": 32880,
          "time": 51.375136999999995,
          "velocity": 0.6299212598425197
        },
        {
          "duration": 0.17656297083333783,
          "durationTicks": 113,
          "midi": 84,
          "name": "C6",
          "ticks": 33000,
          "time": 51.562637499999994,
          "velocity": 0.6299212598425197
        },
        {
          "duration": 0.35468844583332526,
          "durationTicks": 227,
          "midi": 86,
          "name": "D6",
          "ticks": 33120,
          "time": 51.750138,
          "velocity": 0.6299212598425197
        },
        {
          "duration": 0.35468844583333237,
          "durationTicks": 227,
          "midi": 81,
          "name": "A5",
          "ticks": 33360,
          "time": 52.125139,
          "velocity": 0.6299212598425197
        },
        {
          "duration": 0.35468844583333237,
          "durationTicks": 227,
          "midi": 79,
          "name": "G5",
          "ticks": 34080,
          "time": 53.250142,
          "velocity": 0.6299212598425197
        },
        {
          "duration": 0.35468844583333237,
          "durationTicks": 227,
          "midi": 81,
          "name": "A5",
          "ticks": 34320,
          "time": 53.625142999999994,
          "velocity": 0.6299212598425197
        },
        {
          "duration": 1.423441295833328,
          "durationTicks": 911,
          "midi": 82,
          "name": "A#5",
          "ticks": 34560,
          "time": 54.000144,
          "velocity": 0.6299212598425197
        },
        {
          "duration": 0.35468844583333237,
          "durationTicks": 227,
          "midi": 82,
          "name": "A#5",
          "ticks": 35760,
          "time": 55.87514899999999,
          "velocity": 0.6299212598425197
        },
        {
          "duration": 0.35468844583332526,
          "durationTicks": 227,
          "midi": 84,
          "name": "C6",
          "ticks": 36000,
          "time": 56.25015,
          "velocity": 0.6299212598425197
        },
        {
          "duration": 0.35468844583333237,
          "durationTicks": 227,
          "midi": 82,
          "name": "A#5",
          "ticks": 36240,
          "time": 56.625150999999995,
          "velocity": 0.6299212598425197
        },
        {
          "duration": 0.7109393958333428,
          "durationTicks": 455,
          "midi": 81,
          "name": "A5",
          "ticks": 36480,
          "time": 57.00015199999999,
          "velocity": 0.6299212598425197
        },
        {
          "duration": 0.7109393958333357,
          "durationTicks": 455,
          "midi": 81,
          "name": "A5",
          "ticks": 37920,
          "time": 59.250158,
          "velocity": 0.6299212598425197
        },
        {
          "duration": 1.0671903458333318,
          "durationTicks": 683,
          "midi": 79,
          "name": "G5",
          "ticks": 38400,
          "time": 60.000159999999994,
          "velocity": 0.6299212598425197
        },
        {
          "duration": 1.0671903458333318,
          "durationTicks": 683,
          "midi": 77,
          "name": "F5",
          "ticks": 39120,
          "time": 61.12516299999999,
          "velocity": 0.6299212598425197
        },
        {
          "duration": 0.7109393958333428,
          "durationTicks": 455,
          "midi": 74,
          "name": "D5",
          "ticks": 39840,
          "time": 62.25016599999999,
          "velocity": 0.6299212598425197
        },
        {
          "duration": 1.0671903458333318,
          "durationTicks": 683,
          "midi": 81,
          "name": "A5",
          "ticks": 40320,
          "time": 63.000167999999995,
          "velocity": 0.6299212598425197
        },
        {
          "duration": 1.067190345833339,
          "durationTicks": 683,
          "midi": 72,
          "name": "C5",
          "ticks": 41040,
          "time": 64.125171,
          "velocity": 0.6299212598425197
        },
        {
          "duration": 1.067190345833339,
          "durationTicks": 683,
          "midi": 77,
          "name": "F5",
          "ticks": 41040,
          "time": 64.125171,
          "velocity": 0.6299212598425197
        },
        {
          "duration": 0.7109393958333357,
          "durationTicks": 455,
          "midi": 81,
          "name": "A5",
          "ticks": 41760,
          "time": 65.250174,
          "velocity": 0.6299212598425197
        },
        {
          "duration": 0.7109393958333357,
          "durationTicks": 455,
          "midi": 83,
          "name": "B5",
          "ticks": 42240,
          "time": 66.000176,
          "velocity": 0.6299212598425197
        }
      ],
      "endOfTrackTicks": 42696
    },
    {
      "channel": 0,
      "controlChanges": {},
      "pitchBends": [],
      "instrument": {
        "family": "piano",
        "number": 0,
        "name": "acoustic grand piano"
      },
      "name": "Piano\u0000",
      "notes": [
        {
          "duration": 2.848445095833333,
          "durationTicks": 1823,
          "midi": 43,
          "name": "G2",
          "ticks": 0,
          "time": 0,
          "velocity": 0.6299212598425197
        },
        {
          "duration": 2.492194145833333,
          "durationTicks": 1595,
          "midi": 50,
          "name": "D3",
          "ticks": 240,
          "time": 0.375001,
          "velocity": 0.6299212598425197
        },
        {
          "duration": 2.1359431958333333,
          "durationTicks": 1367,
          "midi": 57,
          "name": "A3",
          "ticks": 480,
          "time": 0.750002,
          "velocity": 0.6299212598425197
        },
        {
          "duration": 1.779692245833333,
          "durationTicks": 1139,
          "midi": 59,
          "name": "B3",
          "ticks": 720,
          "time": 1.125003,
          "velocity": 0.6299212598425197
        },
        {
          "duration": 2.8484450958333327,
          "durationTicks": 1823,
          "midi": 41,
          "name": "F2",
          "ticks": 1920,
          "time": 3.000008,
          "velocity": 0.6299212598425197
        },
        {
          "duration": 2.492194145833333,
          "durationTicks": 1595,
          "midi": 48,
          "name": "C3",
          "ticks": 2160,
          "time": 3.375009,
          "velocity": 0.6299212598425197
        },
        {
          "duration": 2.135943195833333,
          "durationTicks": 1367,
          "midi": 55,
          "name": "G3",
          "ticks": 2400,
          "time": 3.7500099999999996,
          "velocity": 0.6299212598425197
        },
        {
          "duration": 1.779692245833333,
          "durationTicks": 1139,
          "midi": 57,
          "name": "A3",
          "ticks": 2640,
          "time": 4.125011,
          "velocity": 0.6299212598425197
        },
        {
          "duration": 2.848445095833333,
          "durationTicks": 1823,
          "midi": 43,
          "name": "G2",
          "ticks": 3840,
          "time": 6.000016,
          "velocity": 0.6299212598425197
        },
        {
          "duration": 2.4921941458333325,
          "durationTicks": 1595,
          "midi": 50,
          "name": "D3",
          "ticks": 4080,
          "time": 6.375017,
          "velocity": 0.6299212598425197
        },
        {
          "duration": 2.135943195833332,
          "durationTicks": 1367,
          "midi": 57,
          "name": "A3",
          "ticks": 4320,
          "time": 6.750018,
          "velocity": 0.6299212598425197
        },
        {
          "duration": 1.779692245833334,
          "durationTicks": 1139,
          "midi": 59,
          "name": "B3",
          "ticks": 4560,
          "time": 7.125018999999999,
          "velocity": 0.6299212598425197
        },
        {
          "duration": 2.848445095833334,
          "durationTicks": 1823,
          "midi": 41,
          "name": "F2",
          "ticks": 5760,
          "time": 9.000024,
          "velocity": 0.6299212598425197
        },
        {
          "duration": 2.4921941458333325,
          "durationTicks": 1595,
          "midi": 48,
          "name": "C3",
          "ticks": 6000,
          "time": 9.375024999999999,
          "velocity": 0.6299212598425197
        },
        {
          "duration": 2.135943195833333,
          "durationTicks": 1367,
          "midi": 55,
          "name": "G3",
          "ticks": 6240,
          "time": 9.750026,
          "velocity": 0.6299212598425197
        },
        {
          "duration": 1.779692245833333,
          "durationTicks": 1139,
          "midi": 57,
          "name": "A3",
          "ticks": 6480,
          "time": 10.125027,
          "velocity": 0.6299212598425197
        },
        {
          "duration": 2.8484450958333323,
          "durationTicks": 1823,
          "midi": 43,
          "name": "G2",
          "ticks": 7680,
          "time": 12.000032,
          "velocity": 0.6299212598425197
        },
        {
          "duration": 2.4921941458333343,
          "durationTicks": 1595,
          "midi": 50,
          "name": "D3",
          "ticks": 7920,
          "time": 12.375032999999998,
          "velocity": 0.6299212598425197
        },
        {
          "duration": 2.135943195833333,
          "durationTicks": 1367,
          "midi": 57,
          "name": "A3",
          "ticks": 8160,
          "time": 12.750034,
          "velocity": 0.6299212598425197
        },
        {
          "duration": 1.779692245833333,
          "durationTicks": 1139,
          "midi": 59,
          "name": "B3",
          "ticks": 8400,
          "time": 13.125034999999999,
          "velocity": 0.6299212598425197
        },
        {
          "duration": 2.848445095833334,
          "durationTicks": 1823,
          "midi": 41,
          "name": "F2",
          "ticks": 9600,
          "time": 15.000039999999998,
          "velocity": 0.6299212598425197
        },
        {
          "duration": 2.4921941458333343,
          "durationTicks": 1595,
          "midi": 48,
          "name": "C3",
          "ticks": 9840,
          "time": 15.375041,
          "velocity": 0.6299212598425197
        },
        {
          "duration": 2.135943195833333,
          "durationTicks": 1367,
          "midi": 55,
          "name": "G3",
          "ticks": 10080,
          "time": 15.750041999999999,
          "velocity": 0.6299212598425197
        },
        {
          "duration": 1.7796922458333313,
          "durationTicks": 1139,
          "midi": 57,
          "name": "A3",
          "ticks": 10320,
          "time": 16.125042999999998,
          "velocity": 0.6299212598425197
        },
        {
          "duration": 2.8484450958333305,
          "durationTicks": 1823,
          "midi": 43,
          "name": "G2",
          "ticks": 11520,
          "time": 18.000048,
          "velocity": 0.6299212598425197
        },
        {
          "duration": 2.4921941458333343,
          "durationTicks": 1595,
          "midi": 50,
          "name": "D3",
          "ticks": 11760,
          "time": 18.375048999999997,
          "velocity": 0.6299212598425197
        },
        {
          "duration": 2.1359431958333346,
          "durationTicks": 1367,
          "midi": 57,
          "name": "A3",
          "ticks": 12000,
          "time": 18.750049999999998,
          "velocity": 0.6299212598425197
        },
        {
          "duration": 1.7796922458333313,
          "durationTicks": 1139,
          "midi": 59,
          "name": "B3",
          "ticks": 12240,
          "time": 19.125051,
          "velocity": 0.6299212598425197
        },
        {
          "duration": 2.848445095833334,
          "durationTicks": 1823,
          "midi": 41,
          "name": "F2",
          "ticks": 13440,
          "time": 21.000055999999997,
          "velocity": 0.6299212598425197
        },
        {
          "duration": 2.4921941458333343,
          "durationTicks": 1595,
          "midi": 48,
          "name": "C3",
          "ticks": 13680,
          "time": 21.375056999999998,
          "velocity": 0.6299212598425197
        },
        {
          "duration": 2.135943195833331,
          "durationTicks": 1367,
          "midi": 55,
          "name": "G3",
          "ticks": 13920,
          "time": 21.750058,
          "velocity": 0.6299212598425197
        },
        {
          "duration": 1.7796922458333349,
          "durationTicks": 1139,
          "midi": 57,
          "name": "A3",
          "ticks": 14160,
          "time": 22.125058999999997,
          "velocity": 0.6299212598425197
        },
        {
          "duration": 2.848445095833334,
          "durationTicks": 1823,
          "midi": 43,
          "name": "G2",
          "ticks": 15360,
          "time": 24.000064,
          "velocity": 0.6299212598425197
        },
        {
          "duration": 2.4921941458333308,
          "durationTicks": 1595,
          "midi": 50,
          "name": "D3",
          "ticks": 15600,
          "time": 24.375065,
          "velocity": 0.6299212598425197
        },
        {
          "duration": 2.135943195833338,
          "durationTicks": 1367,
          "midi": 57,
          "name": "A3",
          "ticks": 15840,
          "time": 24.750065999999997,
          "velocity": 0.6299212598425197
        },
        {
          "duration": 1.7796922458333349,
          "durationTicks": 1139,
          "midi": 59,
          "name": "B3",
          "ticks": 16080,
          "time": 25.125066999999998,
          "velocity": 0.6299212598425197
        },
        {
          "duration": 2.8484450958333305,
          "durationTicks": 1823,
          "midi": 41,
          "name": "F2",
          "ticks": 17280,
          "time": 27.000072,
          "velocity": 0.6299212598425197
        },
        {
          "duration": 2.4921941458333343,
          "durationTicks": 1595,
          "midi": 48,
          "name": "C3",
          "ticks": 17520,
          "time": 27.375072999999997,
          "velocity": 0.6299212598425197
        },
        {
          "duration": 2.1359431958333346,
          "durationTicks": 1367,
          "midi": 55,
          "name": "G3",
          "ticks": 17760,
          "time": 27.750073999999998,
          "velocity": 0.6299212598425197
        },
        {
          "duration": 1.7796922458333349,
          "durationTicks": 1139,
          "midi": 57,
          "name": "A3",
          "ticks": 18000,
          "time": 28.125075,
          "velocity": 0.6299212598425197
        },
        {
          "duration": 2.848445095833334,
          "durationTicks": 1823,
          "midi": 43,
          "name": "G2",
          "ticks": 19200,
          "time": 30.000079999999997,
          "velocity": 0.6299212598425197
        },
        {
          "duration": 2.4921941458333343,
          "durationTicks": 1595,
          "midi": 50,
          "name": "D3",
          "ticks": 19440,
          "time": 30.375080999999998,
          "velocity": 0.6299212598425197
        },
        {
          "duration": 2.1359431958333346,
          "durationTicks": 1367,
          "midi": 57,
          "name": "A3",
          "ticks": 19680,
          "time": 30.750082,
          "velocity": 0.6299212598425197
        },
        {
          "duration": 1.7796922458333384,
          "durationTicks": 1139,
          "midi": 59,
          "name": "B3",
          "ticks": 19920,
          "time": 31.125082999999997,
          "velocity": 0.6299212598425197
        },
        {
          "duration": 2.848445095833334,
          "durationTicks": 1823,
          "midi": 41,
          "name": "F2",
          "ticks": 21120,
          "time": 33.000088,
          "velocity": 0.6299212598425197
        },
        {
          "duration": 2.4921941458333308,
          "durationTicks": 1595,
          "midi": 48,
          "name": "C3",
          "ticks": 21360,
          "time": 33.375088999999996,
          "velocity": 0.6299212598425197
        },
        {
          "duration": 2.1359431958333346,
          "durationTicks": 1367,
          "midi": 55,
          "name": "G3",
          "ticks": 21600,
          "time": 33.75009,
          "velocity": 0.6299212598425197
        },
        {
          "duration": 1.7796922458333313,
          "durationTicks": 1139,
          "midi": 57,
          "name": "A3",
          "ticks": 21840,
          "time": 34.125091,
          "velocity": 0.6299212598425197
        },
        {
          "duration": 2.848445095833334,
          "durationTicks": 1823,
          "midi": 43,
          "name": "G2",
          "ticks": 23040,
          "time": 36.000096,
          "velocity": 0.6299212598425197
        },
        {
          "duration": 2.4921941458333308,
          "durationTicks": 1595,
          "midi": 50,
          "name": "D3",
          "ticks": 23280,
          "time": 36.375097,
          "velocity": 0.6299212598425197
        },
        {
          "duration": 2.1359431958333417,
          "durationTicks": 1367,
          "midi": 57,
          "name": "A3",
          "ticks": 23520,
          "time": 36.750097999999994,
          "velocity": 0.6299212598425197
        },
        {
          "duration": 1.7796922458333313,
          "durationTicks": 1139,
          "midi": 59,
          "name": "B3",
          "ticks": 23760,
          "time": 37.125099,
          "velocity": 0.6299212598425197
        },
        {
          "duration": 2.848445095833327,
          "durationTicks": 1823,
          "midi": 41,
          "name": "F2",
          "ticks": 24960,
          "time": 39.000104,
          "velocity": 0.6299212598425197
        },
        {
          "duration": 2.4921941458333308,
          "durationTicks": 1595,
          "midi": 48,
          "name": "C3",
          "ticks": 25200,
          "time": 39.375105,
          "velocity": 0.6299212598425197
        },
        {
          "duration": 2.1359431958333346,
          "durationTicks": 1367,
          "midi": 55,
          "name": "G3",
          "ticks": 25440,
          "time": 39.750105999999995,
          "velocity": 0.6299212598425197
        },
        {
          "duration": 1.7796922458333313,
          "durationTicks": 1139,
          "midi": 57,
          "name": "A3",
          "ticks": 25680,
          "time": 40.125107,
          "velocity": 0.6299212598425197
        },
        {
          "duration": 2.848445095833334,
          "durationTicks": 1823,
          "midi": 43,
          "name": "G2",
          "ticks": 26880,
          "time": 42.000111999999994,
          "velocity": 0.6299212598425197
        },
        {
          "duration": 2.4921941458333308,
          "durationTicks": 1595,
          "midi": 50,
          "name": "D3",
          "ticks": 27120,
          "time": 42.375113,
          "velocity": 0.6299212598425197
        },
        {
          "duration": 2.1359431958333346,
          "durationTicks": 1367,
          "midi": 57,
          "name": "A3",
          "ticks": 27360,
          "time": 42.750113999999996,
          "velocity": 0.6299212598425197
        },
        {
          "duration": 1.7796922458333384,
          "durationTicks": 1139,
          "midi": 59,
          "name": "B3",
          "ticks": 27600,
          "time": 43.125114999999994,
          "velocity": 0.6299212598425197
        },
        {
          "duration": 2.848445095833334,
          "durationTicks": 1823,
          "midi": 41,
          "name": "F2",
          "ticks": 28800,
          "time": 45.000119999999995,
          "velocity": 0.6299212598425197
        },
        {
          "duration": 2.4921941458333308,
          "durationTicks": 1595,
          "midi": 48,
          "name": "C3",
          "ticks": 29040,
          "time": 45.375121,
          "velocity": 0.6299212598425197
        },
        {
          "duration": 2.1359431958333346,
          "durationTicks": 1367,
          "midi": 55,
          "name": "G3",
          "ticks": 29280,
          "time": 45.750122,
          "velocity": 0.6299212598425197
        },
        {
          "duration": 1.7796922458333384,
          "durationTicks": 1139,
          "midi": 57,
          "name": "A3",
          "ticks": 29520,
          "time": 46.125122999999995,
          "velocity": 0.6299212598425197
        },
        {
          "duration": 2.848445095833334,
          "durationTicks": 1823,
          "midi": 43,
          "name": "G2",
          "ticks": 30720,
          "time": 48.000128,
          "velocity": 0.6299212598425197
        },
        {
          "duration": 2.492194145833338,
          "durationTicks": 1595,
          "midi": 50,
          "name": "D3",
          "ticks": 30960,
          "time": 48.375128999999994,
          "velocity": 0.6299212598425197
        },
        {
          "duration": 2.1359431958333275,
          "durationTicks": 1367,
          "midi": 57,
          "name": "A3",
          "ticks": 31200,
          "time": 48.75013,
          "velocity": 0.6299212598425197
        },
        {
          "duration": 1.7796922458333384,
          "durationTicks": 1139,
          "midi": 59,
          "name": "B3",
          "ticks": 31440,
          "time": 49.125130999999996,
          "velocity": 0.6299212598425197
        },
        {
          "duration": 2.848445095833334,
          "durationTicks": 1823,
          "midi": 41,
          "name": "F2",
          "ticks": 32640,
          "time": 51.000136,
          "velocity": 0.6299212598425197
        },
        {
          "duration": 2.492194145833338,
          "durationTicks": 1595,
          "midi": 48,
          "name": "C3",
          "ticks": 32880,
          "time": 51.375136999999995,
          "velocity": 0.6299212598425197
        },
        {
          "duration": 2.1359431958333275,
          "durationTicks": 1367,
          "midi": 55,
          "name": "G3",
          "ticks": 33120,
          "time": 51.750138,
          "velocity": 0.6299212598425197
        },
        {
          "duration": 1.7796922458333313,
          "durationTicks": 1139,
          "midi": 57,
          "name": "A3",
          "ticks": 33360,
          "time": 52.125139,
          "velocity": 0.6299212598425197
        },
        {
          "duration": 2.848445095833327,
          "durationTicks": 1823,
          "midi": 39,
          "name": "D#2",
          "ticks": 34560,
          "time": 54.000144,
          "velocity": 0.6299212598425197
        },
        {
          "duration": 2.848445095833327,
          "durationTicks": 1823,
          "midi": 46,
          "name": "A#2",
          "ticks": 34560,
          "time": 54.000144,
          "velocity": 0.6299212598425197
        },
        {
          "duration": 2.848445095833327,
          "durationTicks": 1823,
          "midi": 53,
          "name": "F3",
          "ticks": 34560,
          "time": 54.000144,
          "velocity": 0.6299212598425197
        },
        {
          "duration": 2.848445095833327,
          "durationTicks": 1823,
          "midi": 55,
          "name": "G3",
          "ticks": 34560,
          "time": 54.000144,
          "velocity": 0.6299212598425197
        },
        {
          "duration": 2.848445095833334,
          "durationTicks": 1823,
          "midi": 41,
          "name": "F2",
          "ticks": 36480,
          "time": 57.00015199999999,
          "velocity": 0.6299212598425197
        },
        {
          "duration": 2.848445095833334,
          "durationTicks": 1823,
          "midi": 48,
          "name": "C3",
          "ticks": 36480,
          "time": 57.00015199999999,
          "velocity": 0.6299212598425197
        },
        {
          "duration": 2.848445095833334,
          "durationTicks": 1823,
          "midi": 55,
          "name": "G3",
          "ticks": 36480,
          "time": 57.00015199999999,
          "velocity": 0.6299212598425197
        },
        {
          "duration": 2.848445095833334,
          "durationTicks": 1823,
          "midi": 57,
          "name": "A3",
          "ticks": 36480,
          "time": 57.00015199999999,
          "velocity": 0.6299212598425197
        },
        {
          "duration": 2.848445095833334,
          "durationTicks": 1823,
          "midi": 39,
          "name": "D#2",
          "ticks": 38400,
          "time": 60.000159999999994,
          "velocity": 0.6299212598425197
        },
        {
          "duration": 2.848445095833334,
          "durationTicks": 1823,
          "midi": 46,
          "name": "A#2",
          "ticks": 38400,
          "time": 60.000159999999994,
          "velocity": 0.6299212598425197
        },
        {
          "duration": 2.848445095833334,
          "durationTicks": 1823,
          "midi": 53,
          "name": "F3",
          "ticks": 38400,
          "time": 60.000159999999994,
          "velocity": 0.6299212598425197
        },
        {
          "duration": 2.848445095833334,
          "durationTicks": 1823,
          "midi": 55,
          "name": "G3",
          "ticks": 38400,
          "time": 60.000159999999994,
          "velocity": 0.6299212598425197
        },
        {
          "duration": 2.848445095833334,
          "durationTicks": 1823,
          "midi": 41,
          "name": "F2",
          "ticks": 40320,
          "time": 63.000167999999995,
          "velocity": 0.6299212598425197
        },
        {
          "duration": 2.848445095833334,
          "durationTicks": 1823,
          "midi": 48,
          "name": "C3",
          "ticks": 40320,
          "time": 63.000167999999995,
          "velocity": 0.6299212598425197
        },
        {
          "duration": 2.848445095833334,
          "durationTicks": 1823,
          "midi": 55,
          "name": "G3",
          "ticks": 40320,
          "time": 63.000167999999995,
          "velocity": 0.6299212598425197
        },
        {
          "duration": 2.848445095833334,
          "durationTicks": 1823,
          "midi": 57,
          "name": "A3",
          "ticks": 40320,
          "time": 63.000167999999995,
          "velocity": 0.6299212598425197
        },
        {
          "duration": 2.848445095833327,
          "durationTicks": 1823,
          "midi": 43,
          "name": "G2",
          "ticks": 42240,
          "time": 66.000176,
          "velocity": 0.6299212598425197
        },
        {
          "duration": 2.492194145833338,
          "durationTicks": 1595,
          "midi": 50,
          "name": "D3",
          "ticks": 42480,
          "time": 66.375177,
          "velocity": 0.6299212598425197
        },
        {
          "duration": 2.1359431958333346,
          "durationTicks": 1367,
          "midi": 57,
          "name": "A3",
          "ticks": 42720,
          "time": 66.75017799999999,
          "velocity": 0.6299212598425197
        },
        {
          "duration": 1.7796922458333455,
          "durationTicks": 1139,
          "midi": 59,
          "name": "B3",
          "ticks": 42960,
          "time": 67.12517899999999,
          "velocity": 0.6299212598425197
        },
        {
          "duration": 2.848445095833341,
          "durationTicks": 1823,
          "midi": 41,
          "name": "F2",
          "ticks": 44160,
          "time": 69.00018399999999,
          "velocity": 0.6299212598425197
        },
        {
          "duration": 2.4921941458333237,
          "durationTicks": 1595,
          "midi": 48,
          "name": "C3",
          "ticks": 44400,
          "time": 69.375185,
          "velocity": 0.6299212598425197
        },
        {
          "duration": 2.1359431958333204,
          "durationTicks": 1367,
          "midi": 55,
          "name": "G3",
          "ticks": 44640,
          "time": 69.750186,
          "velocity": 0.6299212598425197
        },
        {
          "duration": 1.7796922458333313,
          "durationTicks": 1139,
          "midi": 57,
          "name": "A3",
          "ticks": 44880,
          "time": 70.125187,
          "velocity": 0.6299212598425197
        },
        {
          "duration": 2.848445095833327,
          "durationTicks": 1823,
          "midi": 43,
          "name": "G2",
          "ticks": 46080,
          "time": 72.000192,
          "velocity": 0.6299212598425197
        },
        {
          "duration": 2.492194145833338,
          "durationTicks": 1595,
          "midi": 50,
          "name": "D3",
          "ticks": 46320,
          "time": 72.375193,
          "velocity": 0.6299212598425197
        },
        {
          "duration": 2.1359431958333346,
          "durationTicks": 1367,
          "midi": 57,
          "name": "A3",
          "ticks": 46560,
          "time": 72.750194,
          "velocity": 0.6299212598425197
        },
        {
          "duration": 1.7796922458333455,
          "durationTicks": 1139,
          "midi": 59,
          "name": "B3",
          "ticks": 46800,
          "time": 73.12519499999999,
          "velocity": 0.6299212598425197
        },
        {
          "duration": 2.848445095833341,
          "durationTicks": 1823,
          "midi": 41,
          "name": "F2",
          "ticks": 48000,
          "time": 75.00019999999999,
          "velocity": 0.6299212598425197
        },
        {
          "duration": 2.492194145833338,
          "durationTicks": 1595,
          "midi": 48,
          "name": "C3",
          "ticks": 48240,
          "time": 75.37520099999999,
          "velocity": 0.6299212598425197
        },
        {
          "duration": 2.1359431958333204,
          "durationTicks": 1367,
          "midi": 55,
          "name": "G3",
          "ticks": 48480,
          "time": 75.750202,
          "velocity": 0.6299212598425197
        },
        {
          "duration": 1.7796922458333313,
          "durationTicks": 1139,
          "midi": 57,
          "name": "A3",
          "ticks": 48720,
          "time": 76.125203,
          "velocity": 0.6299212598425197
        },
        {
          "duration": 2.848445095833327,
          "durationTicks": 1823,
          "midi": 43,
          "name": "G2",
          "ticks": 49920,
          "time": 78.000208,
          "velocity": 0.6299212598425197
        },
        {
          "duration": 2.492194145833338,
          "durationTicks": 1595,
          "midi": 50,
          "name": "D3",
          "ticks": 50160,
          "time": 78.375209,
          "velocity": 0.6299212598425197
        },
        {
          "duration": 2.1359431958333346,
          "durationTicks": 1367,
          "midi": 57,
          "name": "A3",
          "ticks": 50400,
          "time": 78.75021,
          "velocity": 0.6299212598425197
        },
        {
          "duration": 1.7796922458333313,
          "durationTicks": 1139,
          "midi": 59,
          "name": "B3",
          "ticks": 50640,
          "time": 79.125211,
          "velocity": 0.6299212598425197
        },
        {
          "duration": 2.848445095833327,
          "durationTicks": 1823,
          "midi": 41,
          "name": "F2",
          "ticks": 51840,
          "time": 81.000216,
          "velocity": 0.6299212598425197
        },
        {
          "duration": 2.492194145833338,
          "durationTicks": 1595,
          "midi": 48,
          "name": "C3",
          "ticks": 52080,
          "time": 81.37521699999999,
          "velocity": 0.6299212598425197
        },
        {
          "duration": 2.1359431958333346,
          "durationTicks": 1367,
          "midi": 55,
          "name": "G3",
          "ticks": 52320,
          "time": 81.75021799999999,
          "velocity": 0.6299212598425197
        },
        {
          "duration": 1.7796922458333455,
          "durationTicks": 1139,
          "midi": 57,
          "name": "A3",
          "ticks": 52560,
          "time": 82.12521899999999,
          "velocity": 0.6299212598425197
        },
        {
          "duration": 2.848445095833341,
          "durationTicks": 1823,
          "midi": 43,
          "name": "G2",
          "ticks": 53760,
          "time": 84.00022399999999,
          "velocity": 0.6299212598425197
        },
        {
          "duration": 2.4921941458333237,
          "durationTicks": 1595,
          "midi": 50,
          "name": "D3",
          "ticks": 54000,
          "time": 84.375225,
          "velocity": 0.6299212598425197
        },
        {
          "duration": 2.1359431958333204,
          "durationTicks": 1367,
          "midi": 57,
          "name": "A3",
          "ticks": 54240,
          "time": 84.750226,
          "velocity": 0.6299212598425197
        },
        {
          "duration": 1.7796922458333313,
          "durationTicks": 1139,
          "midi": 59,
          "name": "B3",
          "ticks": 54480,
          "time": 85.125227,
          "velocity": 0.6299212598425197
        },
        {
          "duration": 2.848445095833327,
          "durationTicks": 1823,
          "midi": 41,
          "name": "F2",
          "ticks": 55680,
          "time": 87.000232,
          "velocity": 0.6299212598425197
        },
        {
          "duration": 2.492194145833338,
          "durationTicks": 1595,
          "midi": 48,
          "name": "C3",
          "ticks": 55920,
          "time": 87.375233,
          "velocity": 0.6299212598425197
        },
        {
          "duration": 2.1359431958333346,
          "durationTicks": 1367,
          "midi": 55,
          "name": "G3",
          "ticks": 56160,
          "time": 87.75023399999999,
          "velocity": 0.6299212598425197
        },
        {
          "duration": 1.7796922458333455,
          "durationTicks": 1139,
          "midi": 57,
          "name": "A3",
          "ticks": 56400,
          "time": 88.12523499999999,
          "velocity": 0.6299212598425197
        },
        {
          "duration": 2.848445095833341,
          "durationTicks": 1823,
          "midi": 43,
          "name": "G2",
          "ticks": 57600,
          "time": 90.00023999999999,
          "velocity": 0.6299212598425197
        },
        {
          "duration": 2.492194145833338,
          "durationTicks": 1595,
          "midi": 50,
          "name": "D3",
          "ticks": 57840,
          "time": 90.37524099999999,
          "velocity": 0.6299212598425197
        },
        {
          "duration": 2.1359431958333204,
          "durationTicks": 1367,
          "midi": 57,
          "name": "A3",
          "ticks": 58080,
          "time": 90.750242,
          "velocity": 0.6299212598425197
        },
        {
          "duration": 1.7796922458333313,
          "durationTicks": 1139,
          "midi": 59,
          "name": "B3",
          "ticks": 58320,
          "time": 91.125243,
          "velocity": 0.6299212598425197
        }
      ],
      "endOfTrackTicks": 59460
    }
  ]
}
